<svg width="415" height="165" viewBox="0 0 415 165" fill="none" xmlns="http://www.w3.org/2000/svg">
<path d="M34.0519 32.4567C36.2015 32.4567 38.3028 31.8193 40.0901 30.625C41.8774 29.4308 43.2705 27.7334 44.093 25.7474C44.9156 23.7614 45.1308 21.5762 44.7114 19.4679C44.2921 17.3596 43.2569 15.4231 41.7369 13.9031C40.2169 12.3832 38.2803 11.3481 36.172 10.9288C34.0637 10.5094 31.8784 10.7247 29.8925 11.5474C27.9066 12.3701 26.2092 13.7631 25.015 15.5505C23.8208 17.3378 23.1835 19.4392 23.1836 21.5887C23.1869 24.4701 24.3331 27.2326 26.3706 29.27C28.4081 31.3074 31.1705 32.4535 34.0519 32.4567ZM34.0519 12.6932C35.8114 12.693 37.5313 13.2146 38.9944 14.1919C40.4574 15.1693 41.5977 16.5585 42.2712 18.184C42.9447 19.8094 43.121 21.5981 42.7779 23.3237C42.4349 25.0494 41.5878 26.6346 40.3438 27.8788C39.0998 29.1231 37.5148 29.9705 35.7893 30.314C34.0637 30.6574 32.275 30.4814 30.6494 29.8083C29.0238 29.1352 27.6343 27.9952 26.6566 26.5324C25.679 25.0696 25.157 23.3498 25.1568 21.5903C25.1591 19.2317 26.0969 16.9703 27.7645 15.3023C29.4321 13.6343 31.6933 12.696 34.0519 12.6932ZM56.767 52.3406L56.4605 51.5189C56.3691 51.2737 56.1842 51.0749 55.9462 50.9662C55.7083 50.8574 55.437 50.8476 55.1918 50.939C54.9467 51.0303 54.7479 51.2153 54.6391 51.4532C54.5304 51.6911 54.5206 51.9625 54.6119 52.2076L54.9192 53.0305C55.5615 54.7508 55.4155 55.0948 55.38 55.1461C55.3445 55.1974 55.0727 55.455 53.2356 55.455H14.8604C13.0296 55.455 12.759 55.199 12.7235 55.1477C12.688 55.0964 12.5424 54.7532 13.1846 53.0349L13.3503 52.5911C15.9823 45.5409 17.3034 42.0032 19.6104 40.3069C21.8893 38.6303 25.4566 38.5546 32.6677 38.5526C32.9293 38.5526 33.1801 38.4487 33.3651 38.2638C33.55 38.0788 33.6539 37.828 33.6539 37.5664C33.6539 37.3049 33.55 37.054 33.3651 36.8691C33.1801 36.6841 32.9293 36.5802 32.6677 36.5802C17.6557 36.5846 17.062 37.0142 11.5038 51.9023L11.3381 52.3457C10.7164 54.0092 10.4383 55.3138 11.1041 56.2732C11.77 57.2325 13.0872 57.4286 14.8616 57.4286H53.2368C55.0147 57.4286 56.335 57.2313 57.0013 56.2724C57.6676 55.3134 57.3887 54.0057 56.767 52.3406Z" fill="white"/>
<path d="M36.3755 37.3849C35.6469 39.3738 34.8765 44.751 43.4229 51.7164C44.8016 52.8391 45.632 53.5168 46.6656 53.5168C47.6991 53.5168 48.5299 52.8391 49.9086 51.7164C58.4566 44.751 57.6846 39.3738 56.956 37.3849C56.5021 36.1336 55.6762 35.0512 54.5891 34.2831C53.5021 33.515 52.2061 33.0978 50.8751 33.0878C50.0499 33.0941 49.238 33.2962 48.5062 33.6775C47.7744 34.0588 47.1435 34.6084 46.6656 35.2811C46.1875 34.6083 45.5564 34.0586 44.8244 33.6773C44.0924 33.2959 43.2802 33.0939 42.4549 33.0878C41.1237 33.0964 39.8272 33.513 38.7402 34.2814C37.6532 35.0497 36.8278 36.1329 36.3755 37.3849ZM45.7275 37.7608C45.7918 37.959 45.9172 38.1317 46.0857 38.2542C46.2542 38.3767 46.4572 38.4427 46.6656 38.4427C46.8739 38.4427 47.0769 38.3767 47.2454 38.2542C47.4139 38.1317 47.5393 37.959 47.6036 37.7608C48.1508 36.074 49.3567 35.0902 50.9118 35.061C51.834 35.0716 52.7306 35.3653 53.4804 35.9023C54.2302 36.4393 54.797 37.1937 55.1039 38.0634C55.687 39.6551 56.227 44.0236 48.6628 50.187C47.7685 50.9152 46.9961 51.5444 46.6656 51.5444C46.335 51.5444 45.561 50.9132 44.6687 50.187C37.1041 44.0236 37.6442 39.6543 38.2272 38.0634C38.5312 37.206 39.0872 36.4605 39.8222 35.9246C40.5573 35.3887 41.4371 35.0874 42.3464 35.0602H42.4194C43.9748 35.0902 45.1803 36.074 45.7291 37.7608H45.7275Z" fill="white"/>
<path d="M42.7069 43.3105L45.34 45.9436C45.525 46.1285 45.7758 46.2324 46.0373 46.2324C46.2988 46.2324 46.5496 46.1285 46.7345 45.9436L50.6225 42.0556C50.8022 41.8696 50.9016 41.6205 50.8993 41.3619C50.8971 41.1033 50.7934 40.856 50.6105 40.6731C50.4277 40.4903 50.1803 40.3866 49.9217 40.3843C49.6631 40.3821 49.414 40.4815 49.228 40.6611L46.0375 43.8517L44.1017 41.916C44.0103 41.8237 43.9016 41.7504 43.7818 41.7003C43.6619 41.6502 43.5334 41.6243 43.4035 41.624C43.2737 41.6237 43.145 41.649 43.025 41.6986C42.9049 41.7481 42.7958 41.8209 42.704 41.9127C42.6121 42.0045 42.5393 42.1136 42.4897 42.2336C42.4402 42.3537 42.4148 42.4823 42.415 42.6122C42.4153 42.742 42.4412 42.8706 42.4913 42.9904C42.5414 43.1103 42.6146 43.219 42.7069 43.3105Z" fill="white"/>
<path d="M124.162 34.3023C124.159 38.0412 125.058 41.7272 126.787 45.0558C128.515 48.3844 131.023 51.2599 134.102 53.445C137.181 55.63 140.744 57.0617 144.496 57.6219C148.248 58.1821 152.081 57.8547 155.679 56.6666C157.265 57.559 159.06 58.0274 160.886 58.0254C161.55 58.0276 162.213 57.9646 162.864 57.8371V57.8423C163.596 58.0025 164.344 58.0829 165.095 58.0821C166.723 58.0644 168.326 57.6907 169.789 56.988C171.252 56.2853 172.539 55.2712 173.556 54.0188C179.593 47.1762 175.273 37.3077 175.086 36.89C175.013 36.7303 174.893 36.5961 174.741 36.5051C174.589 36.4141 174.413 36.3706 174.235 36.3804C173.45 36.4439 172.669 36.5547 171.897 36.7121C172.23 33.5304 171.901 30.3154 170.933 27.2627C169.964 24.2099 168.375 21.3833 166.262 18.9548C164.15 16.5262 161.558 14.5465 158.644 13.1362C155.731 11.7258 152.556 10.9142 149.314 10.7508C146.072 10.5873 142.831 11.0755 139.786 12.1856C136.742 13.2956 133.958 15.0043 131.605 17.2078C129.252 19.4112 127.379 22.0633 126.099 25.0027C124.819 27.9421 124.159 31.1073 124.16 34.3058L124.162 34.3023ZM125.906 34.3023C125.903 29.4219 127.565 24.682 130.626 20.8449C128.941 24.5505 128.627 28.7207 129.738 32.6308C131.239 37.4658 135.728 39.0273 139.688 40.4041C143.505 41.7319 145.846 42.6755 145.846 45.2262C145.846 47.5183 144.983 47.6979 143.789 47.9463C143.301 48.0183 142.829 48.1761 142.398 48.412C141.72 48.8016 140.925 48.946 140.15 48.8205C139.376 48.695 138.67 48.3075 138.154 47.7245C137.909 47.4669 137.605 47.271 137.267 47.1532C136.929 47.0354 136.568 46.9991 136.213 47.0473C134.73 47.245 133.377 48.8521 132.616 49.9452C130.492 47.9127 128.804 45.481 127.651 42.794C126.499 40.107 125.906 37.2194 125.906 34.3023ZM153.366 52.3455C149.207 46.9038 152.011 39.6057 152.94 37.5492C155.181 37.9943 162.84 39.9744 164.931 46.4672C166.45 51.1879 164.495 54.2019 163.317 55.491L157.356 44.1064L155.806 44.8936L161.769 56.2825C160.016 56.4784 156.389 56.2997 153.366 52.3455ZM172.238 52.8904C171.357 53.9894 170.23 54.8737 168.946 55.4748C167.662 56.076 166.255 56.3779 164.833 56.3573C166.016 54.9206 166.8 53.2058 167.109 51.3809C167.418 49.556 167.24 47.6834 166.593 45.9464C166.116 44.4638 165.36 43.0832 164.363 41.8771C167.678 39.1545 172.102 38.3656 173.718 38.1611C174.5 40.2795 176.778 47.7494 172.24 52.8904H172.238ZM170.294 34.3023C170.289 35.2509 170.222 36.1983 170.094 37.1384C168.988 37.447 167.909 37.8422 166.866 38.3201C167.087 36.369 166.883 34.394 166.268 32.5268C165.999 31.6107 165.059 31.529 164.498 31.48C164.275 31.475 164.053 31.437 163.841 31.3675C161.753 30.3362 160.947 28.6878 160.095 26.9389C159.493 25.3614 158.463 23.9772 157.117 22.9376C156.489 22.5061 155.778 22.2053 155.028 22.0537C154.278 21.9021 153.505 21.9028 152.755 22.0558C151.751 22.183 151.283 22.2139 150.662 21.5995C150.325 21.2669 150.376 21.0606 150.4 20.9618C150.62 20.0749 152.595 18.9173 153.802 18.5417C154.037 18.4837 154.253 18.3699 154.432 18.2101C154.612 18.0504 154.748 17.8496 154.83 17.6256C155.114 16.8031 154.524 15.9729 154.004 15.2416C153.865 15.0448 153.67 14.7715 153.568 14.5884C154.106 14.1936 154.695 13.8708 155.319 13.6285C159.686 15.1137 163.475 17.9029 166.159 21.608C168.843 25.3132 170.288 29.7503 170.294 34.3023ZM152.884 12.9504C152.364 13.2414 151.973 13.7135 151.789 14.2739C151.778 15.0017 152.06 15.7042 152.574 16.2273C152.722 16.4362 152.941 16.743 153.066 16.9724C151.883 17.3901 149.162 18.7015 148.705 20.5544C148.606 20.9604 148.621 21.3851 148.748 21.7833C148.876 22.1814 149.111 22.538 149.428 22.8147C149.884 23.2657 150.452 23.5905 151.076 23.7564C151.7 23.9223 152.357 23.9236 152.981 23.76C153.521 23.6351 154.082 23.6242 154.627 23.7279C155.171 23.8315 155.687 24.0475 156.141 24.3616C157.275 25.1187 157.857 26.309 158.53 27.6866C159.428 29.5292 160.449 31.6175 163.065 32.9092C163.471 33.084 163.907 33.1814 164.35 33.1963C164.442 33.204 164.564 33.2143 164.661 33.2281C165.383 35.7865 165.414 37.9299 164.767 39.4691C164.216 39.8187 163.689 40.2025 163.188 40.6181C158.959 36.6305 152.896 35.7814 152.556 35.7375C152.379 35.7145 152.2 35.7452 152.042 35.8255C151.883 35.9059 151.754 36.032 151.67 36.187C151.453 36.5901 146.437 46.1372 151.976 53.3803C152.539 54.1216 153.18 54.802 153.889 55.4102C150.456 56.3265 146.85 56.4144 143.375 55.6664C139.9 54.9184 136.66 53.3566 133.927 51.1132C134.647 50.0449 135.705 48.8495 136.449 48.7507C136.538 48.7387 136.628 48.75 136.712 48.7833C136.795 48.8166 136.867 48.8709 136.923 48.9406C137.716 49.8047 138.79 50.3697 139.96 50.5386C141.13 50.7075 142.324 50.4697 143.335 49.8662C143.595 49.7515 143.869 49.6726 144.151 49.6315C145.437 49.3634 147.591 48.9157 147.591 45.2297C147.591 41.3331 143.868 40.038 140.269 38.7841C136.523 37.4821 132.65 36.1346 131.407 32.1289C129.085 24.6521 134.324 17.5826 135.099 16.5943C137.632 14.7803 140.528 13.5174 143.594 12.8892C146.66 12.261 149.826 12.2819 152.884 12.9504Z" fill="white"/>
<path d="M133.296 27.2165C132.879 29.0359 132.701 31.4603 134.222 32.6806C134.676 33.0788 135.259 33.3051 135.868 33.3192C136.781 33.2253 137.634 32.8259 138.285 32.1873C138.509 31.9828 138.758 31.8064 139.026 31.6622C139.288 31.6622 140.177 31.5617 140.436 30.2649C140.717 28.8554 140.162 25.7186 138.448 25.0276C137.577 24.7194 136.633 24.671 135.734 24.8884C135.143 25.0032 134.598 25.2842 134.166 25.6973C133.733 26.1104 133.431 26.638 133.296 27.2165ZM136.078 26.5729C136.641 26.4288 137.234 26.4446 137.788 26.6184C137.909 26.6674 138.204 26.9536 138.462 27.6927C138.729 28.422 138.818 29.203 138.723 29.9727C138.141 30.137 137.611 30.4422 137.179 30.8604C136.148 31.6958 135.854 31.7714 135.327 31.3477C134.7 30.845 134.578 29.4415 135.001 27.5938C135.062 27.3394 135.195 27.1076 135.386 26.9263C135.577 26.745 135.817 26.6228 136.078 26.5729Z" fill="white"/>
<path d="M246.591 34.6054C245.502 34.6054 244.615 35.4777 244.615 36.5517C244.615 37.6258 245.502 38.4981 246.591 38.4981C247.679 38.4981 248.566 37.6258 248.566 36.5517C248.566 35.4777 247.679 34.6054 246.591 34.6054ZM246.591 37.0549C246.307 37.0549 246.078 36.8283 246.078 36.5517C246.078 36.2752 246.307 36.0485 246.591 36.0485C246.874 36.0485 247.103 36.2752 247.103 36.5517C247.103 36.8283 246.874 37.0549 246.591 37.0549ZM280.591 42.7699C279.503 42.7699 278.616 43.6422 278.616 44.7159C278.616 45.7899 279.503 46.6622 280.591 46.6622C281.68 46.6622 282.567 45.79 282.567 44.7159C282.567 43.6422 281.68 42.7699 280.591 42.7699ZM280.591 45.2191C280.309 45.2191 280.08 44.9925 280.08 44.7159C280.08 44.4393 280.309 44.213 280.591 44.213C280.875 44.213 281.104 44.4394 281.104 44.7159C281.104 44.9925 280.875 45.2191 280.591 45.2191ZM280.591 54.8267C281.68 54.8267 282.567 53.9544 282.567 52.8804C282.567 51.8063 281.68 50.934 280.591 50.934C279.503 50.934 278.616 51.8063 278.616 52.8804C278.616 53.9544 279.503 54.8267 280.591 54.8267ZM280.591 52.3772C280.875 52.3772 281.104 52.6038 281.104 52.8804C281.104 53.157 280.875 53.3836 280.591 53.3836C280.309 53.3836 280.08 53.157 280.08 52.8804C280.08 52.6038 280.309 52.3772 280.591 52.3772ZM246.591 42.7699C245.502 42.7699 244.615 43.6422 244.615 44.7159C244.615 45.79 245.502 46.6622 246.591 46.6622C247.679 46.6622 248.566 45.79 248.566 44.7159C248.566 43.6422 247.679 42.7699 246.591 42.7699ZM246.591 45.2191C246.307 45.2191 246.078 44.9925 246.078 44.7159C246.078 44.4394 246.307 44.213 246.591 44.213C246.874 44.213 247.103 44.4394 247.103 44.7159C247.103 44.9925 246.874 45.2191 246.591 45.2191ZM246.591 54.8267C247.679 54.8267 248.566 53.9544 248.566 52.8804C248.566 51.8063 247.679 50.934 246.591 50.934C245.502 50.934 244.615 51.8063 244.615 52.8804C244.615 53.9544 245.502 54.8267 246.591 54.8267ZM246.591 52.3772C246.874 52.3772 247.103 52.6038 247.103 52.8804C247.103 53.157 246.874 53.3836 246.591 53.3836C246.307 53.3836 246.078 53.157 246.078 52.8804C246.078 52.6038 246.307 52.3772 246.591 52.3772ZM280.591 38.4981C281.68 38.4981 282.567 37.6258 282.567 36.5517C282.567 35.4777 281.68 34.6054 280.591 34.6054C279.503 34.6054 278.616 35.4777 278.616 36.5517C278.616 37.6258 279.503 38.4981 280.591 38.4981ZM280.591 36.0485C280.875 36.0485 281.104 36.2752 281.104 36.5517C281.104 36.8283 280.875 37.0549 280.591 37.0549C280.309 37.0549 280.08 36.8284 280.08 36.5517C280.08 36.2751 280.309 36.0485 280.591 36.0485Z" fill="white" stroke="white" stroke-width="0.1"/>
<mask id="path-7-outside-1_1672_13616" maskUnits="userSpaceOnUse" x="239.52" y="3.02002" width="56" height="55" fill="black">
<rect fill="white" x="239.52" y="3.02002" width="56" height="55"/>
<path d="M294.539 7.54747C294.203 7.19791 293.755 7.01067 293.271 7.02182C292.777 7.03231 292.3 7.25858 291.991 7.61142L284.988 14.6108L281.34 5.2996C281.205 4.81723 280.876 4.41554 280.437 4.19747C280.01 3.98498 279.504 3.96235 279.049 4.13484C278.136 4.48932 277.637 5.5216 277.912 6.48502L278.11 7.16615L273.451 13.8209L268.55 6.38304C268.325 5.96068 267.935 5.65146 267.481 5.53504C267.038 5.42191 266.559 5.49865 266.162 5.7554C265.384 6.27483 265.14 7.34154 265.606 8.18396L271.304 18.4782C270.15 19.0125 268.974 20.1706 268.617 22.6206C268.595 22.6867 268.574 22.7541 268.574 22.8274C268.574 22.8435 268.582 22.857 268.584 22.8728C268.583 22.8779 268.583 22.8834 268.582 22.8886C267.008 21.7881 265.136 21.1846 263.177 21.1846C261.418 21.1846 259.705 21.6804 258.228 22.5863V22.15C258.228 20.6904 257.653 19.3213 256.61 18.2946C255.561 17.2623 254.171 16.6941 252.695 16.6941C249.818 16.6941 247.447 18.8657 247.18 21.6316C246.501 21.2005 245.676 21.0005 244.837 21.1268L243.663 21.3062C242.761 21.439 241.967 21.9086 241.427 22.6281C240.888 23.3472 240.665 24.2306 240.801 25.116L241.827 31.7979H241.201C240.824 31.7979 240.52 32.0986 240.52 32.4695V40.634V48.7981V56.9626C240.52 57.3335 240.824 57.6342 241.201 57.6342H285.983C286.36 57.6342 286.665 57.3335 286.665 56.9626V48.7981V40.634V32.4695C286.665 32.0986 286.36 31.7979 285.983 31.7979H285.968C286.148 31.2904 286.323 30.7906 286.48 30.3139C286.48 30.3138 286.48 30.3139 286.48 30.3139C286.48 30.3134 286.48 30.3129 286.481 30.3124C286.481 30.3116 286.481 30.3107 286.481 30.3098C286.481 30.3098 286.481 30.3099 286.481 30.3098C287.032 28.6754 287.434 27.3247 287.643 26.4034C287.772 25.8371 287.86 25.2935 287.905 24.7867C287.905 24.7857 287.906 24.785 287.906 24.7841C288.167 22.0272 287.173 20.5223 286.07 19.7045L294.548 10.158C294.548 10.1574 294.549 10.157 294.549 10.1567C295.214 9.40447 295.211 8.26036 294.539 7.54747ZM241.883 41.3056H285.301V48.1266H241.883V41.3056ZM285.301 33.1411V39.9624H241.883V33.1411H242.619H248.748H254.279H254.719H269.994H276.711H285.004H285.301ZM250.491 25.7367C251.032 25.6564 251.57 25.7882 252.01 26.1066C252.449 26.4253 252.736 26.8939 252.817 27.4265L253.487 31.7979H249.335L248.759 28.0288C248.693 27.5874 248.775 27.1437 248.995 26.7458C249.3 26.2096 249.824 25.8458 250.438 25.7426C250.456 25.7413 250.473 25.7393 250.491 25.7367ZM276.231 30.1356C276.226 30.1797 276.222 30.2273 276.218 30.2717C276.177 30.699 276.137 31.1446 276.099 31.6015C276.093 31.6691 276.087 31.7298 276.081 31.7979H270.584C270.574 31.7298 270.564 31.6624 270.554 31.594C270.495 31.1835 270.438 30.7685 270.384 30.3499C270.378 30.3036 270.371 30.258 270.365 30.2117C270.304 29.7385 270.248 29.2633 270.195 28.7906C270.19 28.7466 270.185 28.703 270.18 28.6591H276.389C276.383 28.7144 276.377 28.7777 276.37 28.8337C276.322 29.2512 276.275 29.6813 276.231 30.1356ZM277.243 23.5475C277.195 23.7197 277.151 23.8977 277.107 24.0847C277.066 24.2674 277.024 24.4719 276.981 24.6885C276.976 24.7133 276.971 24.7366 276.967 24.7619C276.926 24.9739 276.885 25.2021 276.844 25.4429C276.837 25.4792 276.831 25.5156 276.825 25.5525C276.784 25.7966 276.743 26.0527 276.702 26.3231C276.697 26.3573 276.692 26.393 276.686 26.4276C276.644 26.7118 276.602 27.006 276.56 27.316H270.043C270.035 27.2267 270.025 27.1347 270.018 27.0472C270.006 26.9162 269.995 26.787 269.985 26.6603C269.969 26.466 269.955 26.279 269.942 26.0958C269.934 25.9766 269.925 25.8561 269.918 25.742C269.906 25.5506 269.898 25.3713 269.89 25.1954C269.886 25.1079 269.88 25.0149 269.877 24.9315C269.868 24.6797 269.863 24.443 269.863 24.2319C269.863 23.9824 269.872 23.7371 269.888 23.499H277.239C277.241 23.5151 277.241 23.5311 277.243 23.5475ZM286.313 26.1099C286.138 26.8805 285.817 27.9803 285.379 29.3136L282.965 28.7824L277.888 27.6651C277.889 27.6577 277.89 27.6501 277.891 27.6426C277.933 27.331 277.975 27.0316 278.018 26.7438C278.023 26.7076 278.028 26.6715 278.034 26.6357C278.075 26.3596 278.116 26.096 278.158 25.8472C278.163 25.8128 278.169 25.7798 278.175 25.746C278.217 25.4983 278.258 25.2636 278.299 25.0486C278.303 25.029 278.307 25.0112 278.31 24.9918C278.353 24.7701 278.396 24.5641 278.437 24.3834C278.483 24.1834 278.53 23.9915 278.59 23.7869C278.614 23.6948 278.64 23.6046 278.666 23.5167L286.477 25.2445C286.436 25.5229 286.38 25.8121 286.313 26.1099ZM281.45 18.6797C280.343 18.907 279.113 19.5792 278.177 21.2126C277.651 19.7059 276.734 18.9053 275.831 18.4867L279.48 11.889L281.45 18.6797ZM266.917 6.87327C267.005 6.81687 267.085 6.82146 267.138 6.83491C267.222 6.85655 267.295 6.91754 267.374 7.06051L272.861 15.3935C272.985 15.5814 273.196 15.6962 273.423 15.6995C273.644 15.6929 273.865 15.5942 273.994 15.4093L278.594 8.83914L278.667 9.08688L278.946 10.0483L274.497 18.0933C274.473 18.0897 274.447 18.0912 274.423 18.0879C274.148 18.0494 273.865 18.0264 273.576 18.0259C273.571 18.0259 273.565 18.0248 273.56 18.0248C273.522 18.0248 273.485 18.0321 273.447 18.0328C273.211 18.0371 272.975 18.0529 272.741 18.0833C272.709 18.0875 272.674 18.0857 272.642 18.0903L266.802 7.54059C266.673 7.30678 266.73 6.99854 266.917 6.87327ZM272.445 19.4958C272.991 19.3632 273.597 19.3334 274.149 19.4009C274.334 19.4236 274.513 19.4573 274.683 19.5017C275.909 19.8132 276.684 20.6842 277.04 22.1559H270.087C270.444 20.6789 271.221 19.8053 272.445 19.4958ZM268.502 24.5273C268.502 24.54 268.503 24.556 268.503 24.5687C268.506 24.7612 268.513 24.9703 268.523 25.1921C268.525 25.2375 268.527 25.2827 268.529 25.3292C268.54 25.5532 268.554 25.7892 268.57 26.0376C268.574 26.0906 268.578 26.1447 268.582 26.1987C268.6 26.4557 268.62 26.7215 268.644 26.9992C268.648 27.0417 268.652 27.0855 268.655 27.1284C268.681 27.4226 268.71 27.7245 268.742 28.0368C268.742 28.0432 268.743 28.049 268.743 28.0554C268.801 28.6132 268.866 29.1794 268.935 29.7457C268.948 29.85 268.96 29.9526 268.973 30.0569C269.041 30.6071 269.114 31.1535 269.191 31.6926C269.196 31.7273 269.2 31.7633 269.205 31.7979H255.285C255.269 31.7059 255.247 31.616 255.234 31.5227C255.223 31.4438 255.211 31.3651 255.203 31.2854C255.172 31.0035 255.151 30.7185 255.151 30.4285C255.151 30.138 255.167 29.8494 255.199 29.564C255.422 27.5663 256.41 25.7224 257.988 24.4083C259.433 23.1957 261.276 22.5277 263.177 22.5277C265.153 22.5277 267.033 23.2357 268.502 24.5273ZM248.517 22.15C248.517 19.8821 250.391 18.0372 252.695 18.0372C253.807 18.0372 254.855 18.4661 255.646 19.2449C256.432 20.0178 256.865 21.0495 256.865 22.15V23.5925C256.799 23.6514 256.744 23.7198 256.68 23.7804C256.496 23.9536 256.32 24.1316 256.153 24.3175C256.059 24.4216 255.967 24.5264 255.879 24.6342C255.719 24.8291 255.569 25.0307 255.427 25.2369C255.354 25.341 255.279 25.4423 255.211 25.5491C255.04 25.8195 254.885 26.0985 254.743 26.3845C254.719 26.4321 254.69 26.4768 254.667 26.5248C254.508 26.8606 254.373 27.207 254.256 27.5601C254.248 27.5842 254.235 27.6067 254.227 27.6309L254.165 27.2264C254.03 26.3388 253.551 25.5567 252.817 25.0245C252.652 24.9047 252.476 24.8048 252.296 24.7173C252.236 24.6882 252.174 24.667 252.113 24.6417C251.988 24.5896 251.861 24.5427 251.731 24.506C251.66 24.486 251.589 24.4701 251.517 24.4548C251.387 24.427 251.256 24.4077 251.123 24.3953C251.054 24.3889 250.985 24.3813 250.915 24.3791C250.878 24.3779 250.841 24.3703 250.803 24.3703C250.647 24.3703 250.49 24.3811 250.332 24.4024C250.312 24.4034 250.291 24.4057 250.27 24.4086C250.14 24.4281 250.013 24.4548 249.888 24.488C249.846 24.4989 249.807 24.5149 249.766 24.5274C249.684 24.5525 249.602 24.5765 249.522 24.6074C249.476 24.6255 249.432 24.6486 249.386 24.6687C249.315 24.7 249.243 24.7297 249.175 24.7656C249.132 24.7883 249.091 24.8156 249.049 24.8401C248.987 24.8763 248.923 24.9101 248.863 24.95L248.706 23.9302C248.669 23.7172 248.609 23.5134 248.538 23.3142C248.529 23.2897 248.526 23.2619 248.517 23.2377V22.15ZM242.149 24.9156C242.068 24.3857 242.201 23.8571 242.524 23.4269C242.847 22.9956 243.323 22.7143 243.868 22.634L245.044 22.4543C245.952 22.3178 246.842 22.8032 247.208 23.6285C247.278 23.7912 247.33 23.9692 247.361 24.1443L247.693 26.3089C247.667 26.3642 247.651 26.4221 247.628 26.4783C247.6 26.5456 247.573 26.6123 247.55 26.6808C247.516 26.7823 247.49 26.8852 247.466 26.9889C247.451 27.0542 247.434 27.1187 247.423 27.1847C247.403 27.301 247.394 27.4186 247.388 27.5366C247.384 27.5917 247.376 27.6462 247.376 27.7016C247.374 27.8758 247.384 28.0509 247.41 28.2263L247.956 31.7979H243.205L242.149 24.9156ZM285.301 56.291H241.883V49.4697H285.301V56.291ZM277.45 31.7979C277.453 31.7559 277.457 31.7128 277.46 31.6709C277.497 31.2396 277.534 30.8196 277.573 30.4155C277.576 30.3875 277.578 30.3575 277.581 30.3296C277.623 29.9002 277.667 29.4901 277.712 29.0943C277.715 29.0637 277.719 29.0353 277.722 29.005L284.949 30.5955C284.813 30.9876 284.672 31.39 284.525 31.7979H277.45ZM279.16 22.249C279.891 20.7268 280.939 19.9637 282.35 19.9227C282.741 19.9093 283.13 19.9493 283.57 20.0473C283.978 20.1319 284.361 20.2671 284.722 20.4553C285.952 21.0668 286.576 22.2211 286.585 23.8915L279.16 22.249ZM293.521 9.27428L284.853 19.0344C284.803 19.0146 284.752 18.9999 284.702 18.9814C284.649 18.9618 284.596 18.9434 284.542 18.9253C284.32 18.8502 284.094 18.7834 283.862 18.7353C283.618 18.6807 283.383 18.6456 283.151 18.6193C283.1 18.6135 283.048 18.6077 282.998 18.6033C282.946 18.5988 282.893 18.5903 282.842 18.5871L280.335 9.93766L279.225 6.1207C279.138 5.81771 279.283 5.48782 279.544 5.3865C279.665 5.34026 279.763 5.3665 279.823 5.39699C279.921 5.4452 279.993 5.53734 280.048 5.71999L284.097 16.0648C284.18 16.2776 284.367 16.434 284.593 16.4806C284.823 16.5275 285.056 16.457 285.217 16.2947L292.991 8.52303C293.079 8.42334 293.189 8.36694 293.301 8.36464C293.363 8.35907 293.461 8.38005 293.544 8.4663C293.741 8.67452 293.73 9.03687 293.521 9.27428Z"/>
</mask>
<path d="M294.539 7.54747C294.203 7.19791 293.755 7.01067 293.271 7.02182C292.777 7.03231 292.3 7.25858 291.991 7.61142L284.988 14.6108L281.34 5.2996C281.205 4.81723 280.876 4.41554 280.437 4.19747C280.01 3.98498 279.504 3.96235 279.049 4.13484C278.136 4.48932 277.637 5.5216 277.912 6.48502L278.11 7.16615L273.451 13.8209L268.55 6.38304C268.325 5.96068 267.935 5.65146 267.481 5.53504C267.038 5.42191 266.559 5.49865 266.162 5.7554C265.384 6.27483 265.14 7.34154 265.606 8.18396L271.304 18.4782C270.15 19.0125 268.974 20.1706 268.617 22.6206C268.595 22.6867 268.574 22.7541 268.574 22.8274C268.574 22.8435 268.582 22.857 268.584 22.8728C268.583 22.8779 268.583 22.8834 268.582 22.8886C267.008 21.7881 265.136 21.1846 263.177 21.1846C261.418 21.1846 259.705 21.6804 258.228 22.5863V22.15C258.228 20.6904 257.653 19.3213 256.61 18.2946C255.561 17.2623 254.171 16.6941 252.695 16.6941C249.818 16.6941 247.447 18.8657 247.18 21.6316C246.501 21.2005 245.676 21.0005 244.837 21.1268L243.663 21.3062C242.761 21.439 241.967 21.9086 241.427 22.6281C240.888 23.3472 240.665 24.2306 240.801 25.116L241.827 31.7979H241.201C240.824 31.7979 240.52 32.0986 240.52 32.4695V40.634V48.7981V56.9626C240.52 57.3335 240.824 57.6342 241.201 57.6342H285.983C286.36 57.6342 286.665 57.3335 286.665 56.9626V48.7981V40.634V32.4695C286.665 32.0986 286.36 31.7979 285.983 31.7979H285.968C286.148 31.2904 286.323 30.7906 286.48 30.3139C286.48 30.3138 286.48 30.3139 286.48 30.3139C286.48 30.3134 286.48 30.3129 286.481 30.3124C286.481 30.3116 286.481 30.3107 286.481 30.3098C286.481 30.3098 286.481 30.3099 286.481 30.3098C287.032 28.6754 287.434 27.3247 287.643 26.4034C287.772 25.8371 287.86 25.2935 287.905 24.7867C287.905 24.7857 287.906 24.785 287.906 24.7841C288.167 22.0272 287.173 20.5223 286.07 19.7045L294.548 10.158C294.548 10.1574 294.549 10.157 294.549 10.1567C295.214 9.40447 295.211 8.26036 294.539 7.54747ZM241.883 41.3056H285.301V48.1266H241.883V41.3056ZM285.301 33.1411V39.9624H241.883V33.1411H242.619H248.748H254.279H254.719H269.994H276.711H285.004H285.301ZM250.491 25.7367C251.032 25.6564 251.57 25.7882 252.01 26.1066C252.449 26.4253 252.736 26.8939 252.817 27.4265L253.487 31.7979H249.335L248.759 28.0288C248.693 27.5874 248.775 27.1437 248.995 26.7458C249.3 26.2096 249.824 25.8458 250.438 25.7426C250.456 25.7413 250.473 25.7393 250.491 25.7367ZM276.231 30.1356C276.226 30.1797 276.222 30.2273 276.218 30.2717C276.177 30.699 276.137 31.1446 276.099 31.6015C276.093 31.6691 276.087 31.7298 276.081 31.7979H270.584C270.574 31.7298 270.564 31.6624 270.554 31.594C270.495 31.1835 270.438 30.7685 270.384 30.3499C270.378 30.3036 270.371 30.258 270.365 30.2117C270.304 29.7385 270.248 29.2633 270.195 28.7906C270.19 28.7466 270.185 28.703 270.18 28.6591H276.389C276.383 28.7144 276.377 28.7777 276.37 28.8337C276.322 29.2512 276.275 29.6813 276.231 30.1356ZM277.243 23.5475C277.195 23.7197 277.151 23.8977 277.107 24.0847C277.066 24.2674 277.024 24.4719 276.981 24.6885C276.976 24.7133 276.971 24.7366 276.967 24.7619C276.926 24.9739 276.885 25.2021 276.844 25.4429C276.837 25.4792 276.831 25.5156 276.825 25.5525C276.784 25.7966 276.743 26.0527 276.702 26.3231C276.697 26.3573 276.692 26.393 276.686 26.4276C276.644 26.7118 276.602 27.006 276.56 27.316H270.043C270.035 27.2267 270.025 27.1347 270.018 27.0472C270.006 26.9162 269.995 26.787 269.985 26.6603C269.969 26.466 269.955 26.279 269.942 26.0958C269.934 25.9766 269.925 25.8561 269.918 25.742C269.906 25.5506 269.898 25.3713 269.89 25.1954C269.886 25.1079 269.88 25.0149 269.877 24.9315C269.868 24.6797 269.863 24.443 269.863 24.2319C269.863 23.9824 269.872 23.7371 269.888 23.499H277.239C277.241 23.5151 277.241 23.5311 277.243 23.5475ZM286.313 26.1099C286.138 26.8805 285.817 27.9803 285.379 29.3136L282.965 28.7824L277.888 27.6651C277.889 27.6577 277.89 27.6501 277.891 27.6426C277.933 27.331 277.975 27.0316 278.018 26.7438C278.023 26.7076 278.028 26.6715 278.034 26.6357C278.075 26.3596 278.116 26.096 278.158 25.8472C278.163 25.8128 278.169 25.7798 278.175 25.746C278.217 25.4983 278.258 25.2636 278.299 25.0486C278.303 25.029 278.307 25.0112 278.31 24.9918C278.353 24.7701 278.396 24.5641 278.437 24.3834C278.483 24.1834 278.53 23.9915 278.59 23.7869C278.614 23.6948 278.64 23.6046 278.666 23.5167L286.477 25.2445C286.436 25.5229 286.38 25.8121 286.313 26.1099ZM281.45 18.6797C280.343 18.907 279.113 19.5792 278.177 21.2126C277.651 19.7059 276.734 18.9053 275.831 18.4867L279.48 11.889L281.45 18.6797ZM266.917 6.87327C267.005 6.81687 267.085 6.82146 267.138 6.83491C267.222 6.85655 267.295 6.91754 267.374 7.06051L272.861 15.3935C272.985 15.5814 273.196 15.6962 273.423 15.6995C273.644 15.6929 273.865 15.5942 273.994 15.4093L278.594 8.83914L278.667 9.08688L278.946 10.0483L274.497 18.0933C274.473 18.0897 274.447 18.0912 274.423 18.0879C274.148 18.0494 273.865 18.0264 273.576 18.0259C273.571 18.0259 273.565 18.0248 273.56 18.0248C273.522 18.0248 273.485 18.0321 273.447 18.0328C273.211 18.0371 272.975 18.0529 272.741 18.0833C272.709 18.0875 272.674 18.0857 272.642 18.0903L266.802 7.54059C266.673 7.30678 266.73 6.99854 266.917 6.87327ZM272.445 19.4958C272.991 19.3632 273.597 19.3334 274.149 19.4009C274.334 19.4236 274.513 19.4573 274.683 19.5017C275.909 19.8132 276.684 20.6842 277.04 22.1559H270.087C270.444 20.6789 271.221 19.8053 272.445 19.4958ZM268.502 24.5273C268.502 24.54 268.503 24.556 268.503 24.5687C268.506 24.7612 268.513 24.9703 268.523 25.1921C268.525 25.2375 268.527 25.2827 268.529 25.3292C268.54 25.5532 268.554 25.7892 268.57 26.0376C268.574 26.0906 268.578 26.1447 268.582 26.1987C268.6 26.4557 268.62 26.7215 268.644 26.9992C268.648 27.0417 268.652 27.0855 268.655 27.1284C268.681 27.4226 268.71 27.7245 268.742 28.0368C268.742 28.0432 268.743 28.049 268.743 28.0554C268.801 28.6132 268.866 29.1794 268.935 29.7457C268.948 29.85 268.96 29.9526 268.973 30.0569C269.041 30.6071 269.114 31.1535 269.191 31.6926C269.196 31.7273 269.2 31.7633 269.205 31.7979H255.285C255.269 31.7059 255.247 31.616 255.234 31.5227C255.223 31.4438 255.211 31.3651 255.203 31.2854C255.172 31.0035 255.151 30.7185 255.151 30.4285C255.151 30.138 255.167 29.8494 255.199 29.564C255.422 27.5663 256.41 25.7224 257.988 24.4083C259.433 23.1957 261.276 22.5277 263.177 22.5277C265.153 22.5277 267.033 23.2357 268.502 24.5273ZM248.517 22.15C248.517 19.8821 250.391 18.0372 252.695 18.0372C253.807 18.0372 254.855 18.4661 255.646 19.2449C256.432 20.0178 256.865 21.0495 256.865 22.15V23.5925C256.799 23.6514 256.744 23.7198 256.68 23.7804C256.496 23.9536 256.32 24.1316 256.153 24.3175C256.059 24.4216 255.967 24.5264 255.879 24.6342C255.719 24.8291 255.569 25.0307 255.427 25.2369C255.354 25.341 255.279 25.4423 255.211 25.5491C255.04 25.8195 254.885 26.0985 254.743 26.3845C254.719 26.4321 254.69 26.4768 254.667 26.5248C254.508 26.8606 254.373 27.207 254.256 27.5601C254.248 27.5842 254.235 27.6067 254.227 27.6309L254.165 27.2264C254.03 26.3388 253.551 25.5567 252.817 25.0245C252.652 24.9047 252.476 24.8048 252.296 24.7173C252.236 24.6882 252.174 24.667 252.113 24.6417C251.988 24.5896 251.861 24.5427 251.731 24.506C251.66 24.486 251.589 24.4701 251.517 24.4548C251.387 24.427 251.256 24.4077 251.123 24.3953C251.054 24.3889 250.985 24.3813 250.915 24.3791C250.878 24.3779 250.841 24.3703 250.803 24.3703C250.647 24.3703 250.49 24.3811 250.332 24.4024C250.312 24.4034 250.291 24.4057 250.27 24.4086C250.14 24.4281 250.013 24.4548 249.888 24.488C249.846 24.4989 249.807 24.5149 249.766 24.5274C249.684 24.5525 249.602 24.5765 249.522 24.6074C249.476 24.6255 249.432 24.6486 249.386 24.6687C249.315 24.7 249.243 24.7297 249.175 24.7656C249.132 24.7883 249.091 24.8156 249.049 24.8401C248.987 24.8763 248.923 24.9101 248.863 24.95L248.706 23.9302C248.669 23.7172 248.609 23.5134 248.538 23.3142C248.529 23.2897 248.526 23.2619 248.517 23.2377V22.15ZM242.149 24.9156C242.068 24.3857 242.201 23.8571 242.524 23.4269C242.847 22.9956 243.323 22.7143 243.868 22.634L245.044 22.4543C245.952 22.3178 246.842 22.8032 247.208 23.6285C247.278 23.7912 247.33 23.9692 247.361 24.1443L247.693 26.3089C247.667 26.3642 247.651 26.4221 247.628 26.4783C247.6 26.5456 247.573 26.6123 247.55 26.6808C247.516 26.7823 247.49 26.8852 247.466 26.9889C247.451 27.0542 247.434 27.1187 247.423 27.1847C247.403 27.301 247.394 27.4186 247.388 27.5366C247.384 27.5917 247.376 27.6462 247.376 27.7016C247.374 27.8758 247.384 28.0509 247.41 28.2263L247.956 31.7979H243.205L242.149 24.9156ZM285.301 56.291H241.883V49.4697H285.301V56.291ZM277.45 31.7979C277.453 31.7559 277.457 31.7128 277.46 31.6709C277.497 31.2396 277.534 30.8196 277.573 30.4155C277.576 30.3875 277.578 30.3575 277.581 30.3296C277.623 29.9002 277.667 29.4901 277.712 29.0943C277.715 29.0637 277.719 29.0353 277.722 29.005L284.949 30.5955C284.813 30.9876 284.672 31.39 284.525 31.7979H277.45ZM279.16 22.249C279.891 20.7268 280.939 19.9637 282.35 19.9227C282.741 19.9093 283.13 19.9493 283.57 20.0473C283.978 20.1319 284.361 20.2671 284.722 20.4553C285.952 21.0668 286.576 22.2211 286.585 23.8915L279.16 22.249ZM293.521 9.27428L284.853 19.0344C284.803 19.0146 284.752 18.9999 284.702 18.9814C284.649 18.9618 284.596 18.9434 284.542 18.9253C284.32 18.8502 284.094 18.7834 283.862 18.7353C283.618 18.6807 283.383 18.6456 283.151 18.6193C283.1 18.6135 283.048 18.6077 282.998 18.6033C282.946 18.5988 282.893 18.5903 282.842 18.5871L280.335 9.93766L279.225 6.1207C279.138 5.81771 279.283 5.48782 279.544 5.3865C279.665 5.34026 279.763 5.3665 279.823 5.39699C279.921 5.4452 279.993 5.53734 280.048 5.71999L284.097 16.0648C284.18 16.2776 284.367 16.434 284.593 16.4806C284.823 16.5275 285.056 16.457 285.217 16.2947L292.991 8.52303C293.079 8.42334 293.189 8.36694 293.301 8.36464C293.363 8.35907 293.461 8.38005 293.544 8.4663C293.741 8.67452 293.73 9.03687 293.521 9.27428Z" fill="white"/>
<path d="M294.539 7.54747L294.612 7.47886L294.611 7.47823L294.539 7.54747ZM293.271 7.02182L293.274 7.1218L293.274 7.12179L293.271 7.02182ZM291.991 7.61142L292.062 7.6823L292.066 7.67728L291.991 7.61142ZM284.988 14.6108L284.895 14.6473L284.95 14.7895L285.058 14.6815L284.988 14.6108ZM281.34 5.2996L281.243 5.32671L281.247 5.33608L281.34 5.2996ZM280.437 4.19747L280.392 4.28701L280.392 4.28704L280.437 4.19747ZM279.049 4.13484L279.014 4.04132L279.013 4.04161L279.049 4.13484ZM277.912 6.48502L277.816 6.51252L277.816 6.51288L277.912 6.48502ZM278.11 7.16615L278.192 7.2235L278.219 7.18427L278.206 7.13828L278.11 7.16615ZM273.451 13.8209L273.367 13.8759L273.448 13.9988L273.532 13.8782L273.451 13.8209ZM268.55 6.38304L268.461 6.43026L268.466 6.43806L268.55 6.38304ZM267.481 5.53504L267.505 5.43817L267.505 5.43816L267.481 5.53504ZM266.162 5.7554L266.108 5.67145L266.106 5.67223L266.162 5.7554ZM265.606 8.18396L265.518 8.23236L265.518 8.23239L265.606 8.18396ZM271.304 18.4782L271.346 18.5689L271.444 18.5238L271.392 18.4297L271.304 18.4782ZM268.617 22.6206L268.711 22.6522L268.714 22.6438L268.716 22.635L268.617 22.6206ZM268.584 22.8728L268.683 22.8855L268.684 22.8755L268.683 22.8654L268.584 22.8728ZM268.582 22.8886L268.525 22.9705L268.66 23.0652L268.681 22.9014L268.582 22.8886ZM258.228 22.5863H258.128V22.7649L258.28 22.6715L258.228 22.5863ZM256.61 18.2946L256.68 18.2234L256.68 18.2234L256.61 18.2946ZM247.18 21.6316L247.127 21.7161L247.264 21.8034L247.28 21.6412L247.18 21.6316ZM244.837 21.1268L244.822 21.028L244.822 21.028L244.837 21.1268ZM243.663 21.3062L243.677 21.4052L243.678 21.4051L243.663 21.3062ZM241.427 22.6281L241.507 22.6881L241.507 22.6881L241.427 22.6281ZM240.801 25.116L240.702 25.1311L240.702 25.1311L240.801 25.116ZM241.827 31.7979V31.8979H241.943L241.926 31.7828L241.827 31.7979ZM285.968 31.7979L285.874 31.7645L285.826 31.8979H285.968V31.7979ZM286.481 30.3124L286.575 30.3444L286.576 30.3415L286.481 30.3124ZM287.643 26.4034L287.545 26.3811L287.545 26.3813L287.643 26.4034ZM287.905 24.7867L287.805 24.7775L287.805 24.7777L287.905 24.7867ZM287.906 24.7841L287.806 24.7747L287.806 24.7749L287.906 24.7841ZM286.07 19.7045L285.995 19.6381L285.922 19.7198L286.01 19.7848L286.07 19.7045ZM294.548 10.158L294.623 10.2244L294.648 10.196V10.158H294.548ZM294.549 10.1567L294.474 10.0905L294.449 10.1188V10.1567H294.549ZM241.883 41.3056V41.2056H241.783V41.3056H241.883ZM285.301 41.3056H285.401V41.2056H285.301V41.3056ZM285.301 48.1266V48.2266H285.401V48.1266H285.301ZM241.883 48.1266H241.783V48.2266H241.883V48.1266ZM285.301 33.1411H285.401V33.0411H285.301V33.1411ZM285.301 39.9624V40.0624H285.401V39.9624H285.301ZM241.883 39.9624H241.783V40.0624H241.883V39.9624ZM241.883 33.1411V33.0411H241.783V33.1411H241.883ZM250.491 25.7367L250.476 25.6378L250.476 25.6378L250.491 25.7367ZM252.01 26.1066L252.068 26.0256L252.068 26.0256L252.01 26.1066ZM252.817 27.4265L252.718 27.4414L252.718 27.4416L252.817 27.4265ZM253.487 31.7979V31.8979H253.603L253.586 31.7828L253.487 31.7979ZM249.335 31.7979L249.236 31.813L249.249 31.8979H249.335V31.7979ZM248.759 28.0288L248.66 28.0436L248.66 28.044L248.759 28.0288ZM248.995 26.7458L248.908 26.6964L248.908 26.6974L248.995 26.7458ZM250.438 25.7426L250.431 25.6424L250.421 25.644L250.438 25.7426ZM276.231 30.1356L276.131 30.1258L276.131 30.1258L276.231 30.1356ZM276.218 30.2717L276.119 30.262L276.119 30.2621L276.218 30.2717ZM276.099 31.6015L276.198 31.6099V31.6099L276.099 31.6015ZM276.081 31.7979V31.8979H276.173L276.181 31.8061L276.081 31.7979ZM270.584 31.7979L270.485 31.8124L270.498 31.8979H270.584V31.7979ZM270.554 31.594L270.653 31.5798L270.653 31.5797L270.554 31.594ZM270.384 30.3499L270.483 30.337L270.483 30.3369L270.384 30.3499ZM270.365 30.2117L270.266 30.2244L270.266 30.2245L270.365 30.2117ZM270.195 28.7906L270.294 28.7794L270.294 28.7793L270.195 28.7906ZM270.18 28.6591V28.5591H270.069L270.081 28.6702L270.18 28.6591ZM276.389 28.6591L276.489 28.6708L276.502 28.5591H276.389V28.6591ZM276.37 28.8337L276.271 28.8222L276.271 28.8222L276.37 28.8337ZM277.243 23.5475L277.339 23.5744L277.344 23.5572L277.342 23.5394L277.243 23.5475ZM277.107 24.0847L277.01 24.0618L277.01 24.0624L277.107 24.0847ZM276.981 24.6885L277.079 24.7079L277.079 24.7077L276.981 24.6885ZM276.967 24.7619L276.868 24.7429L276.868 24.743L276.967 24.7619ZM276.844 25.4429L276.942 25.4599L276.942 25.4598L276.844 25.4429ZM276.825 25.5525L276.726 25.5358L276.726 25.536L276.825 25.5525ZM276.702 26.3231L276.603 26.3081L276.603 26.3082L276.702 26.3231ZM276.686 26.4276L276.785 26.4424L276.785 26.4423L276.686 26.4276ZM276.56 27.316V27.416H276.647L276.659 27.3294L276.56 27.316ZM270.043 27.316L269.943 27.3252L269.952 27.416H270.043V27.316ZM270.018 27.0472L269.918 27.056L269.918 27.0561L270.018 27.0472ZM269.985 26.6603L270.084 26.6522L270.084 26.6521L269.985 26.6603ZM269.942 26.0958L269.842 26.1027V26.1028L269.942 26.0958ZM269.918 25.742L270.018 25.7359V25.7359L269.918 25.742ZM269.89 25.1954L269.99 25.1908V25.1908L269.89 25.1954ZM269.877 24.9315L269.977 24.928V24.928L269.877 24.9315ZM269.888 23.499V23.399H269.795L269.788 23.492L269.888 23.499ZM277.239 23.499L277.339 23.4907L277.331 23.399H277.239V23.499ZM286.313 26.1099L286.411 26.132L286.411 26.1319L286.313 26.1099ZM285.379 29.3136L285.357 29.4113L285.445 29.4307L285.474 29.3449L285.379 29.3136ZM282.965 28.7824L282.943 28.8801H282.943L282.965 28.7824ZM277.888 27.6651L277.789 27.6518L277.777 27.743L277.867 27.7628L277.888 27.6651ZM277.891 27.6426L277.991 27.656L277.991 27.6559L277.891 27.6426ZM278.018 26.7438L278.117 26.7584L278.117 26.7584L278.018 26.7438ZM278.034 26.6357L277.935 26.6209L277.935 26.621L278.034 26.6357ZM278.158 25.8472L278.059 25.8307L278.059 25.8308L278.158 25.8472ZM278.175 25.746L278.076 25.7294L278.076 25.7295L278.175 25.746ZM278.299 25.0486L278.398 25.0674L278.398 25.0669L278.299 25.0486ZM278.31 24.9918L278.409 25.0113L278.409 25.0108L278.31 24.9918ZM278.437 24.3834L278.339 24.3607L278.339 24.3612L278.437 24.3834ZM278.59 23.7869L278.686 23.8153L278.687 23.8121L278.59 23.7869ZM278.666 23.5167L278.688 23.4191L278.598 23.3991L278.571 23.4877L278.666 23.5167ZM286.477 25.2445L286.576 25.2594L286.59 25.167L286.499 25.1469L286.477 25.2445ZM281.45 18.6797L281.47 18.7776L281.577 18.7559L281.546 18.6518L281.45 18.6797ZM278.177 21.2126L278.083 21.2455L278.155 21.4524L278.264 21.2623L278.177 21.2126ZM275.831 18.4867L275.744 18.4383L275.692 18.5322L275.789 18.5774L275.831 18.4867ZM279.48 11.889L279.576 11.8611L279.509 11.63L279.393 11.8406L279.48 11.889ZM266.917 6.87327L266.863 6.7893L266.862 6.7901L266.917 6.87327ZM267.138 6.83491L267.163 6.73803L267.163 6.73802L267.138 6.83491ZM267.374 7.06051L267.286 7.10912L267.291 7.11551L267.374 7.06051ZM272.861 15.3935L272.778 15.4485L272.778 15.4486L272.861 15.3935ZM273.423 15.6995L273.422 15.7996L273.426 15.7994L273.423 15.6995ZM273.994 15.4093L273.912 15.3519L273.912 15.352L273.994 15.4093ZM278.594 8.83914L278.69 8.811L278.632 8.61134L278.513 8.78178L278.594 8.83914ZM278.667 9.08688L278.763 9.05901L278.763 9.05874L278.667 9.08688ZM278.946 10.0483L279.034 10.0967L279.054 10.0603L279.042 10.0204L278.946 10.0483ZM274.497 18.0933L274.482 18.1922L274.551 18.2026L274.584 18.1417L274.497 18.0933ZM274.423 18.0879L274.41 18.187L274.41 18.187L274.423 18.0879ZM273.576 18.0259L273.576 17.9259H273.576V18.0259ZM273.447 18.0328L273.446 17.9328L273.445 17.9328L273.447 18.0328ZM272.741 18.0833L272.728 17.9842L272.728 17.9842L272.741 18.0833ZM272.642 18.0903L272.555 18.1388L272.589 18.1993L272.657 18.1893L272.642 18.0903ZM266.802 7.54059L266.715 7.58893L266.715 7.58902L266.802 7.54059ZM272.445 19.4958L272.421 19.3986L272.42 19.3988L272.445 19.4958ZM274.149 19.4009L274.161 19.3017L274.161 19.3017L274.149 19.4009ZM274.683 19.5017L274.658 19.5984L274.659 19.5986L274.683 19.5017ZM277.04 22.1559V22.2559H277.167L277.137 22.1323L277.04 22.1559ZM270.087 22.1559L269.99 22.1324L269.96 22.2559H270.087V22.1559ZM268.502 24.5273L268.602 24.526L268.601 24.4816L268.568 24.4522L268.502 24.5273ZM268.503 24.5687L268.403 24.57L268.403 24.5706L268.503 24.5687ZM268.523 25.1921L268.423 25.1965V25.1965L268.523 25.1921ZM268.529 25.3292L268.429 25.3338L268.429 25.334L268.529 25.3292ZM268.57 26.0376L268.67 26.031L268.67 26.0309L268.57 26.0376ZM268.582 26.1987L268.681 26.1917L268.681 26.1916L268.582 26.1987ZM268.644 26.9992L268.544 27.0078L268.544 27.0078L268.644 26.9992ZM268.655 27.1284L268.556 27.1371L268.556 27.1371L268.655 27.1284ZM268.742 28.0368L268.642 28.047L268.642 28.0472L268.742 28.0368ZM268.743 28.0554L268.843 28.0452L268.843 28.0451L268.743 28.0554ZM268.935 29.7457L268.836 29.7577L268.836 29.7578L268.935 29.7457ZM268.973 30.0569L269.072 30.0445L269.072 30.0444L268.973 30.0569ZM269.191 31.6926L269.29 31.6786L269.29 31.6785L269.191 31.6926ZM269.205 31.7979V31.8979H269.321L269.304 31.7836L269.205 31.7979ZM255.285 31.7979L255.187 31.8155L255.201 31.8979H255.285V31.7979ZM255.234 31.5227L255.333 31.5088L255.333 31.5088L255.234 31.5227ZM255.203 31.2854L255.302 31.2746L255.302 31.2745L255.203 31.2854ZM255.199 29.564L255.299 29.5751V29.5751L255.199 29.564ZM257.988 24.4083L258.052 24.4852L258.052 24.4849L257.988 24.4083ZM263.177 22.5277V22.4277V22.5277ZM255.646 19.2449L255.576 19.3162L255.576 19.3162L255.646 19.2449ZM256.865 23.5925L256.931 23.6671L256.965 23.6373V23.5925H256.865ZM256.68 23.7804L256.611 23.7076L256.611 23.7076L256.68 23.7804ZM256.153 24.3175L256.227 24.3845L256.227 24.3844L256.153 24.3175ZM255.879 24.6342L255.956 24.6977L255.956 24.6976L255.879 24.6342ZM255.427 25.2369L255.344 25.1799L255.344 25.1799L255.427 25.2369ZM255.211 25.5491L255.127 25.4955L255.127 25.4956L255.211 25.5491ZM254.743 26.3845L254.832 26.429L254.832 26.4289L254.743 26.3845ZM254.667 26.5248L254.757 26.5676L254.757 26.5676L254.667 26.5248ZM254.256 27.5601L254.161 27.5286L254.161 27.5286L254.256 27.5601ZM254.227 27.6309L254.129 27.646L254.323 27.6613L254.227 27.6309ZM254.165 27.2264L254.067 27.2415L254.067 27.2416L254.165 27.2264ZM252.817 25.0245L252.876 24.9435L252.876 24.9435L252.817 25.0245ZM252.296 24.7173L252.252 24.8072L252.252 24.8072L252.296 24.7173ZM252.113 24.6417L252.151 24.5493L252.151 24.5493L252.113 24.6417ZM251.731 24.506L251.758 24.4097L251.758 24.4097L251.731 24.506ZM251.517 24.4548L251.496 24.5526L251.496 24.5526L251.517 24.4548ZM251.123 24.3953L251.132 24.2957L251.132 24.2957L251.123 24.3953ZM250.915 24.3791L250.912 24.479L250.912 24.479L250.915 24.3791ZM250.332 24.4024L250.337 24.5027L250.346 24.5015L250.332 24.4024ZM250.27 24.4086L250.256 24.3096L250.255 24.3097L250.27 24.4086ZM249.888 24.488L249.913 24.5846L249.914 24.5846L249.888 24.488ZM249.766 24.5274L249.795 24.623L249.796 24.623L249.766 24.5274ZM249.522 24.6074L249.486 24.5142L249.486 24.5142L249.522 24.6074ZM249.386 24.6687L249.346 24.5771L249.346 24.5772L249.386 24.6687ZM249.175 24.7656L249.221 24.8542L249.221 24.8541L249.175 24.7656ZM249.049 24.8401L248.999 24.7537H248.999L249.049 24.8401ZM248.863 24.95L248.764 24.9653L248.788 25.1205L248.919 25.0332L248.863 24.95ZM248.706 23.9302L248.805 23.915L248.805 23.913L248.706 23.9302ZM248.538 23.3142L248.444 23.3477L248.444 23.3479L248.538 23.3142ZM248.517 23.2377H248.417V23.2562L248.424 23.2735L248.517 23.2377ZM242.149 24.9156L242.05 24.9308L242.05 24.9308L242.149 24.9156ZM242.524 23.4269L242.604 23.4869L242.604 23.4869L242.524 23.4269ZM243.868 22.634L243.883 22.7329L243.883 22.7328L243.868 22.634ZM245.044 22.4543L245.03 22.3554L245.029 22.3554L245.044 22.4543ZM247.208 23.6285L247.3 23.589L247.299 23.588L247.208 23.6285ZM247.361 24.1443L247.46 24.1292L247.459 24.1268L247.361 24.1443ZM247.693 26.3089L247.783 26.3514L247.796 26.3239L247.792 26.2938L247.693 26.3089ZM247.628 26.4783L247.535 26.4405L247.535 26.4407L247.628 26.4783ZM247.55 26.6808L247.645 26.7125L247.645 26.7124L247.55 26.6808ZM247.466 26.9889L247.564 27.0114L247.564 27.0113L247.466 26.9889ZM247.423 27.1847L247.521 27.2012L247.521 27.2011L247.423 27.1847ZM247.388 27.5366L247.487 27.5426L247.487 27.5424L247.388 27.5366ZM247.376 27.7016L247.276 27.7007L247.276 27.7007L247.376 27.7016ZM247.41 28.2263L247.311 28.2409L247.311 28.2414L247.41 28.2263ZM247.956 31.7979V31.8979H248.072L248.055 31.7828L247.956 31.7979ZM243.205 31.7979L243.106 31.8131L243.119 31.8979H243.205V31.7979ZM285.301 56.291V56.391H285.401V56.291H285.301ZM241.883 56.291H241.783V56.391H241.883V56.291ZM241.883 49.4697V49.3697H241.783V49.4697H241.883ZM285.301 49.4697H285.401V49.3697H285.301V49.4697ZM277.45 31.7979L277.35 31.7896L277.341 31.8979H277.45V31.7979ZM277.46 31.6709L277.56 31.6795L277.56 31.6793L277.46 31.6709ZM277.573 30.4155L277.474 30.4058L277.474 30.4059L277.573 30.4155ZM277.581 30.3296L277.681 30.3393L277.681 30.3393L277.581 30.3296ZM277.712 29.0943L277.612 29.0829L277.612 29.083L277.712 29.0943ZM277.722 29.005L277.744 28.9073L277.636 28.8835L277.623 28.9935L277.722 29.005ZM284.949 30.5955L285.043 30.628L285.08 30.5219L284.97 30.4978L284.949 30.5955ZM284.525 31.7979V31.8979H284.595L284.619 31.8319L284.525 31.7979ZM279.16 22.249L279.069 22.2057L279.015 22.3194L279.138 22.3466L279.16 22.249ZM282.35 19.9227L282.353 20.0227L282.353 20.0227L282.35 19.9227ZM283.57 20.0473L283.548 20.145L283.55 20.1453L283.57 20.0473ZM284.722 20.4553L284.675 20.5439L284.677 20.5448L284.722 20.4553ZM286.585 23.8915L286.563 23.9892L286.685 24.0162L286.685 23.891L286.585 23.8915ZM293.521 9.27428L293.596 9.34069L293.596 9.34036L293.521 9.27428ZM284.853 19.0344L284.815 19.1272L284.881 19.1535L284.927 19.1008L284.853 19.0344ZM284.702 18.9814L284.737 18.8877L284.737 18.8876L284.702 18.9814ZM284.542 18.9253L284.51 19.0201L284.51 19.0201L284.542 18.9253ZM283.862 18.7353L283.84 18.8329L283.841 18.8333L283.862 18.7353ZM283.151 18.6193L283.162 18.5199L283.162 18.5199L283.151 18.6193ZM282.998 18.6033L282.989 18.7029L282.989 18.7029L282.998 18.6033ZM282.842 18.5871L282.746 18.615L282.765 18.6826L282.836 18.6869L282.842 18.5871ZM280.335 9.93766L280.431 9.90982L280.431 9.90973L280.335 9.93766ZM279.225 6.1207L279.129 6.14836L279.129 6.14863L279.225 6.1207ZM279.544 5.3865L279.508 5.293L279.507 5.29331L279.544 5.3865ZM279.823 5.39699L279.778 5.48612L279.779 5.4867L279.823 5.39699ZM280.048 5.71999L279.951 5.74872L279.954 5.75644L280.048 5.71999ZM284.097 16.0648L284.19 16.0284L284.19 16.0283L284.097 16.0648ZM284.593 16.4806L284.573 16.5785L284.573 16.5786L284.593 16.4806ZM285.217 16.2947L285.147 16.2239L285.147 16.2241L285.217 16.2947ZM292.991 8.52303L293.062 8.59389L293.066 8.58915L292.991 8.52303ZM293.301 8.36464L293.303 8.46485L293.31 8.46425L293.301 8.36464ZM293.544 8.4663L293.617 8.39769L293.616 8.39686L293.544 8.4663ZM294.611 7.47823C294.256 7.10868 293.781 6.91004 293.269 6.92185L293.274 7.12179C293.729 7.1113 294.15 7.28714 294.467 7.61671L294.611 7.47823ZM293.269 6.92184C292.747 6.93293 292.243 7.17136 291.916 7.54555L292.066 7.67728C292.356 7.34579 292.807 7.1317 293.274 7.1218L293.269 6.92184ZM291.92 7.54069L284.917 14.5401L285.058 14.6815L292.062 7.68215L291.92 7.54069ZM285.081 14.5743L281.433 5.26312L281.247 5.33608L284.895 14.6473L285.081 14.5743ZM281.436 5.27263C281.294 4.76373 280.947 4.33889 280.481 4.1079L280.392 4.28704C280.806 4.49218 281.116 4.87074 281.244 5.32657L281.436 5.27263ZM280.481 4.10793C280.029 3.88274 279.494 3.85921 279.014 4.04132L279.085 4.22835C279.514 4.06549 279.991 4.08722 280.392 4.28701L280.481 4.10793ZM279.013 4.04161C278.05 4.41547 277.527 5.50123 277.816 6.51252L278.008 6.45752C277.746 5.54196 278.222 4.56316 279.085 4.22806L279.013 4.04161ZM277.816 6.51288L278.014 7.19401L278.206 7.13828L278.008 6.45716L277.816 6.51288ZM278.028 7.10879L273.369 13.7635L273.532 13.8782L278.192 7.2235L278.028 7.10879ZM273.534 13.7658L268.633 6.32802L268.466 6.43806L273.367 13.8759L273.534 13.7658ZM268.638 6.33602C268.4 5.88949 267.988 5.56172 267.505 5.43817L267.456 5.63192C267.883 5.74119 268.249 6.03188 268.461 6.43005L268.638 6.33602ZM267.505 5.43816C267.035 5.31806 266.528 5.39968 266.108 5.67145L266.216 5.83936C266.59 5.59761 267.04 5.52576 267.456 5.63193L267.505 5.43816ZM266.106 5.67223C265.283 6.22185 265.028 7.34656 265.518 8.23236L265.693 8.13556C265.251 7.33652 265.485 6.3278 266.218 5.83858L266.106 5.67223ZM265.518 8.23239L271.217 18.5266L271.392 18.4297L265.693 8.13553L265.518 8.23239ZM271.262 18.3874C270.075 18.9367 268.88 20.1245 268.518 22.6061L268.716 22.635C269.069 20.2167 270.224 19.0884 271.346 18.5689L271.262 18.3874ZM268.522 22.5889C268.499 22.6555 268.474 22.7364 268.474 22.8274H268.674C268.674 22.7717 268.69 22.7178 268.711 22.6522L268.522 22.5889ZM268.474 22.8274C268.474 22.8515 268.48 22.8715 268.483 22.8787C268.484 22.8837 268.484 22.8845 268.485 22.8854C268.485 22.8857 268.484 22.8836 268.484 22.8801L268.683 22.8654C268.682 22.854 268.68 22.8443 268.679 22.8372C268.677 22.8306 268.675 22.824 268.674 22.8217C268.672 22.8142 268.674 22.8194 268.674 22.8274H268.474ZM268.484 22.86C268.484 22.8646 268.483 22.869 268.483 22.8713C268.483 22.8743 268.483 22.8752 268.483 22.8758L268.681 22.9014C268.682 22.8968 268.682 22.8923 268.682 22.89C268.683 22.887 268.683 22.8861 268.683 22.8855L268.484 22.86ZM268.639 22.8066C267.049 21.6946 265.157 21.0846 263.177 21.0846V21.2846C265.115 21.2846 266.968 21.8817 268.525 22.9705L268.639 22.8066ZM263.177 21.0846C261.399 21.0846 259.668 21.5857 258.175 22.501L258.28 22.6715C259.741 21.7751 261.436 21.2846 263.177 21.2846V21.0846ZM258.328 22.5863V22.15H258.128V22.5863H258.328ZM258.328 22.15C258.328 20.6635 257.743 19.2688 256.68 18.2234L256.54 18.3659C257.564 19.3739 258.128 20.7173 258.128 22.15H258.328ZM256.68 18.2234C255.613 17.1726 254.197 16.5941 252.695 16.5941V16.7941C254.145 16.7941 255.51 17.3521 256.54 18.3659L256.68 18.2234ZM252.695 16.5941C249.767 16.5941 247.352 18.8042 247.081 21.6221L247.28 21.6412C247.541 18.9272 249.868 16.7941 252.695 16.7941V16.5941ZM247.234 21.5472C246.536 21.104 245.687 20.8978 244.822 21.028L244.852 21.2257C245.666 21.1032 246.467 21.297 247.127 21.7161L247.234 21.5472ZM244.822 21.028L243.648 21.2074L243.678 21.4051L244.852 21.2257L244.822 21.028ZM243.648 21.2073C242.721 21.3439 241.903 21.8272 241.347 22.568L241.507 22.6881C242.031 21.99 242.802 21.5342 243.677 21.4052L243.648 21.2073ZM241.347 22.568C240.792 23.3086 240.562 24.2191 240.702 25.1311L240.9 25.1008C240.768 24.2421 240.984 23.3858 241.507 22.6881L241.347 22.568ZM240.702 25.1311L241.728 31.8131L241.926 31.7828L240.9 25.1008L240.702 25.1311ZM241.827 31.6979H241.201V31.8979H241.827V31.6979ZM241.201 31.6979C240.771 31.6979 240.42 32.042 240.42 32.4695H240.62C240.62 32.1552 240.878 31.8979 241.201 31.8979V31.6979ZM240.42 32.4695V40.634H240.62V32.4695H240.42ZM240.42 40.634V48.7981H240.62V40.634H240.42ZM240.42 48.7981V56.9626H240.62V48.7981H240.42ZM240.42 56.9626C240.42 57.3901 240.771 57.7342 241.201 57.7342V57.5342C240.878 57.5342 240.62 57.2769 240.62 56.9626H240.42ZM241.201 57.7342H285.983V57.5342H241.201V57.7342ZM285.983 57.7342C286.414 57.7342 286.764 57.3901 286.764 56.9626H286.565C286.565 57.2769 286.306 57.5342 285.983 57.5342V57.7342ZM286.764 56.9626V48.7981H286.565V56.9626H286.764ZM286.764 48.7981V40.634H286.565V48.7981H286.764ZM286.764 40.634V32.4695H286.565V40.634H286.764ZM286.764 32.4695C286.764 32.042 286.414 31.6979 285.983 31.6979V31.8979C286.306 31.8979 286.565 32.1552 286.565 32.4695H286.764ZM285.983 31.6979H285.968V31.8979H285.983V31.6979ZM286.062 31.8314C286.243 31.3236 286.417 30.823 286.575 30.3452L286.385 30.2825C286.228 30.7582 286.054 31.2572 285.874 31.7645L286.062 31.8314ZM286.58 30.3139V30.3139V30.3139C286.58 30.3139 286.58 30.3139 286.58 30.3139C286.58 30.3139 286.58 30.3139 286.58 30.3139C286.58 30.3139 286.58 30.3139 286.58 30.3138V30.3138C286.48 30.3138 286.38 30.3138 286.38 30.3138C286.38 30.3138 286.38 30.3138 286.38 30.3138C286.38 30.3138 286.38 30.3138 286.38 30.3139C286.38 30.3139 286.38 30.3139 286.38 30.3139C286.38 30.3139 286.38 30.3139 286.38 30.3139C286.38 30.3139 286.38 30.3139 286.38 30.3139C286.38 30.3139 286.38 30.3139 286.38 30.3139C286.38 30.3139 286.38 30.3139 286.38 30.3139C286.38 30.3139 286.38 30.3139 286.38 30.3139V30.3139C286.38 30.3139 286.38 30.3139 286.38 30.3139C286.38 30.3139 286.38 30.3139 286.38 30.3139V30.3139C286.38 30.3139 286.48 30.3139 286.58 30.3139V30.3139C286.58 30.3139 286.58 30.3139 286.58 30.3139C286.58 30.3139 286.58 30.3139 286.58 30.3139C286.58 30.3139 286.58 30.3139 286.58 30.3139C286.58 30.3139 286.58 30.3139 286.58 30.3139V30.3139H286.38V30.3139C286.38 30.3139 286.38 30.3139 286.38 30.3139C286.38 30.3139 286.38 30.3139 286.38 30.3139C286.38 30.3139 286.38 30.3139 286.38 30.3139C286.38 30.3139 286.38 30.3139 286.38 30.3139V30.3139C286.48 30.3139 286.58 30.3139 286.58 30.3139V30.3139C286.58 30.3139 286.58 30.3139 286.58 30.3139C286.58 30.3139 286.58 30.3139 286.58 30.3139V30.3139C286.58 30.3139 286.58 30.3139 286.58 30.3139C286.58 30.3139 286.58 30.3139 286.58 30.3139C286.58 30.3139 286.58 30.3139 286.58 30.3139C286.58 30.3139 286.58 30.3139 286.58 30.3139C286.58 30.3139 286.58 30.3139 286.58 30.3139C286.58 30.3139 286.58 30.3139 286.58 30.3139C286.58 30.3138 286.58 30.3138 286.58 30.3138C286.58 30.3138 286.58 30.3138 286.58 30.3138C286.58 30.3138 286.48 30.3138 286.38 30.3138V30.3138C286.38 30.3139 286.38 30.3139 286.38 30.3139C286.38 30.3139 286.38 30.3139 286.38 30.3139C286.38 30.3139 286.38 30.3139 286.38 30.3139V30.3139V30.3139H286.58ZM286.575 30.3459C286.576 30.3427 286.574 30.3484 286.575 30.3452C286.575 30.3446 286.575 30.3454 286.575 30.3448C286.575 30.3446 286.575 30.3446 286.575 30.3444L286.386 30.2803C286.385 30.2835 286.387 30.2779 286.386 30.2811C286.385 30.2817 286.386 30.2809 286.386 30.2814C286.385 30.2816 286.385 30.2816 286.385 30.2818L286.575 30.3459ZM286.576 30.3415C286.576 30.3412 286.576 30.3409 286.577 30.3408C286.577 30.3407 286.577 30.3406 286.577 30.3406C286.577 30.3405 286.577 30.3405 286.577 30.3405C286.577 30.3403 286.577 30.3406 286.576 30.3411C286.576 30.3419 286.575 30.3443 286.574 30.3475L286.389 30.2722C286.387 30.2762 286.386 30.2795 286.386 30.2811C286.385 30.282 286.385 30.2827 286.385 30.2831C286.385 30.2836 286.385 30.2833 286.385 30.2833L286.576 30.3415ZM286.581 30.3098C286.581 30.3098 286.581 30.3098 286.581 30.3098C286.581 30.3098 286.581 30.3098 286.581 30.3098C286.581 30.3098 286.581 30.3098 286.581 30.3098C286.581 30.3098 286.581 30.3098 286.581 30.3098V30.3098C286.581 30.3098 286.581 30.3098 286.581 30.3098C286.481 30.3098 286.381 30.3098 286.381 30.3098C286.381 30.3098 286.381 30.3098 286.381 30.3098C286.381 30.3098 286.381 30.3098 286.381 30.3098V30.3098V30.3098V30.3098V30.3098V30.3098V30.3098C286.381 30.3098 286.381 30.3098 286.381 30.3098C286.381 30.3098 286.381 30.3098 286.381 30.3098C286.381 30.3098 286.381 30.3098 286.381 30.3099C286.381 30.3099 286.381 30.3099 286.381 30.3099C286.381 30.3099 286.481 30.3099 286.581 30.3099V30.3099C286.581 30.3099 286.581 30.3099 286.581 30.3098C286.581 30.3098 286.581 30.3098 286.581 30.3098C286.581 30.3098 286.581 30.3098 286.581 30.3098C286.581 30.3098 286.581 30.3098 286.581 30.3098C286.581 30.3098 286.581 30.3098 286.581 30.3098H286.381C286.381 30.3098 286.381 30.3098 286.381 30.3098C286.381 30.3098 286.381 30.3098 286.381 30.3098C286.381 30.3098 286.381 30.3098 286.381 30.3098C286.381 30.3098 286.381 30.3098 286.381 30.3098C286.381 30.3099 286.381 30.3099 286.381 30.3099V30.3099C286.481 30.3099 286.581 30.3099 286.581 30.3099C286.581 30.3099 286.581 30.3099 286.581 30.3099C286.581 30.3098 286.581 30.3098 286.581 30.3098C286.581 30.3098 286.581 30.3098 286.581 30.3098C286.581 30.3098 286.581 30.3098 286.581 30.3098V30.3098V30.3098V30.3098V30.3098V30.3098V30.3098C286.581 30.3098 286.581 30.3098 286.581 30.3098C286.581 30.3098 286.581 30.3098 286.581 30.3098C286.581 30.3098 286.481 30.3098 286.381 30.3098C286.381 30.3098 286.381 30.3098 286.381 30.3098V30.3098C286.381 30.3098 286.381 30.3098 286.381 30.3098C286.381 30.3098 286.381 30.3098 286.381 30.3098C286.381 30.3098 286.381 30.3098 286.381 30.3098C286.381 30.3098 286.381 30.3098 286.381 30.3098H286.581ZM286.576 30.3418C287.127 28.7063 287.531 27.3518 287.74 26.4255L287.545 26.3813C287.338 27.2976 286.937 28.6445 286.387 30.2779L286.576 30.3418ZM287.74 26.4256C287.871 25.8554 287.959 25.3073 288.005 24.7956L287.805 24.7777C287.76 25.2796 287.674 25.8188 287.545 26.3811L287.74 26.4256ZM288.005 24.7958C288.004 24.8065 288.001 24.8148 287.999 24.8198C287.998 24.8242 287.996 24.8278 287.996 24.8269C287.996 24.8269 287.997 24.8266 287.997 24.8263C287.997 24.8259 287.997 24.8254 287.997 24.8247C287.998 24.8234 287.999 24.8212 288 24.8185C288.002 24.8132 288.004 24.8044 288.005 24.7933L287.806 24.7749C287.807 24.7643 287.81 24.7559 287.812 24.751C287.813 24.7466 287.815 24.743 287.815 24.7438C287.815 24.7438 287.814 24.7441 287.814 24.7445C287.814 24.7448 287.814 24.7454 287.814 24.746C287.813 24.7474 287.812 24.7495 287.811 24.7522C287.809 24.7576 287.807 24.7663 287.805 24.7775L288.005 24.7958ZM288.005 24.7935C288.269 22.0038 287.262 20.4641 286.129 19.6242L286.01 19.7848C287.084 20.5806 288.064 22.0506 287.806 24.7747L288.005 24.7935ZM286.144 19.7709L294.623 10.2244L294.473 10.0916L285.995 19.6381L286.144 19.7709ZM294.648 10.158C294.648 10.1756 294.643 10.1904 294.638 10.2014C294.633 10.2115 294.628 10.2183 294.626 10.2203C294.626 10.2209 294.625 10.2213 294.625 10.2214C294.625 10.2218 294.625 10.2213 294.625 10.2212C294.626 10.2208 294.628 10.2184 294.63 10.2152C294.632 10.2121 294.637 10.2057 294.64 10.1969C294.644 10.1877 294.649 10.1739 294.649 10.1567H294.449C294.449 10.1396 294.453 10.1258 294.457 10.1168C294.461 10.108 294.465 10.1018 294.467 10.0987C294.47 10.0956 294.472 10.0933 294.472 10.093C294.472 10.093 294.472 10.0925 294.472 10.0929C294.472 10.0931 294.471 10.0936 294.471 10.0942C294.469 10.0964 294.463 10.1034 294.458 10.1138C294.453 10.125 294.448 10.1401 294.448 10.158H294.648ZM294.624 10.2229C295.321 9.43368 295.321 8.23104 294.612 7.47886L294.466 7.61608C295.101 8.28969 295.106 9.37525 294.474 10.0905L294.624 10.2229ZM241.883 41.4056H285.301V41.2056H241.883V41.4056ZM285.201 41.3056V48.1266H285.401V41.3056H285.201ZM285.301 48.0266H241.883V48.2266H285.301V48.0266ZM241.983 48.1266V41.3056H241.783V48.1266H241.983ZM285.201 33.1411V39.9624H285.401V33.1411H285.201ZM285.301 39.8624H241.883V40.0624H285.301V39.8624ZM241.983 39.9624V33.1411H241.783V39.9624H241.983ZM241.883 33.2411H242.619V33.0411H241.883V33.2411ZM242.619 33.2411H248.748V33.0411H242.619V33.2411ZM248.748 33.2411H254.279V33.0411H248.748V33.2411ZM254.279 33.2411H254.719V33.0411H254.279V33.2411ZM254.719 33.2411H269.994V33.0411H254.719V33.2411ZM269.994 33.2411H276.711V33.0411H269.994V33.2411ZM276.711 33.2411H285.004V33.0411H276.711V33.2411ZM285.004 33.2411H285.301V33.0411H285.004V33.2411ZM250.505 25.8356C251.021 25.7591 251.532 25.8845 251.951 26.1876L252.068 26.0256C251.607 25.6918 251.044 25.5536 250.476 25.6378L250.505 25.8356ZM251.951 26.1876C252.369 26.4908 252.642 26.9357 252.718 27.4414L252.916 27.4115C252.831 26.8522 252.53 26.3599 252.068 26.0256L251.951 26.1876ZM252.718 27.4416L253.388 31.8131L253.586 31.7828L252.916 27.4113L252.718 27.4416ZM253.487 31.6979H249.335V31.8979H253.487V31.6979ZM249.434 31.7828L248.857 28.0137L248.66 28.044L249.236 31.813L249.434 31.7828ZM248.858 28.0141C248.795 27.5949 248.873 27.1734 249.083 26.7942L248.908 26.6974C248.677 27.114 248.591 27.5798 248.66 28.0436L248.858 28.0141ZM249.082 26.7951C249.371 26.2856 249.87 25.9395 250.455 25.8412L250.421 25.644C249.778 25.7521 249.228 26.1337 248.908 26.6964L249.082 26.7951ZM250.445 25.8423C250.466 25.8408 250.486 25.8386 250.506 25.8356L250.476 25.6378C250.461 25.6401 250.446 25.6418 250.431 25.6429L250.445 25.8423ZM276.131 30.1258C276.129 30.1484 276.127 30.1717 276.125 30.1946C276.123 30.2177 276.121 30.2403 276.119 30.262L276.318 30.2814C276.32 30.2587 276.322 30.2353 276.324 30.2125C276.326 30.1894 276.328 30.1669 276.33 30.1453L276.131 30.1258ZM276.119 30.2621C276.077 30.6899 276.037 31.1359 275.999 31.5932L276.198 31.6099C276.237 31.1532 276.276 30.7082 276.318 30.2814L276.119 30.2621ZM275.999 31.5932C275.994 31.6519 275.987 31.7276 275.981 31.7898L276.181 31.8061C276.187 31.732 276.192 31.6862 276.198 31.6099L275.999 31.5932ZM276.081 31.6979H270.584V31.8979H276.081V31.6979ZM270.683 31.7834C270.673 31.7148 270.663 31.648 270.653 31.5798L270.455 31.6082C270.465 31.6767 270.476 31.7449 270.485 31.8124L270.683 31.7834ZM270.653 31.5797C270.594 31.1697 270.537 30.7551 270.483 30.337L270.284 30.3628C270.339 30.7819 270.396 31.1974 270.455 31.6082L270.653 31.5797ZM270.483 30.3369C270.476 30.2875 270.47 30.2467 270.464 30.1988L270.266 30.2245C270.272 30.2693 270.279 30.3197 270.284 30.3629L270.483 30.3369ZM270.464 30.199C270.404 29.7264 270.347 29.2517 270.294 28.7794L270.095 28.8017C270.149 29.2749 270.205 29.7506 270.266 30.2244L270.464 30.199ZM270.294 28.7793C270.289 28.7342 270.285 28.6942 270.28 28.648L270.081 28.6702C270.086 28.7118 270.091 28.7589 270.095 28.8018L270.294 28.7793ZM270.18 28.7591H276.389V28.5591H270.18V28.7591ZM276.29 28.6474C276.287 28.6759 276.283 28.7062 276.28 28.7358C276.277 28.7657 276.274 28.7949 276.271 28.8222L276.47 28.8452C276.473 28.8165 276.476 28.786 276.479 28.7564C276.482 28.7266 276.485 28.6976 276.489 28.6708L276.29 28.6474ZM276.271 28.8222C276.223 29.2402 276.176 29.6708 276.131 30.1258L276.33 30.1453C276.375 29.6917 276.422 29.2623 276.47 28.8451L276.271 28.8222ZM277.146 23.5207C277.098 23.6949 277.054 23.8746 277.01 24.0618L277.205 24.1075C277.249 23.9209 277.292 23.7445 277.339 23.5744L277.146 23.5207ZM277.01 24.0624C276.968 24.2465 276.925 24.4522 276.883 24.6693L277.079 24.7077C277.122 24.4917 277.164 24.2883 277.205 24.1069L277.01 24.0624ZM276.883 24.6691C276.878 24.6924 276.873 24.7178 276.868 24.7429L277.065 24.781C277.07 24.7555 277.074 24.7343 277.079 24.7079L276.883 24.6691ZM276.868 24.743C276.827 24.9558 276.786 25.1847 276.745 25.4261L276.942 25.4598C276.983 25.2195 277.024 24.992 277.065 24.7808L276.868 24.743ZM276.745 25.426C276.739 25.4624 276.733 25.499 276.726 25.5358L276.924 25.5692C276.93 25.5322 276.936 25.496 276.942 25.4599L276.745 25.426ZM276.726 25.536C276.685 25.7806 276.644 26.0371 276.603 26.3081L276.801 26.338C276.842 26.0682 276.883 25.8127 276.924 25.569L276.726 25.536ZM276.603 26.3082C276.598 26.3424 276.593 26.3789 276.588 26.4129L276.785 26.4423C276.791 26.407 276.796 26.3723 276.801 26.338L276.603 26.3082ZM276.588 26.4129C276.545 26.6974 276.503 26.992 276.461 27.3026L276.659 27.3294C276.701 27.0199 276.743 26.7262 276.785 26.4424L276.588 26.4129ZM276.56 27.216H270.043V27.416H276.56V27.216ZM270.142 27.3067C270.134 27.2164 270.125 27.1257 270.117 27.0383L269.918 27.0561C269.926 27.1436 269.935 27.237 269.943 27.3252L270.142 27.3067ZM270.117 27.0384C270.106 26.9076 270.095 26.7786 270.084 26.6522L269.885 26.6684C269.895 26.7954 269.906 26.9249 269.918 27.056L270.117 27.0384ZM270.084 26.6521C270.068 26.4583 270.055 26.2718 270.042 26.0888L269.842 26.1028C269.855 26.2863 269.869 26.4736 269.885 26.6684L270.084 26.6521ZM270.042 26.0888C270.034 25.9693 270.025 25.8494 270.018 25.7359L269.818 25.7481C269.825 25.8628 269.834 25.984 269.842 26.1027L270.042 26.0888ZM270.018 25.7359C270.006 25.5452 269.998 25.3666 269.99 25.1908L269.79 25.1999C269.798 25.3761 269.807 25.5559 269.818 25.7481L270.018 25.7359ZM269.99 25.1908C269.985 25.1017 269.98 25.0108 269.977 24.928L269.777 24.9351C269.78 25.019 269.786 25.1142 269.79 25.1999L269.99 25.1908ZM269.977 24.928C269.968 24.6768 269.963 24.4413 269.963 24.2319H269.763C269.763 24.4446 269.768 24.6826 269.777 24.9351L269.977 24.928ZM269.963 24.2319C269.963 23.9846 269.971 23.7417 269.988 23.506L269.788 23.492C269.772 23.7324 269.763 23.9801 269.763 24.2319H269.963ZM269.888 23.599H277.239V23.399H269.888V23.599ZM277.14 23.5073C277.14 23.5141 277.141 23.5211 277.141 23.5293C277.142 23.5372 277.142 23.5463 277.143 23.5556L277.342 23.5394C277.342 23.5324 277.341 23.5252 277.341 23.517C277.34 23.509 277.34 23.5 277.339 23.4907L277.14 23.5073ZM286.216 26.0877C286.042 26.8538 285.722 27.9501 285.284 29.2824L285.474 29.3449C285.913 28.0105 286.234 26.9072 286.411 26.132L286.216 26.0877ZM285.4 29.216L282.986 28.6848L282.943 28.8801L285.357 29.4113L285.4 29.216ZM282.986 28.6848L277.91 27.5674L277.867 27.7628L282.943 28.8801L282.986 28.6848ZM277.988 27.6784C277.988 27.6746 277.989 27.6708 277.989 27.667C277.99 27.6633 277.99 27.6596 277.991 27.656L277.792 27.6293C277.792 27.6331 277.791 27.637 277.791 27.6407C277.79 27.6445 277.79 27.6482 277.789 27.6518L277.988 27.6784ZM277.991 27.6559C278.032 27.3447 278.074 27.0458 278.117 26.7584L277.919 26.7292C277.876 27.0174 277.834 27.3172 277.792 27.6294L277.991 27.6559ZM278.117 26.7584C278.122 26.7222 278.127 26.6861 278.133 26.6504L277.935 26.621C277.929 26.6568 277.924 26.6931 277.919 26.7293L278.117 26.7584ZM278.133 26.6505C278.174 26.3749 278.215 26.1118 278.256 25.8636L278.059 25.8308C278.018 26.0802 277.976 26.3444 277.935 26.6209L278.133 26.6505ZM278.256 25.8637C278.262 25.8283 278.268 25.7978 278.273 25.7625L278.076 25.7295C278.071 25.7618 278.065 25.7974 278.059 25.8307L278.256 25.8637ZM278.273 25.7626C278.315 25.5154 278.357 25.2815 278.398 25.0674L278.201 25.0298C278.16 25.2457 278.118 25.4812 278.076 25.7294L278.273 25.7626ZM278.398 25.0669C278.401 25.048 278.405 25.0315 278.409 25.0113L278.212 24.9724C278.209 24.9909 278.205 25.0099 278.201 25.0303L278.398 25.0669ZM278.409 25.0108C278.451 24.7897 278.493 24.5848 278.534 24.4056L278.339 24.3612C278.298 24.5433 278.255 24.7505 278.212 24.9729L278.409 25.0108ZM278.534 24.4061C278.581 24.2065 278.627 24.017 278.686 23.8153L278.495 23.7585C278.433 23.966 278.386 24.1602 278.339 24.3607L278.534 24.4061ZM278.687 23.8121C278.711 23.7211 278.736 23.6322 278.762 23.5457L278.571 23.4877C278.544 23.5769 278.518 23.6684 278.494 23.7617L278.687 23.8121ZM278.645 23.6143L286.456 25.3421L286.499 25.1469L278.688 23.4191L278.645 23.6143ZM286.379 25.2296C286.337 25.5053 286.282 25.7922 286.216 26.0879L286.411 26.1319C286.478 25.8321 286.534 25.5405 286.576 25.2594L286.379 25.2296ZM281.43 18.5817C280.296 18.8146 279.041 19.5036 278.091 21.1629L278.264 21.2623C279.185 19.6549 280.39 18.9994 281.47 18.7776L281.43 18.5817ZM278.272 21.1796C277.736 19.646 276.799 18.8254 275.874 18.396L275.789 18.5774C276.669 18.9853 277.566 19.7659 278.083 21.2455L278.272 21.1796ZM275.919 18.5351L279.568 11.9374L279.393 11.8406L275.744 18.4383L275.919 18.5351ZM279.384 11.9169L281.354 18.7076L281.546 18.6518L279.576 11.8611L279.384 11.9169ZM266.972 6.95724C267.03 6.91971 267.08 6.92334 267.113 6.93179L267.163 6.73802C267.09 6.71958 266.98 6.71403 266.863 6.78931L266.972 6.95724ZM267.113 6.93178C267.16 6.94369 267.214 6.97743 267.287 7.10898L267.462 7.01205C267.376 6.85766 267.285 6.76941 267.163 6.73803L267.113 6.93178ZM267.291 7.11551L272.778 15.4485L272.945 15.3385L267.458 7.00552L267.291 7.11551ZM272.778 15.4486C272.92 15.6645 273.162 15.7957 273.422 15.7995L273.425 15.5995C273.23 15.5967 273.05 15.4984 272.945 15.3385L272.778 15.4486ZM273.426 15.7994C273.672 15.7921 273.926 15.682 274.076 15.4665L273.912 15.352C273.805 15.5064 273.615 15.5937 273.42 15.5995L273.426 15.7994ZM274.076 15.4666L278.676 8.89649L278.513 8.78178L273.912 15.3519L274.076 15.4666ZM278.499 8.86727L278.571 9.11501L278.763 9.05874L278.69 8.811L278.499 8.86727ZM278.571 9.11475L278.85 10.0762L279.042 10.0204L278.763 9.05901L278.571 9.11475ZM278.859 9.99989L274.409 18.0449L274.584 18.1417L279.034 10.0967L278.859 9.99989ZM274.512 17.9944C274.494 17.9917 274.476 17.991 274.464 17.9906C274.45 17.99 274.443 17.9897 274.437 17.9889L274.41 18.187C274.427 18.1894 274.445 18.19 274.456 18.1904C274.47 18.1909 274.477 18.1913 274.482 18.1922L274.512 17.9944ZM274.437 17.9889C274.158 17.9499 273.87 17.9264 273.576 17.9259L273.576 18.1259C273.86 18.1263 274.138 18.149 274.41 18.187L274.437 17.9889ZM273.576 17.9259C273.58 17.9259 273.582 17.9263 273.579 17.9259C273.577 17.9257 273.569 17.9248 273.56 17.9248V18.1248C273.556 18.1248 273.554 18.1244 273.557 18.1247C273.559 18.125 273.567 18.1259 273.576 18.1259V17.9259ZM273.56 17.9248C273.535 17.9248 273.511 17.9272 273.493 17.9291C273.473 17.9311 273.459 17.9326 273.446 17.9328L273.449 18.1328C273.473 18.1324 273.496 18.1298 273.514 18.128C273.533 18.126 273.546 18.1248 273.56 18.1248V17.9248ZM273.445 17.9328C273.206 17.9372 272.967 17.9532 272.728 17.9842L272.754 18.1825C272.984 18.1526 273.216 18.137 273.449 18.1328L273.445 17.9328ZM272.728 17.9842C272.717 17.9856 272.705 17.986 272.688 17.9867C272.672 17.9873 272.65 17.9882 272.628 17.9914L272.657 18.1893C272.667 18.1878 272.678 18.1872 272.695 18.1866C272.711 18.186 272.732 18.1853 272.754 18.1825L272.728 17.9842ZM272.73 18.0419L266.89 7.49215L266.715 7.58902L272.555 18.1388L272.73 18.0419ZM266.89 7.49224C266.837 7.39665 266.822 7.28452 266.84 7.18356C266.857 7.08191 266.907 7.00057 266.973 6.95645L266.862 6.7901C266.74 6.87124 266.668 7.00666 266.643 7.14889C266.617 7.29182 266.638 7.45072 266.715 7.58893L266.89 7.49224ZM272.468 19.593C273.003 19.4634 273.596 19.434 274.137 19.5002L274.161 19.3017C273.598 19.2327 272.98 19.2631 272.421 19.3986L272.468 19.593ZM274.137 19.5002C274.318 19.5224 274.493 19.5552 274.658 19.5984L274.709 19.4049C274.534 19.3593 274.35 19.3249 274.161 19.3017L274.137 19.5002ZM274.659 19.5986C275.254 19.7499 275.736 20.0356 276.113 20.4601C276.491 20.8855 276.768 21.455 276.943 22.1794L277.137 22.1323C276.957 21.385 276.668 20.7832 276.263 20.3273C275.857 19.8705 275.338 19.565 274.708 19.4048L274.659 19.5986ZM277.04 22.0559H270.087V22.2559H277.04V22.0559ZM270.184 22.1793C270.36 21.4523 270.637 20.8808 271.016 20.4544C271.393 20.0289 271.876 19.743 272.469 19.5927L272.42 19.3988C271.791 19.5581 271.272 19.8638 270.866 20.3217C270.461 20.7787 270.171 21.3825 269.99 22.1324L270.184 22.1793ZM268.402 24.5287C268.402 24.5366 268.402 24.5452 268.402 24.552C268.403 24.5596 268.403 24.5653 268.403 24.57L268.603 24.5674C268.603 24.5594 268.603 24.5508 268.602 24.5439C268.602 24.5364 268.602 24.5307 268.602 24.526L268.402 24.5287ZM268.403 24.5706C268.407 24.764 268.413 24.974 268.423 25.1965L268.623 25.1877C268.613 24.9665 268.606 24.7583 268.603 24.5669L268.403 24.5706ZM268.423 25.1965C268.425 25.2419 268.427 25.2872 268.429 25.3338L268.629 25.3245C268.627 25.2782 268.625 25.2331 268.623 25.1877L268.423 25.1965ZM268.429 25.334C268.44 25.5587 268.454 25.7953 268.471 26.0443L268.67 26.0309C268.654 25.7831 268.64 25.5478 268.629 25.3244L268.429 25.334ZM268.471 26.0442C268.474 26.0975 268.478 26.1519 268.482 26.2058L268.681 26.1916C268.678 26.1374 268.674 26.0837 268.67 26.031L268.471 26.0442ZM268.482 26.2057C268.5 26.4631 268.52 26.7295 268.544 27.0078L268.744 26.9907C268.72 26.7135 268.699 26.4482 268.681 26.1917L268.482 26.2057ZM268.544 27.0078C268.548 27.0488 268.552 27.0968 268.556 27.1371L268.755 27.1197C268.751 27.0743 268.747 27.0346 268.744 26.9906L268.544 27.0078ZM268.556 27.1371C268.582 27.4317 268.61 27.7342 268.642 28.047L268.841 28.0267C268.809 27.7149 268.781 27.4134 268.755 27.1196L268.556 27.1371ZM268.642 28.0472C268.642 28.0495 268.643 28.0518 268.643 28.055C268.643 28.0579 268.643 28.0617 268.644 28.0658L268.843 28.0451C268.842 28.0427 268.842 28.0404 268.842 28.0373C268.842 28.0343 268.841 28.0306 268.841 28.0265L268.642 28.0472ZM268.644 28.0657C268.701 28.6242 268.767 29.1911 268.836 29.7577L269.034 29.7336C268.965 29.1677 268.9 28.6021 268.843 28.0452L268.644 28.0657ZM268.836 29.7578C268.848 29.8615 268.86 29.9649 268.873 30.0693L269.072 30.0444C269.059 29.9403 269.047 29.8385 269.034 29.7336L268.836 29.7578ZM268.873 30.0692C268.942 30.6201 269.015 31.167 269.092 31.7068L269.29 31.6785C269.213 31.14 269.14 30.5942 269.072 30.0445L268.873 30.0692ZM269.092 31.7066C269.094 31.7232 269.097 31.7403 269.099 31.7581C269.101 31.7757 269.104 31.7941 269.106 31.8122L269.304 31.7836C269.302 31.7672 269.3 31.7503 269.297 31.7325C269.295 31.715 269.293 31.6967 269.29 31.6786L269.092 31.7066ZM269.205 31.6979H255.285V31.8979H269.205V31.6979ZM255.384 31.7804C255.366 31.6792 255.346 31.6011 255.333 31.5088L255.135 31.5366C255.148 31.6308 255.172 31.7327 255.187 31.8155L255.384 31.7804ZM255.333 31.5088C255.322 31.4288 255.311 31.3523 255.302 31.2746L255.103 31.2961C255.112 31.3779 255.124 31.4587 255.135 31.5366L255.333 31.5088ZM255.302 31.2745C255.272 30.995 255.251 30.7138 255.251 30.4285H255.051C255.051 30.7232 255.072 31.0121 255.103 31.2962L255.302 31.2745ZM255.251 30.4285C255.251 30.1417 255.267 29.8568 255.299 29.5751L255.1 29.553C255.068 29.842 255.051 30.1343 255.051 30.4285H255.251ZM255.299 29.5751C255.518 27.6032 256.493 25.7829 258.052 24.4852L257.924 24.3315C256.326 25.662 255.325 27.5294 255.1 29.553L255.299 29.5751ZM258.052 24.4849C259.479 23.2875 261.3 22.6277 263.177 22.6277V22.4277C261.253 22.4277 259.387 23.1038 257.924 24.3317L258.052 24.4849ZM263.177 22.6277C265.129 22.6277 266.985 23.3269 268.436 24.6024L268.568 24.4522C267.08 23.1444 265.177 22.4277 263.177 22.4277V22.6277ZM248.617 22.15C248.617 19.9388 250.445 18.1372 252.695 18.1372V17.9372C250.338 17.9372 248.417 19.8254 248.417 22.15H248.617ZM252.695 18.1372C253.781 18.1372 254.804 18.5558 255.576 19.3162L255.717 19.1737C254.906 18.3764 253.834 17.9372 252.695 17.9372V18.1372ZM255.576 19.3162C256.343 20.0703 256.765 21.0763 256.765 22.15H256.965C256.965 21.0226 256.521 19.9653 255.717 19.1737L255.576 19.3162ZM256.765 22.15V23.5925H256.965V22.15H256.765ZM256.798 23.5178C256.761 23.5507 256.728 23.5856 256.698 23.6176C256.668 23.6506 256.641 23.6801 256.611 23.7076L256.749 23.8531C256.784 23.8201 256.816 23.7851 256.845 23.754C256.875 23.7219 256.902 23.6931 256.931 23.6671L256.798 23.5178ZM256.611 23.7076C256.426 23.8824 256.248 24.0623 256.078 24.2506L256.227 24.3844C256.392 24.2009 256.567 24.0249 256.749 23.8531L256.611 23.7076ZM256.078 24.2506C255.984 24.3554 255.891 24.4614 255.802 24.5707L255.956 24.6976C256.043 24.5914 256.134 24.4878 256.227 24.3845L256.078 24.2506ZM255.802 24.5707C255.639 24.7682 255.488 24.9721 255.344 25.1799L255.509 25.2938C255.65 25.0893 255.798 24.89 255.956 24.6977L255.802 24.5707ZM255.344 25.1799C255.275 25.2801 255.196 25.3866 255.127 25.4955L255.296 25.6027C255.362 25.498 255.434 25.4019 255.509 25.2938L255.344 25.1799ZM255.127 25.4956C254.953 25.7692 254.796 26.0513 254.653 26.3401L254.832 26.4289C254.973 26.1458 255.126 25.8699 255.296 25.6026L255.127 25.4956ZM254.653 26.34C254.643 26.3608 254.631 26.3812 254.618 26.4051C254.605 26.4281 254.59 26.4542 254.577 26.482L254.757 26.5676C254.767 26.5473 254.778 26.5271 254.792 26.5038C254.804 26.4815 254.819 26.4558 254.832 26.429L254.653 26.34ZM254.577 26.482C254.416 26.822 254.279 27.1722 254.161 27.5286L254.351 27.5915C254.467 27.2417 254.6 26.8992 254.757 26.5676L254.577 26.482ZM254.161 27.5286C254.158 27.5355 254.155 27.5429 254.15 27.5555C254.145 27.5666 254.138 27.5827 254.132 27.6005L254.323 27.6613C254.325 27.6548 254.328 27.6476 254.333 27.6354C254.338 27.6247 254.345 27.6087 254.351 27.5915L254.161 27.5286ZM254.326 27.6157L254.264 27.2113L254.067 27.2416L254.129 27.646L254.326 27.6157ZM254.264 27.2114C254.125 26.2969 253.631 25.4912 252.876 24.9435L252.758 25.1054C253.471 25.6221 253.936 26.3806 254.067 27.2415L254.264 27.2114ZM252.876 24.9435C252.704 24.8195 252.524 24.7168 252.339 24.6273L252.252 24.8072C252.429 24.8929 252.599 24.9898 252.758 25.1054L252.876 24.9435ZM252.34 24.6273C252.277 24.5969 252.204 24.5711 252.151 24.5493L252.075 24.734C252.144 24.763 252.195 24.7796 252.252 24.8072L252.34 24.6273ZM252.151 24.5493C252.024 24.4963 251.893 24.4479 251.758 24.4097L251.704 24.6022C251.829 24.6375 251.951 24.6829 252.075 24.734L252.151 24.5493ZM251.758 24.4097C251.684 24.3889 251.61 24.3724 251.538 24.357L251.496 24.5526C251.568 24.5678 251.636 24.5832 251.704 24.6023L251.758 24.4097ZM251.538 24.357C251.404 24.3284 251.269 24.3085 251.132 24.2957L251.113 24.4948C251.243 24.507 251.37 24.5257 251.496 24.5526L251.538 24.357ZM251.132 24.2957C251.065 24.2895 250.992 24.2815 250.919 24.2791L250.912 24.479C250.978 24.4812 251.042 24.4882 251.113 24.4949L251.132 24.2957ZM250.919 24.2791C250.905 24.2787 250.89 24.277 250.87 24.2748C250.851 24.2728 250.828 24.2703 250.803 24.2703V24.4703C250.816 24.4703 250.829 24.4716 250.848 24.4736C250.866 24.4755 250.889 24.4783 250.912 24.479L250.919 24.2791ZM250.803 24.2703C250.642 24.2703 250.481 24.2814 250.319 24.3033L250.346 24.5015C250.499 24.4808 250.652 24.4703 250.803 24.4703V24.2703ZM250.327 24.3025C250.303 24.3037 250.279 24.3064 250.256 24.3097L250.284 24.5076C250.303 24.505 250.32 24.5031 250.337 24.5023L250.327 24.3025ZM250.255 24.3097C250.122 24.3298 249.99 24.3572 249.862 24.3913L249.914 24.5846C250.035 24.5524 250.159 24.5264 250.285 24.5075L250.255 24.3097ZM249.862 24.3913C249.838 24.3978 249.815 24.4055 249.794 24.4125C249.773 24.4199 249.755 24.4262 249.737 24.4318L249.796 24.623C249.818 24.6161 249.84 24.6082 249.859 24.6017C249.879 24.5949 249.896 24.5891 249.913 24.5846L249.862 24.3913ZM249.737 24.4318C249.657 24.4562 249.57 24.4816 249.486 24.5142L249.558 24.7006C249.633 24.6714 249.711 24.6487 249.795 24.623L249.737 24.4318ZM249.486 24.5142C249.439 24.5327 249.381 24.5617 249.346 24.5771L249.427 24.7602C249.483 24.7356 249.513 24.7184 249.558 24.7006L249.486 24.5142ZM249.346 24.5772C249.278 24.6072 249.201 24.639 249.128 24.677L249.221 24.8541C249.286 24.8203 249.353 24.7928 249.427 24.7602L249.346 24.5772ZM249.128 24.677C249.084 24.7003 249.032 24.7344 248.999 24.7537L249.099 24.9266C249.15 24.8967 249.179 24.8763 249.221 24.8542L249.128 24.677ZM248.999 24.7537C248.941 24.7872 248.871 24.8246 248.808 24.8669L248.919 25.0332C248.975 24.9955 249.032 24.9654 249.099 24.9266L248.999 24.7537ZM248.962 24.9348L248.805 23.915L248.607 23.9454L248.764 24.9653L248.962 24.9348ZM248.805 23.913C248.766 23.6928 248.704 23.4833 248.632 23.2806L248.444 23.3479C248.514 23.5435 248.572 23.7416 248.608 23.9474L248.805 23.913ZM248.632 23.2807C248.63 23.2751 248.629 23.2684 248.625 23.2537C248.622 23.2414 248.618 23.2216 248.61 23.2018L248.424 23.2735C248.425 23.278 248.427 23.2842 248.43 23.298C248.433 23.3094 248.437 23.3287 248.444 23.3477L248.632 23.2807ZM248.617 23.2377V22.15H248.417V23.2377H248.617ZM242.248 24.9005C242.171 24.3972 242.297 23.8957 242.604 23.4869L242.444 23.3668C242.105 23.8185 241.965 24.3742 242.05 24.9308L242.248 24.9005ZM242.604 23.4869C242.911 23.0772 243.363 22.8095 243.883 22.7329L243.854 22.535C243.283 22.6191 242.783 22.9141 242.444 23.3668L242.604 23.4869ZM243.883 22.7328L245.06 22.5531L245.029 22.3554L243.853 22.5351L243.883 22.7328ZM245.059 22.5531C245.923 22.4233 246.769 22.8855 247.116 23.669L247.299 23.588C246.915 22.7208 245.981 22.2124 245.03 22.3554L245.059 22.5531ZM247.116 23.668C247.182 23.8231 247.232 23.9938 247.262 24.1619L247.459 24.1268C247.427 23.9447 247.373 23.7592 247.3 23.5891L247.116 23.668ZM247.262 24.1595L247.594 26.3241L247.792 26.2938L247.46 24.1292L247.262 24.1595ZM247.602 26.2664C247.587 26.2986 247.575 26.3306 247.565 26.3595C247.554 26.3896 247.546 26.415 247.535 26.4405L247.72 26.5161C247.733 26.4854 247.744 26.4538 247.753 26.427C247.763 26.3991 247.773 26.3745 247.783 26.3514L247.602 26.2664ZM247.535 26.4407C247.508 26.5066 247.479 26.577 247.455 26.6492L247.645 26.7124C247.666 26.6477 247.693 26.5846 247.72 26.5159L247.535 26.4407ZM247.455 26.6491C247.419 26.7553 247.393 26.862 247.369 26.9665L247.564 27.0113C247.588 26.9085 247.612 26.8093 247.645 26.7125L247.455 26.6491ZM247.369 26.9664C247.355 27.0259 247.336 27.0983 247.324 27.1683L247.521 27.2011C247.532 27.139 247.548 27.0825 247.564 27.0114L247.369 26.9664ZM247.324 27.1682C247.303 27.2902 247.295 27.4122 247.288 27.5307L247.487 27.5424C247.494 27.4249 247.503 27.3119 247.521 27.2012L247.324 27.1682ZM247.288 27.5305C247.286 27.556 247.284 27.5806 247.281 27.6098C247.278 27.6377 247.276 27.6686 247.276 27.7007L247.476 27.7025C247.476 27.6791 247.478 27.6551 247.48 27.6282C247.482 27.6025 247.486 27.5723 247.487 27.5426L247.288 27.5305ZM247.276 27.7007C247.274 27.8793 247.284 28.0597 247.311 28.2409L247.509 28.2116C247.484 28.0421 247.474 27.8723 247.476 27.7024L247.276 27.7007ZM247.311 28.2414L247.857 31.813L248.055 31.7828L247.509 28.2112L247.311 28.2414ZM247.956 31.6979H243.205V31.8979H247.956V31.6979ZM243.304 31.7828L242.248 24.9004L242.05 24.9308L243.106 31.8131L243.304 31.7828ZM285.301 56.191H241.883V56.391H285.301V56.191ZM241.983 56.291V49.4697H241.783V56.291H241.983ZM241.883 49.5697H285.301V49.3697H241.883V49.5697ZM285.201 49.4697V56.291H285.401V49.4697H285.201ZM277.55 31.8062C277.553 31.7631 277.556 31.7214 277.56 31.6795L277.361 31.6624C277.357 31.7041 277.354 31.7487 277.35 31.7896L277.55 31.8062ZM277.56 31.6793C277.596 31.2483 277.634 30.8288 277.673 30.4251L277.474 30.4059C277.434 30.8105 277.397 31.2309 277.361 31.6626L277.56 31.6793ZM277.673 30.4253C277.674 30.4108 277.675 30.3959 277.677 30.3815C277.678 30.3669 277.679 30.3528 277.681 30.3393L277.482 30.3198C277.48 30.3342 277.479 30.3491 277.478 30.3635C277.476 30.3781 277.475 30.3922 277.474 30.4058L277.673 30.4253ZM277.681 30.3393C277.723 29.9105 277.766 29.5009 277.811 29.1055L277.612 29.083C277.567 29.4793 277.524 29.89 277.482 30.3198L277.681 30.3393ZM277.811 29.1056C277.815 29.0693 277.817 29.0543 277.822 29.0164L277.623 28.9935C277.62 29.0163 277.615 29.0581 277.612 29.0829L277.811 29.1056ZM277.701 29.1026L284.927 30.6931L284.97 30.4978L277.744 28.9073L277.701 29.1026ZM284.854 30.5629C284.719 30.9546 284.577 31.3565 284.43 31.764L284.619 31.8319C284.766 31.4235 284.908 31.0207 285.043 30.628L284.854 30.5629ZM284.525 31.6979H277.45V31.8979H284.525V31.6979ZM279.25 22.2923C279.61 21.5418 280.046 20.9852 280.559 20.6112C281.071 20.2379 281.666 20.0427 282.353 20.0227L282.347 19.8228C281.623 19.8438 280.988 20.0505 280.441 20.4496C279.895 20.8479 279.44 21.4339 279.069 22.2057L279.25 22.2923ZM282.353 20.0227C282.734 20.0096 283.115 20.0485 283.548 20.145L283.592 19.9497C283.145 19.8501 282.747 19.809 282.346 19.8228L282.353 20.0227ZM283.55 20.1453C283.949 20.2281 284.324 20.3601 284.675 20.5439L284.768 20.3667C284.399 20.174 284.007 20.0358 283.59 19.9494L283.55 20.1453ZM284.677 20.5448C285.865 21.1355 286.476 22.2494 286.485 23.892L286.685 23.891C286.676 22.1928 286.038 20.9981 284.766 20.3657L284.677 20.5448ZM286.606 23.7939L279.181 22.1513L279.138 22.3466L286.563 23.9892L286.606 23.7939ZM293.446 9.20788L284.778 18.968L284.927 19.1008L293.596 9.34069L293.446 9.20788ZM284.89 18.9417C284.862 18.9305 284.835 18.9211 284.809 18.9126C284.783 18.9038 284.76 18.8962 284.737 18.8877L284.667 19.0752C284.694 19.0852 284.722 19.0941 284.746 19.1023C284.771 19.1107 284.794 19.1185 284.815 19.1272L284.89 18.9417ZM284.737 18.8876C284.682 18.8675 284.628 18.8488 284.574 18.8306L284.51 19.0201C284.564 19.038 284.615 19.056 284.667 19.0752L284.737 18.8876ZM284.574 18.8306C284.35 18.7547 284.119 18.6866 283.882 18.6374L283.841 18.8333C284.068 18.8802 284.29 18.9457 284.51 19.0201L284.574 18.8306ZM283.883 18.6378C283.635 18.5821 283.397 18.5465 283.162 18.5199L283.14 18.7186C283.369 18.7447 283.601 18.7793 283.84 18.8329L283.883 18.6378ZM283.162 18.5199C283.111 18.5142 283.058 18.5083 283.006 18.5037L282.989 18.7029C283.038 18.7072 283.089 18.7129 283.14 18.7186L283.162 18.5199ZM283.006 18.5037C282.983 18.5016 282.958 18.4986 282.931 18.4954C282.905 18.4923 282.877 18.4891 282.848 18.4873L282.836 18.6869C282.858 18.6883 282.882 18.6909 282.908 18.694C282.933 18.697 282.961 18.7005 282.989 18.7029L283.006 18.5037ZM282.938 18.5593L280.431 9.90982L280.239 9.9655L282.746 18.615L282.938 18.5593ZM280.431 9.90973L279.321 6.09277L279.129 6.14863L280.239 9.96559L280.431 9.90973ZM279.321 6.09305C279.246 5.8312 279.376 5.55919 279.58 5.47968L279.507 5.29331C279.191 5.41646 279.03 5.80422 279.129 6.14836L279.321 6.09305ZM279.579 5.47999C279.669 5.44587 279.737 5.46543 279.778 5.48611L279.869 5.30787C279.789 5.26756 279.662 5.23465 279.508 5.29301L279.579 5.47999ZM279.779 5.4867C279.842 5.51784 279.901 5.58014 279.952 5.74862L280.143 5.69136C280.085 5.49454 280 5.37255 279.867 5.30729L279.779 5.4867ZM279.954 5.75644L284.003 16.1012L284.19 16.0283L280.141 5.68354L279.954 5.75644ZM284.003 16.1012C284.099 16.3461 284.314 16.5253 284.573 16.5785L284.613 16.3826C284.42 16.3428 284.26 16.2091 284.19 16.0284L284.003 16.1012ZM284.573 16.5786C284.835 16.6321 285.103 16.5516 285.288 16.3652L285.147 16.2241C285.009 16.3623 284.81 16.4228 284.613 16.3826L284.573 16.5786ZM285.288 16.3654L293.062 8.59375L292.921 8.45231L285.147 16.2239L285.288 16.3654ZM293.066 8.58915C293.14 8.50602 293.224 8.46623 293.303 8.46462L293.299 8.26466C293.153 8.26764 293.019 8.34065 292.916 8.45691L293.066 8.58915ZM293.31 8.46425C293.344 8.46119 293.411 8.47255 293.472 8.53573L293.616 8.39686C293.511 8.28755 293.383 8.25694 293.292 8.26504L293.31 8.46425ZM293.472 8.5349C293.627 8.69967 293.627 9.00315 293.446 9.20821L293.596 9.34036C293.834 9.07059 293.854 8.64938 293.617 8.39769L293.472 8.5349Z" fill="white" mask="url(#path-7-outside-1_1672_13616)"/>
<path d="M259.627 26.3165L259.627 26.3166C258.484 27.2685 257.801 28.6003 257.701 30.0684C257.675 30.4503 257.352 30.7417 256.972 30.7417L259.627 26.3165ZM259.627 26.3165C260.712 25.4061 262.146 24.9477 263.544 25.0387L263.544 25.0387L259.627 26.3165ZM256.241 29.9718L256.241 29.9718C256.366 28.1364 257.255 26.4029 258.681 25.2157C260.052 24.065 261.847 23.4825 263.64 23.5984C264.042 23.6244 264.349 23.9673 264.322 24.3654C264.322 24.3655 264.322 24.3655 264.322 24.3655L264.272 24.3622L256.241 29.9718ZM256.241 29.9718C256.214 30.3701 256.519 30.7133 256.922 30.7399L256.241 29.9718ZM265.736 25.6525L265.736 25.6526C265.934 25.7562 266.125 25.8719 266.306 25.9967C266.433 26.0847 266.58 26.1269 266.724 26.1269C266.955 26.1269 267.182 26.0201 267.324 25.8195L267.324 25.8195C267.556 25.4927 267.476 25.0424 267.144 24.8139C266.915 24.6564 266.673 24.5097 266.424 24.3789L266.424 24.3789C266.065 24.1913 265.625 24.3246 265.434 24.6761L265.434 24.6762C265.244 25.0283 265.379 25.4653 265.736 25.6525ZM244.962 25.2292L244.962 25.2291L244.962 25.2292L245.087 26.0458L245.087 26.0458C245.142 26.4039 245.455 26.6594 245.81 26.6594C245.846 26.6594 245.882 26.657 245.92 26.6513C246.318 26.5919 246.594 26.2246 246.534 25.83L246.534 25.8299L246.409 25.0135L246.36 25.021L246.409 25.0135L246.3 24.3034C246.3 24.3033 246.3 24.3033 246.3 24.3032C246.229 23.825 245.823 23.4934 245.319 23.4934C245.287 23.4934 245.27 23.494 245.11 23.5167C244.949 23.5396 244.64 23.5853 244.024 23.6765L244.024 23.6766L243.974 23.6839L243.982 23.7336L244.184 25.0616L244.192 25.1109L244.241 25.1036L244.234 25.0541L244.241 25.1036L244.241 25.1036L244.241 25.1036L244.241 25.1035L244.242 25.1034L244.246 25.1029L244.259 25.1009L244.309 25.0935L244.483 25.0677L244.927 25.0023L244.962 25.2292ZM250.664 30.128L250.664 30.128L251.497 30.7336C251.497 30.7336 251.497 30.7336 251.497 30.7335C251.896 30.6741 252.172 30.3068 252.111 29.9122L252.111 29.9121L251.754 27.5848C251.754 27.5848 251.754 27.5848 251.754 27.5847C251.683 27.1051 251.275 26.7726 250.769 26.7726C250.365 26.7726 250.037 27.095 250.037 27.4941C250.037 27.7401 250.162 27.9566 250.351 28.0869L250.664 30.128ZM254.886 19.9905L254.886 19.9905C254.298 19.4117 253.52 19.0931 252.695 19.0931C252.291 19.0931 251.963 19.4155 251.963 19.8146C251.963 20.2138 252.291 20.5362 252.695 20.5362C253.129 20.5362 253.541 20.7054 253.853 21.0124C254.159 21.3135 254.327 21.7171 254.327 22.1497C254.327 22.5489 254.655 22.8713 255.059 22.8713C255.462 22.8713 255.79 22.5489 255.79 22.1497C255.79 21.3313 255.469 20.5646 254.886 19.9905Z" fill="white" stroke="white" stroke-width="0.1"/>
<path d="M387.427 48.963V47.1169C386.873 47.2942 386.308 47.4537 385.751 47.5964V49.4186C386.294 49.2856 386.857 49.135 387.427 48.963Z" fill="white"/>
<path d="M395.687 33.3924C395.347 33.434 387.317 34.4559 384.523 37.4063C383.098 38.9129 382.153 41.8544 381.56 44.4281V33.38C381.869 33.3419 389.008 32.4352 391.503 29.7968C393.999 27.1584 394.856 19.6048 394.892 19.2822L395.015 18.1699L393.963 18.3002C393.661 18.3375 386.516 19.2432 384.02 21.8834C382.887 23.0807 382.092 25.2884 381.56 27.3782V18.2869C382.65 18.1372 387.041 17.4352 388.748 15.6282C390.592 13.6784 391.221 8.40689 391.286 7.81221L391.409 6.69995L390.361 6.83023C389.799 6.89936 384.815 7.56317 382.969 9.51472C381.742 10.8113 381.057 13.5685 380.713 15.4527C380.37 13.5703 379.684 10.8131 378.457 9.51472C376.613 7.56494 371.627 6.89936 371.065 6.83023L370.01 6.70084L370.132 7.8131C370.197 8.40778 370.825 13.6784 372.672 15.629C374.391 17.4476 378.829 18.1469 379.884 18.2878V27.4739C379.349 25.3593 378.55 23.1002 377.4 21.8834C374.904 19.2432 367.761 18.3383 367.457 18.3002L366.405 18.1699L366.527 19.2822C366.562 19.603 367.42 27.1566 369.916 29.7968C372.412 32.437 379.555 33.3419 379.86 33.38L379.884 33.3862V44.5389C379.297 41.9395 378.341 38.9333 376.896 37.4063C374.101 34.4497 366.072 33.434 365.732 33.3924L364.68 33.2621L364.803 34.3752C364.842 34.7351 365.809 43.2263 368.598 46.1794C371.387 49.1324 379.422 50.1516 379.762 50.1932L379.884 50.2083V57.3152H369.826V59.0878H391.618V57.3152H381.56V50.2048L381.657 50.1932C381.77 50.1791 382.74 50.0541 384.075 49.79V47.9865C383.521 48.1017 382.999 48.1983 382.543 48.2745C382.957 45.4721 383.999 40.4665 385.708 38.6594C387.417 36.8523 392.152 35.7507 394.802 35.3111C394.388 38.1126 393.346 43.1182 391.636 44.9262C390.894 45.6155 390.035 46.1488 389.104 46.4975V48.3932C390.474 47.9339 391.74 47.1795 392.821 46.1776C395.615 43.2246 396.578 34.7333 396.617 34.3735L396.739 33.2603L395.687 33.3924ZM385.205 23.1366C386.672 21.5856 390.718 20.6222 393.075 20.2216C392.697 22.7138 391.787 26.99 390.318 28.5436C388.849 30.0973 384.806 31.058 382.449 31.4577C382.828 28.9655 383.739 24.6884 385.205 23.1366ZM384.151 10.7679C385.122 9.7416 387.743 9.07513 389.46 8.7614C389.163 10.5773 388.533 13.3505 387.563 14.3759C386.593 15.4013 383.971 16.0686 382.254 16.3824C382.551 14.5673 383.181 11.7942 384.151 10.7679ZM373.857 14.3759C372.886 13.3505 372.256 10.5773 371.959 8.7614C373.676 9.07513 376.298 9.7416 377.269 10.7679C378.239 11.7942 378.869 14.5682 379.166 16.3824C377.453 16.0695 374.829 15.4039 373.857 14.3759ZM371.101 28.5436C369.634 26.9918 368.724 22.7138 368.345 20.2216C370.702 20.6213 374.745 21.5829 376.214 23.1366C377.684 24.6902 378.592 28.9655 378.971 31.4586C376.615 31.0589 372.57 30.0973 371.101 28.5436ZM369.783 44.9262C368.077 43.1209 367.033 38.1135 366.618 35.3111C369.268 35.7543 374.003 36.8541 375.711 38.6594C377.418 40.4647 378.459 45.4721 378.878 48.2754C376.227 47.8322 371.493 46.7333 369.783 44.9262Z" fill="white"/>
<path d="M367.755 150.589C367.266 150.589 366.87 150.206 366.87 149.733V148.966C366.869 148.963 366.839 148.88 366.836 148.879L361.45 143.014C360.901 142.419 360.6 141.65 360.6 140.846V128.313C360.6 127.534 360.909 126.799 361.47 126.248C362.032 125.694 362.785 125.384 363.59 125.384C365.24 125.384 366.584 126.698 366.584 128.313L366.596 137.103C366.596 137.575 366.2 137.959 365.711 137.959C365.222 137.959 364.826 137.576 364.826 137.105L364.813 128.314C364.813 127.642 364.265 127.096 363.589 127.096C363.266 127.096 362.962 127.22 362.733 127.446C362.496 127.678 362.369 127.987 362.369 128.313V140.846C362.369 141.228 362.51 141.593 362.771 141.876L368.159 147.742C368.467 148.07 368.639 148.506 368.639 148.966V149.733C368.64 150.206 368.244 150.589 367.755 150.589Z" fill="white"/>
<path d="M375.775 150.589C375.277 150.589 374.871 150.206 374.871 149.732V144.899C374.871 144.551 374.726 144.211 374.472 143.965L367.684 137.424C367.324 137.077 366.699 137.077 366.338 137.424C365.993 137.758 365.956 138.291 366.251 138.668L369.539 142.345C369.862 142.707 369.815 143.247 369.434 143.553C369.054 143.857 368.482 143.815 368.159 143.453L364.838 139.733C363.978 138.645 364.084 137.153 365.049 136.222C366.095 135.213 367.926 135.213 368.973 136.222L375.761 142.763C376.352 143.334 376.679 144.092 376.679 144.898V149.731C376.678 150.206 376.274 150.589 375.775 150.589Z" fill="white"/>
<path d="M377.288 155.63H365.838C365.368 155.63 364.985 155.256 364.985 154.794V149.264C364.985 148.802 365.368 148.428 365.838 148.428H377.288C377.758 148.428 378.141 148.802 378.141 149.264V154.794C378.141 155.256 377.758 155.63 377.288 155.63ZM366.691 153.958H376.436V150.1H366.691V153.958Z" fill="white"/>
<path d="M394.294 150.589C393.849 150.589 393.489 150.206 393.489 149.733V148.966C393.489 148.506 393.646 148.07 393.932 147.734L398.823 141.878C399.06 141.594 399.19 141.23 399.19 140.847V128.313C399.19 127.987 399.073 127.68 398.861 127.451C398.65 127.221 398.374 127.096 398.08 127.096C397.467 127.096 396.967 127.643 396.967 128.313L396.958 137.104C396.956 137.576 396.596 137.958 396.153 137.958C396.152 137.958 396.152 137.958 396.152 137.958C395.707 137.958 395.347 137.574 395.349 137.103L395.359 128.313C395.359 126.697 396.579 125.384 398.08 125.384C398.81 125.384 399.497 125.693 400.008 126.252C400.517 126.8 400.798 127.534 400.798 128.313V140.846C400.798 141.65 400.522 142.419 400.022 143.016L395.097 148.965V149.732C395.098 150.206 394.738 150.589 394.294 150.589Z" fill="white"/>
<path d="M386.3 150.589C385.83 150.589 385.45 150.206 385.45 149.732V144.899C385.45 144.093 385.757 143.334 386.316 142.764L392.7 136.223C393.684 135.213 395.407 135.213 396.391 136.223C397.299 137.153 397.399 138.645 396.621 139.693L393.465 143.454C393.162 143.815 392.623 143.859 392.266 143.554C391.908 143.248 391.864 142.707 392.167 142.346L395.292 138.626C395.539 138.291 395.504 137.757 395.179 137.425C394.84 137.077 394.252 137.077 393.912 137.425L387.528 143.966C387.287 144.212 387.151 144.552 387.151 144.9V149.733C387.15 150.206 386.77 150.589 386.3 150.589Z" fill="white"/>
<path d="M395.796 155.886H384.161C383.681 155.886 383.294 155.504 383.294 155.032V149.382C383.294 148.909 383.681 148.528 384.161 148.528H395.796C396.276 148.528 396.663 148.909 396.663 149.382V155.032C396.663 155.504 396.276 155.886 395.796 155.886ZM385.028 154.178H394.929V150.236H385.028V154.178Z" fill="white"/>
<path d="M381.064 138.346C380.941 138.346 380.82 138.321 380.708 138.27L379.936 137.93C366.527 132.008 367.913 115.884 367.978 115.2L368.148 113.426C368.191 112.975 368.58 112.64 369.04 112.645L370.817 112.689C370.971 112.688 375.234 112.627 379.133 108.889L380.455 107.624C380.795 107.299 381.334 107.299 381.675 107.624L382.994 108.889C386.912 112.645 391.155 112.688 391.335 112.688L393.101 112.624C393.586 112.587 393.967 112.956 394.004 113.415L394.151 115.212C394.216 115.884 395.6 132.008 382.191 137.93L381.421 138.27C381.307 138.32 381.186 138.346 381.064 138.346ZM369.812 114.388L369.718 115.362C369.659 115.995 368.373 130.934 380.65 136.358L381.064 136.54L381.478 136.357C393.755 130.934 392.469 115.995 392.41 115.362L392.329 114.376L391.366 114.411C391.364 114.411 391.363 114.411 391.363 114.411C391.078 114.411 386.174 114.342 381.774 110.124L381.064 109.443L380.353 110.125C376.029 114.271 371.323 114.41 370.8 114.414L369.812 114.388Z" fill="white"/>
<path d="M33.5004 152.5C28.1158 151.427 23.2696 148.521 19.787 144.276C16.3045 140.031 14.4009 134.711 14.4004 129.22V114.32L33.5004 110.5L52.6004 114.32V129.22C52.5999 134.711 50.6963 140.031 47.2137 144.276C43.7312 148.521 38.885 151.427 33.5004 152.5Z" stroke="white" stroke-width="2" stroke-miterlimit="10"/>
<path d="M23.96 129.36L31.12 136.52L43.04 124.58" stroke="white" stroke-width="2" stroke-miterlimit="10"/>
<path d="M159.28 145.68C158.288 146.946 157.027 147.976 155.588 148.696C154.149 149.415 152.568 149.806 150.96 149.84H148.96C145.172 149.8 141.544 148.311 138.82 145.68C128 131.5 150 111.5 150 111.5L160 126.4C161.906 129.287 162.862 132.698 162.733 136.156C162.604 139.613 161.396 142.943 159.28 145.68Z" stroke="white" stroke-width="2" stroke-miterlimit="10"/>
<path d="M149.94 126.1V153.5" stroke="white" stroke-width="2" stroke-miterlimit="10"/>
<path d="M142.64 137.06L149.94 144.36" stroke="white" stroke-width="2" stroke-miterlimit="10"/>
<path d="M155.42 131.58L149.94 137.06" stroke="white" stroke-width="2" stroke-miterlimit="10"/>
<path d="M244 121.96H286V144.86C286 146.886 285.195 148.829 283.762 150.262C282.33 151.695 280.386 152.5 278.36 152.5H251.64C249.614 152.5 247.67 151.695 246.238 150.262C244.805 148.829 244 146.886 244 144.86V121.96Z" stroke="white" stroke-width="2" stroke-miterlimit="10"/>
<path d="M251.64 129.6V123.86C251.64 120.317 253.047 116.919 255.553 114.413C258.058 111.908 261.456 110.5 265 110.5C266.754 110.5 268.491 110.846 270.112 111.517C271.733 112.188 273.206 113.172 274.447 114.413C275.687 115.654 276.671 117.126 277.343 118.747C278.014 120.368 278.36 122.106 278.36 123.86V129.6" stroke="white" stroke-width="2" stroke-miterlimit="10"/>
<path d="M257.36 137.22C257.36 136.218 257.558 135.225 257.942 134.299C258.326 133.374 258.89 132.533 259.599 131.825C260.309 131.117 261.151 130.556 262.078 130.174C263.005 129.793 263.998 129.597 265 129.6" stroke="white" stroke-width="2" stroke-miterlimit="10"/>
<path d="M272.64 137.22C272.64 139.246 271.835 141.189 270.402 142.622C268.97 144.055 267.026 144.86 265 144.86" stroke="white" stroke-width="2" stroke-miterlimit="10"/>
<path d="M276.46 135.32H268.82L272.64 131.5L276.46 135.32Z" fill="white"/>
<path d="M253.54 139.14H261.18L257.36 142.96L253.54 139.14Z" fill="white"/>
<path d="M272.64 135.32V137.22" stroke="white" stroke-width="2" stroke-miterlimit="10"/>
</svg>
