<svg width="48" height="32" viewBox="0 0 48 32" fill="none" xmlns="http://www.w3.org/2000/svg">
<path d="M0.0560001 32V31.52L1.016 31.136C1.656 30.912 2.072 30.608 2.264 30.224C2.488 29.84 2.6 29.344 2.6 28.736V3.632C2.6 2.992 2.488 2.48 2.264 2.096C2.072 1.712 1.656 1.408 1.016 1.184L0.0560001 0.799998V0.319999H12.248V0.799998L11.432 1.136C10.824 1.36 10.408 1.664 10.184 2.048C9.96 2.4 9.848 2.896 9.848 3.536V15.2H21.32V3.536C21.32 2.896 21.208 2.4 20.984 2.048C20.792 1.664 20.376 1.36 19.736 1.136L18.872 0.799998V0.319999H31.112V0.799998L30.152 1.184C29.544 1.408 29.128 1.712 28.904 2.096C28.68 2.48 28.568 2.992 28.568 3.632V28.736C28.568 29.344 28.68 29.84 28.904 30.224C29.128 30.608 29.544 30.912 30.152 31.136L31.112 31.52V32H18.872V31.52L19.736 31.232C20.376 30.976 20.792 30.672 20.984 30.32C21.208 29.936 21.32 29.424 21.32 28.784V16.16H9.848V28.784C9.848 29.968 10.376 30.784 11.432 31.232L12.248 31.52V32H0.0560001ZM33.5315 32V31.52L35.4035 30.944C36.6195 30.528 37.2275 29.712 37.2275 28.496V5.264L33.3395 5.792V5.168C35.2275 4.784 37.0355 4.24 38.7635 3.536C40.5235 2.832 42.1715 2.016 43.7075 1.088L44.3315 1.52L44.1395 8.384V28.496C44.1395 29.744 44.7475 30.544 45.9635 30.896L47.9315 31.52V32H33.5315Z" fill="white"/>
</svg>
