<svg width="219" height="64" viewBox="0 0 219 64" fill="none" xmlns="http://www.w3.org/2000/svg">
<rect width="219" height="64" rx="10" fill="#0D3D2D"/>
<path d="M85.441 32.256C85.8463 32.32 86.2143 32.4853 86.545 32.752C86.8863 33.0187 87.153 33.3493 87.345 33.744C87.5477 34.1387 87.649 34.56 87.649 35.008C87.649 35.5733 87.505 36.0853 87.217 36.544C86.929 36.992 86.5077 37.3493 85.953 37.616C85.409 37.872 84.7637 38 84.017 38H79.857V26.848H83.857C84.6143 26.848 85.2597 26.976 85.793 27.232C86.3263 27.4773 86.7263 27.8133 86.993 28.24C87.2597 28.6667 87.393 29.1467 87.393 29.68C87.393 30.3413 87.2117 30.8907 86.849 31.328C86.497 31.7547 86.0277 32.064 85.441 32.256ZM81.313 31.664H83.761C84.4437 31.664 84.9717 31.504 85.345 31.184C85.7183 30.864 85.905 30.4213 85.905 29.856C85.905 29.2907 85.7183 28.848 85.345 28.528C84.9717 28.208 84.433 28.048 83.729 28.048H81.313V31.664ZM83.889 36.8C84.6143 36.8 85.1797 36.6293 85.585 36.288C85.9903 35.9467 86.193 35.472 86.193 34.864C86.193 34.2453 85.9797 33.76 85.553 33.408C85.1263 33.0453 84.5557 32.864 83.841 32.864H81.313V36.8H83.889ZM91.0935 26.848V33.904C91.0935 34.896 91.3335 35.632 91.8135 36.112C92.3042 36.592 92.9815 36.832 93.8455 36.832C94.6988 36.832 95.3655 36.592 95.8455 36.112C96.3362 35.632 96.5815 34.896 96.5815 33.904V26.848H98.0375V33.888C98.0375 34.816 97.8508 35.6 97.4775 36.24C97.1042 36.8693 96.5975 37.3387 95.9575 37.648C95.3282 37.9573 94.6188 38.112 93.8295 38.112C93.0402 38.112 92.3255 37.9573 91.6855 37.648C91.0562 37.3387 90.5548 36.8693 90.1815 36.24C89.8188 35.6 89.6375 34.816 89.6375 33.888V26.848H91.0935ZM107.33 26.848V28.032H104.29V38H102.834V28.032H99.7784V26.848H107.33ZM115.987 26.848V28.032H112.947V38H111.491V28.032H108.435V26.848H115.987ZM122.835 38.112C121.8 38.112 120.856 37.872 120.003 37.392C119.15 36.9013 118.472 36.224 117.971 35.36C117.48 34.4853 117.235 33.504 117.235 32.416C117.235 31.328 117.48 30.352 117.971 29.488C118.472 28.6133 119.15 27.936 120.003 27.456C120.856 26.9653 121.8 26.72 122.835 26.72C123.88 26.72 124.83 26.9653 125.683 27.456C126.536 27.936 127.208 28.608 127.699 29.472C128.19 30.336 128.435 31.3173 128.435 32.416C128.435 33.5147 128.19 34.496 127.699 35.36C127.208 36.224 126.536 36.9013 125.683 37.392C124.83 37.872 123.88 38.112 122.835 38.112ZM122.835 36.848C123.614 36.848 124.312 36.6667 124.931 36.304C125.56 35.9413 126.051 35.424 126.403 34.752C126.766 34.08 126.947 33.3013 126.947 32.416C126.947 31.52 126.766 30.7413 126.403 30.08C126.051 29.408 125.566 28.8907 124.947 28.528C124.328 28.1653 123.624 27.984 122.835 27.984C122.046 27.984 121.342 28.1653 120.723 28.528C120.104 28.8907 119.614 29.408 119.251 30.08C118.899 30.7413 118.723 31.52 118.723 32.416C118.723 33.3013 118.899 34.08 119.251 34.752C119.614 35.424 120.104 35.9413 120.723 36.304C121.352 36.6667 122.056 36.848 122.835 36.848ZM139.125 38H137.669L131.813 29.12V38H130.357V26.832H131.813L137.669 35.696V26.832H139.125V38Z" fill="#F9F2E8"/>
</svg>
