<svg width="36" height="36" viewBox="0 0 36 36" fill="none" xmlns="http://www.w3.org/2000/svg">
<path d="M18 36C27.9411 36 36 27.9411 36 18C36 8.05888 27.9411 0 18 0C8.05888 0 0 8.05888 0 18C0 27.9411 8.05888 36 18 36Z" fill="#980B2D"/>
<path d="M24.453 14.8693C19.254 14.8693 19.2472 20.0487 19.2472 20.0754C19.2472 20.0754 18.8911 25.2612 24.453 25.2612C24.453 25.2612 29.0914 25.525 29.0914 21.6521H26.7096C26.7096 21.6521 26.7886 23.1101 24.5322 23.1101C24.5322 23.1101 22.1504 23.2686 22.1504 20.7546H29.1707C29.1707 20.7546 29.9427 14.8693 24.453 14.8693ZM22.1238 18.9401C22.1238 18.9401 22.4142 16.8552 24.5059 16.8552C26.6041 16.8552 26.571 18.9401 26.571 18.9401H22.1238ZM16.173 17.6076C16.173 17.6076 18.2381 17.4558 18.2381 15.0278C18.2381 12.6066 16.5491 11.4187 14.4047 11.4187H7.35107V24.9773H14.4041C14.4041 24.9773 18.7127 25.1095 18.7127 20.9725C18.713 20.9725 18.8978 17.6076 16.173 17.6076ZM10.459 13.8268H14.4044C14.4044 13.8268 15.3612 13.8268 15.3612 15.2386C15.3612 16.6504 14.8003 16.8552 14.1602 16.8552H10.459V13.8268ZM14.2067 22.5692H10.459V18.9401H14.4044C14.4044 18.9401 15.8364 18.927 15.8297 20.8073C15.8297 22.3911 14.7676 22.556 14.2067 22.5692ZM21.5366 12.217V13.8865H27.1319V12.217H21.5366Z" fill="#010000"/>
</svg>
