<svg width="147" height="48" viewBox="0 0 147 48" fill="none" xmlns="http://www.w3.org/2000/svg">
<rect width="147" height="48" rx="5" transform="matrix(1 0 0 -1 0 48)" fill="#1A63A8"/>
<path d="M48.1201 23.24C48.7708 23.3787 49.2935 23.704 49.6881 24.216C50.0828 24.7173 50.2801 25.2933 50.2801 25.944C50.2801 26.8827 49.9495 27.6293 49.2881 28.184C48.6375 28.728 47.7255 29 46.5521 29H41.3201V17.768H46.3761C47.5175 17.768 48.4081 18.0293 49.0481 18.552C49.6988 19.0747 50.0241 19.784 50.0241 20.68C50.0241 21.3413 49.8481 21.8907 49.4961 22.328C49.1548 22.7653 48.6961 23.0693 48.1201 23.24ZM44.0561 22.312H45.8481C46.2961 22.312 46.6375 22.216 46.8721 22.024C47.1175 21.8213 47.2401 21.528 47.2401 21.144C47.2401 20.76 47.1175 20.4667 46.8721 20.264C46.6375 20.0613 46.2961 19.96 45.8481 19.96H44.0561V22.312ZM46.0721 26.792C46.5308 26.792 46.8828 26.6907 47.1281 26.488C47.3841 26.2747 47.5121 25.9707 47.5121 25.576C47.5121 25.1813 47.3788 24.872 47.1121 24.648C46.8561 24.424 46.4988 24.312 46.0401 24.312H44.0561V26.792H46.0721ZM54.555 17.768V24.488C54.555 25.16 54.7203 25.6773 55.051 26.04C55.3817 26.4027 55.867 26.584 56.507 26.584C57.147 26.584 57.6377 26.4027 57.979 26.04C58.3203 25.6773 58.491 25.16 58.491 24.488V17.768H61.227V24.472C61.227 25.4747 61.0137 26.3227 60.587 27.016C60.1603 27.7093 59.5843 28.232 58.859 28.584C58.1443 28.936 57.3443 29.112 56.459 29.112C55.5737 29.112 54.779 28.9413 54.075 28.6C53.3817 28.248 52.8323 27.7253 52.427 27.032C52.0217 26.328 51.819 25.4747 51.819 24.472V17.768H54.555ZM71.2283 17.768V19.96H68.2523V29H65.5163V19.96H62.5403V17.768H71.2283ZM80.6814 17.768V19.96H77.7054V29H74.9694V19.96H71.9934V17.768H80.6814ZM87.3665 29.112C86.3105 29.112 85.3398 28.8667 84.4545 28.376C83.5798 27.8853 82.8812 27.2027 82.3585 26.328C81.8465 25.4427 81.5905 24.4507 81.5905 23.352C81.5905 22.2533 81.8465 21.2667 82.3585 20.392C82.8812 19.5173 83.5798 18.8347 84.4545 18.344C85.3398 17.8533 86.3105 17.608 87.3665 17.608C88.4225 17.608 89.3878 17.8533 90.2625 18.344C91.1478 18.8347 91.8412 19.5173 92.3425 20.392C92.8545 21.2667 93.1105 22.2533 93.1105 23.352C93.1105 24.4507 92.8545 25.4427 92.3425 26.328C91.8305 27.2027 91.1372 27.8853 90.2625 28.376C89.3878 28.8667 88.4225 29.112 87.3665 29.112ZM87.3665 26.616C88.2625 26.616 88.9772 26.3173 89.5105 25.72C90.0545 25.1227 90.3265 24.3333 90.3265 23.352C90.3265 22.36 90.0545 21.5707 89.5105 20.984C88.9772 20.3867 88.2625 20.088 87.3665 20.088C86.4598 20.088 85.7345 20.3813 85.1905 20.968C84.6572 21.5547 84.3905 22.3493 84.3905 23.352C84.3905 24.344 84.6572 25.1387 85.1905 25.736C85.7345 26.3227 86.4598 26.616 87.3665 26.616ZM104.681 29H101.945L97.3686 22.072V29H94.6326V17.768H97.3686L101.945 24.728V17.768H104.681V29Z" fill="white"/>
</svg>
