<svg width="27" height="15" viewBox="0 0 27 15" fill="none" xmlns="http://www.w3.org/2000/svg">
<path d="M10.26 -9.53674e-07H13.5V14H10.26V-9.53674e-07ZM3.9 14H0.66V-9.53674e-07H3.9V14ZM10.5 8.26H3.66V5.52H10.5V8.26ZM20.4723 14.24C19.499 14.24 18.5323 14.1133 17.5723 13.86C16.6123 13.5933 15.799 13.22 15.1323 12.74L16.3923 10.26C16.9257 10.6467 17.5457 10.9533 18.2523 11.18C18.959 11.4067 19.6723 11.52 20.3923 11.52C21.2057 11.52 21.8457 11.36 22.3123 11.04C22.779 10.72 23.0123 10.28 23.0123 9.72C23.0123 9.18667 22.8057 8.76667 22.3923 8.46C21.979 8.15333 21.3123 8 20.3923 8H18.9123V5.86L22.8123 1.44L23.1723 2.6H15.8323V-9.53674e-07H25.6323V2.1L21.7523 6.52L20.1123 5.58H21.0523C22.7723 5.58 24.0723 5.96667 24.9523 6.74C25.8323 7.51333 26.2723 8.50667 26.2723 9.72C26.2723 10.5067 26.0657 11.2467 25.6523 11.94C25.239 12.62 24.6057 13.1733 23.7523 13.6C22.899 14.0267 21.8057 14.24 20.4723 14.24Z" fill="white"/>
</svg>
