<svg width="65" height="64" viewBox="0 0 65 64" fill="none" xmlns="http://www.w3.org/2000/svg">
<g clip-path="url(#clip0_1324_5034)">
<path fill-rule="evenodd" clip-rule="evenodd" d="M64.0724 2.322C64.0721 1.81966 63.8724 1.33797 63.5172 0.982768C63.162 0.627567 62.6803 0.427913 62.178 0.427673H2.8221C2.31976 0.427923 1.83808 0.627582 1.48287 0.982781C1.12766 1.33798 0.927994 1.81966 0.927734 2.322V61.678C0.927994 62.1803 1.12766 62.662 1.48287 63.0172C1.83808 63.3724 2.31976 63.5721 2.8221 63.5723H62.178C62.6803 63.5721 63.162 63.3724 63.5172 63.0172C63.8724 62.662 64.0721 62.1803 64.0724 61.678V2.322Z" fill="#144E8C"/>
<mask id="mask0_1324_5034" style="mask-type:luminance" maskUnits="userSpaceOnUse" x="0" y="0" width="65" height="64">
<path d="M62.1779 0.427673H2.82201C1.77576 0.427673 0.927612 1.27583 0.927612 2.32207V61.6779C0.927612 62.7242 1.77576 63.5723 2.82201 63.5723H62.1779C63.2241 63.5723 64.0723 62.7242 64.0723 61.6779V2.32207C64.0723 1.27583 63.2241 0.427673 62.1779 0.427673Z" fill="white"/>
</mask>
<g mask="url(#mask0_1324_5034)">
<path fill-rule="evenodd" clip-rule="evenodd" d="M64.0722 2.322C64.072 1.81966 63.8723 1.33797 63.5171 0.982768C63.1619 0.627567 62.6802 0.427913 62.1778 0.427673H2.82197C2.31964 0.427923 1.83795 0.627582 1.48275 0.982781C1.12754 1.33798 0.927872 1.81966 0.927612 2.322V61.678C0.927872 62.1803 1.12754 62.662 1.48275 63.0172C1.83795 63.3724 2.31964 63.5721 2.82197 63.5723H62.1778C62.6802 63.5721 63.1619 63.3724 63.5171 63.0172C63.8723 62.662 64.072 62.1803 64.0722 61.678V2.322Z" fill="#1B72BE"/>
<path fill-rule="evenodd" clip-rule="evenodd" d="M64.0722 2.322C64.072 1.81966 63.8723 1.33797 63.5171 0.982768C63.1619 0.627567 62.6802 0.427913 62.1778 0.427673H26.8169L0.927612 45.2693V61.678C0.927872 62.1803 1.12754 62.662 1.48275 63.0172C1.83795 63.3724 2.31964 63.5721 2.82197 63.5723H62.1778C62.6802 63.5721 63.1619 63.3724 63.5171 63.0172C63.8723 62.662 64.072 62.1803 64.0722 61.678V2.322Z" fill="#0568AA"/>
<path fill-rule="evenodd" clip-rule="evenodd" d="M30.1226 63.5723H25.7188L14.344 40.7041L36.5103 0.427673H40.0773L16.8717 40.6211L30.1226 63.5723ZM42.0518 63.5723H31.0698L18.1292 41.1586H64.0766L64.0723 45.3435L42.0518 63.5723ZM31.1364 0.427673H27.4484L0.927612 46.3629V52.751L31.1364 0.427673ZM37.5428 40.3325H25.053C24.3364 40.3371 23.6313 40.1523 23.0092 39.7966C22.3871 39.441 21.8701 38.9273 21.5104 38.3075C21.1508 37.6877 20.9614 36.9838 20.9614 36.2672C20.9614 35.5507 21.1508 34.8468 21.5105 34.227L27.7641 23.3954L37.5428 40.3325ZM64.0722 40.3325H38.4899L28.2376 22.575L41.0245 0.427673L45.6575 0.430587L38.9281 23.3231L42.0518 29.7397L64.0723 38.3991L64.0722 40.3325Z" fill="#074F7F"/>
<path fill-rule="evenodd" clip-rule="evenodd" d="M64.072 63.5718H32.0168L19.5501 41.9787H64.072V63.5718ZM29.1753 63.5718H0.927612V48.0033L28.3954 0.427315H39.13L15.9244 40.6209L29.1753 63.5718ZM36.1245 39.5164H25.2712C24.6762 39.5186 24.0912 39.3636 23.5753 39.0673C23.0594 38.7709 22.6308 38.3437 22.3329 37.8287C22.0349 37.3137 21.8782 36.7292 21.8784 36.1343C21.8787 35.5393 22.0359 34.955 22.3343 34.4402C24.7452 30.2643 27.764 25.0358 27.764 25.0358L36.1245 39.5164ZM64.072 39.5164H38.9672L29.1847 22.5747L41.9714 0.427307H64.072L64.072 39.5164Z" fill="url(#paint0_radial_1324_5034)"/>
<path fill-rule="evenodd" clip-rule="evenodd" d="M65.5372 64.7329H32.6873L19.5502 41.9787H65.5144L65.5372 64.7329ZM15.9244 40.6208L29.8458 64.7329H-1.01027L-1.11365 51.5385L29.1581 -0.893555H39.8926L15.9244 40.6208ZM20.8626 42.7366L33.1248 63.9757H64.7787L64.7577 42.7366H20.8626ZM29.5955 -0.135697L-0.354284 51.7389L-0.258457 63.9757H28.5334L15.0495 40.6208L38.5801 -0.135697H29.5955ZM36.1245 39.5164H25.2429L25.2287 39.5158H25.2004L25.1862 39.5152H25.1721L25.1579 39.5146L25.1438 39.514L25.1297 39.5134L25.1156 39.5127L25.1015 39.5121L25.0874 39.5115L25.0733 39.5109L25.0593 39.5097L25.0452 39.509L25.0312 39.5078L25.0172 39.5072L25.0032 39.5059L24.9892 39.5047L24.9752 39.5035L24.9612 39.5022L24.9473 39.501L24.9333 39.4998L24.9193 39.4985L24.9054 39.4967L24.8914 39.4954L24.8775 39.4936L24.8636 39.4923L24.8497 39.4905L24.8359 39.4886L24.822 39.4868L24.8082 39.4849L24.7944 39.4831L24.7806 39.4812L24.7667 39.4794L24.7529 39.4769L24.7392 39.4751L24.7254 39.4726L24.7117 39.4707L24.6979 39.4683L24.6842 39.4658L24.6705 39.4633L24.6568 39.4609L24.6432 39.4584L24.6295 39.4559L24.6158 39.4535L24.6022 39.4504L24.5886 39.4479L24.575 39.4448L24.5614 39.4424L24.5479 39.4393L24.5343 39.4362L24.5208 39.4331L24.5073 39.4306L24.4938 39.4269L24.4803 39.4238L24.4668 39.4207L24.4534 39.4177L24.44 39.414L24.4266 39.4109L24.4132 39.4078L24.3998 39.4041L24.3864 39.4004L24.3731 39.3967L24.3598 39.393L24.3465 39.3893L24.3332 39.3856L24.3199 39.3819L24.3066 39.3782L24.2934 39.3745L24.2802 39.3701L24.267 39.3664L24.2539 39.3621L24.2407 39.3578L24.2276 39.3541L24.2145 39.3498L24.2014 39.3454L24.1883 39.3412L24.1752 39.3368L24.1622 39.3319L24.1492 39.3276L24.1362 39.3233L24.1232 39.3189L24.1103 39.314L24.0973 39.3091L24.0844 39.3047L24.0715 39.2998L24.0587 39.2949L24.0458 39.2899L24.0331 39.285L24.0203 39.2801L24.0075 39.2751L23.9947 39.2702L23.982 39.2646L23.9693 39.2597L23.9566 39.2541L23.9439 39.2492L23.9313 39.2436L23.9187 39.2381L23.9061 39.2325L23.8935 39.2276L23.881 39.2214L23.8685 39.2159L23.8559 39.2103L23.8435 39.2047L23.831 39.1992L23.8186 39.193L23.8062 39.1875L23.7938 39.1813L23.7815 39.1757L23.7692 39.1696L23.7569 39.1634L23.7446 39.1572L23.7324 39.151L23.7202 39.1449L23.708 39.1387L23.6958 39.1325L23.6837 39.1264L23.6715 39.1196L23.6594 39.1134L23.6474 39.1066L23.6353 39.1005L23.6233 39.0937L23.6113 39.0869L23.5993 39.0801L23.5874 39.0734L23.5755 39.0672L23.5637 39.0604L23.5518 39.053L23.54 39.0462L23.5282 39.0395L23.5165 39.032L23.5047 39.0253L23.493 39.0185L23.4813 39.0111L23.4697 39.0037L23.4581 38.9963L23.4465 38.9895L23.435 38.9821L23.4234 38.9747L23.412 38.9673L23.4005 38.9599L23.389 38.9519L23.3776 38.9445L23.3663 38.937L23.3549 38.929L23.3436 38.9216L23.3323 38.9136L23.3211 38.9056L23.3098 38.8982L23.2986 38.8902L23.2875 38.8822L23.2763 38.8742L23.2652 38.8662L23.2541 38.8582L23.2432 38.8502L23.2321 38.8415L23.2212 38.8335L23.2102 38.8255L23.1993 38.8169L23.1885 38.8089L23.1776 38.8002L23.1668 38.7916L23.156 38.783L23.1453 38.775L23.1346 38.7664L23.1239 38.7577L23.1133 38.7485L23.1027 38.7399L23.0921 38.7312L23.0816 38.7226L23.0711 38.7134L23.0606 38.7047L23.0502 38.6961L23.0398 38.6869L23.0294 38.6776L23.0191 38.669L23.0088 38.6598L22.9986 38.6505L22.9883 38.6413L22.9781 38.632L22.968 38.6228L22.9579 38.6135L22.9478 38.6043L22.9377 38.5944L22.9278 38.5852L22.9178 38.5753L22.9078 38.5661L22.898 38.5562L22.8881 38.547L22.8783 38.5371L22.8685 38.5272L22.8588 38.5174L22.8491 38.5075L22.8394 38.4977L22.8299 38.4876L22.8203 38.4778L22.8107 38.4679L22.8012 38.458L22.7917 38.4476L22.7823 38.4377L22.7729 38.4278L22.7635 38.4174L22.7542 38.4069L22.7449 38.397L22.7357 38.3865L22.7265 38.3761L22.7173 38.3656L22.7082 38.3551L22.6991 38.3446L22.6901 38.3342L22.681 38.3237L22.672 38.3132L22.6631 38.3027L22.6542 38.2916L22.6453 38.2811L22.6366 38.27L22.6278 38.2596L22.6191 38.2485L22.6104 38.2374L22.6018 38.2269L22.5932 38.2158L22.5847 38.2047L22.5762 38.1936L22.5677 38.1825L22.5593 38.1714L22.5509 38.1603L22.5425 38.1492L22.5343 38.1381L22.526 38.1264L22.5178 38.1153L22.5096 38.1036L22.5015 38.0925L22.4934 38.0808L22.4853 38.0691L22.4774 38.058L22.4694 38.0463L22.4617 38.0346L22.4539 38.0229L22.446 38.0112L22.4383 37.9994L22.4306 37.9877L22.4228 37.976L22.4153 37.9643L22.4077 37.952L22.4001 37.9403L22.3926 37.9285L22.3852 37.9162L22.3778 37.9045L22.3704 37.8922L22.3631 37.8798L22.3558 37.8681L22.3486 37.8558L22.3414 37.8435L22.3344 37.8311L22.3273 37.8188L22.3202 37.8065L22.3133 37.7942L22.3064 37.7818L22.2995 37.7695L22.2927 37.7572L22.286 37.7448L22.2793 37.7325L22.2727 37.7196L22.2661 37.7072L22.2596 37.6949L22.2531 37.6819L22.2467 37.6696L22.2403 37.6573L22.2341 37.6444L22.2278 37.632L22.2216 37.619L22.2155 37.6067L22.2095 37.5938L22.2034 37.5808L22.1974 37.5685L22.1916 37.5556L22.1857 37.5426L22.1799 37.5303L22.1742 37.5173L22.1684 37.5044L22.1628 37.4921L22.1573 37.4791L22.1517 37.4662L22.1463 37.4532L22.1409 37.4403L22.1355 37.4273L22.1302 37.4144L22.125 37.4014L22.1198 37.3885L22.1147 37.3755L22.1096 37.3626L22.1045 37.3496L22.0996 37.3367L22.0947 37.3237L22.0898 37.3102L22.0851 37.2973L22.0803 37.2843L22.0756 37.2714L22.071 37.2584L22.0664 37.2449L22.0619 37.2319L22.0574 37.219L22.053 37.2054L22.0487 37.1925L22.0443 37.1789L22.0401 37.166L22.0359 37.153L22.0318 37.1395L22.0277 37.1265L22.0237 37.113L22.0197 37.0994L22.0158 37.0865L22.012 37.0729L22.0081 37.06L22.0044 37.0464L22.0007 37.0335L21.9971 37.0199L21.9935 37.0064L21.99 36.9934L21.9865 36.9799L21.9831 36.9663L21.9798 36.9528L21.9764 36.9398L21.9732 36.9263L21.97 36.9127L21.9669 36.8991L21.9638 36.8862L21.9608 36.8726L21.9578 36.8591L21.9549 36.8455L21.952 36.832L21.9493 36.8184L21.9465 36.8049L21.9438 36.7913L21.9412 36.7778L21.9386 36.7642L21.9361 36.7513L21.9336 36.7377L21.9312 36.7242L21.9288 36.7106L21.9266 36.6964L21.9243 36.6835L21.9222 36.6693L21.92 36.6557L21.9179 36.6422L21.9159 36.6286L21.914 36.6151L21.912 36.6015L21.9101 36.588L21.9083 36.5744L21.9066 36.5609L21.9049 36.5473L21.9033 36.5338L21.9017 36.5196L21.9001 36.506L21.8987 36.4925L21.8973 36.4789L21.896 36.4654L21.8947 36.4518L21.8934 36.4376L21.8922 36.4241L21.8911 36.4105L21.89 36.397L21.8889 36.3834L21.888 36.3692L21.8871 36.3557L21.8862 36.3421L21.8854 36.3286L21.8847 36.315L21.8839 36.3008L21.8833 36.2873L21.8827 36.2737L21.8822 36.2602L21.8817 36.246L21.8813 36.2324L21.8809 36.2189L21.8806 36.2053L21.8804 36.1912L21.8802 36.1776L21.88 36.1641L21.8799 36.1505V36.1228L21.88 36.1092L21.8802 36.0956L21.8804 36.0815L21.8806 36.0679L21.8809 36.0544L21.8813 36.0408L21.8817 36.0266L21.8822 36.0131L21.8827 35.9995L21.8833 35.986L21.8839 35.9718L21.8847 35.9582L21.8854 35.9447L21.8862 35.9311L21.8871 35.917L21.888 35.9034L21.8889 35.8899L21.89 35.8763L21.8911 35.8628L21.8922 35.8492L21.8934 35.835L21.8947 35.8215L21.896 35.8079L21.8973 35.7944L21.8987 35.7808L21.9001 35.7666L21.9017 35.7531L21.9033 35.7395L21.9049 35.726L21.9066 35.7124L21.9083 35.6989L21.9101 35.6853L21.912 35.6718L21.914 35.6576L21.9159 35.644L21.9179 35.6305L21.92 35.6169L21.9222 35.6034L21.9243 35.5898L21.9266 35.5763L21.9288 35.5627L21.9312 35.5492L21.9336 35.5356L21.9361 35.5221L21.9386 35.5085L21.9412 35.4949L21.9438 35.4814L21.9465 35.4678L21.9493 35.4549L21.952 35.4413L21.9549 35.4278L21.9578 35.4142L21.9608 35.4007L21.9638 35.3871L21.9669 35.3736L21.97 35.3606L21.9732 35.3471L21.9764 35.3335L21.9798 35.32L21.9831 35.307L21.9865 35.2935L21.99 35.2799L21.9935 35.2664L21.9971 35.2534L22.0007 35.2398L22.0044 35.2263L22.0081 35.2134L22.012 35.1998L22.0158 35.1869L22.0197 35.1733L22.0237 35.1604L22.0277 35.1468L22.0318 35.1339L22.0359 35.1203L22.0401 35.1073L22.0443 35.0938L22.0487 35.0808L22.053 35.0673L22.0574 35.0543L22.0619 35.0414L22.0664 35.0284L22.071 35.0149L22.0756 35.0019L22.0803 34.989L22.0851 34.976L22.0898 34.9625L22.0947 34.9496L22.0996 34.9366L22.1045 34.9237L22.1096 34.9107L22.1147 34.8978L22.1198 34.8848L22.125 34.8719L22.1302 34.8589L22.1355 34.846L22.1409 34.833L22.1463 34.8201L22.1517 34.8071L22.1573 34.7942L22.1628 34.7812L22.1684 34.7683L22.1742 34.756L22.1799 34.743L22.1857 34.7301L22.1916 34.7177L22.1974 34.7048L22.2034 34.6918L22.2094 34.6795L22.2154 34.6666L22.2215 34.6536L22.2278 34.6413L22.234 34.629L22.2403 34.616L22.2466 34.6037L22.2531 34.5893L22.2596 34.577L22.2661 34.5647L22.2727 34.5524L22.2793 34.5394L22.286 34.5271L22.2927 34.5147L22.2995 34.5024L22.3063 34.4901L22.3132 34.4778L22.3202 34.4648L22.3272 34.4531L22.3343 34.4408L27.764 25.0363L36.1245 39.5164ZM65.4989 39.5164H38.966L29.1848 22.5747L42.7341 -0.893547H65.2245L65.4989 39.5164ZM22.991 34.8182L22.985 34.8287L22.9795 34.838L22.9743 34.8472L22.9689 34.8571L22.9636 34.8669L22.9582 34.8768L22.953 34.886L22.9478 34.8959L22.9426 34.9058L22.9375 34.915L22.9325 34.9248L22.9274 34.9347L22.9224 34.9446L22.9176 34.9538L22.9126 34.9637L22.9077 34.9741L22.903 34.9834L22.8983 34.9932L22.8935 35.0031L22.8889 35.013L22.8842 35.0228L22.8796 35.0327L22.875 35.0432L22.8706 35.0524L22.8662 35.0623L22.8617 35.0728L22.8573 35.0826L22.853 35.0925L22.8487 35.1023L22.8445 35.1122L22.8403 35.1227L22.8361 35.1325L22.832 35.1424L22.828 35.1523L22.8239 35.1627L22.8199 35.1726L22.816 35.1825L22.8121 35.1929L22.8082 35.2028L22.8044 35.2133L22.8006 35.2231L22.7969 35.233L22.7933 35.2435L22.7896 35.2539L22.786 35.2638L22.7825 35.2737L22.7789 35.2842L22.7755 35.2946L22.7721 35.3045L22.7687 35.315L22.7654 35.3248L22.7621 35.3353L22.7588 35.3458L22.7556 35.3556L22.7524 35.3661L22.7493 35.3766L22.7463 35.3865L22.7432 35.3969L22.7402 35.4074L22.7373 35.4173L22.7343 35.4284L22.7315 35.4382L22.7287 35.4487L22.7259 35.4592L22.7232 35.4697L22.7205 35.4802L22.7178 35.49L22.7152 35.5005L22.7126 35.511L22.7101 35.5214L22.7077 35.5319L22.7052 35.5424L22.7028 35.5529L22.7005 35.5634L22.6982 35.5738L22.6959 35.5843L22.6937 35.5948L22.6915 35.6053L22.6894 35.6157L22.6873 35.6262L22.6853 35.6367L22.6833 35.6472L22.6813 35.6576L22.6794 35.6681L22.6775 35.6786L22.6757 35.6891L22.6739 35.6996L22.6721 35.71L22.6705 35.7211L22.6688 35.731L22.6672 35.7421L22.6656 35.7526L22.6641 35.763L22.6625 35.7735L22.6611 35.784L22.6597 35.7945L22.6583 35.805L22.657 35.816L22.6557 35.8265L22.6546 35.837L22.6533 35.8475L22.6522 35.8586L22.6511 35.8691L22.6501 35.8795L22.649 35.89L22.6481 35.9011L22.6472 35.9116L22.6462 35.9221L22.6454 35.9325L22.6446 35.943L22.6439 35.9541L22.6431 35.9646L22.6425 35.9751L22.6418 35.9862L22.6413 35.9966L22.6407 36.0071L22.6402 36.0176L22.6398 36.0287L22.6394 36.0392L22.639 36.0497L22.6387 36.0601L22.6384 36.0712L22.6381 36.0817L22.638 36.0922L22.6378 36.1027L22.6377 36.1138L22.6376 36.1242V36.1458L22.6377 36.1563L22.638 36.1773L22.6381 36.1884L22.6384 36.1988L22.6387 36.2093L22.639 36.2204L22.6394 36.2309L22.6398 36.2414L22.6402 36.2525L22.6407 36.2629L22.6418 36.2839L22.6425 36.295L22.6431 36.3055L22.6446 36.3265L22.6454 36.3376L22.6462 36.348L22.6481 36.369L22.649 36.3801L22.6511 36.4011L22.6533 36.422L22.6545 36.4331L22.6557 36.4436L22.6583 36.4646L22.6597 36.4751L22.6625 36.496L22.6641 36.5071L22.6656 36.5176L22.6688 36.5386L22.6721 36.5596L22.6739 36.5706L22.6757 36.5811L22.6794 36.6021L22.6813 36.6126L22.6852 36.6336L22.6873 36.644L22.6894 36.6545L22.6937 36.6755L22.6959 36.686L22.7005 36.7069L22.7028 36.7174L22.7076 36.7384L22.7101 36.7489L22.7126 36.7587L22.7152 36.7698L22.7179 36.7797L22.7205 36.7902L22.7259 36.8111L22.7287 36.8216L22.7315 36.8321L22.7343 36.8419L22.7372 36.8524L22.7402 36.8629L22.7432 36.8734L22.7493 36.8937L22.7524 36.9042L22.7555 36.914L22.7621 36.935L22.7653 36.9449L22.7687 36.9554L22.7721 36.9658L22.7754 36.9757L22.7789 36.9862L22.7824 36.996L22.786 37.0065L22.7896 37.0164L22.7932 37.0269L22.7968 37.0367L22.8006 37.0472L22.8044 37.057L22.8082 37.0675L22.816 37.0873L22.8199 37.0977L22.8239 37.1076L22.8279 37.1175L22.832 37.1279L22.8361 37.1378L22.8487 37.1674L22.853 37.1779L22.8573 37.1877L22.8617 37.1976L22.8662 37.2075L22.8706 37.2173L22.8751 37.2278L22.8842 37.2475L22.8888 37.2568L22.8935 37.2666L22.8983 37.2771L22.903 37.2864L22.9078 37.2962L22.9126 37.3061L22.9175 37.3159L22.9224 37.3258L22.9274 37.3357L22.9324 37.3449L22.9478 37.3745L22.953 37.3844L22.9581 37.3936L22.9634 37.4035L22.9688 37.4133L22.9742 37.4226L22.9795 37.4324L22.985 37.4417L22.9904 37.4515L22.996 37.4608L23.0017 37.4707L23.0072 37.4799L23.0127 37.4891L23.0184 37.4984L23.0242 37.5082L23.0299 37.5175L23.0356 37.5267L23.0415 37.536L23.0474 37.5452L23.0532 37.5545L23.0592 37.5637L23.0652 37.5729L23.071 37.5816L23.0831 37.6001L23.0891 37.6087L23.0954 37.6179L23.1014 37.6272L23.1075 37.6358L23.1138 37.6451L23.1264 37.6623L23.1328 37.6716L23.139 37.6802L23.1518 37.6975L23.1582 37.7061L23.1647 37.7147L23.1714 37.724L23.1778 37.732L23.1843 37.7406L23.1978 37.7579L23.2044 37.7659L23.2109 37.7745L23.2177 37.7831L23.2247 37.7918L23.2314 37.7998L23.2381 37.8078L23.245 37.8164L23.252 37.8244L23.259 37.833L23.2658 37.841L23.2729 37.8491L23.2798 37.8571L23.2869 37.8651L23.2941 37.8737L23.3011 37.8811L23.3083 37.8891L23.3154 37.8971L23.3227 37.9051L23.33 37.9131L23.3372 37.9212L23.3444 37.9286L23.3519 37.9366L23.3593 37.9446L23.3666 37.952L23.3739 37.9594L23.3815 37.9674L23.3891 37.9754L23.4039 37.9902L23.4116 37.9976L23.4191 38.005L23.4267 38.0124L23.4344 38.0198L23.4423 38.0278L23.4499 38.0346L23.4576 38.042L23.4655 38.0494L23.4732 38.0568L23.4809 38.0636L23.4888 38.071L23.4968 38.0784L23.5049 38.0858L23.5124 38.0926L23.5204 38.0994L23.5285 38.1068L23.5368 38.1136L23.5448 38.121L23.5527 38.1278L23.5609 38.1345L23.5689 38.1413L23.5773 38.1481L23.5853 38.1549L23.5935 38.1616L23.6018 38.1684L23.61 38.1752L23.6182 38.1814L23.6267 38.1881L23.6351 38.1949L23.6431 38.2011L23.6517 38.2079L23.6604 38.2147L23.6686 38.2208L23.6771 38.227L23.6858 38.2338L23.694 38.2399L23.7026 38.2461L23.7114 38.2529L23.72 38.2591L23.7286 38.2652L23.7372 38.2714L23.7457 38.277L23.7543 38.2831L23.7633 38.2893L23.7721 38.2955L23.7897 38.3078L23.7982 38.3134L23.8071 38.3189L23.8163 38.3251L23.8248 38.3307L23.8338 38.3368L23.8431 38.3424L23.8605 38.3535L23.8698 38.3596L23.8789 38.3652L23.8877 38.3708L23.8968 38.3757L23.9335 38.3979L23.9428 38.4035L23.9518 38.4084L23.9608 38.4133L23.9704 38.4189L23.9798 38.4244L23.9888 38.4294L23.9983 38.4343L24.0073 38.4393L24.0168 38.4442L24.0262 38.4497L24.0357 38.4547L24.0453 38.4596L24.0545 38.464L24.0638 38.4689L24.083 38.4787L24.0923 38.4831L24.1117 38.4929L24.1211 38.4972L24.1309 38.5022L24.1406 38.5065L24.15 38.5108L24.1595 38.5152L24.1693 38.5201L24.1793 38.5244L24.1888 38.5287L24.1987 38.533L24.2082 38.5374L24.2179 38.5411L24.2279 38.5454L24.2378 38.5497L24.2477 38.5543L24.2574 38.558L24.2776 38.5667L24.2873 38.5704L24.2971 38.5741L24.3068 38.5778L24.317 38.5821L24.3368 38.5895L24.347 38.5932L24.3569 38.5969L24.3672 38.6006L24.3771 38.6043L24.3871 38.6074L24.3975 38.6111L24.4075 38.6148L24.4175 38.6179L24.428 38.6216L24.438 38.6247L24.4481 38.6284L24.4683 38.6346L24.4785 38.6376L24.489 38.6414L24.5093 38.6475L24.5199 38.6506L24.5298 38.6531L24.54 38.6562L24.5507 38.6593L24.561 38.6623L24.5713 38.6648L24.582 38.6679L24.5924 38.6704L24.6024 38.6735L24.6128 38.6759L24.6236 38.6784L24.634 38.6815L24.644 38.6839L24.6545 38.6864L24.6654 38.6889L24.6759 38.6913L24.6864 38.6932L24.6969 38.6957L24.707 38.6981L24.718 38.7006L24.7286 38.7025L24.7388 38.7049L24.7498 38.7068L24.7604 38.7093L24.7707 38.7111L24.7813 38.713L24.7921 38.7148L24.8027 38.7167L24.8138 38.7185L24.8346 38.7222L24.8457 38.7241L24.8564 38.7259L24.8669 38.7271L24.8777 38.729L24.8885 38.7309L24.8994 38.7321L24.9102 38.7339L24.9207 38.7352L24.9315 38.7364L24.9534 38.7389L24.9643 38.7407L24.9748 38.742L24.9854 38.7426L24.9964 38.7438L25.0078 38.7451L25.0184 38.7463L25.029 38.7469L25.0404 38.7481L25.0511 38.7488L25.0617 38.75L25.0732 38.7506L25.0839 38.7512L25.0946 38.7525L25.1058 38.7531L25.1169 38.7537L25.128 38.7543L25.1387 38.7549L25.1495 38.7555H25.1607L25.1719 38.7562L25.1827 38.7568H25.1935L25.2048 38.7574H25.2269L25.2377 38.758H34.8121L27.764 26.5503L22.991 34.8182ZM43.1715 -0.135697L30.0597 22.5747L39.4035 38.7586H64.7361L64.4722 -0.135697H43.1715Z" fill="url(#paint1_linear_1324_5034)"/>
</g>
</g>
<defs>
<radialGradient id="paint0_radial_1324_5034" cx="0" cy="0" r="1" gradientUnits="userSpaceOnUse" gradientTransform="translate(49.1917 -11.4368) scale(75.0135 75.0135)">
<stop stop-color="#6BE1FB"/>
<stop offset="1" stop-color="#38BDFA"/>
</radialGradient>
<linearGradient id="paint1_linear_1324_5034" x1="32.1907" y1="63.5996" x2="32.1896" y2="0.4551" gradientUnits="userSpaceOnUse">
<stop stop-color="#4AC5FA"/>
<stop offset="1" stop-color="#97E8FC"/>
</linearGradient>
<clipPath id="clip0_1324_5034">
<rect width="64" height="64" fill="white" transform="translate(0.5)"/>
</clipPath>
</defs>
</svg>
