<svg width="65" height="64" viewBox="0 0 65 64" fill="none" xmlns="http://www.w3.org/2000/svg">
<path d="M34.7 32C34.7 26.844 38.7759 22.668 43.7999 22.668C48.8279 22.668 52.9 26.84 52.9 32C52.9 37.156 48.8279 41.332 43.7999 41.332C38.7799 41.332 34.7 37.16 34.7 32Z" fill="#1ABCFE"/>
<path d="M16.5 50.668C16.5 45.512 20.576 41.332 25.6 41.332H34.7V50.668C34.7 55.82 30.624 60 25.6 60C20.576 60 16.5 55.82 16.5 50.668Z" fill="#0ACF83"/>
<path d="M34.7 4V22.668H43.7999C48.8279 22.668 52.9 18.488 52.9 13.332C52.9 8.18 48.8279 4 43.7999 4H34.7Z" fill="#FF7262"/>
<path d="M16.5 13.332C16.5 18.488 20.576 22.668 25.6 22.668H34.7V4H25.6C20.576 4 16.5 8.18 16.5 13.332Z" fill="#F24E1E"/>
<path d="M16.5 32C16.5 37.156 20.576 41.332 25.6 41.332H34.7V22.668H25.6C20.576 22.668 16.5 26.84 16.5 32Z" fill="#A259FF"/>
</svg>
