<svg width="65" height="64" viewBox="0 0 65 64" fill="none" xmlns="http://www.w3.org/2000/svg">
<path fill-rule="evenodd" clip-rule="evenodd" d="M11.932 58.4356L5.05328 49.8662C3.39826 47.8046 2.5 45.2692 2.5 42.6598V11.63C2.5 7.72128 5.62718 4.47794 9.66142 4.2025L41.5642 2.02436C43.882 1.86613 46.1856 2.48218 48.0896 3.7694L59.2984 11.3478C61.305 12.7044 62.5 14.922 62.5 17.2885V52.5664C62.5 56.3916 59.4252 59.5586 55.4752 59.8018L20.0667 61.9814C16.9147 62.1754 13.868 60.8474 11.932 58.4356Z" fill="white"/>
<path d="M22.9962 27.1574V26.7512C22.9962 25.7214 23.821 24.8674 24.884 24.7964L32.6266 24.2794L43.334 40.047V26.2082L40.578 25.8408V25.648C40.578 24.606 41.4216 23.7464 42.4982 23.6912L49.5432 23.3304V24.3442C49.5432 24.82 49.1892 25.2272 48.7042 25.3092L47.0088 25.596V48.0074L44.8812 48.739C43.1036 49.3504 41.1248 48.696 40.1072 47.1606L29.7122 31.4744V46.446L32.9116 47.0582L32.8672 47.355C32.7274 48.2846 31.9248 48.9878 30.954 49.031L22.9962 49.3852C22.891 48.3854 23.6402 47.4912 24.6738 47.3826L25.7206 47.2726V27.3104L22.9962 27.1574Z" fill="#050505"/>
<path fill-rule="evenodd" clip-rule="evenodd" d="M41.8498 5.93356L9.94695 8.1117C8.03599 8.24218 6.55469 9.7785 6.55469 11.63V42.6598C6.55469 44.3994 7.15353 46.0896 8.25687 47.4642L15.1356 56.0334C16.2478 57.4188 17.998 58.1818 19.8087 58.0704L55.2172 55.8908C57.032 55.779 58.4448 54.3238 58.4448 52.5664V17.2885C58.4448 16.2012 57.8958 15.1823 56.9738 14.559L45.765 6.98058C44.6226 6.20826 43.2404 5.83862 41.8498 5.93356ZM11.5289 12.114C11.0852 11.7855 11.2964 11.1011 11.8538 11.0611L42.0644 8.89422C43.027 8.82518 43.9834 9.09024 44.7618 9.64176L50.8234 13.9363C51.0534 14.0993 50.9456 14.4513 50.6606 14.4668L18.6677 16.2067C17.6995 16.2594 16.7439 15.9749 15.974 15.405L11.5289 12.114ZM17.1671 21.6614C17.1671 20.622 18.0068 19.7635 19.0805 19.7051L52.906 17.8629C53.9526 17.8059 54.8334 18.6107 54.8334 19.6236V50.1706C54.8334 51.208 53.9968 52.0656 52.9252 52.1266L19.3138 54.039C18.1492 54.1054 17.1671 53.2104 17.1671 52.083V21.6614Z" fill="#050505"/>
</svg>
