<svg width="65" height="64" viewBox="0 0 65 64" fill="none" xmlns="http://www.w3.org/2000/svg">
<path d="M4.5 24.2666C4.5 17.1727 4.5 13.6257 5.88058 10.9161C7.09498 8.53274 9.03274 6.59498 11.4161 5.38058C14.1257 4 17.6727 4 24.7666 4H40.2334C47.3274 4 50.8744 4 53.5838 5.38058C55.9672 6.59498 57.905 8.53274 59.1194 10.9161C60.5 13.6257 60.5 17.1727 60.5 24.2666V39.7334C60.5 46.8274 60.5 50.3744 59.1194 53.0838C57.905 55.4672 55.9672 57.405 53.5838 58.6194C50.8744 60 47.3274 60 40.2334 60H24.7666C17.6727 60 14.1257 60 11.4161 58.6194C9.03274 57.405 7.09498 55.4672 5.88058 53.0838C4.5 50.3744 4.5 46.8274 4.5 39.7334V24.2666Z" fill="#001E36"/>
<path d="M16.5 45.0324V20.4068C16.5 20.2394 16.57 20.1436 16.7333 20.1436C19.1446 20.1436 21.5548 20 23.9666 20C27.8804 20 32.118 21.3382 33.6034 25.4324C33.9534 26.4376 34.14 27.4666 34.14 28.5436C34.14 30.6018 33.6734 32.3008 32.74 33.641C30.1328 37.3846 25.614 37.3264 21.5634 37.3264V45.0086C21.595 45.236 21.4012 45.3436 21.2134 45.3436H16.78C16.5933 45.3436 16.5 45.2478 16.5 45.0324ZM21.5866 24.7624V32.8034C23.1928 32.921 24.8734 32.9338 26.4166 32.4206C28.1204 31.929 29.0534 30.4544 29.0534 28.6872C29.1006 27.1814 28.2802 25.7366 26.8834 25.1932C25.3588 24.5592 23.2324 24.5212 21.5866 24.7624Z" fill="#31A8FF"/>
<path d="M48.6934 31.2148C47.9874 30.8426 47.2354 30.5704 46.458 30.4056C45.4592 30.1706 41.5196 29.3474 41.518 31.4074C41.553 32.5574 43.3786 33.1208 44.1852 33.4494C47.017 34.4216 50.2214 36.1594 50.1584 39.6528C50.245 44.0016 46.0314 45.7402 42.4196 45.7406C40.5394 45.76 38.5806 45.4688 36.8598 44.6616C36.6954 44.5746 36.5898 44.3888 36.5968 44.1992V40.038C36.5782 39.8712 36.7574 39.7254 36.8974 39.8454C38.5834 40.865 40.5818 41.3602 42.5324 41.3866C43.3934 41.3866 45.0998 41.3032 45.087 40.038C45.087 38.824 43.0456 38.2658 42.2318 37.9574C41.0522 37.5364 39.9338 36.953 38.9072 36.2236C37.4724 35.2002 36.5724 33.5594 36.5968 31.7542C36.5884 27.6594 40.467 25.8214 43.96 25.8206C45.5928 25.807 47.3464 25.928 48.8664 26.5912C49.085 26.6554 49.1302 26.8858 49.1294 27.092V30.9836C49.1432 31.2252 48.875 31.3074 48.6934 31.2148Z" fill="#31A8FF"/>
</svg>
