<svg width="65" height="65" viewBox="0 0 65 65" fill="none" xmlns="http://www.w3.org/2000/svg">
<path fill-rule="evenodd" clip-rule="evenodd" d="M45.6295 9.47189C46.6782 10.5348 47.8667 11.7386 47.8667 11.7386C47.8667 11.7386 52.7604 12.1083 52.9913 12.1286C53.2241 12.1489 53.5047 12.3297 53.5485 12.6567C53.5923 12.9837 60.5 60.6552 60.5 60.6552L43.5495 64.3974L45.6295 9.47189ZM43.0292 7.6662C42.8993 7.68328 42.7867 7.70932 42.7083 7.73298C42.6665 7.74517 41.966 7.96658 40.8058 8.33221C39.6694 4.9969 37.6654 1.93174 34.1409 1.93174C34.0433 1.93174 33.9418 1.93581 33.8423 1.9419C32.8393 0.589091 31.5975 0 30.5248 0C22.3116 0 18.3871 10.4813 17.1572 15.8052C13.965 16.8147 11.6983 17.5317 11.4097 17.6252C9.62656 18.1959 9.57084 18.2529 9.33799 19.9652C9.16087 21.2632 4.5 58.0552 4.5 58.0552L40.8197 65L40.8583 64.9915L43.0292 7.6662ZM33.5737 10.2538C33.5737 10.3817 33.5717 10.4996 33.5717 10.6174C31.5716 11.2491 29.4004 11.9356 27.2232 12.6242C28.4451 7.81017 30.7358 5.48434 32.7398 4.60684C33.2433 5.89872 33.5737 7.75331 33.5737 10.2538ZM30.2979 2.24862C30.6542 2.24862 31.0104 2.37252 31.3527 2.61221C28.7198 3.87565 25.8998 7.06062 24.7077 13.4184C22.9663 13.9689 21.2648 14.5072 19.6906 15.0049C21.0857 10.1542 24.3992 2.24862 30.2979 2.24862ZM31.7129 30.5947C31.7129 30.5947 29.5875 29.4368 26.9824 29.4368C23.1614 29.4368 22.9683 31.8845 22.9683 32.5C22.9683 35.8658 31.5617 37.1556 31.5617 45.0369C31.5617 51.2362 27.7088 55.2296 22.5126 55.2296C16.2775 55.2296 13.0894 51.2687 13.0894 51.2687L14.7591 45.6401C14.7591 45.6401 18.0368 48.5124 20.8031 48.5124C22.6081 48.5124 23.3444 47.06 23.3444 45.9997C23.3444 41.6101 16.2935 41.4131 16.2935 34.2001C16.2935 28.1308 20.5623 22.2564 29.1795 22.2564C32.499 22.2564 34.1409 23.2274 34.1409 23.2274L31.7129 30.5947ZM35.725 9.93689C35.725 9.71549 35.727 9.49813 35.727 9.26047C35.727 7.18859 35.4444 5.5189 34.9926 4.19656C36.8096 4.42812 38.0196 6.53856 38.7977 8.9659C37.8863 9.25434 36.8494 9.58142 35.725 9.93689Z" fill="#81BF37"/>
</svg>
