<svg width="65" height="65" viewBox="0 0 65 65" fill="none" xmlns="http://www.w3.org/2000/svg">
<g clip-path="url(#clip0_1324_5091)">
<mask id="mask0_1324_5091" style="mask-type:luminance" maskUnits="userSpaceOnUse" x="0" y="0" width="65" height="65">
<path d="M45.7069 64.3919C46.711 64.7893 47.856 64.7637 48.8696 64.2685L61.9948 57.8542C63.3739 57.1802 64.251 55.7624 64.251 54.2072V10.7141C64.251 9.15884 63.3739 7.74121 61.9948 7.06718L48.8696 0.652671C47.5395 0.00268582 45.9828 0.161892 44.8156 1.0238C44.6488 1.14692 44.4899 1.28439 44.341 1.43589L19.2141 24.7177L8.26945 16.28C7.25061 15.4945 5.82552 15.5588 4.87927 16.4331L1.36895 19.6761C0.211494 20.7454 0.210167 22.5948 1.36608 23.6659L10.8577 32.4605L1.36608 41.2552C0.210167 42.3263 0.211494 44.1757 1.36895 45.245L4.87927 48.4879C5.82552 49.3623 7.25061 49.4265 8.26945 48.6412L19.2141 40.2033L44.341 63.4852C44.7384 63.8891 45.2051 64.1934 45.7069 64.3919ZM48.3229 17.7622L29.2574 32.4605L48.3229 47.1588V17.7622Z" fill="white"/>
</mask>
<g mask="url(#mask0_1324_5091)">
<path d="M62.0337 7.07688L48.8983 0.653538C47.3779 -0.0899609 45.5608 0.223664 44.3675 1.43555L1.3666 41.2549C0.20999 42.326 0.21132 44.1754 1.36947 45.2447L4.88192 48.4876C5.82877 49.362 7.25473 49.4262 8.27417 48.6409L60.0572 8.74326C61.7944 7.40477 64.2896 8.66319 64.2896 10.8778V10.723C64.2896 9.16839 63.4128 7.75127 62.0337 7.07688Z" fill="#0065A9"/>
</g>
<mask id="mask1_1324_5091" style="mask-type:luminance" maskUnits="userSpaceOnUse" x="0" y="0" width="65" height="65">
<path d="M45.7069 64.3919C46.711 64.7893 47.856 64.7637 48.8696 64.2685L61.9948 57.8542C63.3739 57.1802 64.251 55.7624 64.251 54.2072V10.7141C64.251 9.15884 63.3739 7.74121 61.9948 7.06718L48.8696 0.652671C47.5395 0.00268582 45.9828 0.161892 44.8156 1.0238C44.6488 1.14692 44.4899 1.28439 44.341 1.43589L19.2141 24.7177L8.26945 16.28C7.25061 15.4945 5.82552 15.5588 4.87927 16.4331L1.36895 19.6761C0.211494 20.7454 0.210167 22.5948 1.36608 23.6659L10.8577 32.4605L1.36608 41.2552C0.210167 42.3263 0.211494 44.1757 1.36895 45.245L4.87927 48.4879C5.82552 49.3623 7.25061 49.4265 8.26945 48.6412L19.2141 40.2033L44.341 63.4852C44.7384 63.8891 45.2051 64.1934 45.7069 64.3919ZM48.3229 17.7622L29.2574 32.4605L48.3229 47.1588V17.7622Z" fill="white"/>
</mask>
<g mask="url(#mask1_1324_5091)">
<path d="M62.0337 57.8439L48.8983 64.2673C47.3779 65.0106 45.5608 64.697 44.3675 63.4853L1.3666 23.6659C0.20999 22.5948 0.21132 20.7454 1.36947 19.6761L4.88192 16.433C5.82877 15.5588 7.25473 15.4945 8.27417 16.28L60.0572 56.1774C61.7944 57.5159 64.2896 56.2576 64.2896 54.0428V54.1978C64.2896 55.7523 63.4128 57.1694 62.0337 57.8439Z" fill="#007ACC"/>
</g>
<mask id="mask2_1324_5091" style="mask-type:luminance" maskUnits="userSpaceOnUse" x="0" y="0" width="65" height="65">
<path d="M45.7069 64.3919C46.711 64.7893 47.856 64.7637 48.8696 64.2685L61.9948 57.8542C63.3739 57.1802 64.251 55.7624 64.251 54.2072V10.7141C64.251 9.15884 63.3739 7.74121 61.9948 7.06718L48.8696 0.652671C47.5395 0.00268582 45.9828 0.161892 44.8156 1.0238C44.6488 1.14692 44.4899 1.28439 44.341 1.43589L19.2141 24.7177L8.26945 16.28C7.25061 15.4945 5.82552 15.5588 4.87927 16.4331L1.36895 19.6761C0.211494 20.7454 0.210167 22.5948 1.36608 23.6659L10.8577 32.4605L1.36608 41.2552C0.210167 42.3263 0.211494 44.1757 1.36895 45.245L4.87927 48.4879C5.82552 49.3623 7.25061 49.4265 8.26945 48.6412L19.2141 40.2033L44.341 63.4852C44.7384 63.8891 45.2051 64.1934 45.7069 64.3919ZM48.3229 17.7622L29.2574 32.4605L48.3229 47.1588V17.7622Z" fill="white"/>
</mask>
<g mask="url(#mask2_1324_5091)">
<path d="M48.8571 64.2724C47.3363 65.0152 45.5191 64.7013 44.3258 63.4893C45.7961 64.9826 48.3102 63.9248 48.3102 61.813V3.11611C48.3102 1.00423 45.7961 -0.0534067 44.3258 1.43992C45.5191 0.227925 47.3363 -0.0861426 48.8571 0.6567L61.9903 7.07122C63.3704 7.74525 64.248 9.16288 64.248 10.7181V54.2113C64.248 55.7665 63.3704 57.1841 61.9903 57.8581L48.8571 64.2724Z" fill="#1F9CF0"/>
</g>
<mask id="mask3_1324_5091" style="mask-type:luminance" maskUnits="userSpaceOnUse" x="0" y="0" width="65" height="65">
<path d="M45.7069 64.3919C46.711 64.7893 47.856 64.7637 48.8696 64.2685L61.9948 57.8542C63.3739 57.1802 64.251 55.7624 64.251 54.2072V10.7141C64.251 9.15884 63.3739 7.74121 61.9948 7.06718L48.8696 0.652671C47.5395 0.00268582 45.9828 0.161892 44.8156 1.0238C44.6488 1.14692 44.4899 1.28439 44.341 1.43589L19.2141 24.7177L8.26945 16.28C7.25061 15.4945 5.82552 15.5588 4.87927 16.4331L1.36895 19.6761C0.211494 20.7454 0.210167 22.5948 1.36608 23.6659L10.8577 32.4605L1.36608 41.2552C0.210167 42.3263 0.211494 44.1757 1.36895 45.245L4.87927 48.4879C5.82552 49.3623 7.25061 49.4265 8.26945 48.6412L19.2141 40.2033L44.341 63.4852C44.7384 63.8891 45.2051 64.1934 45.7069 64.3919ZM48.3229 17.7622L29.2574 32.4605L48.3229 47.1588V17.7622Z" fill="white"/>
</mask>
<g mask="url(#mask3_1324_5091)">
<path d="M45.707 64.392C46.7111 64.789 47.8561 64.7638 48.8694 64.2685L61.9946 57.854C63.374 57.18 64.251 55.7624 64.251 54.2072V10.7141C64.251 9.15883 63.374 7.7412 61.9948 7.06717L48.8694 0.652673C47.5396 0.00268555 45.9829 0.161892 44.8155 1.02379C44.6489 1.14692 44.49 1.28439 44.3408 1.43589L19.2141 24.7177L8.26944 16.28C7.25062 15.4945 5.82551 15.5589 4.87926 16.433L1.36895 19.6761C0.211494 20.7454 0.210167 22.5948 1.36608 23.6659L10.8577 32.4605L1.36608 41.2553C0.210167 42.3264 0.211494 44.1757 1.36895 45.245L4.87926 48.488C5.82551 49.3623 7.25062 49.4265 8.26944 48.6412L19.2141 40.2034L44.3408 63.4853C44.7383 63.8892 45.2052 64.1934 45.707 64.392ZM48.323 17.7622L29.2575 32.4605L48.323 47.1589V17.7622Z" fill="url(#paint0_linear_1324_5091)" fill-opacity="0.25"/>
</g>
</g>
<defs>
<linearGradient id="paint0_linear_1324_5091" x1="3188.05" y1="0.253881" x2="3188.05" y2="6441.58" gradientUnits="userSpaceOnUse">
<stop stop-color="white"/>
<stop offset="1" stop-color="white" stop-opacity="0"/>
</linearGradient>
<clipPath id="clip0_1324_5091">
<rect width="64" height="65" fill="white" transform="translate(0.5)"/>
</clipPath>
</defs>
</svg>
