<svg width="65" height="65" viewBox="0 0 65 65" fill="none" xmlns="http://www.w3.org/2000/svg">
<g clip-path="url(#clip0_1324_5080)">
<path fill-rule="evenodd" clip-rule="evenodd" d="M0.5 32.498C0.5 45.3619 7.86 56.4789 18.534 61.7459L3.27 19.2725C1.496 23.3127 0.5 27.7855 0.5 32.498ZM54.1004 30.8588C54.1004 26.8409 52.6784 24.0602 51.4624 21.8969C49.8404 19.2177 48.3184 16.9508 48.3184 14.2736C48.3184 11.2856 50.5484 8.50484 53.6924 8.50484C53.8344 8.50484 53.9684 8.52313 54.1064 8.53125C48.4144 3.23375 40.8284 0 32.4984 0C21.3184 0 11.4844 5.82562 5.7624 14.6473C6.5144 14.6717 7.2224 14.6859 7.8224 14.6859C11.1684 14.6859 16.3504 14.2736 16.3504 14.2736C18.0744 14.17 18.2784 16.7456 16.5544 16.9508C16.5544 16.9508 14.8204 17.158 12.8924 17.2616L24.5444 52.4631L31.5484 31.133L26.5644 17.2616C24.8404 17.158 23.2064 16.9508 23.2064 16.9508C21.4824 16.8472 21.6844 14.17 23.4104 14.2736C23.4104 14.2736 28.6944 14.6859 31.8384 14.6859C35.1844 14.6859 40.3664 14.2736 40.3664 14.2736C42.0924 14.17 42.2944 16.7456 40.5704 16.9508C40.5704 16.9508 38.8344 17.158 36.9084 17.2616L48.4724 52.195L51.6664 41.3644C53.0464 36.8672 54.1004 33.6395 54.1004 30.8588ZM33.0604 35.3409L23.4584 63.6748C26.3264 64.532 29.3584 64.9992 32.4984 64.9992C36.2244 64.9992 39.7984 64.3451 43.1244 63.1568C43.0404 63.0167 42.9604 62.8704 42.8964 62.71L33.0604 35.3409ZM60.578 16.9067C60.716 17.9426 60.794 19.0517 60.794 20.2481C60.794 23.5448 60.186 27.2519 58.36 31.8892L48.586 60.5887C58.1 54.9561 64.498 44.487 64.498 32.4986C64.498 26.8476 63.076 21.5359 60.578 16.9067Z" fill="#21759B"/>
</g>
<defs>
<clipPath id="clip0_1324_5080">
<rect width="64" height="65" fill="white" transform="translate(0.5)"/>
</clipPath>
</defs>
</svg>
