<svg width="152" height="49" viewBox="0 0 152 49" fill="none" xmlns="http://www.w3.org/2000/svg">
<rect width="152" height="49" fill="#353546"/>
<rect x="0.5" y="0.5" width="151" height="48" stroke="#EFEFEF" stroke-opacity="0.937255"/>
<path d="M52.6419 30V20.2H57.0379C58.1672 20.2 59.0352 20.4287 59.6419 20.886C60.2485 21.334 60.5519 21.95 60.5519 22.734C60.5519 23.266 60.4305 23.714 60.1879 24.078C59.9545 24.442 59.6372 24.722 59.2359 24.918C58.8345 25.114 58.4005 25.212 57.9339 25.212L58.1859 24.792C58.7459 24.792 59.2405 24.89 59.6699 25.086C60.0992 25.282 60.4399 25.5713 60.6919 25.954C60.9439 26.3273 61.0699 26.794 61.0699 27.354C61.0699 28.194 60.7525 28.8473 60.1179 29.314C59.4925 29.7713 58.5592 30 57.3179 30H52.6419ZM54.0419 28.866H57.2619C58.0365 28.866 58.6292 28.7353 59.0399 28.474C59.4505 28.2127 59.6559 27.802 59.6559 27.242C59.6559 26.6727 59.4505 26.2573 59.0399 25.996C58.6292 25.7347 58.0365 25.604 57.2619 25.604H53.9159V24.47H56.9119C57.6212 24.47 58.1719 24.3393 58.5639 24.078C58.9559 23.8167 59.1519 23.4247 59.1519 22.902C59.1519 22.3793 58.9559 21.9873 58.5639 21.726C58.1719 21.4647 57.6212 21.334 56.9119 21.334H54.0419V28.866ZM66.1636 30.084C65.5289 30.084 64.9689 29.9673 64.4836 29.734C64.0076 29.5007 63.6342 29.146 63.3636 28.67C63.1022 28.1847 62.9716 27.578 62.9716 26.85V22.58H64.3156V26.696C64.3156 27.424 64.4882 27.97 64.8336 28.334C65.1882 28.698 65.6829 28.88 66.3176 28.88C66.7842 28.88 67.1902 28.7867 67.5356 28.6C67.8809 28.404 68.1469 28.124 68.3336 27.76C68.5202 27.3867 68.6136 26.9387 68.6136 26.416V22.58H69.9576V30H68.6836V27.998L68.8936 28.53C68.6509 29.0247 68.2869 29.4073 67.8016 29.678C67.3162 29.9487 66.7702 30.084 66.1636 30.084ZM75.0642 30.084C74.3175 30.084 73.7389 29.8833 73.3282 29.482C72.9175 29.0807 72.7122 28.5067 72.7122 27.76V20.956H74.0562V27.704C74.0562 28.1053 74.1542 28.4133 74.3502 28.628C74.5555 28.8427 74.8449 28.95 75.2182 28.95C75.6382 28.95 75.9882 28.8333 76.2682 28.6L76.6882 29.566C76.4829 29.7433 76.2355 29.874 75.9462 29.958C75.6662 30.042 75.3722 30.084 75.0642 30.084ZM71.4522 23.686V22.58H76.1842V23.686H71.4522ZM80.6833 30.084C79.9367 30.084 79.358 29.8833 78.9473 29.482C78.5367 29.0807 78.3313 28.5067 78.3313 27.76V20.956H79.6753V27.704C79.6753 28.1053 79.7733 28.4133 79.9693 28.628C80.1747 28.8427 80.464 28.95 80.8373 28.95C81.2573 28.95 81.6073 28.8333 81.8873 28.6L82.3073 29.566C82.102 29.7433 81.8547 29.874 81.5653 29.958C81.2853 30.042 80.9913 30.084 80.6833 30.084ZM77.0713 23.686V22.58H81.8033V23.686H77.0713ZM86.8641 30.084C86.1174 30.084 85.4548 29.9207 84.8761 29.594C84.2974 29.2673 83.8401 28.8193 83.5041 28.25C83.1681 27.6713 83.0001 27.018 83.0001 26.29C83.0001 25.5527 83.1681 24.8993 83.5041 24.33C83.8401 23.7607 84.2974 23.3173 84.8761 23C85.4548 22.6733 86.1174 22.51 86.8641 22.51C87.6014 22.51 88.2594 22.6733 88.8381 23C89.4261 23.3173 89.8834 23.7607 90.2101 24.33C90.5461 24.89 90.7141 25.5433 90.7141 26.29C90.7141 27.0273 90.5461 27.6807 90.2101 28.25C89.8834 28.8193 89.4261 29.2673 88.8381 29.594C88.2594 29.9207 87.6014 30.084 86.8641 30.084ZM86.8641 28.908C87.3401 28.908 87.7648 28.8007 88.1381 28.586C88.5208 28.3713 88.8194 28.068 89.0341 27.676C89.2488 27.2747 89.3561 26.8127 89.3561 26.29C89.3561 25.758 89.2488 25.3007 89.0341 24.918C88.8194 24.526 88.5208 24.2227 88.1381 24.008C87.7648 23.7933 87.3401 23.686 86.8641 23.686C86.3881 23.686 85.9634 23.7933 85.5901 24.008C85.2168 24.2227 84.9181 24.526 84.6941 24.918C84.4701 25.3007 84.3581 25.758 84.3581 26.29C84.3581 26.8127 84.4701 27.2747 84.6941 27.676C84.9181 28.068 85.2168 28.3713 85.5901 28.586C85.9634 28.8007 86.3881 28.908 86.8641 28.908ZM96.5348 22.51C97.1415 22.51 97.6735 22.6267 98.1308 22.86C98.5975 23.0933 98.9615 23.448 99.2228 23.924C99.4842 24.4 99.6148 25.002 99.6148 25.73V30H98.2708V25.884C98.2708 25.1653 98.0935 24.624 97.7388 24.26C97.3935 23.896 96.9035 23.714 96.2688 23.714C95.7928 23.714 95.3775 23.8073 95.0228 23.994C94.6682 24.1807 94.3928 24.456 94.1968 24.82C94.0102 25.184 93.9168 25.6367 93.9168 26.178V30H92.5728V22.58H93.8608V24.582L93.6508 24.05C93.8935 23.5647 94.2668 23.1867 94.7708 22.916C95.2748 22.6453 95.8628 22.51 96.5348 22.51Z" fill="#EFEFEF" fill-opacity="0.937255"/>
</svg>
