<svg width="153" height="49" viewBox="0 0 153 49" fill="none" xmlns="http://www.w3.org/2000/svg">
<rect x="0.5" y="0.5" width="152" height="48" fill="white"/>
<rect x="0.5" y="0.5" width="152" height="48" stroke="#353546"/>
<path d="M53.1419 30V20.2H57.5379C58.6672 20.2 59.5352 20.4287 60.1419 20.886C60.7485 21.334 61.0519 21.95 61.0519 22.734C61.0519 23.266 60.9305 23.714 60.6879 24.078C60.4545 24.442 60.1372 24.722 59.7359 24.918C59.3345 25.114 58.9005 25.212 58.4339 25.212L58.6859 24.792C59.2459 24.792 59.7405 24.89 60.1699 25.086C60.5992 25.282 60.9399 25.5713 61.1919 25.954C61.4439 26.3273 61.5699 26.794 61.5699 27.354C61.5699 28.194 61.2525 28.8473 60.6179 29.314C59.9925 29.7713 59.0592 30 57.8179 30H53.1419ZM54.5419 28.866H57.7619C58.5365 28.866 59.1292 28.7353 59.5399 28.474C59.9505 28.2127 60.1559 27.802 60.1559 27.242C60.1559 26.6727 59.9505 26.2573 59.5399 25.996C59.1292 25.7347 58.5365 25.604 57.7619 25.604H54.4159V24.47H57.4119C58.1212 24.47 58.6719 24.3393 59.0639 24.078C59.4559 23.8167 59.6519 23.4247 59.6519 22.902C59.6519 22.3793 59.4559 21.9873 59.0639 21.726C58.6719 21.4647 58.1212 21.334 57.4119 21.334H54.5419V28.866ZM66.6636 30.084C66.0289 30.084 65.4689 29.9673 64.9836 29.734C64.5076 29.5007 64.1342 29.146 63.8636 28.67C63.6022 28.1847 63.4716 27.578 63.4716 26.85V22.58H64.8156V26.696C64.8156 27.424 64.9882 27.97 65.3336 28.334C65.6882 28.698 66.1829 28.88 66.8176 28.88C67.2842 28.88 67.6902 28.7867 68.0356 28.6C68.3809 28.404 68.6469 28.124 68.8336 27.76C69.0202 27.3867 69.1136 26.9387 69.1136 26.416V22.58H70.4576V30H69.1836V27.998L69.3936 28.53C69.1509 29.0247 68.7869 29.4073 68.3016 29.678C67.8162 29.9487 67.2702 30.084 66.6636 30.084ZM75.5642 30.084C74.8175 30.084 74.2389 29.8833 73.8282 29.482C73.4175 29.0807 73.2122 28.5067 73.2122 27.76V20.956H74.5562V27.704C74.5562 28.1053 74.6542 28.4133 74.8502 28.628C75.0555 28.8427 75.3449 28.95 75.7182 28.95C76.1382 28.95 76.4882 28.8333 76.7682 28.6L77.1882 29.566C76.9829 29.7433 76.7355 29.874 76.4462 29.958C76.1662 30.042 75.8722 30.084 75.5642 30.084ZM71.9522 23.686V22.58H76.6842V23.686H71.9522ZM81.1833 30.084C80.4367 30.084 79.858 29.8833 79.4473 29.482C79.0367 29.0807 78.8313 28.5067 78.8313 27.76V20.956H80.1753V27.704C80.1753 28.1053 80.2733 28.4133 80.4693 28.628C80.6747 28.8427 80.964 28.95 81.3373 28.95C81.7573 28.95 82.1073 28.8333 82.3873 28.6L82.8073 29.566C82.602 29.7433 82.3547 29.874 82.0653 29.958C81.7853 30.042 81.4913 30.084 81.1833 30.084ZM77.5713 23.686V22.58H82.3033V23.686H77.5713ZM87.3641 30.084C86.6174 30.084 85.9548 29.9207 85.3761 29.594C84.7974 29.2673 84.3401 28.8193 84.0041 28.25C83.6681 27.6713 83.5001 27.018 83.5001 26.29C83.5001 25.5527 83.6681 24.8993 84.0041 24.33C84.3401 23.7607 84.7974 23.3173 85.3761 23C85.9548 22.6733 86.6174 22.51 87.3641 22.51C88.1014 22.51 88.7594 22.6733 89.3381 23C89.9261 23.3173 90.3834 23.7607 90.7101 24.33C91.0461 24.89 91.2141 25.5433 91.2141 26.29C91.2141 27.0273 91.0461 27.6807 90.7101 28.25C90.3834 28.8193 89.9261 29.2673 89.3381 29.594C88.7594 29.9207 88.1014 30.084 87.3641 30.084ZM87.3641 28.908C87.8401 28.908 88.2648 28.8007 88.6381 28.586C89.0208 28.3713 89.3194 28.068 89.5341 27.676C89.7488 27.2747 89.8561 26.8127 89.8561 26.29C89.8561 25.758 89.7488 25.3007 89.5341 24.918C89.3194 24.526 89.0208 24.2227 88.6381 24.008C88.2648 23.7933 87.8401 23.686 87.3641 23.686C86.8881 23.686 86.4634 23.7933 86.0901 24.008C85.7168 24.2227 85.4181 24.526 85.1941 24.918C84.9701 25.3007 84.8581 25.758 84.8581 26.29C84.8581 26.8127 84.9701 27.2747 85.1941 27.676C85.4181 28.068 85.7168 28.3713 86.0901 28.586C86.4634 28.8007 86.8881 28.908 87.3641 28.908ZM97.0348 22.51C97.6415 22.51 98.1735 22.6267 98.6308 22.86C99.0975 23.0933 99.4615 23.448 99.7228 23.924C99.9842 24.4 100.115 25.002 100.115 25.73V30H98.7708V25.884C98.7708 25.1653 98.5935 24.624 98.2388 24.26C97.8935 23.896 97.4035 23.714 96.7688 23.714C96.2928 23.714 95.8775 23.8073 95.5228 23.994C95.1682 24.1807 94.8928 24.456 94.6968 24.82C94.5102 25.184 94.4168 25.6367 94.4168 26.178V30H93.0728V22.58H94.3608V24.582L94.1508 24.05C94.3935 23.5647 94.7668 23.1867 95.2708 22.916C95.7748 22.6453 96.3628 22.51 97.0348 22.51Z" fill="#353546"/>
</svg>
