<svg width="368" height="59" viewBox="0 0 368 59" fill="none" xmlns="http://www.w3.org/2000/svg">
<path d="M39.6582 24.5519H46.0032V27.725H39.6582V24.5519Z" fill="#BCDE28"/>
<path d="M93.8174 19.809L83.0419 18.2702C81.0771 17.0632 79.0381 15.9827 76.9358 15.0345C69.9931 11.8897 62.4578 10.267 54.8354 10.2754H52.9636C43.9683 10.2819 35.1169 12.5391 27.2163 16.8412L21.7782 19.8078C15.4126 19.8794 9.16958 21.5725 3.63917 24.725C1.39164 26.014 0.00387283 28.4054 0 30.9957V40.4151C0 41.2916 0.710019 42.0017 1.58657 42.0017H6.91301C8.64545 46.944 14.0564 49.5466 18.9988 47.8141C21.7195 46.8608 23.8579 44.7217 24.8113 42.0017H67.193C68.9254 46.944 74.3364 49.5466 79.2788 47.8141C81.9988 46.8608 84.1379 44.7217 85.0913 42.0017H85.6606C85.8626 42.0017 86.0627 41.9636 86.2506 41.8887L91.3885 39.8271C93.6838 38.9182 95.1871 36.6965 95.1787 34.2289V21.3795C95.1787 20.5907 94.5984 19.9214 93.8174 19.809ZM22.0797 40.0982C21.378 43.5314 18.0261 45.7461 14.5928 45.0444C11.1589 44.3428 8.94431 40.9909 9.64594 37.5569C10.3482 34.1237 13.7001 31.9091 17.1334 32.6107C20.0877 33.2142 22.2088 35.8135 22.2081 38.8292C22.2081 39.2552 22.1649 39.6805 22.0797 40.0982ZM50.7619 38.8292H25.3806C25.3806 33.5724 21.1198 29.311 15.8631 29.311C10.6064 29.311 6.34499 33.5724 6.34499 38.8292H3.1725V30.9957C3.17443 29.5428 3.95287 28.2008 5.21412 27.4792C10.3908 24.5236 16.2478 22.968 22.2081 22.9661H50.7619V38.8292ZM50.7619 19.7936H28.4298L28.7358 19.6264C35.5177 15.9407 43.0511 13.8513 50.7619 13.5176V19.7936ZM53.9344 13.4479H54.8322C61.225 13.4408 67.5596 14.6543 73.4973 17.0238L70.7276 19.7936H53.9344V13.4479ZM82.3597 40.0982C81.658 43.5314 78.3061 45.7461 74.8722 45.0444C71.4389 44.3428 69.2243 40.9909 69.9259 37.5569C70.6276 34.1237 73.9801 31.9091 77.4134 32.6107C80.3677 33.2142 82.4888 35.8135 82.4881 38.8292C82.4881 39.2552 82.4449 39.6805 82.3597 40.0982ZM92.0062 24.552H87.2472V27.7251H92.0062V34.2289C92.0101 35.3978 91.2975 36.45 90.2105 36.8792L85.6606 38.7065C85.6606 38.5607 85.6419 38.4161 85.6322 38.2702C85.6225 38.1243 85.6193 37.9533 85.6038 37.7945C85.5877 37.6357 85.556 37.4769 85.5309 37.3188C85.505 37.16 85.4863 37.0012 85.4547 36.8573C85.4231 36.7127 85.3766 36.5526 85.3353 36.4016C85.294 36.2512 85.2623 36.0988 85.2146 35.951C85.1675 35.8038 85.11 35.6625 85.0564 35.5179C85.0022 35.374 84.9532 35.2249 84.8977 35.0816C84.8421 34.9389 84.7673 34.8092 84.7008 34.6743C84.6343 34.5394 84.5691 34.3916 84.4949 34.2554C84.42 34.1192 84.3361 34.003 84.2644 33.8765C84.1934 33.7493 84.1063 33.6047 84.0159 33.475C83.9249 33.3446 83.841 33.242 83.7539 33.1245C83.6667 33.007 83.568 32.8689 83.4666 32.7469C83.3653 32.6249 83.2704 32.5294 83.1717 32.4293C83.0735 32.3299 82.9638 32.195 82.8547 32.084C82.745 31.973 82.6372 31.8852 82.5281 31.7871C82.4184 31.689 82.3009 31.5728 82.1802 31.4695C82.0602 31.3669 81.9375 31.2875 81.8175 31.1971C81.6968 31.1067 81.576 31.0099 81.4495 30.9254C81.3224 30.8415 81.1797 30.7672 81.0435 30.6782C80.9067 30.5891 80.7957 30.5194 80.6672 30.4516C80.5388 30.3832 80.3787 30.3115 80.2328 30.2418C80.087 30.1721 79.9727 30.1101 79.8378 30.0533C79.7029 29.9959 79.5202 29.9359 79.3621 29.8791C79.2033 29.8216 79.1 29.7771 78.9651 29.7345C78.7844 29.679 78.5991 29.6389 78.4145 29.5931C78.2938 29.5647 78.1783 29.5266 78.0563 29.5015C77.8614 29.4614 77.6613 29.4395 77.4631 29.4104C77.3456 29.395 77.2333 29.3691 77.1158 29.3582C76.7983 29.3265 76.4813 29.3091 76.1483 29.3091C70.8935 29.3143 66.6353 33.5724 66.6301 38.8272H53.935V22.9654H71.384C71.8049 22.9654 72.2083 22.7982 72.5052 22.5007L76.6188 18.3871C78.3455 19.2088 80.0243 20.1273 81.6477 21.1381C81.8349 21.2549 82.044 21.3317 82.2628 21.3633L92.0062 22.7543V24.552Z" fill="#BCDE28"/>
<path d="M189.928 16.0261C189.219 17.945 188.51 19.8638 187.801 21.7829C189.444 23.1686 191.207 24.0972 193.333 24.505C194.043 22.5861 194.752 20.6673 195.461 18.7487C193.335 18.3391 191.571 17.4131 189.928 16.0261Z" fill="#BCDE28"/>
<path d="M215.163 18.5509C215.813 16.7911 216.463 15.0318 217.114 13.2723C214.948 12.923 212.835 12.9251 210.65 13.0589C210 14.8185 209.349 16.5782 208.699 18.3376C210.884 18.2036 212.998 18.2019 215.163 18.5509Z" fill="#BCDE28"/>
<path d="M183.723 32.8176C185.365 34.2041 187.129 35.1314 189.255 35.5399C189.905 33.7803 190.556 32.0207 191.206 30.2614C189.08 29.8529 187.316 28.9254 185.673 27.5389C185.023 29.2984 184.373 31.0581 183.723 32.8176Z" fill="#BCDE28"/>
<path d="M214.488 38.0643C215.138 36.305 215.788 34.5454 216.439 32.786C214.796 31.3998 213.032 30.4726 210.906 30.0636C210.256 31.8233 209.605 33.5829 208.955 35.3423C211.081 35.7505 212.845 36.6781 214.488 38.0643Z" fill="#BCDE28"/>
<path d="M195.719 35.7532C197.979 35.5705 200.232 35.3113 202.492 35.129C203.142 33.3694 203.792 31.6096 204.443 29.8501C202.183 30.0329 199.93 30.2922 197.67 30.4746C197.019 32.2338 196.369 33.9934 195.719 35.7532Z" fill="#BCDE28"/>
<path d="M213.035 24.3072C215.161 24.7159 216.925 25.643 218.567 27.0295C219.277 25.1109 219.986 23.1918 220.695 21.273C219.052 19.8867 217.289 18.9599 215.162 18.5509C214.453 20.4698 213.744 22.3886 213.035 24.3072Z" fill="#BCDE28"/>
<path d="M193.334 24.5049C192.625 26.4235 191.916 28.3426 191.207 30.2612C193.372 30.6103 195.486 30.6084 197.671 30.4746C198.38 28.5557 199.089 26.6369 199.798 24.718C197.613 24.8521 195.5 24.8542 193.334 24.5049Z" fill="#BCDE28"/>
<path d="M201.924 18.9616C202.575 17.202 203.225 15.4424 203.875 13.6832C201.691 13.8173 199.577 13.8193 197.412 13.4701C196.762 15.2294 196.111 16.989 195.461 18.7485C197.626 19.0974 199.74 19.0953 201.924 18.9616Z" fill="#BCDE28"/>
<path d="M206.571 24.094C205.862 26.0126 205.152 27.9314 204.443 29.85C206.628 29.7164 208.742 29.7142 210.907 30.0636C211.616 28.1448 212.325 26.2262 213.034 24.3073C210.869 23.958 208.756 23.9604 206.571 24.094Z" fill="#BCDE28"/>
<path d="M206.57 24.0939C207.279 22.1751 207.988 20.2562 208.697 18.3376C206.437 18.5202 204.184 18.7792 201.924 18.9616C201.215 20.8802 200.506 22.7993 199.797 24.7179C202.057 24.5357 204.31 24.2764 206.57 24.0939Z" fill="#BCDE28"/>
<path d="M218.421 7.75624C217.296 7.56236 216.105 7.46827 214.78 7.46827C212.886 7.46827 211.004 7.6619 209.184 7.84908C208.823 7.8862 208.463 7.92331 208.104 7.95869L207.632 8.00548C205.965 8.17131 204.242 8.34273 202.578 8.34273C201.128 8.34285 199.871 8.21215 198.736 7.94342C195.761 7.23938 193.551 5.34188 191.781 1.97164C191.496 1.42909 190.918 1.10537 190.307 1.14484C189.696 1.18444 189.165 1.5804 188.952 2.15522L169.276 55.3947C168.979 56.1985 169.39 57.0909 170.194 57.3879C170.371 57.4534 170.553 57.4846 170.732 57.4846C171.362 57.4846 171.956 57.0968 172.187 56.4703L179.635 36.3182C181.836 38.616 184.991 40.3932 186.972 40.8618C188.344 41.1865 189.835 41.3445 191.53 41.3445C193.35 41.3445 195.153 41.1651 196.896 40.9913L197.36 40.9454C197.721 40.9099 198.083 40.8724 198.446 40.8349C200.19 40.6555 201.993 40.4699 203.729 40.4699C204.876 40.4699 205.895 40.5495 206.845 40.7131C210.239 41.2977 212.699 43.2447 214.588 46.8404C214.872 47.3828 215.449 47.7058 216.062 47.6672C216.673 47.6276 217.204 47.2316 217.416 46.6568L228.466 16.7578C228.619 16.3454 228.589 15.8877 228.384 15.4984C226.043 11.0405 222.783 8.50782 218.421 7.75624ZM215.589 42.6488C213.451 39.8776 210.74 38.2351 207.371 37.6551C206.246 37.4612 205.054 37.367 203.729 37.367C201.834 37.367 199.95 37.5609 198.128 37.7484C197.769 37.7854 197.411 37.8224 197.054 37.8576L196.589 37.9037C194.921 38.0698 193.195 38.2416 191.53 38.2416C190.079 38.2416 188.821 38.1109 187.686 37.8423C185.878 37.4147 182.372 35.2046 180.88 32.9478L190.777 6.16918C192.715 8.69549 195.106 10.2731 198.021 10.9631C199.393 11.288 200.884 11.446 202.578 11.4459C204.396 11.4459 206.197 11.2667 207.939 11.0935L208.409 11.0468C208.772 11.011 209.136 10.9736 209.502 10.9358C211.244 10.7567 213.045 10.5711 214.78 10.5711C215.926 10.5711 216.945 10.6507 217.894 10.8141C221.096 11.3655 223.466 13.1292 225.31 16.3456L215.589 42.6488Z" fill="#BCDE28"/>
<path d="M366.268 24.993L362.742 24.662C362.329 23.2386 361.766 21.8813 361.021 20.5903L363.256 17.8924C363.802 17.2303 363.752 16.2869 363.156 15.6744L358.754 11.222C358.158 10.6096 357.181 10.56 356.519 11.1062L353.821 13.3407C352.547 12.6124 351.173 12.0331 349.766 11.6193L349.435 8.11032C349.352 7.26619 348.64 6.62067 347.78 6.62067H342.285V1.65517C342.285 0.744826 341.54 0 340.629 0C339.719 0 338.974 0.744826 338.974 1.65517V9.93101H332.718C330.053 9.93101 327.52 11.1889 325.898 13.3076L319.079 22.2951L307.609 25.4234C304.63 26.2344 302.577 28.9323 302.561 32.0275V36.4137C302.577 40.1875 305.656 43.233 309.429 43.233H310.323C311.565 47.8509 316.315 50.5654 320.933 49.324C323.896 48.513 326.229 46.1957 327.024 43.233H338.974V56.9709C338.974 57.8812 339.719 58.6261 340.629 58.6261C341.54 58.6261 342.285 57.8812 342.285 56.9709V52.9985H347.78C348.64 52.9985 349.352 52.353 349.435 51.4923L349.766 47.9668C351.189 47.553 352.547 46.9902 353.838 46.2619L356.536 48.4964C357.198 49.0426 358.158 48.993 358.754 48.3971L363.206 43.9447C363.802 43.3489 363.851 42.3723 363.305 41.7102L361.071 39.0123C361.799 37.7213 362.378 36.364 362.792 34.9572L366.268 34.6261C367.112 34.5434 367.774 33.8316 367.774 32.971V26.6317C367.774 25.7875 367.112 25.0758 366.268 24.993ZM318.665 46.3282C315.719 46.3282 313.319 43.9282 313.319 40.982C313.319 38.0358 315.719 35.6358 318.665 35.6358C321.612 35.6358 324.012 38.0358 324.012 40.982C324.012 43.9282 321.628 46.3282 318.665 46.3282ZM338.974 39.9061H327.256C326.676 35.1558 322.356 31.7958 317.623 32.3585C313.683 32.8385 310.572 35.9503 310.075 39.9061H309.413C307.46 39.9227 305.871 38.3502 305.854 36.3971V32.0275C305.871 30.4385 306.93 29.0482 308.469 28.6179L320.486 25.3406C320.834 25.2413 321.148 25.0427 321.363 24.7448L328.547 15.3269C329.54 14.0193 331.096 13.2579 332.734 13.2579H338.974V39.9061ZM342.285 22.7751C346.158 21.4841 350.345 23.5861 351.636 27.4758C352.927 31.3654 350.825 35.5365 346.936 36.8275C345.429 37.324 343.791 37.324 342.285 36.8275V22.7751ZM364.464 31.4482L361.319 31.7461C360.607 31.8123 360.011 32.342 359.862 33.0372C359.449 34.8909 358.704 36.6454 357.661 38.2344C357.264 38.8468 357.314 39.6247 357.777 40.1875L359.796 42.6371L357.479 44.9544L355.029 42.9516C354.467 42.4882 353.672 42.4385 353.06 42.8523C351.487 43.8951 349.733 44.6399 347.879 45.0371C347.167 45.1861 346.654 45.7819 346.588 46.4937L346.29 49.6716H342.285V40.2537C348.061 41.5447 353.788 37.9034 355.062 32.1268C356.354 26.3503 352.712 20.6234 346.936 19.3324C345.396 18.9848 343.807 18.9848 342.285 19.3324V9.94756H346.274L346.588 13.1089C346.654 13.8207 347.184 14.4165 347.879 14.5655C349.733 14.9793 351.487 15.7241 353.076 16.7503C353.689 17.1475 354.467 17.0979 355.029 16.6344L357.462 14.6151L359.747 16.9158L357.711 19.382C357.247 19.9448 357.198 20.7393 357.611 21.3517C358.654 22.9241 359.399 24.6786 359.796 26.5323C359.962 27.2441 360.541 27.7572 361.269 27.8234L364.464 28.1379V31.4482Z" fill="#BCDE28"/>
</svg>
