<svg width="69" height="16" viewBox="0 0 69 16" fill="none" xmlns="http://www.w3.org/2000/svg">
<path d="M6.8 15.16C5.85333 15.16 5.04 14.96 4.36 14.56C3.68 14.16 3.16 13.5533 2.8 12.74C2.44 11.9133 2.26 10.8733 2.26 9.62C2.26 8.35333 2.44667 7.31333 2.82 6.5C3.20667 5.68667 3.74 5.08 4.42 4.68C5.1 4.28 5.89333 4.08 6.8 4.08C7.81333 4.08 8.72 4.30667 9.52 4.76C10.3333 5.21333 10.9733 5.85333 11.44 6.68C11.92 7.50667 12.16 8.48667 12.16 9.62C12.16 10.74 11.92 11.7133 11.44 12.54C10.9733 13.3667 10.3333 14.0133 9.52 14.48C8.72 14.9333 7.81333 15.16 6.8 15.16ZM0.44 15V0.159999H3.56V6.42L3.36 9.6L3.42 12.8V15H0.44ZM6.26 12.6C6.78 12.6 7.24 12.48 7.64 12.24C8.05333 12 8.38 11.66 8.62 11.22C8.87333 10.7667 9 10.2333 9 9.62C9 8.99333 8.87333 8.46 8.62 8.02C8.38 7.58 8.05333 7.24 7.64 7C7.24 6.76 6.78 6.64 6.26 6.64C5.74 6.64 5.27333 6.76 4.86 7C4.44667 7.24 4.12 7.58 3.88 8.02C3.64 8.46 3.52 8.99333 3.52 9.62C3.52 10.2333 3.64 10.7667 3.88 11.22C4.12 11.66 4.44667 12 4.86 12.24C5.27333 12.48 5.74 12.6 6.26 12.6ZM18.7886 15.16C17.8953 15.16 17.0953 14.9867 16.3886 14.64C15.6953 14.2933 15.1553 13.7667 14.7686 13.06C14.3819 12.34 14.1886 11.4267 14.1886 10.32V4.24H17.3086V9.86C17.3086 10.7533 17.4953 11.4133 17.8686 11.84C18.2553 12.2533 18.7953 12.46 19.4886 12.46C19.9686 12.46 20.3953 12.36 20.7686 12.16C21.1419 11.9467 21.4353 11.6267 21.6486 11.2C21.8619 10.76 21.9686 10.2133 21.9686 9.56V4.24H25.0886V15H22.1286V12.04L22.6686 12.9C22.3086 13.6467 21.7753 14.2133 21.0686 14.6C20.3753 14.9733 19.6153 15.16 18.7886 15.16ZM32.3791 15.16C31.1124 15.16 30.1257 14.84 29.4191 14.2C28.7124 13.5467 28.3591 12.58 28.3591 11.3V1.86H31.4791V11.26C31.4791 11.7133 31.5991 12.0667 31.8391 12.32C32.0791 12.56 32.4057 12.68 32.8191 12.68C33.3124 12.68 33.7324 12.5467 34.0791 12.28L34.9191 14.48C34.5991 14.7067 34.2124 14.88 33.7591 15C33.3191 15.1067 32.8591 15.16 32.3791 15.16ZM26.6991 6.88V4.48H34.1591V6.88H26.6991ZM40.8361 15.16C39.5694 15.16 38.5828 14.84 37.8761 14.2C37.1694 13.5467 36.8161 12.58 36.8161 11.3V1.86H39.9361V11.26C39.9361 11.7133 40.0561 12.0667 40.2961 12.32C40.5361 12.56 40.8628 12.68 41.2761 12.68C41.7694 12.68 42.1894 12.5467 42.5361 12.28L43.3761 14.48C43.0561 14.7067 42.6694 14.88 42.2161 15C41.7761 15.1067 41.3161 15.16 40.8361 15.16ZM35.1561 6.88V4.48H42.6161V6.88H35.1561ZM49.9155 15.16C48.7688 15.16 47.7488 14.92 46.8555 14.44C45.9755 13.96 45.2755 13.3067 44.7555 12.48C44.2488 11.64 43.9955 10.6867 43.9955 9.62C43.9955 8.54 44.2488 7.58667 44.7555 6.76C45.2755 5.92 45.9755 5.26667 46.8555 4.8C47.7488 4.32 48.7688 4.08 49.9155 4.08C51.0488 4.08 52.0621 4.32 52.9555 4.8C53.8488 5.26667 54.5488 5.91333 55.0555 6.74C55.5621 7.56667 55.8155 8.52667 55.8155 9.62C55.8155 10.6867 55.5621 11.64 55.0555 12.48C54.5488 13.3067 53.8488 13.96 52.9555 14.44C52.0621 14.92 51.0488 15.16 49.9155 15.16ZM49.9155 12.6C50.4355 12.6 50.9021 12.48 51.3155 12.24C51.7288 12 52.0555 11.66 52.2955 11.22C52.5355 10.7667 52.6555 10.2333 52.6555 9.62C52.6555 8.99333 52.5355 8.46 52.2955 8.02C52.0555 7.58 51.7288 7.24 51.3155 7C50.9021 6.76 50.4355 6.64 49.9155 6.64C49.3955 6.64 48.9288 6.76 48.5155 7C48.1021 7.24 47.7688 7.58 47.5155 8.02C47.2755 8.46 47.1555 8.99333 47.1555 9.62C47.1555 10.2333 47.2755 10.7667 47.5155 11.22C47.7688 11.66 48.1021 12 48.5155 12.24C48.9288 12.48 49.3955 12.6 49.9155 12.6ZM64.4409 4.08C65.2943 4.08 66.0543 4.25333 66.7209 4.6C67.4009 4.93333 67.9343 5.45333 68.3209 6.16C68.7076 6.85333 68.9009 7.74667 68.9009 8.84V15H65.7809V9.32C65.7809 8.45333 65.5876 7.81333 65.2009 7.4C64.8276 6.98667 64.2943 6.78 63.6009 6.78C63.1076 6.78 62.6609 6.88667 62.2609 7.1C61.8743 7.3 61.5676 7.61333 61.3409 8.04C61.1276 8.46667 61.0209 9.01333 61.0209 9.68V15H57.9009V4.24H60.8809V7.22L60.3209 6.32C60.7076 5.6 61.2609 5.04667 61.9809 4.66C62.7009 4.27333 63.5209 4.08 64.4409 4.08Z" fill="white"/>
</svg>
