<svg width="31" height="19" viewBox="0 0 31 19" fill="none" xmlns="http://www.w3.org/2000/svg">
<path d="M15.704 18H11.624V10.608H4.52V18H0.44V0.516H4.52V7.824H11.624V0.516H15.704V18ZM24.7006 0.323999C25.5646 0.323999 26.3326 0.447999 27.0046 0.696C27.6766 0.935999 28.2446 1.264 28.7086 1.68C29.1726 2.096 29.5246 2.58 29.7646 3.132C30.0046 3.676 30.1246 4.252 30.1246 4.86C30.1246 5.412 30.0686 5.9 29.9566 6.324C29.8446 6.74 29.6766 7.104 29.4526 7.416C29.2366 7.72 28.9646 7.98 28.6366 8.196C28.3166 8.412 27.9486 8.592 27.5326 8.736C29.4686 9.408 30.4366 10.724 30.4366 12.684C30.4366 13.612 30.2686 14.42 29.9326 15.108C29.5966 15.796 29.1446 16.368 28.5766 16.824C28.0166 17.28 27.3646 17.624 26.6206 17.856C25.8766 18.08 25.1006 18.192 24.2926 18.192C23.4606 18.192 22.7206 18.104 22.0726 17.928C21.4246 17.744 20.8486 17.464 20.3446 17.088C19.8406 16.704 19.3966 16.216 19.0126 15.624C18.6366 15.032 18.3086 14.328 18.0286 13.512L19.6846 12.84C19.8286 12.776 19.9686 12.732 20.1046 12.708C20.2486 12.684 20.3886 12.672 20.5246 12.672C20.7806 12.672 21.0086 12.724 21.2086 12.828C21.4166 12.924 21.5726 13.068 21.6766 13.26C22.0366 13.924 22.4166 14.408 22.8166 14.712C23.2246 15.008 23.7006 15.156 24.2446 15.156C24.6606 15.156 25.0206 15.088 25.3246 14.952C25.6366 14.808 25.8926 14.628 26.0926 14.412C26.3006 14.188 26.4566 13.936 26.5606 13.656C26.6646 13.376 26.7166 13.092 26.7166 12.804C26.7166 12.428 26.6886 12.092 26.6326 11.796C26.5846 11.492 26.4406 11.232 26.2006 11.016C25.9606 10.8 25.5966 10.636 25.1086 10.524C24.6286 10.404 23.9566 10.344 23.0926 10.344V7.776C23.8206 7.776 24.4086 7.72 24.8566 7.608C25.3046 7.496 25.6486 7.344 25.8886 7.152C26.1366 6.952 26.3006 6.712 26.3806 6.432C26.4606 6.152 26.5006 5.844 26.5006 5.508C26.5006 4.82 26.3326 4.292 25.9966 3.924C25.6686 3.548 25.1646 3.36 24.4846 3.36C24.2046 3.36 23.9486 3.4 23.7166 3.48C23.4846 3.56 23.2766 3.668 23.0926 3.804C22.9086 3.94 22.7486 4.1 22.6126 4.284C22.4846 4.468 22.3806 4.668 22.3006 4.884C22.1726 5.244 22.0086 5.504 21.8086 5.664C21.6166 5.824 21.3526 5.904 21.0166 5.904C20.9366 5.904 20.8486 5.9 20.7526 5.892C20.6646 5.884 20.5726 5.872 20.4766 5.856L18.5086 5.508C18.6366 4.636 18.8806 3.876 19.2406 3.228C19.6086 2.58 20.0606 2.04 20.5966 1.608C21.1406 1.176 21.7606 0.855999 22.4566 0.647999C23.1526 0.431999 23.9006 0.323999 24.7006 0.323999Z" fill="white"/>
</svg>
