<svg width="384" height="172" viewBox="0 0 384 172" fill="none" xmlns="http://www.w3.org/2000/svg">
<path d="M53.4866 42.2757L33.1218 5.33914C31.9048 3.13171 29.6368 1.7605 27.2028 1.7605C24.7688 1.7605 22.5007 3.13171 21.2837 5.33903L11.2148 23.6018C10.9947 24.0009 11.1253 24.5113 11.5065 24.7418C11.8875 24.9722 12.3749 24.8355 12.5951 24.4363L22.6641 6.17369C23.5972 4.48112 25.3364 3.4297 27.2028 3.4297C29.0691 3.4297 30.8083 4.48112 31.7415 6.17369L52.1063 43.1102C52.5677 43.9471 52.8116 44.8949 52.8116 45.8509C52.8115 48.8788 50.4591 51.3423 47.5676 51.3423H6.83799C3.94642 51.3423 1.59391 48.8788 1.59391 45.8509C1.59391 44.8948 1.83778 43.9472 2.29927 43.1102L10.8401 27.6195C11.0602 27.2204 10.9296 26.71 10.5484 26.4795C10.1673 26.249 9.67983 26.3858 9.45977 26.785L0.918838 42.2757C0.31772 43.3661 0 44.6023 0 45.8509C0 49.7992 3.06754 53.0114 6.83799 53.0114H47.5676C51.338 53.0114 54.4056 49.7992 54.4056 45.8509C54.4056 44.6023 54.0878 43.3661 53.4866 42.2757Z" fill="white"/>
<path d="M47.5673 47.279H32.5264C32.0863 47.279 31.7295 47.6526 31.7295 48.1135C31.7295 48.5744 32.0863 48.9481 32.5264 48.9481H47.5674C48.6358 48.9481 49.5924 48.3697 50.1265 47.4008C50.6607 46.432 50.6607 45.2752 50.1265 44.3064L29.7616 7.36988C29.2276 6.40103 28.2708 5.82263 27.2025 5.82263C26.1342 5.82263 25.1775 6.40103 24.6434 7.36988L4.27856 44.3065C3.74439 45.2753 3.74439 46.4321 4.27856 47.4009C4.81273 48.3698 5.7694 48.9482 6.83764 48.9482H29.1166C29.5567 48.9482 29.9136 48.5745 29.9136 48.1136C29.9136 47.6527 29.5567 47.2791 29.1166 47.2791H6.83775C6.34565 47.2791 5.90499 47.0126 5.65899 46.5664C5.413 46.1202 5.413 45.5874 5.65899 45.1411L26.0238 8.20443C26.2699 7.75822 26.7104 7.49172 27.2025 7.49172C27.6946 7.49172 28.1353 7.75811 28.3813 8.20443L48.7461 45.1411C48.9921 45.5873 48.9921 46.1201 48.7461 46.5664C48.5001 47.0126 48.0594 47.279 47.5673 47.279Z" fill="white"/>
<path d="M29.7392 18.7222C29.4629 18.4143 29.0731 18.2377 28.6697 18.2377H25.5388C25.1353 18.2377 24.7455 18.4143 24.4693 18.7222C24.193 19.03 24.0489 19.4484 24.0741 19.87L24.7728 31.6164C24.8208 32.4247 25.4642 33.0579 26.2376 33.0579H27.9711C28.7445 33.0579 29.3879 32.4247 29.4359 31.6166L30.1346 19.8702C30.1595 19.4484 30.0155 19.03 29.7392 18.7222ZM27.8523 31.3888H26.3561L25.6731 19.9068H28.5353L27.8523 31.3888Z" fill="white"/>
<path d="M27.1023 35.1057C25.5731 35.1057 24.3291 36.4085 24.3291 38.0098C24.3291 39.6111 25.5732 40.9138 27.1023 40.9138C28.6315 40.9138 29.8755 39.611 29.8755 38.0098C29.8755 36.4085 28.6314 35.1057 27.1023 35.1057ZM27.1023 39.2446C26.452 39.2446 25.923 38.6906 25.923 38.0097C25.923 37.3288 26.4521 36.7747 27.1023 36.7747C27.7526 36.7747 28.2816 37.3287 28.2816 38.0097C28.2816 38.6907 27.7525 39.2446 27.1023 39.2446Z" fill="white"/>
<path d="M166.052 35.3182C166.457 34.848 166.71 34.2325 166.71 33.5514C166.71 32.0904 165.575 30.9011 164.179 30.9011H159.118C159.11 30.9011 159.103 30.9028 159.096 30.9028C159.102 30.7864 159.118 30.6695 159.118 30.5513V24.7172C159.118 22.2817 157.225 20.3001 154.899 20.3001H154.056V25.7296C154.056 28.0378 152.831 30.113 150.86 31.1457C150.534 31.3165 150.189 31.4455 149.838 31.5486V15.0181H148.15V31.7845H144.776V30.0177H134.652V45.9192H144.776V44.1524H148.15V52.1217C148.15 52.6091 147.771 53.0051 147.307 53.0051H116.936C116.472 53.0051 116.093 52.6091 116.093 52.1217V7.95077C116.093 7.46334 116.472 7.06735 116.936 7.06735H124.529V8.83419H117.78V51.2383H146.463V47.8185H144.776V49.4715H119.467V10.601H124.684C125.033 11.6268 125.961 12.3679 127.06 12.3679H137.183C138.281 12.3679 139.21 11.6268 139.559 10.601H144.776V28.2694H146.463V8.83419H139.714V7.06735H147.307C147.771 7.06735 148.15 7.46334 148.15 7.95077H149.838C149.838 6.48976 148.702 5.30051 147.307 5.30051H139.559C139.21 4.27475 138.281 3.53367 137.183 3.53367H136.254C135.863 1.52053 134.159 0 132.121 0C130.084 0 128.38 1.52053 127.989 3.53367H127.06C125.961 3.53367 125.033 4.27475 124.684 5.30051H116.936C115.541 5.30051 114.405 6.48976 114.405 7.95077V52.1217C114.405 53.5827 115.541 54.772 116.936 54.772H147.307C148.702 54.772 149.838 53.5827 149.838 52.1217V44.6993L152.61 46.1509C153.426 46.5775 154.339 46.8026 155.25 46.8026H164.179C165.575 46.8026 166.71 45.6134 166.71 44.1524C166.71 43.4713 166.456 42.8557 166.052 42.3856C166.457 41.9154 166.71 41.2998 166.71 40.6187C166.71 39.9376 166.456 39.3221 166.052 38.8519C166.457 38.3817 166.71 37.7662 166.71 37.085C166.71 36.4039 166.456 35.7884 166.052 35.3182ZM126.216 6.18393C126.216 5.6965 126.595 5.30051 127.06 5.30051H129.591V4.41709C129.591 2.95609 130.726 1.76684 132.121 1.76684C133.517 1.76684 134.652 2.95609 134.652 4.41709V5.30051H137.183C137.648 5.30051 138.027 5.6965 138.027 6.18393V9.71761C138.027 10.205 137.648 10.601 137.183 10.601H127.06C126.595 10.601 126.216 10.205 126.216 9.71761V6.18393ZM165.023 40.6187C165.023 41.1061 164.644 41.5021 164.179 41.5021H159.118C158.653 41.5021 158.274 41.1061 158.274 40.6187C158.274 40.1308 158.653 39.7353 159.118 39.7353H164.179C164.644 39.7353 165.023 40.1321 165.023 40.6187ZM159.118 37.9685C158.653 37.9685 158.274 37.5725 158.274 37.085C158.274 36.5972 158.653 36.2016 159.118 36.2016H164.179C164.644 36.2016 165.023 36.5972 165.023 37.085C165.023 37.5725 164.644 37.9685 164.179 37.9685H159.118ZM159.118 32.6679H164.179C164.644 32.6679 165.023 33.0635 165.023 33.5514C165.023 34.0388 164.644 34.4348 164.179 34.4348H159.118C158.694 34.4348 158.358 34.1009 158.297 33.6743C158.456 33.3913 158.593 33.0954 158.707 32.79C158.814 32.7253 158.942 32.6679 159.118 32.6679ZM143.089 44.1524H141.401V35.3368H139.714V44.1524H136.34V31.7845H139.714V33.5699H141.401V31.7845H143.089V44.1524ZM153.364 44.5704L149.193 42.3856H144.776V33.5514H148.273C149.426 33.5514 150.582 33.2658 151.615 32.7253C154.161 31.3924 155.743 28.7111 155.743 25.7296V22.2179C156.725 22.5828 157.43 23.565 157.43 24.7172V30.5513C157.43 32.0938 156.646 33.5453 155.382 34.3386L153.621 35.4446L154.49 36.9595L156.249 35.8535C156.566 35.6547 156.852 35.4178 157.122 35.1646C157.161 35.2177 157.201 35.2686 157.244 35.3182C156.839 35.7884 156.586 36.4039 156.586 37.085C156.586 37.7662 156.84 38.3817 157.244 38.8519C156.839 39.3221 156.586 39.9376 156.586 40.6187C156.586 41.2998 156.84 41.9154 157.244 42.3856C156.839 42.8557 156.586 43.4713 156.586 44.1524C156.586 44.4634 156.646 44.7584 156.741 45.0358H155.25C154.6 45.0358 153.947 44.8749 153.364 44.5704ZM164.179 45.0358H159.118C158.653 45.0358 158.274 44.6398 158.274 44.1524C158.274 43.6645 158.653 43.269 159.118 43.269H164.179C164.644 43.269 165.023 43.6645 165.023 44.1524C165.023 44.6398 164.644 45.0358 164.179 45.0358Z" fill="white"/>
<path d="M148.151 11.5034C148.151 12.7314 149.496 13.058 150.797 13.3755C151.177 13.4673 151.776 13.614 152.051 13.7421C152.024 14.0643 151.84 14.7092 151.722 15.1173C151.345 16.4303 150.957 17.7878 151.945 18.3878C152.919 18.9753 153.827 17.9647 154.709 16.9885C155.007 16.6572 155.485 16.1279 155.745 15.9558C156.004 16.1279 156.481 16.6572 156.78 16.9885C157.48 17.7649 158.2 18.5621 158.953 18.5621C159.147 18.5621 159.344 18.509 159.543 18.3887C160.532 17.7891 160.143 16.4312 159.766 15.1173C159.649 14.7101 159.465 14.0661 159.437 13.7421C159.713 13.614 160.311 13.4682 160.691 13.3755C161.991 13.058 163.337 12.7306 163.337 11.5034C163.337 10.2762 161.991 9.94746 160.69 9.63041C160.31 9.53854 159.712 9.39187 159.437 9.26376C159.464 8.94154 159.648 8.29666 159.766 7.8886C160.143 6.57555 160.531 5.21763 159.543 4.61805C158.569 4.02881 157.661 5.04121 156.779 6.01737C156.481 6.34865 156.004 6.87793 155.744 7.05004C155.485 6.87793 155.007 6.34779 154.709 6.01737C153.828 5.03948 152.916 4.02709 151.946 4.61632C150.957 5.21591 151.346 6.57382 151.722 7.88773C151.84 8.29493 152.023 8.93895 152.051 9.2629C151.776 9.39101 151.178 9.53681 150.799 9.62955C149.497 9.9466 148.151 10.2753 148.151 11.5034ZM153.551 10.1791C153.939 9.47513 153.661 8.50414 153.339 7.37873C153.302 7.24889 153.257 7.09404 153.213 6.93357C153.311 7.03925 153.404 7.14192 153.483 7.23034C154.268 8.10039 154.946 8.85225 155.745 8.85225C156.544 8.85225 157.222 8.10039 158.008 7.23034C158.087 7.14192 158.18 7.03925 158.277 6.93357C158.233 7.09404 158.188 7.24803 158.151 7.37959C157.828 8.50328 157.549 9.47426 157.938 10.1791C158.318 10.8645 159.24 11.0901 160.309 11.3507C160.482 11.3929 160.696 11.4443 160.909 11.5025C160.696 11.559 160.481 11.6121 160.308 11.6543C159.24 11.914 158.318 12.1396 157.938 12.825C157.549 13.529 157.828 14.5 158.15 15.6254C158.187 15.7552 158.232 15.9105 158.276 16.0714C158.178 15.9653 158.085 15.8631 158.006 15.7747C157.221 14.9046 156.544 14.1528 155.744 14.1528C154.944 14.1528 154.267 14.9046 153.481 15.7747C153.402 15.8631 153.309 15.9653 153.212 16.0714C153.256 15.9097 153.3 15.7561 153.338 15.6245C153.661 14.5009 153.939 13.5299 153.551 12.825C153.171 12.1396 152.248 11.914 151.179 11.6535C151.006 11.6112 150.792 11.5599 150.58 11.5016C150.793 11.4451 151.008 11.3921 151.181 11.3498C152.249 11.0901 153.171 10.8654 153.551 10.1791Z" fill="white"/>
<path d="M121.154 45.9375H122.842V47.7043H121.154V45.9375Z" fill="white"/>
<path d="M124.527 45.9375H132.964V47.7043H124.527V45.9375Z" fill="white"/>
<path d="M121.154 42.4042H122.842V44.171H121.154V42.4042Z" fill="white"/>
<path d="M124.527 42.4042H132.964V44.171H124.527V42.4042Z" fill="white"/>
<path d="M121.154 38.8701H122.842V40.637H121.154V38.8701Z" fill="white"/>
<path d="M124.527 38.8701H132.964V40.637H124.527V38.8701Z" fill="white"/>
<path d="M121.154 35.3363H122.842V37.1032H121.154V35.3363Z" fill="white"/>
<path d="M124.527 35.3363H132.964V37.1032H124.527V35.3363Z" fill="white"/>
<path d="M121.154 31.8032H122.842V33.5701H121.154V31.8032Z" fill="white"/>
<path d="M124.527 31.8032H132.964V33.5701H124.527V31.8032Z" fill="white"/>
<path d="M143.089 26.5029H141.401V14.135H136.34V26.5029H134.652V21.2024H129.591V26.5029H127.903V17.6687H122.842V26.5029H121.154V28.2697H143.089V26.5029ZM138.027 15.9018H139.714V26.5029H138.027V15.9018ZM131.278 22.9692H132.965V26.5029H131.278V22.9692ZM124.529 19.4355H126.216V26.5029H124.529V19.4355Z" fill="white"/>
<path d="M127.904 7.06714H129.592V8.83397H127.904V7.06714Z" fill="white"/>
<path d="M134.652 7.06714H136.34V8.83397H134.652V7.06714Z" fill="white"/>
<path d="M233.628 11.4985C232.069 11.4985 230.801 12.8269 230.801 14.4596C230.801 16.0924 232.069 17.4208 233.628 17.4208C235.188 17.4208 236.456 16.0924 236.456 14.4596C236.456 12.8269 235.188 11.4985 233.628 11.4985ZM233.628 15.2905C233.191 15.2905 232.835 14.9177 232.835 14.4595C232.835 14.0013 233.191 13.6286 233.628 13.6286C234.066 13.6286 234.422 14.0012 234.422 14.4595C234.422 14.9178 234.066 15.2905 233.628 15.2905Z" fill="white"/>
<path d="M273.656 20.5508V13.0304C273.656 11.5746 272.525 10.3886 271.133 10.3869L239.332 10.3702C239.083 9.99178 238.799 9.63464 238.48 9.30468C237.152 7.9336 235.395 7.19153 233.527 7.22042C229.791 7.27459 226.733 10.5025 226.711 14.4158C226.705 15.5755 226.966 16.7305 227.468 17.7563C227.478 17.7767 229.122 20.6636 229.122 20.6636V44.8876C229.122 46.3446 230.254 47.5301 231.645 47.5301L271.131 47.5525C272.523 47.5525 273.656 46.3665 273.656 44.9089V30.9167C273.656 30.9167 274.816 28.8795 274.826 28.859C275.321 27.8466 275.583 26.7066 275.583 25.5623C275.583 23.6763 274.899 21.9052 273.656 20.5508ZM266.702 12.5147L261.791 17.6572L256.875 12.5096L266.702 12.5147ZM260.496 19.0129L251.937 27.9754L248.808 24.6985C248.808 24.6983 248.807 24.6982 248.807 24.698C248.807 24.6978 248.807 24.6977 248.807 24.6975L246.459 22.2394L255.018 13.277L260.496 19.0129ZM243.452 31.6617L248.16 26.7317L254.209 33.0656L249.501 37.9956L243.452 31.6617ZM244.6 35.5745L239.319 41.1047L235.087 36.6733L240.368 31.1432L244.6 35.5745ZM239.782 17.7563C240.277 16.7439 240.539 15.6039 240.539 14.4596C240.539 13.7874 240.45 13.1304 240.282 12.5009L253.164 12.5077L245.165 20.8838L242.301 17.8844C241.943 17.5102 241.364 17.5102 241.006 17.8844C240.649 18.2588 240.649 18.8658 241.006 19.2402L246.866 25.3761L242.158 30.3061L238.345 26.3133C237.987 25.939 237.408 25.939 237.05 26.3133C236.693 26.6877 236.693 27.2946 237.05 27.6691L239.073 29.7877L231.156 38.0779V24.2338L231.879 25.5016C232.249 26.1517 232.902 26.5399 233.625 26.5399C234.348 26.5399 235 26.1517 235.371 25.5017C235.371 25.5016 239.772 17.7767 239.782 17.7563ZM229.264 16.7559C228.915 16.0311 228.741 15.2483 228.745 14.4285C228.761 11.6667 230.919 9.38865 233.555 9.35036C234.874 9.33337 236.114 9.85374 237.051 10.8214C237.374 11.1547 237.645 11.527 237.864 11.9274C237.874 11.9465 237.884 11.9648 237.895 11.9831C238.292 12.732 238.504 13.578 238.504 14.4597C238.504 15.2684 238.33 16.0408 237.985 16.7561L233.626 24.4102L229.264 16.7559ZM231.646 45.3999C231.376 45.3999 231.156 45.1702 231.156 44.8877V40.7893L233.792 38.0291L240.836 45.4052L231.646 45.3999ZM243.427 45.4065L240.613 42.4603L245.894 36.9301L253.995 45.4125L243.427 45.4065ZM250.795 39.3511L255.503 34.4212L258.922 38.0012L254.214 42.9311L250.795 39.3511ZM256.585 45.414L255.509 44.2868L260.217 39.3568L266.006 45.4194L256.585 45.414ZM271.131 45.4222L268.597 45.4208L261.511 38.0012L263.644 35.768C264.001 35.3936 264.001 34.7867 263.644 34.4123C263.286 34.038 262.707 34.038 262.349 34.4123L260.217 36.6455L256.151 32.3882C256.151 32.388 256.151 32.3879 256.151 32.3877C256.15 32.3875 256.15 32.3874 256.15 32.3872L253.232 29.3311L256.702 25.6973L258.5 27.5803C258.699 27.7882 258.959 27.8923 259.219 27.8923C259.48 27.8923 259.74 27.7882 259.939 27.5803C260.336 27.1644 260.336 26.49 259.939 26.0739L258.14 24.1909L269.289 12.5161L271.131 12.5171C271.402 12.5174 271.622 12.7477 271.622 13.0304V19.0118C270.682 18.5458 269.645 18.3064 268.571 18.3233C264.835 18.3776 261.778 21.6054 261.755 25.5187C261.749 26.6784 262.011 27.8334 262.512 28.8592C262.522 28.8795 266.923 36.6046 266.923 36.6046C267.294 37.2547 267.946 37.6428 268.669 37.6428C269.392 37.6428 270.045 37.2548 270.415 36.6047L271.622 34.4871V44.909H271.622C271.622 45.1919 271.401 45.4222 271.131 45.4222ZM273.03 27.8587L271.746 30.1127C271.745 30.1136 271.745 30.1144 271.744 30.1153L268.67 35.513L264.309 27.8586C263.96 27.1338 263.785 26.3511 263.79 25.5312C263.805 22.7695 265.963 20.4915 268.6 20.4532C269.916 20.4344 271.159 20.9565 272.095 21.9241C273.033 22.892 273.549 24.1841 273.549 25.5624C273.549 26.3711 273.374 27.1435 273.03 27.8587Z" fill="white"/>
<path d="M268.671 22.6022C267.112 22.6022 265.844 23.9306 265.844 25.5633C265.844 27.196 267.112 28.5244 268.671 28.5244C270.231 28.5244 271.499 27.196 271.499 25.5633C271.499 23.9304 270.231 22.6022 268.671 22.6022ZM268.671 26.3941C268.234 26.3941 267.878 26.0214 267.878 25.5632C267.878 25.1049 268.234 24.7321 268.671 24.7321C269.109 24.7321 269.465 25.105 269.465 25.5632C269.465 26.0213 269.109 26.3941 268.671 26.3941Z" fill="white"/>
<path d="M381.662 4.59376L379.432 3.19285C378.348 2.51152 377.106 2.15173 375.842 2.15173H369.009C368.151 2.15173 367.454 2.8819 367.454 3.77975C367.454 4.3756 367.619 4.92668 367.886 5.40776H364.345C363.059 5.40776 362.013 6.50342 362.013 7.84978C362.013 8.13632 362.069 8.40819 362.156 8.66379H359.681C358.395 8.66379 357.349 9.75945 357.349 11.1058V13.8905C354.16 14.8999 351.907 18.0241 351.907 21.5577C351.907 25.1157 354.189 28.2822 357.454 29.259L360.625 30.2073C361.9 30.5891 362.79 31.8256 362.79 33.2143C362.79 34.9383 361.451 36.34 359.805 36.34H359.556C357.911 36.34 356.571 34.9375 356.571 33.2143V33.084C356.571 31.7376 355.525 30.642 354.239 30.642C352.954 30.642 351.907 31.7376 351.907 33.084V33.2143C351.907 34.9701 352.465 36.6241 353.415 37.9681H351.475C351.742 37.487 351.907 36.9359 351.907 36.34C351.907 35.4422 351.21 34.712 350.353 34.712H343.519C342.255 34.712 341.014 35.0718 339.928 35.7531L337.7 37.154H335.583V50.1782H337.7L339.929 51.5791C341.014 52.2604 342.255 52.6202 343.519 52.6202H353.462C354.748 52.6202 355.794 51.5245 355.794 50.1782C355.794 49.8566 355.731 49.5514 355.623 49.2697C356.614 48.9881 357.349 48.0479 357.349 46.9221C357.349 46.6356 357.293 46.3637 357.206 46.1081H359.681C360.966 46.1081 362.013 45.0125 362.013 43.6661V40.8814C365.201 39.872 367.454 36.7479 367.454 33.2143C367.454 29.6562 365.173 26.4897 361.907 25.5129L358.736 24.5646C357.461 24.1828 356.571 22.9464 356.571 21.5577C356.571 19.8336 357.911 18.4319 359.556 18.4319H359.804C361.451 18.4319 362.789 19.8344 362.789 21.5577V21.6879C362.789 23.0343 363.836 24.1299 365.121 24.1299C366.407 24.1299 367.453 23.0343 367.453 21.6879V21.5577C367.453 21.0473 367.401 20.5475 367.311 20.0599H375.841C377.105 20.0599 378.346 19.7001 379.431 19.0188L381.662 17.6179H383.778V4.59376H381.662ZM355.794 46.9221C355.794 47.3707 355.445 47.7361 355.017 47.7361H353.462H345.688V49.3642H353.462C353.89 49.3642 354.239 49.7296 354.239 50.1782C354.239 50.6267 353.89 50.9922 353.462 50.9922H343.519C342.536 50.9922 341.572 50.7122 340.729 50.1831L338.13 48.5502H337.138V38.7821H338.13L340.729 37.1492C341.572 36.6201 342.536 36.34 343.519 36.34H350.353C350.353 37.2379 349.655 37.9681 348.798 37.9681H345.688H345.367L344.173 39.2184C343.439 39.9868 342.462 40.4101 341.425 40.4101H340.247V42.0381H341.425C342.878 42.0381 344.244 41.4455 345.273 40.3694L346.011 39.5961H348.798H354.958C355.666 40.1594 356.47 40.603 357.349 40.8814V41.2241H345.688V42.8521H357.349V43.6661C357.349 43.9526 357.405 44.2245 357.492 44.4801H355.017H345.688V46.1081H355.017C355.445 46.1081 355.794 46.4736 355.794 46.9221ZM365.899 21.6879C365.899 22.1364 365.55 22.5019 365.122 22.5019C364.694 22.5019 364.345 22.1364 364.345 21.6879V21.5577C364.345 18.9366 362.308 16.8039 359.805 16.8039H359.556C357.053 16.8039 355.017 18.9366 355.017 21.5577C355.017 23.6692 356.371 25.5496 358.309 26.1291L361.479 27.0775C364.082 27.8565 365.899 30.3791 365.899 33.2143C365.899 36.2074 363.87 38.8317 361.074 39.4552L360.458 39.592V43.6661C360.458 44.1146 360.109 44.4801 359.681 44.4801C359.252 44.4801 358.903 44.1146 358.903 43.6661V39.592L358.288 39.4552C355.492 38.8317 353.462 36.2074 353.462 33.2143V33.084C353.462 32.6355 353.811 32.27 354.239 32.27C354.668 32.27 355.017 32.6355 355.017 33.084V33.2143C355.017 35.8354 357.053 37.9681 359.556 37.9681H359.804C362.307 37.9681 364.344 35.8354 364.344 33.2143C364.344 31.1027 362.99 29.2224 361.052 28.6428L357.881 27.6945C355.279 26.9155 353.462 24.3929 353.462 21.5577C353.462 18.5646 355.492 15.9402 358.288 15.3167L358.903 15.1799V11.1058C358.903 10.6573 359.252 10.2918 359.681 10.2918C360.109 10.2918 360.458 10.6573 360.458 11.1058V15.1799L361.074 15.3167C363.87 15.9402 365.899 18.5646 365.899 21.5577V21.6879ZM382.224 15.9899H381.231L378.632 17.6228C377.79 18.1519 376.825 18.4319 375.842 18.4319H366.84C366.603 17.8531 366.302 17.3069 365.947 16.8039H373.673V15.1759H364.404C363.695 14.6126 362.891 14.1689 362.013 13.8905V13.5478H373.673V11.9198H362.013V11.1058C362.013 10.8193 361.957 10.5474 361.87 10.2918H364.345H373.673V8.66379H364.345C363.916 8.66379 363.567 8.2983 363.567 7.84978C363.567 7.40127 363.916 7.03578 364.345 7.03578H370.563H373.351L374.089 7.80908C375.117 8.8852 376.484 9.4778 377.937 9.4778H379.114V7.84978H377.937C376.899 7.84978 375.922 7.4265 375.188 6.65808L373.995 5.40776H373.673H370.563C369.706 5.40776 369.009 4.6776 369.009 3.77975H375.842C376.825 3.77975 377.79 4.05977 378.632 4.58887L381.231 6.22177H382.224V15.9899Z" fill="white"/>
<path d="M369.008 32.2708H376.781V33.8988H369.008V32.2708Z" fill="white"/>
<path d="M342.579 20.8741H350.353V22.5022H342.579V20.8741Z" fill="white"/>
<path d="M343.293 26.2349L350.476 23.1172L351.071 24.6215L343.888 27.7391L343.293 26.2349Z" fill="white"/>
<path d="M343.293 17.1464L343.888 15.6421L351.071 18.7597L350.476 20.264L343.293 17.1464Z" fill="white"/>
<path d="M368.309 30.1509L375.491 27.0332L376.087 28.5375L368.904 31.6552L368.309 30.1509Z" fill="white"/>
<path d="M368.312 36.0198L368.908 34.5155L376.091 37.6331L375.495 39.1374L368.312 36.0198Z" fill="white"/>
<path d="M4.38965 140.789V166.245C4.39033 166.878 4.63065 167.484 5.0579 167.932C5.48515 168.379 6.06443 168.631 6.66865 168.632H17.304C17.9082 168.631 18.4875 168.379 18.9147 167.932C19.342 167.484 19.5823 166.878 19.583 166.245V140.789C19.5831 140.685 19.5635 140.581 19.5253 140.484C19.487 140.388 19.4309 140.3 19.3601 140.226L15.1272 135.794C15.3573 134.985 15.7847 133.31 15.7847 132.039C15.7847 131.003 15.5004 129.698 15.2709 128.813C15.4207 128.76 15.5508 128.658 15.6429 128.523C15.735 128.389 15.7845 128.227 15.7847 128.061V123.288C15.784 122.656 15.5436 122.049 15.1164 121.602C14.6891 121.154 14.1099 120.902 13.5057 120.902H10.467C9.86278 120.902 9.28351 121.154 8.85627 121.602C8.42902 122.049 8.18869 122.656 8.18799 123.288V128.061C8.18811 128.227 8.23769 128.389 8.32979 128.523C8.4219 128.658 8.55193 128.76 8.70171 128.813C8.4722 129.698 8.18799 131.003 8.18799 132.039C8.18799 133.31 8.6153 134.985 8.84548 135.794L4.61252 140.226C4.54176 140.3 4.48564 140.388 4.44739 140.484C4.40915 140.581 4.38952 140.685 4.38965 140.789ZM9.70732 123.288C9.70755 123.077 9.78766 122.875 9.93007 122.726C10.0725 122.577 10.2656 122.493 10.467 122.493H13.5057C13.7071 122.493 13.9002 122.577 14.0426 122.726C14.185 122.875 14.2651 123.077 14.2653 123.288V124.084H9.70732V123.288ZM9.70732 125.675H14.2653V127.266H9.70732V125.675ZM10.2688 128.857H13.704C13.9164 129.62 14.2653 131.028 14.2653 132.039C14.2653 133.047 13.9161 134.457 13.7038 135.221H10.2686C10.0563 134.458 9.70732 133.05 9.70732 132.039C9.70732 131.03 10.0566 129.62 10.2688 128.857ZM10.0219 136.812H13.9507L16.9894 139.994H6.98325L10.0219 136.812ZM5.90898 141.585H18.0637V143.176H5.90898V141.585ZM5.90898 144.767H18.0637V162.268H5.90898V144.767ZM5.90898 163.859H18.0637V166.245C18.0634 166.456 17.9833 166.658 17.8409 166.807C17.6985 166.956 17.5054 167.04 17.304 167.041H6.66865C6.46724 167.04 6.27415 166.956 6.13173 166.807C5.98932 166.658 5.90921 166.456 5.90898 166.245V163.859Z" fill="white"/>
<path d="M21.1026 145.562V166.196C21.1032 166.842 21.3485 167.461 21.7845 167.917C22.2205 168.374 22.8117 168.631 23.4283 168.632H32.4508C33.0675 168.631 33.6586 168.374 34.0946 167.917C34.5306 167.461 34.7759 166.842 34.7766 166.196V145.562C34.7788 144.539 34.5702 143.527 34.165 142.595C33.7599 141.664 33.1677 140.834 32.4288 140.164L31.0035 128.223C31.2351 128 31.4199 127.729 31.5463 127.427C31.6728 127.126 31.738 126.8 31.7379 126.47V125.675C31.8533 125.675 31.9673 125.647 32.071 125.594C32.1748 125.541 32.2656 125.464 32.3367 125.369C32.4077 125.274 32.4571 125.163 32.481 125.044C32.505 124.926 32.5029 124.804 32.4749 124.686L32.0029 122.709C31.8802 122.193 31.5957 121.734 31.195 121.406C30.7943 121.079 30.3004 120.901 29.792 120.902H26.0871C25.5787 120.901 25.0848 121.079 24.6841 121.406C24.2834 121.734 23.999 122.193 23.8762 122.709L23.4043 124.686C23.3763 124.804 23.3742 124.926 23.3981 125.044C23.4221 125.163 23.4714 125.274 23.5425 125.369C23.6135 125.464 23.7044 125.541 23.8081 125.594C23.9119 125.647 24.0258 125.675 24.1412 125.675V126.47C24.1411 126.8 24.2064 127.126 24.3328 127.427C24.4592 127.729 24.6441 128 24.8757 128.223L23.4502 140.164C22.7114 140.834 22.1192 141.664 21.714 142.595C21.3089 143.527 21.1003 144.539 21.1026 145.562ZM25.3501 123.095C25.3911 122.923 25.4859 122.77 25.6194 122.661C25.753 122.552 25.9177 122.493 26.0871 122.493H29.792C29.9615 122.493 30.1261 122.552 30.2597 122.661C30.3933 122.77 30.4881 122.923 30.5291 123.095L30.765 124.084H25.1142L25.3501 123.095ZM30.2186 125.675V126.47C30.2183 126.681 30.1382 126.883 29.9958 127.032C29.8534 127.182 29.6603 127.265 29.4589 127.266H26.4202C26.2188 127.265 26.0257 127.182 25.8833 127.032C25.7409 126.883 25.6608 126.681 25.6606 126.47V125.675H30.2186ZM24.6389 141.198C24.7948 141.069 24.8959 140.88 24.9206 140.674L26.3314 128.854C26.361 128.856 26.3904 128.857 26.4202 128.857H29.4589C29.4886 128.857 29.5182 128.856 29.5477 128.854L30.9585 140.674C30.9832 140.88 31.0843 141.069 31.2402 141.198C31.8702 141.718 32.3792 142.381 32.7286 143.137C33.078 143.893 33.2588 144.722 33.2572 145.562V166.196C33.2571 166.42 33.172 166.635 33.0209 166.793C32.8697 166.951 32.6647 167.04 32.4508 167.041H23.4283C23.2145 167.04 23.0095 166.951 22.8583 166.793C22.7071 166.635 22.6221 166.42 22.6219 166.196V145.562C22.6203 144.722 22.8011 143.893 23.1505 143.137C23.4999 142.381 24.0089 141.718 24.6389 141.198Z" fill="white"/>
<path d="M36.2959 143.176V166.245C36.2966 166.878 36.5369 167.484 36.9642 167.932C37.3914 168.379 37.9707 168.631 38.5749 168.632H46.1716C46.7758 168.631 47.3551 168.379 47.7823 167.932C48.2096 167.484 48.4499 166.878 48.4506 166.245V143.176C48.4471 142.059 48.1648 140.963 47.6318 139.996C47.0987 139.03 46.3334 138.226 45.4119 137.664V128.857H46.1716C46.373 128.857 46.5663 128.773 46.7087 128.624C46.8512 128.475 46.9312 128.272 46.9312 128.061V124.879C46.9312 124.668 46.8512 124.466 46.7087 124.317C46.5663 124.168 46.373 124.084 46.1716 124.084V123.288C46.1709 122.656 45.9305 122.049 45.5033 121.602C45.076 121.154 44.4968 120.902 43.8926 120.902H40.8539C40.2497 120.902 39.6704 121.154 39.2432 121.602C38.8159 122.049 38.5756 122.656 38.5749 123.288V124.084C38.3734 124.084 38.1802 124.168 38.0377 124.317C37.8953 124.466 37.8152 124.668 37.8152 124.879V128.061C37.8152 128.272 37.8953 128.475 38.0377 128.624C38.1802 128.773 38.3734 128.857 38.5749 128.857H39.3346V137.664C38.413 138.226 37.6477 139.03 37.1147 139.996C36.5816 140.963 36.2994 142.059 36.2959 143.176ZM46.9312 166.245C46.931 166.456 46.8509 166.658 46.7085 166.807C46.5661 166.956 46.373 167.04 46.1716 167.041H38.5749C38.3735 167.04 38.1804 166.956 38.038 166.807C37.8956 166.658 37.8155 166.456 37.8152 166.245V163.859H46.9312V166.245ZM46.9312 143.176V162.268H37.8152V143.176H46.9312ZM40.0942 123.288C40.0945 123.077 40.1746 122.875 40.317 122.726C40.4594 122.577 40.6525 122.493 40.8539 122.493H43.8926C44.094 122.493 44.2871 122.577 44.4295 122.726C44.5719 122.875 44.652 123.077 44.6522 123.288V124.084H40.0942V123.288ZM39.3346 125.675H45.4119V127.266H39.3346V125.675ZM43.8926 128.857V133.63H40.8539V128.857H43.8926ZM40.4203 138.862C40.55 138.798 40.6596 138.696 40.7364 138.569C40.8131 138.442 40.8539 138.295 40.8539 138.144V135.221H43.8926V138.144C43.8925 138.295 43.9333 138.442 44.01 138.569C44.0868 138.696 44.1964 138.798 44.3261 138.863C45.4194 139.41 46.2611 140.389 46.667 141.585H38.0795C38.4853 140.389 39.327 139.41 40.4203 138.862Z" fill="white"/>
<path d="M11.9859 146.358C11.1803 146.359 10.4079 146.694 9.83827 147.291C9.26861 147.887 8.94817 148.696 8.94727 149.54V157.495C8.94727 158.339 9.26741 159.148 9.83727 159.745C10.4071 160.342 11.18 160.677 11.9859 160.677C12.7918 160.677 13.5647 160.342 14.1346 159.745C14.7045 159.148 15.0246 158.339 15.0246 157.495V149.54C15.0237 148.696 14.7033 147.887 14.1336 147.291C13.5639 146.694 12.7916 146.359 11.9859 146.358ZM13.5053 157.495C13.5053 157.917 13.3452 158.321 13.0603 158.62C12.7753 158.918 12.3889 159.086 11.9859 159.086C11.583 159.086 11.1965 158.918 10.9116 158.62C10.6267 158.321 10.4666 157.917 10.4666 157.495V149.54C10.4666 149.118 10.6267 148.713 10.9116 148.415C11.1965 148.116 11.583 147.949 11.9859 147.949C12.3889 147.949 12.7753 148.116 13.0603 148.415C13.3452 148.713 13.5053 149.118 13.5053 149.54V157.495Z" fill="white"/>
<path d="M27.9384 160.703C29.0628 160.703 30.075 159.879 30.7889 158.385C31.4162 157.071 31.7618 155.342 31.7618 153.517C31.7618 151.693 31.4162 149.964 30.7889 148.65C30.075 147.155 29.0628 146.332 27.9384 146.332C26.8141 146.332 25.8019 147.155 25.088 148.65C24.4607 149.964 24.1152 151.693 24.1152 153.517C24.1152 155.342 24.4607 157.071 25.088 158.385C25.8019 159.879 26.8141 160.703 27.9384 160.703ZM27.9384 147.975C29.002 147.975 30.1925 150.345 30.1925 153.517C30.1925 156.689 29.0025 159.06 27.9384 159.06C26.8744 159.06 25.6843 156.689 25.6843 153.517C25.6843 150.345 26.8749 147.975 27.9384 147.975Z" fill="white"/>
<path d="M153.556 141.063C152.818 140.495 151.901 139.785 151.781 139.315C151.65 138.801 152.118 137.669 152.496 136.761C153.143 135.202 153.812 133.588 153.07 132.243C152.319 130.88 150.633 130.682 149.005 130.49C148.076 130.381 146.92 130.246 146.574 129.883C146.227 129.521 146.098 128.311 145.994 127.337C145.811 125.633 145.622 123.869 144.321 123.081C143.19 122.393 141.514 122.994 140.006 123.682C139.172 124.061 138.303 124.422 137.565 124.431C137.116 124.307 136.44 123.344 135.896 122.571C134.958 121.239 133.895 119.728 132.361 119.728C130.829 119.728 129.764 121.239 128.826 122.569C128.282 123.342 127.606 124.305 126.97 124.453C126.41 124.453 125.549 124.061 124.716 123.682C123.204 122.994 121.526 122.4 120.404 123.081C119.1 123.869 118.911 125.633 118.728 127.338C118.626 128.311 118.495 129.519 118.15 129.883C117.802 130.247 116.646 130.381 115.719 130.49C114.089 130.682 112.403 130.882 111.652 132.243C110.91 133.586 111.579 135.2 112.226 136.761C112.604 137.669 113.074 138.801 112.943 139.315C112.823 139.785 111.904 140.495 111.168 141.063C109.893 142.045 108.45 143.16 108.45 144.767C108.45 146.373 109.893 147.488 111.166 148.47C111.904 149.038 112.821 149.748 112.941 150.219C113.072 150.732 112.604 151.865 112.226 152.773C111.579 154.331 110.91 155.945 111.652 157.29C112.403 158.653 114.089 158.851 115.717 159.043C116.646 159.152 117.802 159.287 118.148 159.651C118.495 160.012 118.624 161.223 118.728 162.196C118.911 163.901 119.1 165.664 120.401 166.452C121.528 167.138 123.204 166.539 124.716 165.851C125.55 165.473 126.402 165.089 127.157 165.102C127.606 165.227 128.282 166.189 128.826 166.962C129.764 168.294 130.827 169.805 132.361 169.805C133.894 169.805 134.958 168.294 135.894 166.964C136.438 166.191 137.114 165.229 137.75 165.081C138.312 165.081 139.173 165.473 140.004 165.851C141.518 166.542 143.194 167.136 144.316 166.455C145.62 165.666 145.809 163.903 145.992 162.196C146.094 161.223 146.225 160.014 146.57 159.651C146.918 159.287 148.074 159.152 149.001 159.043C150.631 158.851 152.317 158.651 153.068 157.29C153.812 155.947 153.143 154.334 152.494 152.773C152.116 151.865 151.648 150.735 151.779 150.219C151.899 149.748 152.818 149.038 153.554 148.47C154.829 147.488 156.272 146.373 156.272 144.767C156.272 143.16 154.829 142.045 153.556 141.063ZM152.326 146.713C151.222 147.564 150.08 148.444 149.772 149.65C149.454 150.9 150.032 152.291 150.592 153.637C150.949 154.499 151.49 155.801 151.273 156.195C151.047 156.607 149.681 156.768 148.774 156.874C147.394 157.038 145.965 157.205 145.104 158.107C144.244 159.008 144.084 160.504 143.93 161.95C143.828 162.897 143.674 164.329 143.279 164.567C143.219 164.604 143.119 164.613 143.046 164.613C142.506 164.613 141.657 164.225 140.836 163.853C139.547 163.267 138.137 162.684 137.031 162.997C135.877 163.319 135.037 164.515 134.222 165.671C133.673 166.45 132.844 167.628 132.361 167.628C131.879 167.628 131.047 166.45 130.5 165.671C129.687 164.517 128.847 163.321 127.693 162.999C127.467 162.936 127.224 162.903 126.968 162.903C125.976 162.903 124.914 163.387 123.886 163.857C123.067 164.229 122.219 164.617 121.676 164.617C121.603 164.617 121.504 164.608 121.443 164.571C121.048 164.332 120.897 162.901 120.795 161.954C120.639 160.508 120.479 159.013 119.618 158.111C118.759 157.21 117.329 157.042 115.948 156.879C115.046 156.772 113.678 156.611 113.451 156.199C113.233 155.808 113.775 154.503 114.133 153.641C114.692 152.296 115.27 150.904 114.952 149.655C114.642 148.448 113.501 147.569 112.399 146.717C111.655 146.14 110.53 145.272 110.53 144.767C110.53 144.261 111.654 143.393 112.399 142.816C113.503 141.964 114.644 141.085 114.952 139.878C115.27 138.629 114.692 137.237 114.133 135.892C113.777 135.03 113.235 133.728 113.451 133.334C113.68 132.922 115.046 132.761 115.95 132.656C117.331 132.493 118.759 132.325 119.62 131.424C120.481 130.523 120.641 129.027 120.797 127.581C120.897 126.634 121.051 125.204 121.446 124.964C121.506 124.927 121.606 124.918 121.678 124.918C122.219 124.918 123.067 125.306 123.887 125.68C125.176 126.266 126.583 126.852 127.691 126.536C128.845 126.214 129.685 125.019 130.5 123.862C131.049 123.083 131.879 121.905 132.361 121.905C132.844 121.905 133.675 123.083 134.224 123.86C135.037 125.014 135.877 126.21 137.031 126.532C138.129 126.839 139.547 126.264 140.836 125.676C141.655 125.304 142.504 124.916 143.046 124.916C143.119 124.916 143.219 124.925 143.279 124.962C143.674 125.201 143.826 126.632 143.928 127.579C144.084 129.025 144.244 130.521 145.105 131.422C145.964 132.323 147.394 132.491 148.775 132.654C149.677 132.761 151.045 132.922 151.272 133.334C151.49 133.726 150.947 135.03 150.59 135.892C150.03 137.237 149.452 138.629 149.771 139.878C150.08 141.085 151.222 141.964 152.324 142.816C153.068 143.393 154.193 144.261 154.193 144.767C154.193 145.272 153.068 146.141 152.326 146.713Z" fill="white"/>
<path d="M126.121 139.323C125.547 139.323 125.081 139.811 125.081 140.412V145.855L120.715 139.759C120.447 139.384 119.977 139.23 119.555 139.38C119.131 139.528 118.844 139.944 118.844 140.412V149.121C118.844 149.722 119.31 150.21 119.883 150.21C120.457 150.21 120.923 149.722 120.923 149.121V143.678L125.289 149.774C125.489 150.053 125.801 150.21 126.121 150.21C126.231 150.21 126.341 150.192 126.45 150.153C126.874 150.005 127.161 149.589 127.161 149.121V140.412C127.161 139.811 126.695 139.323 126.121 139.323Z" fill="white"/>
<path d="M134.44 148.032H131.321V141.5H134.44C135.014 141.5 135.48 141.013 135.48 140.412C135.48 139.811 135.014 139.323 134.44 139.323H130.282C129.708 139.323 129.242 139.811 129.242 140.412V149.121C129.242 149.722 129.708 150.21 130.282 150.21H134.44C135.014 150.21 135.48 149.722 135.48 149.121C135.48 148.52 135.014 148.032 134.44 148.032Z" fill="white"/>
<path d="M134.44 143.678H130.282C129.708 143.678 129.242 144.166 129.242 144.767C129.242 145.368 129.708 145.855 130.282 145.855H134.44C135.014 145.855 135.48 145.368 135.48 144.767C135.48 144.166 135.014 143.678 134.44 143.678Z" fill="white"/>
<path d="M147.164 139.356C146.602 139.21 146.041 139.563 145.904 140.149L144.692 145.231L143.741 142.245C143.459 141.357 142.053 141.357 141.768 142.245L140.818 145.231L139.606 140.149C139.467 139.563 138.893 139.208 138.346 139.356C137.789 139.502 137.452 140.092 137.589 140.676L139.668 149.385C139.781 149.853 140.176 150.19 140.637 150.208C141.159 150.229 141.519 149.923 141.664 149.465L142.756 146.032L143.848 149.465C143.991 149.912 144.388 150.21 144.835 150.21C144.848 150.21 144.862 150.21 144.873 150.208C145.334 150.19 145.729 149.855 145.841 149.385L147.921 140.676C148.06 140.092 147.723 139.502 147.164 139.356Z" fill="white"/>
<path d="M267.432 165.752L266.697 164.982C266.402 164.673 265.923 164.673 265.629 164.982C265.333 165.291 265.333 165.792 265.628 166.1L266.257 166.759L263.053 170.114L257.606 164.41L260.81 161.055L263.351 163.716C263.646 164.025 264.124 164.025 264.419 163.716C264.714 163.407 264.714 162.906 264.419 162.597L261.345 159.379C261.345 159.378 261.344 159.378 261.344 159.377L259.208 157.14C259.207 157.139 259.207 157.139 259.206 157.138L257.321 155.164C257.064 154.895 256.723 154.747 256.36 154.747C255.996 154.747 255.655 154.895 255.398 155.164L255.291 155.276L252.589 152.445C254.521 149.918 255.916 146.923 256.593 143.651H261.914C262.331 143.651 262.669 143.297 262.669 142.86C262.669 142.424 262.331 142.07 261.914 142.07H256.861C256.927 141.567 256.977 141.058 257.009 140.545H265.514C265.931 140.545 266.269 140.191 266.269 139.754C266.269 139.317 265.931 138.963 265.514 138.963H257.054C257.05 138.451 257.03 137.943 256.993 137.438H261.914C262.332 137.438 262.67 137.084 262.67 136.647C262.67 136.21 262.332 135.856 261.914 135.856H256.82C256.293 132.22 254.882 128.82 252.661 125.882C252.402 125.54 251.927 125.482 251.6 125.753C251.273 126.024 251.218 126.521 251.477 126.864C254.138 130.385 255.545 134.625 255.545 139.125C255.545 150.027 247.075 158.897 236.664 158.897C226.253 158.897 217.783 150.027 217.783 139.125C217.783 128.223 226.253 119.354 236.664 119.354C241.37 119.354 245.879 121.178 249.359 124.49C249.667 124.784 250.145 124.76 250.426 124.437C250.706 124.113 250.684 123.613 250.375 123.319C246.616 119.742 241.747 117.772 236.664 117.772C225.42 117.772 216.272 127.351 216.272 139.125C216.272 149.521 223.403 158.203 232.812 160.095V165.43C232.812 165.867 233.15 166.221 233.567 166.221C233.984 166.221 234.322 165.867 234.322 165.43V160.337C234.803 160.395 235.288 160.435 235.778 160.457V169.149C235.778 169.586 236.116 169.94 236.534 169.94C236.951 169.94 237.289 169.586 237.289 169.149V160.468C237.779 160.452 238.264 160.419 238.745 160.368V165.43C238.745 165.867 239.083 166.221 239.5 166.221C239.918 166.221 240.256 165.867 240.256 165.43V160.147C243.666 159.51 246.784 157.981 249.384 155.801L252.087 158.631L251.981 158.743C251.724 159.012 251.582 159.37 251.582 159.75C251.582 160.13 251.724 160.488 251.981 160.757L253.866 162.731C253.867 162.732 253.867 162.732 253.868 162.733L256.004 164.969C256.004 164.97 256.005 164.97 256.005 164.971L262.092 171.344C262.348 171.613 262.69 171.761 263.053 171.761C263.416 171.761 263.757 171.613 264.014 171.345L267.432 167.766C267.689 167.497 267.83 167.139 267.83 166.759C267.83 166.379 267.689 166.021 267.432 165.752ZM251.6 153.646L254.223 156.394L253.155 157.513L250.531 154.765C250.9 154.406 251.257 154.033 251.6 153.646ZM256.538 163.292L255.47 162.173L258.674 158.818L259.742 159.937L256.538 163.292ZM256.36 156.395L257.606 157.699L254.402 161.055L253.156 159.75L256.36 156.395Z" fill="white"/>
<path d="M226.144 153.602C229.169 155.983 232.803 157.267 236.662 157.315C246.24 157.315 254.032 149.155 254.032 139.125C254.032 129.095 246.24 120.935 236.662 120.935C232.039 120.935 227.691 122.83 224.42 126.27C221.162 129.696 219.34 134.258 219.291 139.117C219.246 143.59 220.798 147.889 223.661 151.223C223.94 151.547 224.418 151.574 224.728 151.282C225.038 150.99 225.063 150.49 224.784 150.165C222.175 147.127 220.76 143.209 220.801 139.134C220.846 134.69 222.512 130.518 225.49 127.386C228.476 124.246 232.444 122.517 236.662 122.517C245.407 122.517 252.522 129.967 252.522 139.125C252.522 148.283 245.407 155.733 236.67 155.733C233.144 155.69 229.818 154.515 227.052 152.338C226.718 152.075 226.245 152.146 225.994 152.495C225.743 152.844 225.811 153.34 226.144 153.602Z" fill="white"/>
<path d="M239.533 124.995H234.297C233.659 124.995 233.139 125.539 233.139 126.208V129.002H228.255C227.617 129.002 227.097 129.546 227.097 130.215V138.703H226.086C225.669 138.703 225.331 139.057 225.331 139.494C225.331 139.931 225.669 140.285 226.086 140.285H247.744C248.161 140.285 248.499 139.931 248.499 139.494C248.499 139.057 248.161 138.703 247.744 138.703H246.733V134.222C246.733 133.553 246.214 133.009 245.575 133.009H240.691V126.208C240.691 125.539 240.172 124.995 239.533 124.995ZM228.608 130.584H233.139V138.703H228.608V130.584ZM234.65 126.577H239.181V138.703H234.65V126.577ZM245.223 134.591V138.703H240.691V134.591H245.223Z" fill="white"/>
<path d="M245.376 146.987H241.82L240.205 142.663C240.091 142.357 239.811 142.16 239.495 142.16C239.181 142.163 238.902 142.368 238.793 142.676L236.586 148.909L235.043 144.33C234.945 144.037 234.691 143.831 234.395 143.805C234.1 143.778 233.816 143.936 233.672 144.208L232.19 146.986H228.644C228.227 146.986 227.889 147.34 227.889 147.777C227.889 148.214 228.227 148.568 228.644 148.568H232.633C232.907 148.568 233.159 148.413 233.293 148.163L234.175 146.508L235.856 151.497C235.962 151.811 236.244 152.022 236.562 152.024H236.568C236.884 152.024 237.167 151.819 237.276 151.508L239.52 145.172L240.601 148.065C240.714 148.369 240.993 148.568 241.304 148.568H245.376C245.793 148.568 246.131 148.214 246.131 147.777C246.131 147.34 245.793 146.987 245.376 146.987Z" fill="white"/>
<path d="M329.096 151.418C329.379 151.623 329.677 151.803 329.988 151.958C330.36 152.156 330.982 152.489 331.026 152.723C331.081 153.031 331.046 153.348 330.925 153.634C330.797 153.922 330.662 154.169 330.547 154.383C330.232 154.965 329.706 155.939 330.5 156.619C330.686 156.799 331.006 157.059 331.299 157.294C331.084 157.688 330.986 158.14 331.019 158.593C331.064 158.947 331.247 159.266 331.523 159.475C331.717 159.618 331.924 159.744 332.125 159.866C332.63 160.167 332.828 160.308 332.898 160.586C332.944 160.952 332.912 161.324 332.804 161.675C332.753 161.909 332.704 162.142 332.672 162.382C332.587 163.202 332.687 164.033 332.963 164.806C333.348 166.239 334.586 167.237 336.007 167.262C336.243 167.261 336.478 167.235 336.709 167.185C339.164 166.576 341.583 165.818 343.954 164.915C345.889 166.104 347.112 169.721 347.431 171.079C347.527 171.48 347.871 171.762 348.265 171.761L369.833 171.698C370.106 171.698 370.363 171.561 370.525 171.33C370.686 171.099 370.733 170.802 370.651 170.528C370.438 169.919 370.146 169.343 369.781 168.819C369.574 168.509 369.388 168.184 369.224 167.847C368.835 167.022 368.511 166.165 368.254 165.285C367.764 163.546 367.423 161.765 367.237 159.962C366.936 157.27 367.325 154.543 368.366 152.061C369.001 150.685 369.784 149.389 370.7 148.198C371.216 147.469 371.751 146.715 372.231 145.922C373.057 144.578 373.656 143.096 374.001 141.54C374.1 141.059 373.813 140.585 373.356 140.474C372.898 140.363 372.441 140.656 372.327 141.133C372.025 142.491 371.502 143.785 370.781 144.957C370.335 145.696 369.819 146.423 369.32 147.127C368.326 148.426 367.477 149.84 366.791 151.342C365.628 154.118 365.193 157.168 365.531 160.178C365.73 162.09 366.092 163.979 366.615 165.823C366.897 166.791 367.254 167.733 367.681 168.641C367.877 169.046 368.1 169.437 368.347 169.81L368.405 169.9L348.915 169.962C348.344 167.827 347.308 165.86 345.89 164.216L346.663 163.934C347.24 163.722 347.676 163.563 347.901 163.484C351.58 162.256 353.421 160.501 353.37 158.265C353.368 158.026 353.273 157.799 353.108 157.634C352.943 157.47 352.721 157.382 352.493 157.391C352.019 157.403 351.643 157.815 351.654 158.312C351.675 159.232 350.951 160.58 347.379 161.772C347.145 161.85 346.691 162.015 346.097 162.233C345.459 162.466 344.65 162.763 343.756 163.081H343.75C341.333 164.009 338.868 164.79 336.365 165.42C335.565 165.578 334.787 165.052 334.595 164.223C334.411 163.715 334.338 163.17 334.383 162.628C334.408 162.448 334.448 162.259 334.488 162.076C334.671 161.448 334.7 160.782 334.574 160.139C334.324 159.315 333.746 158.645 332.988 158.302L332.803 158.191C332.896 157.994 333.007 157.808 333.135 157.634C333.279 157.442 333.342 157.198 333.311 156.956C333.28 156.715 333.156 156.497 332.969 156.352C332.763 156.194 332.281 155.812 331.92 155.512C331.962 155.434 332.006 155.347 332.05 155.27C332.185 155.021 332.34 154.73 332.489 154.4C332.762 153.769 332.841 153.066 332.718 152.387C332.512 151.289 331.508 150.751 330.775 150.359C330.528 150.236 330.291 150.092 330.067 149.928C329.883 149.799 329.71 149.652 329.551 149.49C329.551 149.354 329.692 149.023 330.345 148.189C331.883 146.115 333.201 143.872 334.277 141.499C334.478 141.127 334.592 140.71 334.608 140.283C334.518 139.377 334.059 138.557 333.348 138.033C333 137.699 332.671 137.384 332.634 137.118C332.642 136.898 332.689 136.681 332.773 136.478C332.913 136.093 333.075 135.715 333.237 135.337C333.599 134.555 333.887 133.738 334.096 132.897C334.293 131.889 334.551 130.895 334.869 129.921C335.547 127.963 336.595 126.169 337.952 124.647C339.595 122.825 342.182 121.536 345.653 120.815C348.309 120.204 351.003 119.798 353.715 119.598C354.627 119.549 355.542 119.57 356.452 119.66C356.758 119.689 357.056 119.546 357.234 119.283C357.412 119.02 357.443 118.678 357.314 118.385C357.186 118.092 356.918 117.893 356.611 117.864C355.619 117.768 354.62 117.748 353.625 117.801C350.829 118.005 348.051 118.422 345.314 119.05C341.439 119.86 338.624 121.283 336.702 123.41C335.185 125.108 334.012 127.111 333.255 129.297C332.907 130.361 332.624 131.447 332.409 132.549C332.225 133.256 331.978 133.943 331.671 134.601C331.499 135.01 331.322 135.419 331.168 135.845C330.972 136.321 330.892 136.84 330.934 137.356C331.112 138.159 331.558 138.869 332.191 139.359C332.612 139.763 332.89 140.047 332.893 140.295C332.862 140.432 332.813 140.563 332.747 140.686C331.718 142.955 330.458 145.1 328.987 147.084C328.365 147.879 327.712 148.805 327.848 149.732C328.031 150.446 328.481 151.054 329.096 151.418Z" fill="white"/>
<path d="M338.091 131.171C338.608 129.669 339.41 128.292 340.449 127.122C341.594 125.853 343.575 124.918 346.336 124.343C346.802 124.246 347.104 123.772 347.012 123.285C346.92 122.797 346.468 122.481 346.002 122.577C342.884 123.227 340.596 124.339 339.2 125.883C338.001 127.231 337.075 128.819 336.478 130.551C336.189 131.45 335.953 132.367 335.772 133.297L337.451 133.686C337.615 132.835 337.829 131.995 338.091 131.171Z" fill="white"/>
<path d="M356.067 122.814L355.551 125.506C355.054 125.677 354.571 125.887 354.104 126.136L351.923 124.606C351.241 124.138 350.34 124.237 349.764 124.841L348.338 126.334C347.749 126.938 347.654 127.896 348.111 128.614L349.565 130.888C349.328 131.377 349.127 131.883 348.963 132.404L346.396 132.943C345.594 133.113 345.017 133.852 345.018 134.709V136.832C345.017 137.688 345.592 138.426 346.392 138.597L348.963 139.137C349.127 139.657 349.328 140.164 349.565 140.652L348.104 142.937C347.658 143.65 347.751 144.594 348.328 145.197L349.755 146.69C350.333 147.304 351.245 147.403 351.932 146.927L354.103 145.405C354.57 145.653 355.053 145.864 355.55 146.035L356.066 148.723C356.228 149.564 356.933 150.168 357.752 150.167H359.78C360.597 150.168 361.301 149.566 361.465 148.728L361.98 146.035C362.477 145.865 362.961 145.654 363.427 145.406L365.609 146.935C366.291 147.403 367.192 147.305 367.768 146.7L369.193 145.208C369.781 144.603 369.877 143.645 369.42 142.927L367.966 140.653C368.203 140.165 368.404 139.658 368.567 139.138L371.135 138.598C371.645 138.49 372.08 138.145 372.318 137.66L373.613 138.569C373.863 138.734 374.152 138.821 374.447 138.822C374.859 138.822 375.254 138.65 375.545 138.344L376.688 137.147C377.207 136.6 377.291 135.747 376.888 135.101L375.779 133.365C375.94 133.026 376.079 132.677 376.195 132.319L378.14 131.913C378.867 131.763 379.391 131.094 379.388 130.318V128.626C379.391 127.853 378.871 127.185 378.147 127.033L376.193 126.625C376.078 126.267 375.94 125.918 375.779 125.579L376.905 123.822C377.295 123.179 377.206 122.338 376.69 121.799L375.547 120.603C375.025 120.058 374.21 119.971 373.593 120.393L371.935 121.554C371.612 121.385 371.278 121.24 370.936 121.118L370.548 119.082C370.405 118.321 369.767 117.772 369.025 117.775H367.41C366.671 117.772 366.034 118.317 365.888 119.075L365.499 121.12C365.157 121.242 364.824 121.387 364.501 121.557L362.822 120.378C362.208 119.97 361.405 120.063 360.891 120.603L360.117 121.413C360.006 121.388 359.893 121.375 359.78 121.374H357.752C356.935 121.373 356.23 121.975 356.067 122.814ZM369.203 126.341L368.802 125.921C370.291 126.129 371.476 127.332 371.722 128.884C371.967 130.437 371.216 131.975 369.87 132.675L368.566 132.405C368.403 131.885 368.201 131.378 367.964 130.89L369.425 128.605C369.873 127.892 369.78 126.947 369.203 126.343V126.341ZM362.011 121.971L363.976 123.353C364.251 123.547 364.608 123.557 364.893 123.379C365.385 123.076 365.914 122.845 366.466 122.691C366.781 122.602 367.021 122.334 367.084 121.998L367.546 119.574H368.89L369.351 122.004C369.415 122.339 369.655 122.607 369.97 122.697C370.521 122.85 371.05 123.082 371.542 123.385C371.828 123.561 372.186 123.549 372.46 123.353L374.424 121.973L375.378 122.972L374.061 125.03C373.876 125.318 373.866 125.692 374.036 125.991C374.325 126.506 374.546 127.06 374.693 127.637C374.778 127.967 375.035 128.218 375.355 128.285L377.675 128.768V130.176L375.359 130.659C375.039 130.726 374.783 130.977 374.697 131.307C374.551 131.884 374.33 132.438 374.04 132.953C373.871 133.252 373.88 133.626 374.065 133.914L375.383 135.971L374.429 136.97L372.514 135.628V134.709C372.514 134.182 372.294 133.681 371.913 133.338C373.425 131.812 373.9 129.476 373.112 127.438C372.323 125.399 370.43 124.067 368.329 124.073C367.81 124.077 367.294 124.165 366.801 124.336C366.381 124.272 365.953 124.37 365.598 124.613L363.428 126.136C362.962 125.887 362.478 125.677 361.981 125.506L361.466 122.817C361.45 122.745 361.431 122.674 361.406 122.605L362.011 121.971ZM357.133 126.392L357.752 123.173H359.78L360.398 126.395C360.462 126.729 360.701 126.997 361.015 127.086C361.725 127.286 362.407 127.583 363.044 127.968C363.328 128.14 363.681 128.128 363.953 127.937L366.553 126.116L367.993 127.616L366.249 130.341C366.067 130.627 366.055 130.996 366.22 131.293C366.588 131.96 366.871 132.674 367.062 133.418C367.147 133.747 367.403 133.997 367.722 134.065L370.796 134.708V136.832L367.719 137.479C367.4 137.547 367.145 137.797 367.059 138.126C366.868 138.87 366.585 139.584 366.217 140.251C366.053 140.548 366.064 140.917 366.247 141.203L367.986 143.925L366.553 145.433L363.951 143.607C363.678 143.416 363.325 143.404 363.042 143.576C362.405 143.961 361.723 144.258 361.013 144.458C360.698 144.547 360.459 144.815 360.395 145.149L359.78 148.368H357.752L357.134 145.146C357.07 144.812 356.831 144.545 356.516 144.455C355.806 144.255 355.124 143.959 354.488 143.574C354.204 143.401 353.851 143.413 353.578 143.604L350.978 145.425L349.538 143.925L351.282 141.2C351.465 140.914 351.476 140.545 351.312 140.248C350.944 139.581 350.661 138.867 350.47 138.124C350.385 137.794 350.129 137.544 349.81 137.477L346.736 136.832V134.709L349.812 134.062C350.132 133.995 350.387 133.744 350.472 133.415C350.664 132.671 350.947 131.957 351.314 131.29C351.479 130.993 351.468 130.624 351.285 130.338L349.546 127.616L350.978 126.108L353.581 127.934C353.854 128.125 354.206 128.137 354.49 127.965C355.127 127.58 355.809 127.283 356.519 127.083C356.832 126.993 357.07 126.725 357.133 126.392Z" fill="white"/>
<path d="M358.767 142.069C362.089 142.069 364.782 139.249 364.782 135.77C364.782 132.291 362.089 129.471 358.767 129.471C355.445 129.471 352.752 132.291 352.752 135.77C352.756 139.247 355.446 142.065 358.767 142.069ZM358.767 131.271C361.14 131.271 363.063 133.285 363.063 135.77C363.063 138.255 361.14 140.269 358.767 140.269C356.394 140.269 354.47 138.255 354.47 135.77C354.473 133.287 356.395 131.274 358.767 131.271Z" fill="white"/>
<path d="M358.766 136.67C359.24 136.67 359.625 136.267 359.625 135.77C359.625 135.273 359.24 134.87 358.766 134.87C358.291 134.87 357.906 135.273 357.906 135.77C357.906 136.267 358.291 136.67 358.766 136.67Z" fill="white"/>
<path d="M335.567 137.569C336.042 137.569 336.427 137.167 336.427 136.67C336.427 136.173 336.042 135.77 335.567 135.77C335.093 135.77 334.708 136.173 334.708 136.67C334.708 137.167 335.093 137.569 335.567 137.569Z" fill="white"/>
</svg>
