<svg width="20" height="13" viewBox="0 0 20 13" fill="none" xmlns="http://www.w3.org/2000/svg">
<path d="M9.79688 12H7.38281V7.07031H2.85938V12H0.4375V0.578125H2.85938V5.05469H7.38281V0.578125H9.79688V12ZM19.4297 3.13281C19.4297 3.65885 19.3203 4.11458 19.1016 4.5C18.8828 4.88542 18.5859 5.20052 18.2109 5.44531C17.8411 5.6901 17.4245 5.86979 16.9609 5.98438V6.03125C17.8776 6.14583 18.5729 6.42708 19.0469 6.875C19.526 7.32292 19.7656 7.92188 19.7656 8.67188C19.7656 9.33854 19.6016 9.9349 19.2734 10.4609C18.9505 10.987 18.4505 11.401 17.7734 11.7031C17.0964 12.0052 16.224 12.1562 15.1562 12.1562C14.526 12.1562 13.9375 12.1042 13.3906 12C12.849 11.901 12.3385 11.7474 11.8594 11.5391V9.48438C12.349 9.73438 12.862 9.92448 13.3984 10.0547C13.9349 10.1797 14.4349 10.2422 14.8984 10.2422C15.763 10.2422 16.3672 10.0938 16.7109 9.79688C17.0599 9.49479 17.2344 9.07292 17.2344 8.53125C17.2344 8.21354 17.1536 7.94531 16.9922 7.72656C16.8307 7.50781 16.5495 7.34115 16.1484 7.22656C15.7526 7.11198 15.1979 7.05469 14.4844 7.05469H13.6172V5.20312H14.5C15.2031 5.20312 15.737 5.13802 16.1016 5.00781C16.4714 4.8724 16.7214 4.6901 16.8516 4.46094C16.987 4.22656 17.0547 3.96094 17.0547 3.66406C17.0547 3.25781 16.9297 2.9401 16.6797 2.71094C16.4297 2.48177 16.013 2.36719 15.4297 2.36719C15.0651 2.36719 14.7318 2.41406 14.4297 2.50781C14.1328 2.59635 13.8646 2.70573 13.625 2.83594C13.3854 2.96094 13.1745 3.08333 12.9922 3.20312L11.875 1.53906C12.3229 1.21615 12.8464 0.947917 13.4453 0.734375C14.0495 0.520833 14.7682 0.414062 15.6016 0.414062C16.7786 0.414062 17.7109 0.651042 18.3984 1.125C19.0859 1.59896 19.4297 2.26823 19.4297 3.13281Z" fill="white"/>
</svg>
