<svg width="81" height="81" viewBox="0 0 81 81" fill="none" xmlns="http://www.w3.org/2000/svg">
<g clip-path="url(#clip0_1452_12252)">
<path d="M21.2566 45.882H21.2179C21.2179 45.882 20.6371 52.1287 20.3274 55.3553C20.3274 55.3553 21.5277 55.5618 22.1343 55.665C22.1343 55.665 21.9665 53.9098 21.7729 51.7931C21.5535 49.3797 21.3857 47.5082 21.2437 45.8691L21.2566 45.882Z" fill="#281815"/>
<path d="M32.9755 47.5342C32.9755 47.5342 32.3043 47.2115 32.072 47.147V54.0777C32.072 54.0777 32.5625 54.1551 32.8077 54.1809C33.5046 54.2713 33.9305 53.9744 33.9305 52.929V48.9022C33.8918 48.0375 33.5175 47.831 32.9755 47.5342Z" fill="#281815"/>
<path d="M15.4358 42.694C15.2293 42.5004 14.8809 42.1907 14.5066 41.8164V50.2184C14.5066 50.2184 15.1003 50.2571 15.3971 50.27C15.9908 50.3217 16.3135 49.8828 16.3135 48.347V45.1075C16.3135 43.5717 15.8747 43.1199 15.4358 42.694Z" fill="#281815"/>
<path d="M38.1253 25.6322V23.9544C38.1253 22.7412 37.8026 22.1992 37.0541 22.1862C37.0541 22.1862 36.3829 22.1862 36.0474 22.1733V24.1222C36.0474 24.2254 36.0474 27.4649 36.0474 27.3617C36.0474 27.3617 36.5894 27.3875 36.8605 27.4004C37.6348 27.4262 38.1124 27.0003 38.1124 25.6451L38.1253 25.6322Z" fill="#281815"/>
<path d="M30.8847 25.9548V23.5413C30.8847 22.3926 30.5233 22.0055 29.8522 21.9796C29.8522 21.9796 29.2069 21.9538 28.8584 21.9409V27.2325C28.8584 27.2325 29.5295 27.3228 29.8522 27.3616C30.5233 27.439 30.8847 27.1163 30.8847 25.9677V25.9548Z" fill="#281815"/>
<path d="M40.9516 55.0713C40.1127 55.0713 39.5835 55.2778 39.5835 55.807V59.8853C39.5835 60.4145 40.1127 60.621 40.9516 60.621C41.7905 60.621 42.3196 60.4145 42.3196 59.8853V55.807C42.3196 55.2778 41.7905 55.0713 40.9516 55.0713Z" fill="#281815"/>
<path d="M65.8478 30.975C66.5189 31.0008 66.9319 30.4846 66.9319 29.5424V22.5988C66.9319 21.6825 66.5189 21.334 65.8478 21.334C65.1767 21.334 64.7637 21.6825 64.7637 22.5859V25.1284C64.7637 25.2446 64.7637 29.5682 64.7637 29.465C64.7637 30.4071 65.1767 30.9621 65.8478 30.975Z" fill="#281815"/>
<path d="M9.86035 17.23V64.2606H71.2169V17.23H9.86035ZM62.673 26.871V22.741C62.673 20.7147 63.7958 19.5015 65.8479 19.5015C67.9 19.5015 69.0229 20.7147 69.0229 22.8313V29.7233C69.0229 31.8528 67.9 32.9111 65.8479 32.9111C63.7958 32.9111 62.673 31.5947 62.673 29.4264V26.8581V26.871ZM55.3938 29.7362C55.3938 29.7362 56.7232 29.4781 57.3814 29.3619V30.4202C57.3814 31.4915 57.7944 31.8141 58.4655 31.6721C59.1366 31.5302 59.5496 31.0397 59.5496 30.0201C59.5496 29.0005 59.1366 28.3036 57.7686 27.2453C56.0262 25.8901 55.4712 24.7802 55.4712 23.1669C55.4712 20.9083 56.5167 19.5273 58.5559 19.5144C60.5951 19.5144 61.6405 20.7534 61.6405 22.7926V23.1927C61.6405 23.1927 60.324 23.2572 59.6529 23.2959V22.7539C59.6529 21.8117 59.2786 21.4632 58.6075 21.4891C57.9364 21.5149 57.5621 21.9021 57.5621 22.87C57.5621 23.838 57.9751 24.5608 59.3431 25.6191C61.0855 26.9742 61.6405 27.9809 61.6405 29.5555C61.6405 31.7496 60.5692 33.3758 58.5171 33.9566C56.465 34.5244 55.3938 33.1822 55.3938 30.6913V29.7491V29.7362ZM48.2824 31.0785C48.2824 31.0785 49.6118 30.872 50.27 30.7429V31.9432C50.2184 32.8595 50.9024 33.1564 51.3541 33.0144C51.8059 32.8595 52.4383 32.4723 52.4383 31.5044C52.4383 30.3041 52.0253 29.5555 50.6572 28.3294C48.9148 26.7677 48.3599 25.4642 48.3599 23.6315C48.3599 21.0761 49.4053 19.5144 51.4445 19.5144C53.4837 19.5144 54.5291 20.9212 54.5291 23.2185V23.6702C54.5291 23.6702 53.2126 23.7864 52.5415 23.8251V23.2056C52.5415 22.1344 52.1672 21.7472 51.4961 21.7601C50.825 21.7859 50.4507 22.2247 50.4507 23.3347C50.4507 24.4446 50.8637 25.2835 52.2318 26.4709C53.9741 27.9938 54.5291 29.0522 54.5291 30.872C54.5291 33.4145 53.4837 35.1698 51.4058 35.6602C49.9344 36.0087 48.2824 34.9374 48.2824 32.1368V31.0655V31.0785ZM48.0888 39.2352L48.476 38.7964L48.9665 38.3189L49.4956 37.8801L50.0635 37.48L50.6572 37.1186L51.2767 36.8089L51.9091 36.5507L52.5673 36.3442L53.987 36.0087L55.4196 35.7247L56.8651 35.4795L56.5425 35.8667L56.1811 36.2152L55.7939 36.5249L55.368 36.7959L54.9163 37.0154L54.4387 37.196L53.9483 37.3122L53.3288 37.4671L52.748 37.6607L52.193 37.9059L51.6639 38.2027L51.1735 38.5641L50.7217 38.9642L50.3216 39.4159L49.999 39.7773L49.7279 40.1774L49.6505 40.371L49.5343 40.5388L49.3924 40.6807L49.2246 40.784L49.031 40.9002L48.8632 41.0679L48.7471 41.2615L48.6438 41.4293L48.5018 41.5584L48.3212 41.6487L48.1276 41.6745L47.9469 41.7003L47.7662 41.7649L47.6113 41.8681L47.4822 42.0101L47.3403 42.1521L47.1596 42.2424L46.9531 42.2811L46.7466 42.2553L46.5143 42.2166L46.2691 42.2424L46.0496 42.3198L44.8106 43.0555L44.9913 42.7587L45.1204 42.436L45.1978 42.1004L45.2236 41.7649L45.1978 41.4293L45.1075 41.0937L44.9784 40.7711L45.5592 40.6678L46.1271 40.5001L46.6691 40.2677L47.1854 39.9838L47.6629 39.6482L48.0888 39.2611V39.2352ZM47.379 42.3844L47.5339 42.2682L47.6629 42.1263L47.7404 42.0359L47.8436 41.9585L48.0759 42.7587L48.347 43.533L48.5147 44.0493L48.5664 44.3074V44.4236V44.5397L48.5147 44.6301L48.4244 44.6817H48.3212H48.2179L48.1276 44.6301L48.0114 44.5268L47.9211 44.3978L47.8049 44.1009L47.6629 43.5589L47.379 42.3973V42.3844ZM47.5984 44.1784V44.4623L47.5468 44.5914L47.4951 44.643L47.4306 44.6688H47.3661L47.3016 44.643L47.1983 44.5397L47.0821 44.3332L46.9918 44.1138L46.824 43.5589L46.7208 42.991L46.6304 42.4231H46.695L46.8756 42.4747H47.0563L47.2241 42.4231L47.3919 43.0942L47.521 43.6234L47.5984 44.1525V44.1784ZM48.2308 42.578L47.9985 41.9068H48.1147L48.347 41.8681L48.5535 41.7907L48.9148 42.6683L49.1601 43.2362L49.3537 43.8299L49.3924 44.0235V44.2171V44.3203L49.3537 44.4107L49.2891 44.4881L49.1988 44.5397H49.0955L49.0052 44.4881L48.9277 44.3978L48.8632 44.2816L48.6309 43.7008L48.2437 42.5909L48.2308 42.578ZM49.3278 43.2104L49.0052 42.4231L48.6954 41.6874L48.8503 41.5326L48.9536 41.339L49.0697 41.1583L49.4182 41.881L49.7925 42.6296L50.1022 43.2491L50.1926 43.4943L50.2571 43.7395V43.9202L50.2313 43.9977L50.1797 44.0622L50.1022 44.1138H50.0119H49.9215L49.8441 44.088L49.7408 44.0106L49.6634 43.9202L49.4827 43.5847L49.3408 43.2233L49.3278 43.2104ZM49.999 42.6812L49.7538 42.2037L49.173 41.055L49.3149 40.9647L49.4827 40.8743L49.6247 40.7582L49.999 41.4293L50.3991 42.0875L50.7992 42.7587L50.9411 43.0426L50.9928 43.1588L51.0186 43.2878V43.404L50.9669 43.5072L50.8766 43.5847L50.7734 43.6234H50.6959L50.6185 43.5847L50.4765 43.4814L50.3474 43.3265L50.2313 43.1588L49.9732 42.6941L49.999 42.6812ZM41.2614 43.0297L41.0807 42.8877L40.8742 42.7845L40.6677 42.8877L40.487 43.0297L40.3192 43.262L40.2031 42.9523L40.0224 42.6683L39.7901 42.436L39.5578 42.2295L39.3642 41.9843L39.2093 41.7133L39.106 41.4293L39.0028 41.1067L38.835 40.8098L38.693 40.6549L38.5382 40.513L38.1123 40.2032L37.6476 39.9451L37.2734 39.7386L36.9249 39.5063L36.6926 39.2998L36.4861 39.0675L36.3183 38.8093L36.1376 38.4609L36.0085 38.0866L35.9311 37.6994L36.215 38.035L36.5506 38.3189L36.9378 38.5383L37.3508 38.6932L37.7767 38.7835L38.1639 38.8868L38.5253 39.0546L38.8608 39.274L39.1577 39.545L39.4158 39.8547L39.6223 40.1903L39.7772 40.5646L39.8675 40.9518L39.945 41.3132L40.0095 41.4809L40.0998 41.6358L40.2547 41.7778L40.4354 41.8939L40.629 41.9714L40.8355 42.0101L41.042 41.9714L41.2356 41.8939L41.4163 41.7778L41.5712 41.6358L41.6615 41.4809L41.726 41.3132L41.8035 40.9518L41.8938 40.5646L42.0487 40.1903L42.2552 39.8547L42.5133 39.545L42.8102 39.274L43.1457 39.0546L43.5071 38.8868L43.8943 38.7835L44.3202 38.6932L44.7332 38.5383L45.1204 38.3189L45.456 38.035L45.7399 37.6994L45.6625 38.0866L45.5334 38.4609L45.3527 38.8093L45.1849 39.0675L44.9784 39.2998L44.759 39.4934L44.3976 39.7257L44.0234 39.9322L43.5587 40.1903L43.1328 40.5001L42.9779 40.642L42.836 40.7969L42.6682 41.0937L42.5649 41.4164L42.4617 41.7003L42.3068 41.9714L42.1132 42.2166L41.8809 42.4231L41.6486 42.6554L41.4679 42.9394L41.3517 43.2491L41.184 43.0168L41.2614 43.0297ZM41.3776 43.8428V44.1655L41.3001 44.4881L41.2098 44.7979L41.0678 45.0689L40.8742 45.3141L40.6677 45.056L40.5128 44.7591L40.4096 44.4365L40.358 44.1009V43.817L40.4096 43.533L40.4999 43.3394L40.629 43.1717L40.7322 43.0813L40.8613 43.0039L40.9904 43.0813L41.0936 43.1717L41.2227 43.3394L41.313 43.533L41.3776 43.8428ZM37.0023 41.3906L37.1056 41.055L37.2734 40.7453L37.4928 40.4742L37.7638 40.2419L38.0994 40.4355L38.4091 40.6678L38.4865 40.7453L38.2284 40.9002L38.0219 41.1067L37.867 41.3519L37.7767 41.6358L37.7509 41.9327L37.7896 42.2295L37.8929 42.5134L38.0606 42.7587L38.28 42.9652L38.5382 43.1071L38.8221 43.1975L39.119 43.2233L39.4158 43.1717L39.6997 43.0555L39.945 42.8748L40.074 43.12L39.7901 43.3265L39.4674 43.4814L39.1319 43.5718L38.7834 43.5976L38.4349 43.5459L38.0994 43.4298L37.7896 43.2491L37.5186 43.0168L37.2992 42.7329L37.1443 42.4231L37.0539 42.0875L37.0152 41.7391L37.0539 41.3906H37.0023ZM36.8345 40.6033L36.6926 40.3581L36.6151 40.1V39.8289L36.6409 39.5579L36.7829 39.6741L37.0669 39.8676L37.3508 40.0354L37.0669 40.2936L36.8345 40.6033ZM41.8293 42.8877L42.0745 43.0684L42.3584 43.1846L42.6553 43.2362L42.9521 43.2104L43.2361 43.12L43.4942 42.9781L43.7136 42.7716L43.8814 42.5264L43.9846 42.2424L44.0234 41.9456L43.9975 41.6487L43.9072 41.3648L43.7523 41.1196L43.5458 40.9131L43.2877 40.7582L43.3651 40.6807L43.6749 40.4484L44.0104 40.2548L44.2815 40.4872L44.5009 40.7582L44.6687 41.0679L44.7719 41.4035L44.8106 41.752L44.7719 42.1004L44.6816 42.436L44.5267 42.7458L44.3073 43.0297L44.0363 43.262L43.7265 43.4427L43.3909 43.5589L43.0425 43.6105L42.694 43.5847L42.3584 43.4943L42.0358 43.3394L41.7518 43.1329L41.8809 42.8877H41.8293ZM44.6816 40.2806L44.3976 40.0225L44.6816 39.8547L44.9655 39.6611L45.1075 39.545L45.1591 39.816V40.0871L45.0688 40.3452L44.9268 40.5904L44.6945 40.2806H44.6816ZM41.597 35.3246V30.4331C41.597 30.0976 41.597 19.3724 41.597 19.708C41.597 19.708 45.4043 19.708 47.3145 19.708V22.0957C47.3145 22.0957 44.9139 22.1602 43.7007 22.186V23.9413C43.7007 24.0445 43.7007 26.9484 43.7007 26.8581C43.7007 26.8581 45.6237 26.7548 46.5788 26.6645V29.0263C46.5788 29.0263 44.6687 29.2199 43.7007 29.2716V31.1817C43.7007 31.2462 43.7007 34.6019 43.7007 34.5373C43.7007 34.5373 44.2944 34.0211 45.0559 33.8533C46.0884 33.6339 46.8886 34.2921 47.3145 34.7955V37.5574C47.3145 37.5574 46.3465 36.37 45.172 36.6411C43.8427 36.9508 43.3393 37.7252 41.597 37.4929V35.3117V35.3246ZM41.1711 38.577L41.7389 38.6286L42.3068 38.7448L42.836 38.8997L42.5133 39.1449L42.2294 39.4288L41.9842 39.7515L41.7906 40.1L41.6486 40.4742L41.5582 40.8614L41.4808 41.197L41.4292 41.3132L41.3647 41.4164L41.2227 41.5455L41.0549 41.6358L40.8613 41.6745L40.6677 41.6358L40.4999 41.5455L40.358 41.4164L40.2934 41.3132L40.2418 41.197L40.1644 40.8614L40.074 40.4742L39.9321 40.1L39.7385 39.7515L39.4932 39.4288L39.2093 39.1449L38.8866 38.8997L39.4287 38.7319L39.9966 38.6286L40.5645 38.577H41.1323H41.1711ZM33.9564 34.8471V19.708C33.9564 19.708 36.0731 19.708 37.1185 19.708C39.2867 19.708 40.216 21.0761 40.216 23.696V25.0254C40.216 26.7806 39.7772 27.9035 38.8479 28.4585V28.5101C39.8933 29.0909 40.2418 30.3428 40.2418 32.24V35.1181C40.2418 36.0345 40.2547 36.7443 40.4612 37.4929V37.5187C40.4612 37.5187 40.4612 37.5058 40.4612 37.4929C40.3967 37.4929 39.0157 37.5445 38.3188 37.2864C38.2026 36.7572 38.151 36.5894 38.151 35.0407V32.1368C38.151 30.4719 37.738 29.8782 36.7829 29.8394C36.7829 29.8394 36.2925 29.8136 36.0602 29.8007V36.6153C35.2083 36.5636 34.7308 37.8543 33.9693 37.6349V34.8342L33.9564 34.8471ZM26.7676 29.1167V19.6822C26.7676 19.6822 28.8326 19.6822 29.8522 19.6822C31.943 19.6822 32.9756 21.1793 32.9756 23.8122V25.9546C32.9756 28.5875 31.943 29.9556 29.8522 29.6329C29.8522 29.6329 29.194 29.5297 28.8584 29.4652V35.1698C28.8584 35.1698 27.6065 34.8342 26.7676 34.718V29.1167ZM27.7485 36.0087L29.1682 36.3442L29.8264 36.5507L30.4588 36.8089L31.0783 37.1186L31.672 37.48L32.2399 37.8801L32.7691 38.3189L33.2595 38.7964L33.6467 39.2352L34.0726 39.6224L34.5501 39.958L35.0664 40.2419L35.6084 40.4742L36.1763 40.642L36.7571 40.7195L36.6151 41.0421L36.5248 41.3777L36.499 41.7133L36.5248 42.0488L36.6022 42.3844L36.7313 42.707L36.912 43.0039L35.6859 42.294L35.4665 42.2166L35.2213 42.1908L34.9889 42.2295L34.7824 42.2553L34.5759 42.2166L34.3952 42.1263L34.2533 41.9843L34.1242 41.8423L33.9693 41.7391L33.8016 41.6745L33.6209 41.6487L33.4273 41.6229L33.2466 41.5326L33.1046 41.4035L33.0014 41.2357L32.8852 41.0421L32.7174 40.8743L32.5238 40.7582L32.356 40.6549L32.2141 40.513L32.0979 40.3452L32.0205 40.1516L31.7495 39.7515L31.4268 39.3901L31.0267 38.9384L30.575 38.5383L30.0845 38.1769L29.5554 37.8801L29.0004 37.6349L28.4196 37.4413L27.8001 37.2864L27.3097 37.1702L26.8321 36.9895L26.3804 36.7701L25.9545 36.4991L25.5673 36.1894L25.206 35.8409L24.8833 35.4537L26.3288 35.6989L27.7614 35.9828L27.7485 36.0087ZM31.4913 43.7395L31.5559 43.4943L31.6462 43.2491L31.956 42.6296L32.3302 41.881L32.6787 41.1583L32.7949 41.339L32.8981 41.5326L33.053 41.6874L32.7432 42.4231L32.4206 43.2104L32.2786 43.5718L32.0979 43.9073L32.0205 43.9977L31.9172 44.0751L31.8398 44.1009H31.7495H31.6591L31.5817 44.0493L31.53 43.9848L31.5042 43.9073V43.7266L31.4913 43.7395ZM31.4784 43.1329L31.3623 43.3007L31.2332 43.4556L31.0912 43.5589L31.0138 43.5847H30.9364L30.8331 43.5589L30.7428 43.4814L30.6911 43.3782V43.262L30.7169 43.1329L30.7686 43.0168L30.9105 42.7329L31.3106 42.0617L31.7107 41.4035L32.085 40.7324L32.227 40.8485L32.3948 40.9389L32.5496 41.0292L31.9689 42.1779L31.7236 42.6554L31.4655 43.12L31.4784 43.1329ZM32.356 44.0235L32.3948 43.8299L32.5884 43.2362L32.8336 42.6683L33.195 41.7907L33.4015 41.8681L33.6338 41.8939H33.7499L33.5176 42.578L33.1304 43.6879L32.8981 44.2687L32.8336 44.3849L32.7561 44.4752L32.6658 44.5268H32.5625L32.4722 44.4752L32.4077 44.3978L32.369 44.3074V44.2042V44.0106L32.356 44.0235ZM33.1691 44.3203L33.2208 44.0622L33.3886 43.5459L33.6596 42.7716L33.8919 41.9714L33.9952 42.0488L34.0726 42.1392L34.2017 42.2811L34.3565 42.3973L34.0726 43.5589L33.9306 44.1009L33.8145 44.3978L33.7241 44.5268L33.608 44.6301L33.5176 44.6817L33.4144 44.7075H33.3111L33.2208 44.6301L33.1691 44.5397V44.4236V44.3074V44.3203ZM34.2146 43.6492L34.3436 43.12L34.5114 42.4489L34.6792 42.4876H34.8599L35.0406 42.4618L35.1051 42.436L35.0147 43.0039L34.9115 43.5718L34.7437 44.1267L34.6534 44.3461L34.5372 44.5526L34.434 44.6559L34.3694 44.6817H34.3049L34.2404 44.6559L34.1887 44.6043L34.1371 44.4752V44.1913L34.2017 43.6621L34.2146 43.6492ZM35.0277 43.8815L35.0793 43.5976L35.1954 43.0168L35.2858 42.436L35.4278 42.4747L35.5568 42.5393L35.8278 42.707L35.7891 43.1717L35.7504 43.533L35.6601 43.8944L35.5826 44.0751L35.4794 44.2429L35.4148 44.3203L35.3245 44.3849L35.2342 44.4107L35.1438 44.3849L35.0664 44.2945L35.0277 44.1655V43.8815ZM19.3336 28.7037C19.3336 28.7037 20.6629 28.9489 21.3212 29.078V30.033C21.3212 30.9881 21.7342 31.4785 22.4053 31.6592C23.0764 31.8399 23.4894 31.5431 23.4894 30.5364C23.4894 29.5297 23.0764 28.6133 21.7083 27.1807C19.966 25.3351 19.411 24.251 19.411 22.7668C19.411 20.676 20.4564 19.5015 22.4956 19.5015C24.5348 19.5015 25.5802 20.8567 25.5802 23.2056V23.6702C25.5802 23.6702 24.2638 23.5541 23.5927 23.5024V22.9217C23.5927 21.915 23.2184 21.5149 22.5473 21.4762C21.8761 21.4503 21.5018 21.7988 21.5018 22.7668C21.5018 23.7348 21.9148 24.4962 23.2829 25.9546C25.0253 27.8132 25.5802 29.1941 25.5802 30.8978C25.5802 33.2854 24.2251 34.5115 22.173 33.8275C20.1209 33.1435 19.3465 31.5302 19.3465 29.5039V28.7166L19.3336 28.7037ZM12.661 27.2582V19.6564C12.661 19.6564 16.4684 19.6564 18.3785 19.6564V21.4632C18.3785 21.4632 15.9779 21.3858 14.7647 21.3729V24.806C14.7647 24.806 16.6878 24.8963 17.6429 24.9738V26.7807C17.6429 26.7807 15.7327 26.5871 14.7647 26.5483V30.6396C14.7647 30.6396 15.3713 31.0139 16.1199 31.1688C16.933 31.3495 17.6429 31.4527 18.3785 31.5431V33.4016C18.3785 33.4016 17.5525 33.3371 16.2361 33.1693C14.7131 32.9757 13.5903 32.4336 12.661 31.8399V27.2582ZM15.3843 53.3676C15.3843 53.3676 14.7906 53.3418 14.4937 53.3289V61.5115H12.6223V36.6927C13.2289 37.5187 14.3001 38.6416 15.3843 39.403C17.617 40.8872 18.1849 42.4231 18.1849 45.7916V48.5278C18.1849 51.8834 17.2557 53.4967 15.3843 53.3806V53.3676ZM22.7279 61.5502C22.7279 61.5502 22.5085 59.3433 22.4053 58.2075C22.4053 58.2075 20.8694 58.0526 20.0951 57.9752C20.0951 57.9752 19.8756 60.3371 19.7724 61.5373C19.7724 61.5373 18.6237 61.5373 18.043 61.5373C18.043 61.5373 18.3914 57.7687 18.8044 53.4967C19.2432 49.0053 19.6691 44.4107 19.9531 41.5971C21.0372 41.8423 21.5277 41.9327 22.5343 42.0746C22.5343 42.0746 22.999 46.2563 23.3733 49.9991C23.7992 54.0775 24.1993 57.8461 24.6123 61.5761C24.6123 61.5761 23.2184 61.5761 22.715 61.5761L22.7279 61.5502ZM29.2714 45.9981C29.2714 45.9981 28.5745 45.5464 27.813 45.327V61.589C27.813 61.589 26.5611 61.589 25.9416 61.589V56.2716C25.9416 56.0263 25.9416 44.4881 25.9416 44.7333C25.1156 44.4752 24.9478 44.4365 23.9669 44.372V42.2295C23.9669 42.2295 25.8384 42.3198 27.1032 42.7716C28.4842 43.2491 28.4067 43.2233 29.2714 43.7783V45.9981ZM30.0716 42.9781L29.9813 42.9264L29.9297 42.8748L29.9039 42.8103L29.9297 42.6683L30.02 42.5005L30.1233 42.3457L31.3752 40.5646L30.8976 41.0679L30.4588 41.5971L30.0716 42.1004L29.9039 42.294L29.7103 42.436L29.5554 42.4876L29.4005 42.4618L29.3102 42.4102L29.2585 42.3457L29.2327 42.2682V42.1521L29.2843 42.0359L29.3747 41.881L29.4779 41.7391L29.749 41.4293L30.2781 40.8098L30.7686 40.1645L30.3427 40.642L29.8909 41.0808L29.4134 41.4938L28.8972 41.8681L28.7681 41.9456L28.6261 41.9972H28.51H28.4583L28.4067 41.9585L28.3551 41.8423V41.7133L30.1233 39.8289L29.3876 40.5001L28.9101 40.9002L28.3938 41.2486L27.8388 41.5326L27.6065 41.61H27.5033L27.4129 41.5455L27.3613 41.4551V41.3648L29.2973 39.5708L28.7552 40.0096L28.1873 40.4226L27.5936 40.7969L26.9741 41.1325L26.6644 41.2744L26.4837 41.3261H26.3159L26.2256 41.2873L26.1481 41.2228L26.0965 41.1325L28.3164 39.3901L27.6323 39.8806L26.9096 40.3323L26.161 40.7324L25.3995 41.0937L25.064 41.197L24.8833 41.2228H24.7026L24.5219 41.1841L24.3412 41.1196L27.4646 39.0158L26.303 39.7128L25.1027 40.3581L23.8766 40.9389L23.5669 41.0421L23.2442 41.1067H22.9215L22.5989 41.0808L22.2891 40.9905L25.0253 39.4417L24.1476 39.8806L23.2571 40.2806L22.3408 40.6549L21.9407 40.7453L21.5277 40.784H21.1147L20.7017 40.6937L20.3145 40.5646L24.7026 38.4738L23.7088 38.8739L22.7667 39.2611L22.1601 39.5063L21.5535 39.7515L20.934 39.9451L20.3016 40.1L19.9273 40.1516H19.553L19.1787 40.0741L18.8173 39.958L18.4818 39.7902L23.3991 37.893L20.3016 38.8222L19.6821 39.0158L19.0496 39.1707L18.4043 39.2998L18.043 39.3256L17.6816 39.2869L17.3331 39.1836L16.9975 39.0158L16.662 38.8222L22.2246 37.1444L20.6371 37.5445L19.0496 37.9059L17.4493 38.2156L17.0363 38.2802L16.6233 38.3189H16.1974L15.9005 38.2673L15.6166 38.164L15.3584 38.022L15.1261 37.8285L14.9325 37.5961L21.1663 36.3313L19.3723 36.5378L17.5912 36.783L16.8556 36.8863L16.1199 36.9637L15.6682 36.9895L15.2165 36.9637L14.7647 36.8992L14.5195 36.8218L14.2872 36.6927L14.0807 36.5249L13.9129 36.3184L13.7968 36.0861L20.2757 35.4666L18.5979 35.5182L16.9201 35.4924L15.2423 35.4021L14.6228 35.3504L14.0162 35.2343L13.7193 35.1439L13.4354 35.002L13.1773 34.8084L12.9708 34.5632L12.8159 34.2792L12.7126 33.9824L12.6481 33.6726L12.6223 33.3629L12.6481 33.0531L13.2289 33.3887L13.8484 33.6726L14.4808 33.892L15.4101 34.0985L16.3522 34.2534L17.2944 34.3696L18.2495 34.447L20.2499 34.6793L22.2375 34.9762L24.2122 35.3375L24.5606 35.4021L24.8962 35.8538L25.2834 36.2668L25.7093 36.6282L26.1739 36.9379L26.6644 37.196L27.1935 37.3896L27.7356 37.5316L28.3551 37.6736L28.9101 37.8543L29.4392 38.0995L29.9426 38.3963L30.4201 38.7448L30.846 39.132L31.2332 39.5708L31.53 39.9064L31.7753 40.2806L31.8527 40.4742L31.9689 40.6549L31.6333 41.1841L31.3235 41.7262L31.0783 42.1392L30.7944 42.5264L30.5879 42.7458L30.3427 42.9135L30.2523 42.9523L30.1491 42.9781H30.0458H30.0716ZM34.1113 61.6148C34.0081 61.2792 33.9435 61.0598 33.9435 60.0015V57.8461C33.9435 56.6329 33.5692 56.2845 32.7174 56.1941C32.7174 56.1941 32.2786 56.1425 32.0721 56.1167V61.6148C32.0721 61.6148 30.8202 61.6148 30.2007 61.6148V56.3232C30.2007 56.1167 30.2007 44.1784 30.2007 44.3978C30.2007 44.3978 30.7428 44.785 31.259 45.0302C31.8785 45.327 32.5109 45.5464 33.0401 45.6626C34.9502 45.9723 35.7891 46.7854 35.8278 48.8763V52.632C35.8278 53.9742 35.4407 54.9164 34.6017 55.2778V55.3165C35.5439 55.8069 35.8537 56.6329 35.8537 57.9623V60.0531C35.8537 60.6726 35.8666 61.1373 36.0602 61.6277C36.0602 61.6277 34.6792 61.6277 34.1371 61.6277L34.1113 61.6148ZM36.3828 43.533L36.2538 43.675L36.1634 43.7525L36.086 43.7783L36.0085 43.7525L35.9569 43.6879V43.5976L35.944 43.4814V43.1717L35.9698 43.0684V42.8103L36.5506 43.1975L36.4861 43.3782L36.3957 43.5459L36.3828 43.533ZM37.8283 48.2826L37.9961 48.4762L38.1897 48.631L38.3059 48.502L38.4091 48.36L38.5382 48.4762L38.6801 48.5794L38.7963 48.4503L38.8995 48.3084L39.0286 48.4245L39.1706 48.5278L39.3513 48.3084L39.4932 48.0502H42.3068L42.4488 48.3084L42.6295 48.5278L42.7714 48.4245L42.9005 48.3084L42.9908 48.4503L43.107 48.5794L43.249 48.4762L43.378 48.36L43.4684 48.502L43.5845 48.631L43.7781 48.4762L43.9459 48.2826L44.075 48.0632H44.9268L41.8035 49.9733V49.8184L41.7518 49.6764L41.6486 49.5603L41.5066 49.4958H41.3517L41.0549 49.457L40.771 49.3667L40.5645 49.3022H40.4741L40.3838 49.328L40.2934 49.4183L40.2418 49.5345L40.1127 49.8055L39.9837 49.9733L36.8733 48.0632H37.7251L37.8541 48.2826H37.8283ZM37.7638 47.534V47.4049L37.8412 47.2888L37.9445 47.2113L38.0735 47.1726H38.2026L38.3059 47.2759L38.4091 47.1855L38.5382 47.1468H38.6801L38.7963 47.2372L38.8866 47.1468L39.0028 47.0952H39.1319L39.248 47.1597L39.3384 47.2501L39.3771 47.3662V47.5985L39.3384 47.8179L39.2609 48.0244L39.1448 48.218L38.9899 48.0373L38.8737 47.8437L38.7963 48.0632L38.6801 48.2568L38.5253 48.0761L38.4091 47.8825L38.3317 48.1019L38.2155 48.2955L38.0606 48.1277L37.9445 47.9341L37.867 47.7276L37.8283 47.5082L37.7638 47.534ZM42.3843 47.6372V47.4049L42.423 47.2888L42.5133 47.1984L42.6295 47.1468H42.7585L42.8747 47.1855L42.965 47.2759L43.0812 47.2113H43.2232L43.3522 47.2372L43.4426 47.3146L43.5458 47.2501H43.6749L43.8039 47.263L43.9072 47.3404L43.9717 47.4566V47.5856L43.9459 47.805L43.8685 48.0115L43.7523 48.2051L43.5974 48.3729L43.4813 48.1793L43.4039 47.9599L43.2877 48.1535L43.1328 48.3342L43.0167 48.1406L42.9392 47.9212L42.8231 48.1148L42.6682 48.2955L42.552 48.1019L42.4746 47.8954L42.4359 47.676L42.3843 47.6372ZM41.868 50.1798L44.8881 48.3342V52.7611L41.868 50.9025L41.9196 50.6573V50.4121L41.868 50.1669V50.1798ZM41.7131 50.5283L41.6744 50.7735L41.5712 50.9929L41.4163 51.1736L41.2098 51.3026L40.9775 51.3672H40.7322L40.4999 51.3026L40.2934 51.1736L40.1386 50.9929L40.0353 50.7735L39.9966 50.5283L40.0353 50.283L40.1386 50.0636L40.2934 49.8829L40.4999 49.7539L40.7322 49.6894H40.9775L41.2098 49.7539L41.4163 49.8829L41.5712 50.0636L41.6744 50.283L41.7131 50.5283ZM39.8675 50.1669L39.8159 50.4121V50.6573L39.8675 50.9025L36.8474 52.7611V48.3342L39.8675 50.1798V50.1669ZM39.9579 51.0961L40.0095 51.251L40.0998 51.393L40.1902 51.4833L40.2934 51.5479L40.5128 51.6124L40.7064 51.6769L40.9 51.7673L41.0936 51.8705L41.1969 51.8963H41.3001L41.4034 51.8189L41.4937 51.7156L41.6228 51.4575L41.7906 51.0961L44.9139 53.0063H36.8604L39.9837 51.0961H39.9579ZM44.9655 59.8079C44.9655 61.0082 43.5458 61.6793 40.9387 61.6793C38.3317 61.6793 36.912 60.9953 36.912 59.8079V55.8844C36.912 54.6841 38.3317 54.013 40.9387 54.013C43.5458 54.013 44.9655 54.697 44.9655 55.8844V59.8079ZM45.1462 45.1076L45.03 45.5593L44.8365 45.9852L44.5912 46.3853L44.2815 46.7467L43.9201 47.0565L43.7781 47.0048H43.6233L43.4684 47.0306L43.3135 46.9661H43.1457L42.9908 46.979L42.8231 46.9145H42.6424L42.4746 46.9532L42.3326 47.0565L42.2294 47.1984L42.1777 47.3791V47.6243L42.2165 47.8696H39.5449L39.5836 47.6243V47.3791L39.532 47.1984L39.4287 47.0565L39.2867 46.9532L39.119 46.9016H38.9383L38.7705 46.979L38.6156 46.9403H38.4478L38.293 47.0306L38.1381 46.9919H37.9832L37.8412 47.0565L37.4799 46.7467L37.1701 46.3853L36.9249 45.9852L36.7313 45.5593L36.6151 45.1076L36.5635 44.643V44.1655L36.6668 43.7008L36.8216 43.262L36.9249 43.0426L37.1701 43.3265L37.454 43.5589L37.7638 43.7395L38.0994 43.8686L38.4607 43.946H38.8221L39.1835 43.9073L39.532 43.8041L39.8546 43.6363L40.1386 43.4169L40.1902 43.6621L40.1644 43.9073V44.1525L40.216 44.4881L40.3063 44.8108L40.4483 45.1205L40.6419 45.4045L40.8742 45.6497L41.0807 45.4303L41.2614 45.185L41.4034 44.914L41.5066 44.5785L41.5712 44.23L41.597 43.8815L41.5712 43.6879L41.6228 43.4427L41.9067 43.6621L42.2294 43.8299L42.5779 43.9331L42.9392 43.9848H43.3006L43.662 43.8944L43.9975 43.7654L44.3073 43.5847L44.5912 43.3524L44.8365 43.0684L44.9397 43.2878L45.0946 43.7266L45.1849 44.1913L45.2107 44.6688L45.1591 45.1334L45.1462 45.1076ZM45.7915 43.5847V43.675L45.727 43.7395L45.6495 43.7654L45.5721 43.7395L45.4818 43.6621L45.3527 43.5201L45.2624 43.3524L45.2107 43.1717L45.7786 42.7845V43.0426L45.8044 43.1459V43.4556L45.8173 43.5718L45.7915 43.5847ZM46.0884 43.8815L45.998 43.5201L45.9593 43.1588L45.9206 42.6941L46.1787 42.5264L46.3078 42.4747L46.4497 42.436L46.5401 43.0168L46.6562 43.5976L46.7079 43.8815V44.1655L46.682 44.2945L46.6046 44.3849L46.5143 44.4107L46.4239 44.3849L46.3336 44.3203L46.2691 44.2429L46.1658 44.0751L46.0884 43.8944V43.8815ZM52.3866 50.5799V61.5632C52.3866 61.5632 51.0444 61.5761 50.3733 61.5761C49.5602 57.5493 48.7729 54.0259 47.9727 50.5541C47.9727 50.5541 47.9469 50.5541 47.934 50.5541V61.5761C47.934 61.5761 46.7595 61.5761 46.1658 61.5761V56.1554C46.1658 55.9102 46.1658 46.7725 46.1658 47.0177C46.1658 47.0177 46.5659 46.3208 47.0692 46.0885C47.6371 45.8175 47.9727 45.7529 48.5277 45.7271C49.1859 48.6181 49.9215 51.7285 50.5927 54.9035C50.5927 54.9035 50.6185 54.9035 50.6314 54.9035V44.9527C51.2122 44.6688 51.8059 44.1009 52.3737 43.7912V50.567L52.3866 50.5799ZM59.5496 46.3208V56.4394C59.5496 59.8466 58.5559 61.7826 56.6328 61.7826C54.7098 61.7826 53.716 60.1176 53.716 57.2395V52.0899C53.716 51.8189 53.716 42.849 53.716 43.1071C53.716 43.1071 54.9163 42.5909 55.6777 42.4747V57.1363C55.6777 58.5044 56.0649 58.969 56.6844 58.9174C57.3039 58.8657 57.6911 58.3108 57.6911 56.8653V42.2295C57.6911 42.2295 58.9172 42.1133 59.5367 42.023V46.3079L59.5496 46.3208ZM69.0745 61.5115C69.0745 61.5115 67.8484 61.5115 67.2289 61.5115V45.3141C67.2289 45.3141 67.2031 45.3141 67.1902 45.3141C67.1902 45.3141 67.0353 47.263 66.7901 50.2701C66.9191 48.7601 65.7576 63.0216 65.8737 61.5115H64.0281C64.0281 61.5115 63.7829 58.827 63.499 55.5101C63.1763 51.8834 62.8795 48.5536 62.6084 45.6626C62.6084 45.6626 62.5826 45.6626 62.5697 45.6626V61.5115C62.5697 61.5115 61.434 61.5115 60.8661 61.5115V41.8036C60.8661 41.8036 61.7179 41.6358 62.2858 41.4551C62.9956 41.2357 63.77 40.9002 63.77 40.9002L64.1314 44.8366C64.1314 44.8366 64.9703 54.2711 65.0219 54.8906C65.0219 54.8906 65.0477 54.8906 65.0606 54.8906C65.0606 54.8906 65.9383 44.7204 66.3771 39.3901C66.3771 39.3901 67.1515 38.861 67.5645 38.435C68.4679 37.5187 68.6486 37.338 69.1003 36.654V61.4986L69.0745 61.5115ZM69.0616 33.6726L68.9971 33.9824L68.8938 34.2792L68.7389 34.5632L68.5324 34.8084L68.2743 35.002L67.9904 35.1439L67.6935 35.2343L67.0869 35.3504L66.4674 35.4021L64.7896 35.4924L63.1118 35.5182L61.434 35.4666L67.8871 36.0861L67.771 36.3184L67.6032 36.5249L67.3967 36.6927L67.1644 36.8218L66.9191 36.8992L66.4674 36.9637L66.0157 36.9895L65.564 36.9637L64.8283 36.8863L64.0927 36.783L62.3116 36.5378L60.5176 36.3313L66.7514 37.5961L66.5578 37.8285L66.3255 38.022L66.0673 38.164L65.7834 38.2673L65.4865 38.3189H65.0606L64.6476 38.2802L64.2346 38.2156L62.6343 37.9059L61.0468 37.5445L59.4593 37.1444L65.0219 38.8222L64.6864 39.0158L64.3508 39.1836L64.0023 39.2869L63.6409 39.3256L63.2796 39.2998L62.6343 39.1707L62.0018 39.0158L61.3823 38.8222L58.2848 37.893L63.2021 39.7902L62.8666 39.958L62.5052 40.0741L62.1309 40.1387H61.7566L61.3823 40.1L60.7499 39.9451L60.1304 39.7515L59.5238 39.5063L58.9172 39.2611L57.9751 38.8739L56.9813 38.4738L61.3694 40.5517L60.9822 40.6807L60.5692 40.7582H60.1562L59.7432 40.7324L59.3431 40.642L58.4268 40.2677L57.5363 39.8676L56.6586 39.4288L59.3948 40.9776L59.085 41.0679L58.7624 41.1067H58.4397L58.117 41.0292L57.8073 40.926L56.5812 40.3581L55.3809 39.7128L54.2193 39.0158L57.3427 41.1196L57.162 41.1841L56.9813 41.2228H56.8006L56.6199 41.2099L56.2843 41.1067L55.51 40.7582L54.7614 40.3581L54.0386 39.9064L53.3546 39.4159L55.5616 41.1583L55.51 41.2486L55.4325 41.3132L55.3422 41.3519H55.1744L54.9937 41.2873L54.684 41.1454L54.0645 40.8098L53.4708 40.4355L52.9029 40.0225L52.3608 39.5837L54.3097 41.3777V41.468L54.2451 41.5584L54.1548 41.61H54.0516L53.8192 41.5455L53.2643 41.2615L52.748 40.9131L52.2705 40.513L51.5348 39.8418L53.303 41.7262V41.8552L53.2385 41.9714L53.1868 42.0101L53.1352 42.0359H53.0191L52.8771 41.9714L52.748 41.8939L52.2318 41.5197L51.7542 41.1067L51.3025 40.6678L50.8766 40.1903L51.367 40.8356L51.8962 41.4551L52.1672 41.7649L52.2705 41.9068L52.3608 42.0617L52.4125 42.1779V42.294V42.3715L52.3608 42.436L52.2705 42.4876L52.1156 42.5134L51.9607 42.4618L51.7671 42.3198L51.5994 42.1263L51.2122 41.5971L50.7734 41.0679L50.2958 40.5646L51.5477 42.3457L51.651 42.5005L51.7413 42.6683L51.7671 42.8103L51.7413 42.8748L51.6897 42.9264L51.5994 42.9781H51.4961H51.3929L51.3025 42.9394L51.0573 42.7716L50.8508 42.5522L50.5669 42.165L50.3216 41.752L50.0119 41.2099L49.6763 40.6807L49.7925 40.5001L49.8828 40.3065L50.128 39.9322L50.4249 39.5966L50.8121 39.1578L51.2509 38.7706L51.7284 38.4221L52.2318 38.1253L52.7609 37.8801L53.3159 37.6994L53.9354 37.5574L54.4775 37.4154L55.0066 37.2219L55.4971 36.9637L55.9617 36.654L56.3876 36.2926L56.7748 35.8796L57.1104 35.4279L57.4588 35.3633L59.4335 35.002L61.4211 34.7051L63.4215 34.4728L64.3766 34.3954L65.3188 34.2792L66.2609 34.1243L67.1902 33.9178L67.8226 33.6984L68.4421 33.4145L69.0229 33.0789L69.0487 33.3887L69.0229 33.6984L69.0616 33.6726Z" fill="#281815"/>
<path d="M40.5 0C18.1334 0 0 18.1334 0 40.5C0 62.8666 18.1334 81 40.5 81C62.8666 81 81 62.8666 81 40.5C81 18.1334 62.8666 0 40.5 0ZM10.4025 63.512V17.4881H70.5975V63.5249H10.4025V63.512Z" fill="#281815"/>
</g>
<defs>
<clipPath id="clip0_1452_12252">
<rect width="81" height="81" fill="white"/>
</clipPath>
</defs>
</svg>
