<svg width="104" height="331" viewBox="0 0 104 331" fill="none" xmlns="http://www.w3.org/2000/svg">
<path d="M36.599 115.591L35.628 116.734L36.599 115.591ZM102.161 127.482L100.661 127.461L102.161 127.482ZM4.78153 135.193L3.32507 134.834L4.78153 135.193ZM70.1675 238.496L71.0011 237.249L70.1675 238.496ZM86.2461 329.964C86.6891 330.664 87.6158 330.873 88.3157 330.429L99.7226 323.209C100.423 322.766 100.631 321.839 100.188 321.139C99.7447 320.439 98.818 320.231 98.118 320.674L87.9786 327.092L81.5605 316.953C81.1174 316.253 80.1908 316.045 79.4908 316.488C78.7908 316.931 78.5826 317.857 79.0257 318.557L86.2461 329.964ZM60.4186 1.54905L58.9904 2.0076L59.9075 4.86398L61.3357 4.40543L60.4186 1.54905ZM54.0227 6.93064L55.429 6.40859L54.3848 3.59615L52.9786 4.1182L54.0227 6.93064ZM45.6592 7.05122L44.2824 7.64671L45.4734 10.4002L46.8501 9.80468L45.6592 7.05122ZM39.8692 13.0803L41.2058 12.3994L39.8441 9.72625L38.5075 10.4071L39.8692 13.0803ZM31.5985 14.2519L30.3173 15.032L31.8775 17.5944L33.1587 16.8143L31.5985 14.2519ZM26.8247 21.0678L28.0288 20.1732L26.2397 17.7651L25.0356 18.6596L26.8247 21.0678ZM18.8749 23.7858L17.7803 24.8113L19.8314 27.0006L20.926 25.9751L18.8749 23.7858ZM15.763 31.4995L16.7072 30.334L14.376 28.4456L13.4319 29.6112L15.763 31.4995ZM8.86914 36.2643L8.12698 37.5678L10.734 39.0521L11.4762 37.7486L8.86914 36.2643ZM8.3552 44.5937L8.8493 43.1774L6.01673 42.1892L5.52263 43.6055L8.3552 44.5937ZM3.58992 51.4444L3.3684 52.928L6.3355 53.371L6.55703 51.8875L3.58992 51.4444ZM6.11971 59.4058L6.07605 57.9064L3.07732 57.9937L3.12098 59.4931L6.11971 59.4058ZM3.99854 67.4818L4.27588 68.9559L7.22416 68.4012L6.94681 66.9271L3.99854 67.4818ZM8.8636 74.2875L8.39217 72.8635L5.54419 73.8063L6.01561 75.2303L8.8636 74.2875ZM8.95833 82.6466L9.58735 84.0083L12.3108 82.7503L11.6818 81.3885L8.95833 82.6466ZM15.2342 88.1759L14.4769 86.8811L11.8873 88.3957L12.6446 89.6905L15.2342 88.1759ZM16.942 96.3621L17.8057 97.5885L20.2584 95.8611L19.3947 94.6347L16.942 96.3621ZM24.0665 100.752L23.112 99.5951L20.7977 101.504L21.7522 102.661L24.0665 100.752ZM27.006 108.584L28.0404 109.67L30.2129 107.601L29.1784 106.515L27.006 108.584ZM34.6814 111.903L33.5735 110.892L31.551 113.108L32.6589 114.119L34.6814 111.903ZM38.898 119.473L40.0546 120.428L41.9649 118.115L40.8083 117.16L38.898 119.473ZM47.3219 122.373L46.1355 121.455L44.2999 123.828L45.4863 124.746L47.3219 122.373ZM52.29 129.802L53.5125 130.671L55.2508 128.226L54.0283 127.357L52.29 129.802ZM60.9422 132.014L59.6752 131.211L58.0695 133.745L59.3366 134.548L60.9422 132.014ZM66.6807 138.849L68.004 139.556L69.4169 136.909L68.0937 136.203L66.6807 138.849ZM75.5413 139.693L74.1467 139.141L73.0421 141.93L74.4367 142.483L75.5413 139.693ZM82.7714 144.956L84.2471 145.225L84.7848 142.274L83.3091 142.005L82.7714 144.956ZM91.0645 142.069L89.5994 142.39L90.2431 145.321L91.7082 144.999L91.0645 142.069ZM99.6145 140.251L100.568 139.093L98.2511 137.187L97.2979 138.345L99.6145 140.251ZM100.291 131.397L100.023 132.873L102.975 133.409L103.243 131.934L100.291 131.397ZM103.26 123.118L102.967 121.647L100.025 122.231L100.317 123.703L103.26 123.118ZM97.4316 116.679L98.2354 117.945L100.768 116.338L99.9645 115.071L97.4316 116.679ZM94.4181 108.566L93.3095 107.556L91.2887 109.773L92.3973 110.784L94.4181 108.566ZM86.0573 106.086L87.3395 106.865L88.8964 104.301L87.6142 103.522L86.0573 106.086ZM80.1004 99.7348L78.7147 99.1607L77.5665 101.932L78.9523 102.506L80.1004 99.7348ZM71.3872 99.9545L72.8368 100.34L73.6084 97.4413L72.1589 97.0554L71.3872 99.9545ZM63.9533 95.4134L62.467 95.2109L62.0621 98.1835L63.5484 98.3859L63.9533 95.4134ZM55.5762 97.8028L57.0761 97.8177L57.106 94.8179L55.6061 94.8029L55.5762 97.8028ZM47.2389 95.2675L45.7502 95.4508L46.1168 98.4283L47.6056 98.245L47.2389 95.2675ZM39.791 99.777L41.2378 99.3812L40.4461 96.4875L38.9993 96.8834L39.791 99.777ZM31.0809 99.7341L29.7153 100.355L30.9565 103.086L32.3221 102.465L31.0809 99.7341ZM25.4244 106.344L26.6625 105.497L24.9686 103.021L23.7306 103.868L25.4244 106.344ZM17.2204 109.244L16.155 110.3L18.2669 112.43L19.3323 111.374L17.2204 109.244ZM14.2323 117.429L15.0939 116.201L12.6382 114.478L11.7766 115.705L14.2323 117.429ZM7.53558 122.966L6.88527 124.318L9.58868 125.618L10.239 124.267L7.53558 122.966ZM7.32454 131.671L7.77549 130.24L4.91427 129.338L4.46332 130.769L7.32454 131.671ZM2.37458 139.005L2.06772 140.473L5.00427 141.087L5.31113 139.619L2.37458 139.005ZM3.94055 147.769L4.12688 146.281L1.15012 145.908L0.963788 147.396L3.94055 147.769ZM0.309265 155.879L0.269457 157.378L3.2684 157.458L3.30821 155.959L0.309265 155.879ZM3.55754 164.177L3.42219 162.683L0.434427 162.954L0.569784 164.447L3.55754 164.177ZM1.90345 172.926L2.23675 174.389L5.16175 173.722L4.82845 172.26L1.90345 172.926ZM7.20668 180.068L6.6668 178.668L3.86786 179.748L4.40774 181.148L7.20668 180.068ZM8.07411 188.925L8.80858 190.233L11.4243 188.764L10.6899 187.456L8.07411 188.925ZM15.1674 194.31L14.2683 193.109L11.8669 194.907L12.7659 196.108L15.1674 194.31ZM18.2736 202.648L19.2998 203.742L21.4878 201.69L20.4615 200.596L18.2736 202.648ZM26.3803 206.351L25.2618 205.352L23.2629 207.589L24.3814 208.588L26.3803 206.351ZM30.9056 214.02L32.088 214.943L33.9339 212.578L32.7515 211.655L30.9056 214.02ZM39.4365 216.609L38.2118 215.742L36.4796 218.192L37.7043 219.058L39.4365 216.609ZM44.672 223.814L45.9225 224.643L47.5792 222.142L46.3287 221.313L44.672 223.814ZM53.3453 225.871L52.082 225.062L50.4646 227.589L51.7279 228.398L53.3453 225.871ZM58.8061 232.908L60.071 233.714L61.6835 231.184L60.4186 230.378L58.8061 232.908ZM67.4873 234.929L66.2316 234.108L64.5908 236.62L65.8466 237.44L67.4873 234.929ZM72.6893 242.128L73.8857 243.033L75.6952 240.64L74.4988 239.735L72.6893 242.128ZM80.9981 245.341L79.931 244.287L77.8226 246.421L78.8897 247.476L80.9981 245.341ZM84.2472 253.614L85.1441 254.816L87.5487 253.022L86.6518 251.82L84.2472 253.614ZM91.2346 259.127L90.5441 257.795L87.8808 259.176L88.5713 260.508L91.2346 259.127ZM91.7137 268.013L92.1795 269.439L95.0312 268.507L94.5653 267.081L91.7137 268.013ZM96.6029 275.437L96.3561 273.957L93.397 274.451L93.6438 275.93L96.6029 275.437ZM94.4441 284.08L94.4953 285.579L97.4936 285.477L97.4424 283.978L94.4441 284.08ZM97.2517 292.522L97.3644 291.026L94.3729 290.801L94.2602 292.296L97.2517 292.522ZM93.2626 300.49L93.0181 301.97L95.9781 302.459L96.2225 300.979L93.2626 300.49ZM94.5385 309.305L94.8836 307.845L91.9641 307.155L91.619 308.614L94.5385 309.305ZM89.5016 316.659L89.0898 318.101L91.9745 318.925L92.3863 317.482L89.5016 316.659ZM90.0212 325.545L90.4363 324.103L87.5535 323.273L87.1384 324.714L90.0212 325.545ZM64.248 0.362868C62.9474 0.751488 61.671 1.14694 60.4186 1.54905L61.3357 4.40543C62.5684 4.00967 63.8253 3.62023 65.1069 3.2373L64.248 0.362868ZM52.9786 4.1182C50.4265 5.06568 47.9878 6.04398 45.6592 7.05122L46.8501 9.80468C49.1281 8.81939 51.5176 7.86066 54.0227 6.93064L52.9786 4.1182ZM38.5075 10.4071C36.0621 11.6528 33.7609 12.9354 31.5985 14.2519L33.1587 16.8143C35.2528 15.5393 37.4876 14.2934 39.8692 13.0803L38.5075 10.4071ZM25.0356 18.6596C22.7935 20.3253 20.7429 22.0357 18.8749 23.7858L20.926 25.9751C22.7063 24.3071 24.6689 22.6694 26.8247 21.0678L25.0356 18.6596ZM13.4319 29.6112C11.6707 31.7852 10.1548 34.0061 8.86914 36.2643L11.4762 37.7486C12.6784 35.6371 14.1012 33.551 15.763 31.4995L13.4319 29.6112ZM5.52263 43.6055C4.61894 46.1958 3.98274 48.8136 3.58992 51.4444L6.55703 51.8875C6.92277 49.438 7.51467 47.003 8.3552 44.5937L5.52263 43.6055ZM3.12098 59.4931C3.19882 62.1658 3.5003 64.8335 3.99854 67.4818L6.94681 66.9271C6.47559 64.4224 6.19267 61.9111 6.11971 59.4058L3.12098 59.4931ZM6.01561 75.2303C6.84511 77.7359 7.8338 80.2121 8.95833 82.6466L11.6818 81.3885C10.6012 79.049 9.65501 76.678 8.8636 74.2875L6.01561 75.2303ZM12.6446 89.6905C13.976 91.9669 15.4153 94.1944 16.942 96.3621L19.3947 94.6347C17.9139 92.5321 16.5206 90.3754 15.2342 88.1759L12.6446 89.6905ZM21.7522 102.661C23.4417 104.71 25.1998 106.688 27.006 108.584L29.1784 106.515C27.42 104.669 25.7094 102.744 24.0665 100.752L21.7522 102.661ZM32.6589 114.119C33.6419 115.016 34.6325 115.889 35.628 116.734L37.57 114.447C36.6019 113.625 35.6381 112.777 34.6814 111.903L32.6589 114.119ZM35.628 116.734C36.7349 117.674 37.8248 118.587 38.898 119.473L40.8083 117.16C39.746 116.283 38.6667 115.379 37.57 114.447L35.628 116.734ZM45.4863 124.746C47.8423 126.569 50.1092 128.251 52.29 129.802L54.0283 127.357C51.8828 125.831 49.6483 124.173 47.3219 122.373L45.4863 124.746ZM59.3366 134.548C61.9201 136.185 64.3661 137.614 66.6807 138.849L68.0937 136.203C65.8514 135.006 63.4698 133.615 60.9422 132.014L59.3366 134.548ZM74.4367 142.483C77.4786 143.687 80.2504 144.497 82.7714 144.956L83.3091 142.005C81.0152 141.587 78.4344 140.839 75.5413 139.693L74.4367 142.483ZM91.7082 144.999C95.1147 144.25 97.7228 142.55 99.6145 140.251L97.2979 138.345C95.8311 140.127 93.811 141.465 91.0645 142.069L91.7082 144.999ZM103.243 131.934C103.507 130.483 103.64 128.992 103.661 127.504L100.661 127.461C100.642 128.801 100.522 130.125 100.291 131.397L103.243 131.934ZM103.661 127.504C103.682 126.014 103.544 124.55 103.26 123.118L100.317 123.703C100.562 124.932 100.68 126.186 100.661 127.461L103.661 127.504ZM99.9645 115.071C98.4835 112.738 96.6061 110.56 94.4181 108.566L92.3973 110.784C94.4154 112.623 96.1118 114.599 97.4316 116.679L99.9645 115.071ZM87.6142 103.522C85.2799 102.105 82.7596 100.836 80.1004 99.7348L78.9523 102.506C81.4793 103.553 83.862 104.754 86.0573 106.086L87.6142 103.522ZM72.1589 97.0554C69.4965 96.3468 66.7494 95.7942 63.9533 95.4134L63.5484 98.3859C66.2209 98.7499 68.8455 99.2779 71.3872 99.9545L72.1589 97.0554ZM55.6061 94.8029C52.8216 94.7751 50.0215 94.9249 47.2389 95.2675L47.6056 98.245C50.2514 97.9193 52.9189 97.7763 55.5762 97.8028L55.6061 94.8029ZM38.9993 96.8834C36.2994 97.6221 33.6487 98.5671 31.0809 99.7341L32.3221 102.465C34.7373 101.368 37.2371 100.476 39.791 99.777L38.9993 96.8834ZM23.7306 103.868C21.4397 105.435 19.2594 107.223 17.2204 109.244L19.3323 111.374C21.2396 109.484 23.2794 107.811 25.4244 106.344L23.7306 103.868ZM11.7766 115.705C10.2165 117.929 8.79594 120.346 7.53558 122.966L10.239 124.267C11.4299 121.791 12.7681 119.515 14.2323 117.429L11.7766 115.705ZM4.46332 130.769C4.04882 132.084 3.66885 133.439 3.32507 134.834L6.23798 135.552C6.56684 134.217 6.92965 132.923 7.32454 131.671L4.46332 130.769ZM3.32507 134.834C2.97722 136.246 2.66063 137.636 2.37458 139.005L5.31113 139.619C5.58972 138.286 5.89839 136.93 6.23798 135.552L3.32507 134.834ZM0.963788 147.396C0.596916 150.327 0.381663 153.152 0.309265 155.879L3.30821 155.959C3.37787 153.335 3.58524 150.607 3.94055 147.769L0.963788 147.396ZM0.569784 164.447C0.836965 167.396 1.28642 170.219 1.90345 172.926L4.82845 172.26C4.2418 169.686 3.81292 166.995 3.55754 164.177L0.569784 164.447ZM4.40774 181.148C5.45586 183.864 6.68516 186.452 8.07411 188.925L10.6899 187.456C9.36858 185.103 8.20123 182.646 7.20668 180.068L4.40774 181.148ZM12.7659 196.108C14.4705 198.385 16.314 200.559 18.2736 202.648L20.4615 200.596C18.5704 198.58 16.7994 196.49 15.1674 194.31L12.7659 196.108ZM24.3814 208.588C26.474 210.458 28.6555 212.264 30.9056 214.02L32.7515 211.655C30.546 209.934 28.4165 208.17 26.3803 206.351L24.3814 208.588ZM37.7043 219.058C39.9852 220.671 42.3138 222.252 44.672 223.814L46.3287 221.313C43.9892 219.764 41.6867 218.2 39.4365 216.609L37.7043 219.058ZM51.7279 228.398C54.0769 229.901 56.4463 231.404 58.8061 232.908L60.4186 230.378C58.0501 228.869 55.6918 227.373 53.3453 225.871L51.7279 228.398ZM65.8466 237.44C67.0143 238.203 68.1773 238.97 69.334 239.743L71.0011 237.249C69.8343 236.469 68.6624 235.696 67.4873 234.929L65.8466 237.44ZM69.334 239.743C70.5026 240.525 71.6204 241.32 72.6893 242.128L74.4988 239.735C73.3825 238.891 72.2172 238.062 71.0011 237.249L69.334 239.743ZM78.8897 247.476C80.907 249.468 82.6849 251.519 84.2472 253.614L86.6518 251.82C84.9981 249.603 83.1209 247.439 80.9981 245.341L78.8897 247.476ZM88.5713 260.508C89.8503 262.974 90.8869 265.482 91.7137 268.013L94.5653 267.081C93.6902 264.403 92.5915 261.744 91.2346 259.127L88.5713 260.508ZM93.6438 275.93C94.0977 278.651 94.3518 281.375 94.4441 284.08L97.4424 283.978C97.346 281.154 97.0804 278.298 96.6029 275.437L93.6438 275.93ZM94.2602 292.296C94.0496 295.09 93.7016 297.831 93.2626 300.49L96.2225 300.979C96.6739 298.245 97.0336 295.416 97.2517 292.522L94.2602 292.296ZM91.619 308.614C90.9442 311.468 90.2138 314.164 89.5016 316.659L92.3863 317.482C93.1063 314.961 93.8498 312.218 94.5385 309.305L91.619 308.614ZM87.1384 324.714C86.699 326.24 86.3212 327.626 86.05 328.833L88.977 329.491C89.2282 328.373 89.586 327.056 90.0212 325.545L87.1384 324.714Z" fill="#173292"/>
</svg>
