<svg width="65" height="64" viewBox="0 0 65 64" fill="none" xmlns="http://www.w3.org/2000/svg">
<path d="M4.5 24.2666C4.5 17.1727 4.5 13.6257 5.88058 10.9161C7.09498 8.53274 9.03274 6.59498 11.4161 5.38058C14.1257 4 17.6727 4 24.7666 4H40.2334C47.3274 4 50.8744 4 53.5838 5.38058C55.9672 6.59498 57.905 8.53274 59.1194 10.9161C60.5 13.6257 60.5 17.1727 60.5 24.2666V39.7334C60.5 46.8274 60.5 50.3744 59.1194 53.0838C57.905 55.4672 55.9672 57.405 53.5838 58.6194C50.8744 60 47.3274 60 40.2334 60H24.7666C17.6727 60 14.1257 60 11.4161 58.6194C9.03274 57.405 7.09498 55.4672 5.88058 53.0838C4.5 50.3744 4.5 46.8274 4.5 39.7334V24.2666Z" fill="#00005B"/>
<path d="M28.0786 39.1276H19.4008L17.6352 44.7638C17.5862 44.9728 17.3937 45.1208 17.1844 45.1106H12.7891C12.5384 45.1106 12.4508 44.9694 12.5261 44.6868L20.0394 22.5852C20.1146 22.3542 20.1897 22.1282 20.2649 21.8326C20.3631 21.3184 20.4134 20.796 20.4151 20.2722C20.3936 20.1174 20.5272 19.9803 20.678 20.0024H26.6512C26.8262 20.0024 26.9262 20.0666 26.9516 20.195L35.4794 44.7252C35.5544 44.9824 35.4792 45.1108 35.254 45.1106H30.3702C30.199 45.13 30.0354 45.0126 29.9946 44.8408L28.0786 39.1276ZM20.7532 34.3754H26.6888C25.7136 31.043 24.613 27.7546 23.721 24.3962C22.7102 27.8798 21.7768 31.1106 20.7532 34.3754Z" fill="#9999FF"/>
<path d="M41.8216 36.9514C42.167 39.8132 44.5702 41.1776 47.2312 41.1194C48.7318 41.09 50.3354 40.857 51.7376 40.2896C51.8624 40.1874 51.9254 40.2512 51.9254 40.4824V44.1426C51.9372 44.333 51.8576 44.5032 51.7 44.605C49.9572 45.3966 47.9568 45.6354 46.0666 45.605C40.431 45.605 36.5608 41.6342 36.5624 35.857C36.5476 30.3822 40.0994 25.7634 45.6158 25.7634C50.292 25.6422 53.5294 29.386 53.5424 34.0462C53.5424 34.8948 53.495 35.7466 53.3922 36.589C53.3722 36.7626 53.2244 36.8974 53.054 36.8974C49.3194 36.8974 45.5666 36.9514 41.8216 36.9514ZM41.8216 33.4414C43.903 33.4414 45.9964 33.515 48.0764 33.4222C48.389 33.3902 48.6212 33.3308 48.6212 33.0058C48.5778 31.2782 47.1198 29.8572 45.428 29.9234C43.384 29.7966 42.0758 31.5222 41.8216 33.4414Z" fill="#9999FF"/>
</svg>
