<svg width="65" height="64" viewBox="0 0 65 64" fill="none" xmlns="http://www.w3.org/2000/svg">
<path d="M6.53006 46.174C5.95206 47.118 5.30206 48.214 4.74806 49.086C4.51101 49.4882 4.44107 49.9673 4.55324 50.4205C4.66542 50.8737 4.95077 51.2648 5.34806 51.51L16.9321 58.638C17.1311 58.7611 17.3524 58.8438 17.5834 58.8813C17.8145 58.9188 18.0506 58.9104 18.2783 58.8565C18.5061 58.8026 18.721 58.7044 18.9107 58.5673C19.1004 58.4303 19.2613 58.2572 19.3841 58.058L19.4001 58.032C19.8621 57.258 20.4601 56.25 21.1101 55.172C25.6981 47.598 30.3101 48.526 38.6361 52.5L50.1221 57.962C50.3336 58.0628 50.5629 58.1208 50.797 58.133C51.031 58.1451 51.2651 58.111 51.4859 58.0326C51.7067 57.9542 51.9099 57.8331 52.084 57.6762C52.258 57.5192 52.3994 57.3296 52.5001 57.118L52.5221 57.07L58.0321 44.6C58.2193 44.1719 58.2309 43.6875 58.0645 43.2509C57.898 42.8144 57.5668 42.4607 57.1421 42.266C54.7181 41.126 49.8981 38.852 45.5581 36.758C29.9481 29.172 16.6801 29.662 6.53006 46.174Z" fill="url(#paint0_linear_1324_5058)"/>
<path d="M58.4699 17.864C59.0479 16.92 59.6979 15.824 60.2519 14.952C60.489 14.5498 60.5589 14.0707 60.4468 13.6175C60.3346 13.1643 60.0492 12.7732 59.6519 12.528L48.0699 5.39999C47.876 5.26921 47.6582 5.17794 47.429 5.13138C47.1998 5.08482 46.9636 5.0839 46.734 5.12867C46.5045 5.17343 46.286 5.263 46.091 5.39226C45.8961 5.52152 45.7285 5.68794 45.5979 5.88199C45.5741 5.91613 45.552 5.95151 45.5319 5.98799C45.0679 6.76199 44.4719 7.76999 43.8199 8.84799C39.2319 16.422 34.6199 15.494 26.2939 11.52L14.8439 6.08599C14.6328 5.98525 14.4039 5.92711 14.1702 5.91491C13.9366 5.90271 13.7029 5.93668 13.4824 6.01488C13.2619 6.09308 13.059 6.21398 12.8853 6.37066C12.7116 6.52734 12.5704 6.71673 12.4699 6.92799L12.4479 6.97599L6.93194 19.452C6.74471 19.88 6.73308 20.3645 6.89954 20.801C7.066 21.2376 7.39725 21.5913 7.82194 21.786C10.2459 22.926 15.0659 25.198 19.4059 27.292C35.0519 34.866 48.3199 34.358 58.4699 17.864Z" fill="url(#paint1_linear_1324_5058)"/>
<defs>
<linearGradient id="paint0_linear_1324_5058" x1="57.7141" y1="62.33" x2="22.6701" y2="42.192" gradientUnits="userSpaceOnUse">
<stop offset="0.18" stop-color="#0052CC"/>
<stop offset="1" stop-color="#2684FF"/>
</linearGradient>
<linearGradient id="paint1_linear_1324_5058" x1="7.27594" y1="1.71399" x2="42.3299" y2="21.86" gradientUnits="userSpaceOnUse">
<stop offset="0.18" stop-color="#0052CC"/>
<stop offset="1" stop-color="#2684FF"/>
</linearGradient>
</defs>
</svg>
