<svg width="316" height="151" viewBox="0 0 316 151" fill="none" xmlns="http://www.w3.org/2000/svg">
<path d="M10.7324 28.767H25.6376V9.39026H10.7324V28.767ZM10.7324 44.2683H25.6376V32.6423H10.7324V44.2683ZM29.3639 44.2683H44.269V24.8916H29.3639V44.2683ZM29.3639 9.39026V21.0163H44.269V9.39026H29.3639Z" fill="white"/>
<path d="M124.285 29.2574C124.363 28.6537 124.402 28.0299 124.402 27.3659C124.402 26.722 124.363 26.0781 124.265 25.4744L128.236 22.2952C128.589 22.0135 128.686 21.4702 128.471 21.0677L124.715 14.3872C124.48 13.9446 123.991 13.8037 123.561 13.9446L118.885 15.8763C117.907 15.1116 116.87 14.4677 115.716 13.9848L115.012 8.87383C114.934 8.3909 114.542 8.04883 114.073 8.04883H106.561C106.091 8.04883 105.719 8.3909 105.641 8.87383L104.937 13.9848C103.783 14.4677 102.726 15.1318 101.768 15.8763L97.0922 13.9446C96.6618 13.7836 96.1727 13.9446 95.938 14.3872L92.2014 21.0677C91.9667 21.4903 92.0449 22.0135 92.4362 22.2952L96.4075 25.4744C96.3097 26.0781 96.2314 26.7421 96.2314 27.3659C96.2314 27.9897 96.2705 28.6537 96.3683 29.2574L92.3971 32.4366C92.0449 32.7183 91.9471 33.2616 92.1623 33.6641L95.9184 40.3446C96.1531 40.7872 96.6422 40.9281 97.0726 40.7872L101.748 38.8555C102.726 39.6202 103.763 40.2641 104.917 40.747L105.622 45.858C105.719 46.3409 106.091 46.683 106.561 46.683H114.073C114.542 46.683 114.934 46.3409 114.992 45.858L115.697 40.747C116.851 40.2641 117.907 39.6202 118.866 38.8555L123.541 40.7872C123.972 40.9482 124.461 40.7872 124.696 40.3446L128.452 33.6641C128.686 33.2214 128.589 32.7183 128.217 32.4366L124.285 29.2574ZM110.317 34.6098C106.443 34.6098 103.274 31.35 103.274 27.3659C103.274 23.3818 106.443 20.122 110.317 20.122C114.19 20.122 117.359 23.3818 117.359 27.3659C117.359 31.35 114.19 34.6098 110.317 34.6098Z" fill="white"/>
<path d="M177.391 29.5122V43.5976H213.61V40.5793L195.5 26.4939L187.452 37.561L177.391 29.5122ZM177.391 17.439L185.439 23.4756L195.5 9.39026L205.561 17.439H213.61V35.4884L194.696 20.7793L186.687 31.8061L177.391 24.361V17.439Z" fill="white"/>
<path d="M288.219 17.439V36.2195H269.439V17.439H288.219ZM289.695 14.7561H267.963C267.292 14.7561 266.756 15.2927 266.756 15.9634V37.6951C266.756 38.2317 267.292 38.9024 267.963 38.9024H289.695C290.231 38.9024 290.902 38.2317 290.902 37.6951V15.9634C290.902 15.2927 290.231 14.7561 289.695 14.7561ZM277.488 20.122H285.536V22.8049H277.488V20.122ZM277.488 25.4878H285.536V28.1707H277.488V25.4878ZM277.488 30.8537H285.536V33.5366H277.488V30.8537ZM272.122 20.122H274.805V22.8049H272.122V20.122ZM272.122 25.4878H274.805V28.1707H272.122V25.4878ZM272.122 30.8537H274.805V33.5366H272.122V30.8537Z" fill="white"/>
<path d="M20.8125 113.524H6.70703V117.549H20.8125V123.585L28.8412 115.537L20.8125 107.488V113.524ZM32.8454 111.512V105.476H46.9509V101.451H32.8454V95.4147L24.8168 103.463L32.8454 111.512Z" fill="white"/>
<path d="M114.854 91.3903H98.7568C96.5434 91.3903 94.7525 93.1409 94.7525 95.2805L94.7324 126.402C94.7324 128.542 96.5233 130.293 98.7367 130.293H122.903C125.117 130.293 126.928 128.542 126.928 126.402V103.061L114.854 91.3903ZM118.879 122.512H102.781V118.622H118.879V122.512ZM118.879 114.732H102.781V110.841H118.879V114.732ZM112.842 105.006V94.3079L123.909 105.006H112.842Z" fill="white"/>
<path d="M209.244 120.177C210.048 118.896 210.524 117.415 210.524 115.805C210.524 111.25 206.847 107.573 202.292 107.573C197.738 107.573 194.061 111.25 194.061 115.805C194.061 120.36 197.738 124.037 202.274 124.037C203.884 124.037 205.384 123.561 206.646 122.756L212.353 128.463L214.951 125.866L209.244 120.177ZM202.292 120.378C199.768 120.378 197.719 118.329 197.719 115.805C197.719 113.281 199.768 111.232 202.292 111.232C204.817 111.232 206.866 113.281 206.866 115.805C206.866 118.329 204.817 120.378 202.292 120.378ZM201.634 104.829C200.28 104.866 198.981 105.159 197.792 105.652L196.786 104.134L189.835 115.439L184.329 109L177.689 119.628L174.707 117.488L183.853 102.854L189.341 109.256L196.658 97.3659L201.634 104.829ZM206.372 105.744C205.201 105.232 203.939 104.921 202.622 104.848L211.988 90.0488L214.951 92.2074L206.372 105.744Z" fill="white"/>
<path d="M271.117 103.511H262.732V127.226H271.117V103.511Z" fill="white"/>
<path d="M296.269 112.135H287.885V127.226H296.269V112.135Z" fill="white"/>
<path d="M283.693 92.7316H275.309V127.226H283.693V92.7316Z" fill="white"/>
</svg>
