<svg width="64" height="13" viewBox="0 0 64 13" fill="none" xmlns="http://www.w3.org/2000/svg">
<path d="M6.792 6.24C7.44267 6.37867 7.96533 6.704 8.36 7.216C8.75467 7.71733 8.952 8.29333 8.952 8.944C8.952 9.88267 8.62133 10.6293 7.96 11.184C7.30933 11.728 6.39733 12 5.224 12H-0.00799996V0.768H5.048C6.18933 0.768 7.08 1.02933 7.72 1.552C8.37067 2.07467 8.696 2.784 8.696 3.68C8.696 4.34133 8.52 4.89067 8.168 5.328C7.82667 5.76533 7.368 6.06933 6.792 6.24ZM2.728 5.312H4.52C4.968 5.312 5.30933 5.216 5.544 5.024C5.78933 4.82133 5.912 4.528 5.912 4.144C5.912 3.76 5.78933 3.46667 5.544 3.264C5.30933 3.06133 4.968 2.96 4.52 2.96H2.728V5.312ZM4.744 9.792C5.20267 9.792 5.55467 9.69067 5.8 9.488C6.056 9.27467 6.184 8.97067 6.184 8.576C6.184 8.18133 6.05067 7.872 5.784 7.648C5.528 7.424 5.17067 7.312 4.712 7.312H2.728V9.792H4.744ZM13.2269 0.768V7.488C13.2269 8.16 13.3922 8.67733 13.7229 9.04C14.0535 9.40267 14.5389 9.584 15.1789 9.584C15.8189 9.584 16.3095 9.40267 16.6509 9.04C16.9922 8.67733 17.1629 8.16 17.1629 7.488V0.768H19.8989V7.472C19.8989 8.47467 19.6855 9.32267 19.2589 10.016C18.8322 10.7093 18.2562 11.232 17.5309 11.584C16.8162 11.936 16.0162 12.112 15.1309 12.112C14.2455 12.112 13.4509 11.9413 12.7469 11.6C12.0535 11.248 11.5042 10.7253 11.0989 10.032C10.6935 9.328 10.4909 8.47467 10.4909 7.472V0.768H13.2269ZM29.9001 0.768V2.96H26.9241V12H24.1881V2.96H21.2121V0.768H29.9001ZM39.3533 0.768V2.96H36.3773V12H33.6413V2.96H30.6653V0.768H39.3533ZM46.0384 12.112C44.9824 12.112 44.0117 11.8667 43.1264 11.376C42.2517 10.8853 41.553 10.2027 41.0304 9.328C40.5184 8.44267 40.2624 7.45067 40.2624 6.352C40.2624 5.25333 40.5184 4.26667 41.0304 3.392C41.553 2.51733 42.2517 1.83467 43.1264 1.344C44.0117 0.853333 44.9824 0.608 46.0384 0.608C47.0944 0.608 48.0597 0.853333 48.9344 1.344C49.8197 1.83467 50.513 2.51733 51.0144 3.392C51.5264 4.26667 51.7824 5.25333 51.7824 6.352C51.7824 7.45067 51.5264 8.44267 51.0144 9.328C50.5024 10.2027 49.809 10.8853 48.9344 11.376C48.0597 11.8667 47.0944 12.112 46.0384 12.112ZM46.0384 9.616C46.9344 9.616 47.649 9.31733 48.1824 8.72C48.7264 8.12267 48.9984 7.33333 48.9984 6.352C48.9984 5.36 48.7264 4.57067 48.1824 3.984C47.649 3.38667 46.9344 3.088 46.0384 3.088C45.1317 3.088 44.4064 3.38133 43.8624 3.968C43.329 4.55467 43.0624 5.34933 43.0624 6.352C43.0624 7.344 43.329 8.13867 43.8624 8.736C44.4064 9.32267 45.1317 9.616 46.0384 9.616ZM63.3525 12H60.6165L56.0405 5.072V12H53.3045V0.768H56.0405L60.6165 7.728V0.768H63.3525V12Z" fill="white"/>
</svg>
