<svg width="80" height="16" viewBox="0 0 80 16" fill="none" xmlns="http://www.w3.org/2000/svg">
<path d="M0.875 0.722656H5.12305C6.96549 0.722656 8.35547 0.989583 9.29297 1.52344C10.2305 2.05729 10.6992 2.97852 10.6992 4.28711C10.6992 4.83398 10.6016 5.32878 10.4062 5.77148C10.2174 6.20768 9.94076 6.56901 9.57617 6.85547C9.21159 7.13542 8.76237 7.32422 8.22852 7.42188V7.51953C8.7819 7.61719 9.27344 7.78971 9.70312 8.03711C10.1393 8.28451 10.4811 8.63932 10.7285 9.10156C10.9824 9.5638 11.1094 10.1628 11.1094 10.8984C11.1094 11.7708 10.901 12.513 10.4844 13.125C10.0742 13.737 9.48503 14.2025 8.7168 14.5215C7.95508 14.8405 7.05013 15 6.00195 15H0.875V0.722656ZM3.21875 6.61133H5.46484C6.52604 6.61133 7.26172 6.4388 7.67188 6.09375C8.08203 5.7487 8.28711 5.24414 8.28711 4.58008C8.28711 3.90299 8.04297 3.41471 7.55469 3.11523C7.07292 2.81576 6.30469 2.66602 5.25 2.66602H3.21875V6.61133ZM3.21875 8.50586V13.0371H5.68945C6.7832 13.0371 7.55143 12.8255 7.99414 12.4023C8.43685 11.9792 8.6582 11.4062 8.6582 10.6836C8.6582 10.2409 8.55729 9.85677 8.35547 9.53125C8.16016 9.20573 7.83789 8.95508 7.38867 8.7793C6.93945 8.59701 6.33398 8.50586 5.57227 8.50586H3.21875ZM25.2695 0.722656V9.96094C25.2695 10.957 25.0579 11.849 24.6348 12.6367C24.2181 13.4245 23.5866 14.0495 22.7402 14.5117C21.8939 14.9674 20.8294 15.1953 19.5469 15.1953C17.7174 15.1953 16.3242 14.7168 15.3672 13.7598C14.4167 12.7962 13.9414 11.5169 13.9414 9.92188V0.722656H16.2852V9.7168C16.2852 10.9082 16.5651 11.7871 17.125 12.3535C17.6849 12.9199 18.5215 13.2031 19.6348 13.2031C20.403 13.2031 21.028 13.0697 21.5098 12.8027C21.998 12.5293 22.3561 12.1322 22.584 11.6113C22.8184 11.084 22.9355 10.4492 22.9355 9.70703V0.722656H25.2695ZM33.873 15H31.5195V2.71484H27.3398V0.722656H38.043V2.71484H33.873V15ZM45.1816 15H42.8281V2.71484H38.6484V0.722656H49.3516V2.71484H45.1816V15ZM64.2148 7.8418C64.2148 8.94206 64.0749 9.94466 63.7949 10.8496C63.5215 11.748 63.1081 12.5228 62.5547 13.1738C62.0013 13.8184 61.3079 14.3164 60.4746 14.668C59.6413 15.0195 58.6647 15.1953 57.5449 15.1953C56.4056 15.1953 55.416 15.0195 54.5762 14.668C53.7428 14.3164 53.0495 13.8151 52.4961 13.1641C51.9492 12.513 51.5391 11.735 51.2656 10.8301C50.9922 9.92513 50.8555 8.92253 50.8555 7.82227C50.8555 6.35091 51.0964 5.06836 51.5781 3.97461C52.0664 2.87435 52.8053 2.02148 53.7949 1.41602C54.791 0.804036 56.0475 0.498047 57.5645 0.498047C59.0488 0.498047 60.2826 0.800781 61.2656 1.40625C62.2487 2.01172 62.9844 2.86458 63.4727 3.96484C63.9674 5.05859 64.2148 6.35091 64.2148 7.8418ZM53.3164 7.8418C53.3164 8.94206 53.4661 9.89583 53.7656 10.7031C54.0651 11.5039 54.5241 12.1224 55.1426 12.5586C55.7676 12.9883 56.5684 13.2031 57.5449 13.2031C58.528 13.2031 59.3288 12.9883 59.9473 12.5586C60.5658 12.1224 61.0215 11.5039 61.3145 10.7031C61.6074 9.89583 61.7539 8.94206 61.7539 7.8418C61.7539 6.16862 61.4186 4.86003 60.748 3.91602C60.084 2.96549 59.0228 2.49023 57.5645 2.49023C56.5879 2.49023 55.7839 2.70508 55.1523 3.13477C54.5273 3.56445 54.0651 4.17969 53.7656 4.98047C53.4661 5.77474 53.3164 6.72852 53.3164 7.8418ZM79.1953 15H76.3145L69.3223 3.60352H69.2344C69.2604 3.98763 69.2832 4.39453 69.3027 4.82422C69.3288 5.25391 69.3483 5.69661 69.3613 6.15234C69.3809 6.60807 69.3971 7.07031 69.4102 7.53906V15H67.2812V0.722656H70.1426L77.125 12.041H77.1934C77.1803 11.709 77.1641 11.3281 77.1445 10.8984C77.125 10.4688 77.1055 10.026 77.0859 9.57031C77.0729 9.10807 77.0632 8.66211 77.0566 8.23242V0.722656H79.1953V15Z" fill="white"/>
</svg>
