<svg width="101" height="24" viewBox="0 0 101 24" fill="none" xmlns="http://www.w3.org/2000/svg">
<path d="M11.632 11.512C12.4427 11.64 13.1787 11.9707 13.84 12.504C14.5227 13.0373 15.056 13.6987 15.44 14.488C15.8453 15.2773 16.048 16.12 16.048 17.016C16.048 18.1467 15.76 19.1707 15.184 20.088C14.608 20.984 13.7653 21.6987 12.656 22.232C11.568 22.744 10.2773 23 8.784 23H0.464V0.695999H8.464C9.97867 0.695999 11.2693 0.951999 12.336 1.464C13.4027 1.95467 14.2027 2.62667 14.736 3.48C15.2693 4.33333 15.536 5.29333 15.536 6.36C15.536 7.68267 15.1733 8.78133 14.448 9.656C13.744 10.5093 12.8053 11.128 11.632 11.512ZM3.376 10.328H8.272C9.63733 10.328 10.6933 10.008 11.44 9.368C12.1867 8.728 12.56 7.84267 12.56 6.712C12.56 5.58133 12.1867 4.696 11.44 4.056C10.6933 3.416 9.616 3.096 8.208 3.096H3.376V10.328ZM8.528 20.6C9.97867 20.6 11.1093 20.2587 11.92 19.576C12.7307 18.8933 13.136 17.944 13.136 16.728C13.136 15.4907 12.7093 14.52 11.856 13.816C11.0027 13.0907 9.86133 12.728 8.432 12.728H3.376V20.6H8.528ZM35.641 5.464V23H32.729V20.408C32.1743 21.304 31.3957 22.008 30.393 22.52C29.4117 23.0107 28.3237 23.256 27.129 23.256C25.7637 23.256 24.537 22.9787 23.449 22.424C22.361 21.848 21.497 20.9947 20.857 19.864C20.2383 18.7333 19.929 17.3573 19.929 15.736V5.464H22.809V15.352C22.809 17.08 23.2463 18.4133 24.121 19.352C24.9957 20.2693 26.1903 20.728 27.705 20.728C29.2623 20.728 30.489 20.248 31.385 19.288C32.281 18.328 32.729 16.9307 32.729 15.096V5.464H35.641ZM44.1098 7.864V18.2C44.1098 19.0533 44.2911 19.6613 44.6538 20.024C45.0164 20.3653 45.6458 20.536 46.5417 20.536H48.6858V23H46.0618C44.4404 23 43.2244 22.6267 42.4138 21.88C41.6031 21.1333 41.1978 19.9067 41.1978 18.2V7.864H38.9258V5.464H41.1978V1.048H44.1098V5.464H48.6858V7.864H44.1098ZM55.766 7.864V18.2C55.766 19.0533 55.9473 19.6613 56.31 20.024C56.6727 20.3653 57.302 20.536 58.198 20.536H60.342V23H57.718C56.0967 23 54.8807 22.6267 54.07 21.88C53.2593 21.1333 52.854 19.9067 52.854 18.2V7.864H50.582V5.464H52.854V1.048H55.766V5.464H60.342V7.864H55.766ZM71.5183 23.288C69.8756 23.288 68.3823 22.9147 67.0383 22.168C65.7156 21.4213 64.6703 20.3653 63.9023 19C63.1556 17.6133 62.7823 16.0133 62.7823 14.2C62.7823 12.408 63.1663 10.8293 63.9343 9.464C64.7236 8.07733 65.7903 7.02133 67.1343 6.296C68.4783 5.54933 69.9823 5.176 71.6463 5.176C73.3103 5.176 74.8143 5.54933 76.1583 6.296C77.5023 7.02133 78.5583 8.06667 79.3263 9.432C80.1156 10.7973 80.5103 12.3867 80.5103 14.2C80.5103 16.0133 80.1049 17.6133 79.2943 19C78.5049 20.3653 77.4276 21.4213 76.0623 22.168C74.6969 22.9147 73.1823 23.288 71.5183 23.288ZM71.5183 20.728C72.5636 20.728 73.5449 20.4827 74.4623 19.992C75.3796 19.5013 76.1156 18.7653 76.6703 17.784C77.2463 16.8027 77.5343 15.608 77.5343 14.2C77.5343 12.792 77.2569 11.5973 76.7023 10.616C76.1476 9.63467 75.4223 8.90933 74.5263 8.44C73.6303 7.94933 72.6596 7.704 71.6143 7.704C70.5476 7.704 69.5663 7.94933 68.6703 8.44C67.7956 8.90933 67.0916 9.63467 66.5583 10.616C66.0249 11.5973 65.7583 12.792 65.7583 14.2C65.7583 15.6293 66.0143 16.8347 66.5263 17.816C67.0596 18.7973 67.7636 19.5333 68.6383 20.024C69.5129 20.4933 70.4729 20.728 71.5183 20.728ZM92.883 5.144C95.0163 5.144 96.7443 5.79467 98.067 7.096C99.3897 8.376 100.051 10.232 100.051 12.664V23H97.171V13.08C97.171 11.3307 96.7337 9.99733 95.859 9.08C94.9843 8.14133 93.7897 7.672 92.275 7.672C90.739 7.672 89.5123 8.152 88.595 9.112C87.699 10.072 87.251 11.4693 87.251 13.304V23H84.339V5.464H87.251V7.96C87.827 7.064 88.6057 6.37067 89.587 5.88C90.5897 5.38933 91.6883 5.144 92.883 5.144Z" fill="white"/>
</svg>
