<svg width="49" height="11" viewBox="0 0 49 11" fill="none" xmlns="http://www.w3.org/2000/svg">
<path d="M0.0800781 0.505859H3.56641C5.01107 0.505859 6.04102 0.720052 6.65625 1.14844C7.27148 1.57682 7.5791 2.19206 7.5791 2.99414C7.5791 3.43164 7.49935 3.80306 7.33984 4.1084C7.1849 4.41374 6.98665 4.65527 6.74512 4.83301C6.50814 5.01074 6.26432 5.13151 6.01367 5.19531V5.26367C6.28711 5.33203 6.55827 5.44596 6.82715 5.60547C7.10059 5.76042 7.32617 5.99512 7.50391 6.30957C7.6862 6.61947 7.77734 7.04102 7.77734 7.57422C7.77734 8.18034 7.6224 8.70215 7.3125 9.13965C7.00716 9.57715 6.56966 9.91439 6 10.1514C5.43034 10.3838 4.75358 10.5 3.96973 10.5H0.0800781V0.505859ZM2.78027 4.34082H3.59375C4.04036 4.34082 4.35482 4.24967 4.53711 4.06738C4.7194 3.88053 4.81055 3.65495 4.81055 3.39062C4.81055 3.11719 4.70573 2.90983 4.49609 2.76855C4.29102 2.62272 3.97201 2.5498 3.53906 2.5498H2.78027V4.34082ZM2.78027 6.31641V8.41504H3.73047C4.19987 8.41504 4.52799 8.31478 4.71484 8.11426C4.90169 7.90918 4.99512 7.65397 4.99512 7.34863C4.99512 7.1709 4.9541 7.00456 4.87207 6.84961C4.7946 6.6901 4.66016 6.5625 4.46875 6.4668C4.27734 6.36654 4.01302 6.31641 3.67578 6.31641H2.78027ZM16.8896 2.75488V10.5H14.873L14.5381 9.53613H14.3809C14.2214 9.7959 14.0186 10.0078 13.7725 10.1719C13.5309 10.3314 13.262 10.4476 12.9658 10.5205C12.6696 10.598 12.362 10.6367 12.043 10.6367C11.5371 10.6367 11.0791 10.5387 10.6689 10.3428C10.2633 10.1468 9.93978 9.83919 9.69824 9.41992C9.46126 9.00065 9.34277 8.46061 9.34277 7.7998V2.75488H12.0156V6.98633C12.0156 7.48763 12.0863 7.87044 12.2275 8.13477C12.3734 8.39453 12.6104 8.52441 12.9385 8.52441C13.2757 8.52441 13.5355 8.43327 13.7178 8.25098C13.9046 8.06868 14.0345 7.7998 14.1074 7.44434C14.1803 7.08887 14.2168 6.65592 14.2168 6.14551V2.75488H16.8896ZM22.5293 8.52441C22.7708 8.52441 22.9919 8.49935 23.1924 8.44922C23.3929 8.39909 23.6025 8.33529 23.8213 8.25781V10.2061C23.5296 10.3337 23.2197 10.4362 22.8916 10.5137C22.568 10.5957 22.1533 10.6367 21.6475 10.6367C21.1462 10.6367 20.7041 10.5592 20.3213 10.4043C19.9385 10.2448 19.64 9.97135 19.4258 9.58398C19.2161 9.19206 19.1113 8.64746 19.1113 7.9502V4.75781H18.1748V3.6709L19.3643 2.83008L20.0547 1.20312H21.8047V2.75488H23.7051V4.75781H21.8047V7.77246C21.8047 8.02311 21.8685 8.21224 21.9961 8.33984C22.1237 8.46289 22.3014 8.52441 22.5293 8.52441ZM28.9688 8.52441C29.2103 8.52441 29.4313 8.49935 29.6318 8.44922C29.8324 8.39909 30.042 8.33529 30.2607 8.25781V10.2061C29.9691 10.3337 29.6592 10.4362 29.3311 10.5137C29.0075 10.5957 28.5928 10.6367 28.0869 10.6367C27.5856 10.6367 27.1436 10.5592 26.7607 10.4043C26.3779 10.2448 26.0794 9.97135 25.8652 9.58398C25.6556 9.19206 25.5508 8.64746 25.5508 7.9502V4.75781H24.6143V3.6709L25.8037 2.83008L26.4941 1.20312H28.2441V2.75488H30.1445V4.75781H28.2441V7.77246C28.2441 8.02311 28.3079 8.21224 28.4355 8.33984C28.5632 8.46289 28.7409 8.52441 28.9688 8.52441ZM39.0107 6.61035C39.0107 7.25749 38.9219 7.83171 38.7441 8.33301C38.5664 8.83431 38.3089 9.25586 37.9717 9.59766C37.6344 9.93945 37.2266 10.1992 36.748 10.377C36.2695 10.5501 35.7295 10.6367 35.1279 10.6367C34.5674 10.6367 34.0524 10.5501 33.583 10.377C33.1182 10.1992 32.7126 9.93945 32.3662 9.59766C32.0199 9.25586 31.751 8.83431 31.5596 8.33301C31.3727 7.83171 31.2793 7.25749 31.2793 6.61035C31.2793 5.75358 31.4342 5.02897 31.7441 4.43652C32.0586 3.84408 32.5052 3.3929 33.084 3.08301C33.6673 2.77311 34.3623 2.61816 35.1689 2.61816C35.9118 2.61816 36.5726 2.77311 37.1514 3.08301C37.7301 3.3929 38.1836 3.84408 38.5117 4.43652C38.8444 5.02897 39.0107 5.75358 39.0107 6.61035ZM33.9932 6.61035C33.9932 7.05241 34.0319 7.42611 34.1094 7.73145C34.1868 8.03223 34.3099 8.26237 34.4785 8.42188C34.6517 8.57682 34.8773 8.6543 35.1553 8.6543C35.4333 8.6543 35.6543 8.57682 35.8184 8.42188C35.9824 8.26237 36.1009 8.03223 36.1738 7.73145C36.2513 7.42611 36.29 7.05241 36.29 6.61035C36.29 6.16829 36.2513 5.79915 36.1738 5.50293C36.1009 5.20671 35.9801 4.9834 35.8115 4.83301C35.6475 4.68262 35.4242 4.60742 35.1416 4.60742C34.736 4.60742 34.4421 4.77604 34.2598 5.11328C34.082 5.45052 33.9932 5.94954 33.9932 6.61035ZM45.3887 2.61816C46.1862 2.61816 46.8379 2.84375 47.3438 3.29492C47.8496 3.74609 48.1025 4.46842 48.1025 5.46191V10.5H45.4297V6.27539C45.4297 5.76042 45.3545 5.37305 45.2041 5.11328C45.0583 4.84896 44.8213 4.7168 44.4932 4.7168C43.9873 4.7168 43.6478 4.92415 43.4746 5.33887C43.3014 5.74902 43.2148 6.33919 43.2148 7.10938V10.5H40.542V2.75488H42.5586L42.9209 3.78027H43.0234C43.1875 3.53418 43.3835 3.32454 43.6113 3.15137C43.8392 2.97819 44.1012 2.84603 44.3975 2.75488C44.6937 2.66374 45.0241 2.61816 45.3887 2.61816Z" fill="white"/>
</svg>
