<svg width="29" height="18" viewBox="0 0 29 18" fill="none" xmlns="http://www.w3.org/2000/svg">
<path d="M13.736 1.272V18H11.552V10.416H3.032V18H0.848V1.272H3.032V8.616H11.552V1.272H13.736ZM16.8412 16.248C18.8732 14.616 20.4652 13.28 21.6172 12.24C22.7692 11.184 23.7372 10.088 24.5212 8.952C25.3212 7.8 25.7212 6.672 25.7212 5.568C25.7212 4.528 25.4652 3.712 24.9532 3.12C24.4572 2.512 23.6492 2.208 22.5292 2.208C21.4412 2.208 20.5932 2.552 19.9852 3.24C19.3932 3.912 19.0732 4.816 19.0252 5.952H16.9132C16.9772 4.16 17.5212 2.776 18.5452 1.8C19.5692 0.823999 20.8892 0.335999 22.5052 0.335999C24.1532 0.335999 25.4572 0.791999 26.4172 1.704C27.3932 2.616 27.8812 3.872 27.8812 5.472C27.8812 6.8 27.4812 8.096 26.6812 9.36C25.8972 10.608 25.0012 11.712 23.9932 12.672C22.9852 13.616 21.6972 14.72 20.1292 15.984H28.3852V17.808H16.8412V16.248Z" fill="white"/>
</svg>
