<svg width="30" height="12" viewBox="0 0 30 12" fill="none" xmlns="http://www.w3.org/2000/svg">
<path d="M1.33789 11H0.196289V0.363281H1.33789V11ZM6.54004 3.38477C7.43327 3.38477 8.09635 3.58529 8.5293 3.98633C8.96224 4.38737 9.17871 5.02767 9.17871 5.90723V11H8.35156L8.13281 9.89258H8.07812C7.86849 10.166 7.64974 10.3962 7.42188 10.583C7.19401 10.7653 6.92969 10.9043 6.62891 11C6.33268 11.0911 5.9681 11.1367 5.53516 11.1367C5.07943 11.1367 4.67383 11.057 4.31836 10.8975C3.96745 10.738 3.68945 10.4964 3.48438 10.1729C3.28385 9.84928 3.18359 9.43913 3.18359 8.94238C3.18359 8.19499 3.47982 7.62077 4.07227 7.21973C4.66471 6.81868 5.56706 6.59993 6.7793 6.56348L8.07129 6.50879V6.05078C8.07129 5.40365 7.93229 4.9502 7.6543 4.69043C7.3763 4.43066 6.98438 4.30078 6.47852 4.30078C6.08659 4.30078 5.71289 4.35775 5.35742 4.47168C5.00195 4.58561 4.66471 4.72005 4.3457 4.875L3.99707 4.01367C4.33431 3.84049 4.72168 3.69238 5.15918 3.56934C5.59668 3.44629 6.05697 3.38477 6.54004 3.38477ZM8.05762 7.30859L6.91602 7.35645C5.98177 7.3929 5.32324 7.54557 4.94043 7.81445C4.55762 8.08333 4.36621 8.46387 4.36621 8.95605C4.36621 9.38444 4.49609 9.70117 4.75586 9.90625C5.01562 10.1113 5.3597 10.2139 5.78809 10.2139C6.45345 10.2139 6.99805 10.0293 7.42188 9.66016C7.8457 9.29102 8.05762 8.7373 8.05762 7.99902V7.30859ZM12.6514 0.363281V3.02246C12.6514 3.3278 12.6423 3.62402 12.624 3.91113C12.6104 4.19824 12.599 4.42155 12.5898 4.58105H12.6514C12.8564 4.24382 13.1527 3.95898 13.54 3.72656C13.9274 3.49414 14.4219 3.37793 15.0234 3.37793C15.9622 3.37793 16.7096 3.70378 17.2656 4.35547C17.8262 5.0026 18.1064 5.96647 18.1064 7.24707C18.1064 8.09017 17.9788 8.80111 17.7236 9.37988C17.4684 9.95866 17.1084 10.3962 16.6436 10.6924C16.1787 10.9886 15.6296 11.1367 14.9961 11.1367C14.4036 11.1367 13.916 11.0273 13.5332 10.8086C13.1549 10.5853 12.8633 10.3141 12.6582 9.99512H12.5693L12.3369 11H11.5166V0.363281H12.6514ZM14.8389 4.32812C14.2965 4.32812 13.8659 4.43522 13.5469 4.64941C13.2279 4.85905 12.9977 5.17806 12.8564 5.60645C12.7197 6.03027 12.6514 6.56803 12.6514 7.21973V7.28125C12.6514 8.22461 12.8086 8.94694 13.123 9.44824C13.4375 9.94499 14.0094 10.1934 14.8389 10.1934C15.5361 10.1934 16.0579 9.93815 16.4043 9.42773C16.7552 8.91732 16.9307 8.18815 16.9307 7.24023C16.9307 6.27409 16.7575 5.5472 16.4111 5.05957C16.0693 4.57194 15.5452 4.32812 14.8389 4.32812ZM22.9736 3.37109C23.6117 3.37109 24.1585 3.51237 24.6143 3.79492C25.07 4.07747 25.4186 4.47396 25.6602 4.98438C25.9017 5.49023 26.0225 6.08268 26.0225 6.76172V7.46582H20.8477C20.8613 8.34538 21.0801 9.0153 21.5039 9.47559C21.9277 9.93587 22.5247 10.166 23.2949 10.166C23.7689 10.166 24.1882 10.1227 24.5527 10.0361C24.9173 9.94954 25.2956 9.82194 25.6875 9.65332V10.6514C25.3092 10.82 24.9333 10.943 24.5596 11.0205C24.1904 11.098 23.7529 11.1367 23.2471 11.1367C22.527 11.1367 21.8981 10.9909 21.3604 10.6992C20.8271 10.403 20.4124 9.97005 20.1162 9.40039C19.82 8.83073 19.6719 8.13346 19.6719 7.30859C19.6719 6.50195 19.8063 5.80469 20.0752 5.2168C20.3486 4.62435 20.7314 4.16862 21.2236 3.84961C21.7204 3.5306 22.3037 3.37109 22.9736 3.37109ZM22.96 4.30078C22.3538 4.30078 21.8708 4.49902 21.5107 4.89551C21.1507 5.29199 20.9365 5.8457 20.8682 6.55664H24.833C24.8285 6.11003 24.7578 5.7181 24.6211 5.38086C24.4889 5.03906 24.2861 4.77474 24.0127 4.58789C23.7393 4.39648 23.3883 4.30078 22.96 4.30078ZM29.0918 11H27.9502V0.363281H29.0918V11Z" fill="white"/>
</svg>
