<svg width="46" height="26" viewBox="0 0 46 26" fill="none" xmlns="http://www.w3.org/2000/svg">
<path d="M18.852 0.799998H22.452V26H18.852V0.799998ZM4.38 26H0.78V0.799998H4.38V26ZM19.176 14.768H4.02V11.636H19.176V14.768ZM27.5468 26V23.552L37.8068 13.652C38.7188 12.788 39.3908 12.032 39.8228 11.384C40.2788 10.712 40.5788 10.1 40.7228 9.548C40.8908 8.972 40.9748 8.42 40.9748 7.892C40.9748 6.596 40.5188 5.576 39.6068 4.832C38.6948 4.088 37.3628 3.716 35.6108 3.716C34.2668 3.716 33.0548 3.944 31.9748 4.4C30.8948 4.832 29.9588 5.516 29.1668 6.452L26.7188 4.328C27.6788 3.104 28.9628 2.168 30.5708 1.52C32.2028 0.848 33.9908 0.512 35.9348 0.512C37.6868 0.512 39.2108 0.8 40.5068 1.376C41.8028 1.928 42.7988 2.732 43.4948 3.788C44.2148 4.844 44.5748 6.092 44.5748 7.532C44.5748 8.348 44.4668 9.152 44.2508 9.944C44.0348 10.736 43.6268 11.576 43.0268 12.464C42.4268 13.352 41.5628 14.348 40.4348 15.452L31.2908 24.272L30.4268 22.868H45.6548V26H27.5468Z" fill="white"/>
</svg>
