<svg width="46" height="31" viewBox="0 0 46 31" fill="none" xmlns="http://www.w3.org/2000/svg">
<path d="M21.56 2.12V30H17.92V17.36H3.72V30H0.0800003V2.12H3.72V14.36H17.92V2.12H21.56ZM27.0953 8.36C27.282 5.90667 28.2286 3.98667 29.9353 2.6C31.642 1.21333 33.8553 0.519998 36.5753 0.519998C38.3886 0.519998 39.9486 0.853332 41.2553 1.52C42.5886 2.16 43.5886 3.04 44.2553 4.16C44.9486 5.28 45.2953 6.54667 45.2953 7.96C45.2953 9.61333 44.8153 11.04 43.8553 12.24C42.922 13.44 41.6953 14.2133 40.1753 14.56V14.76C41.9086 15.1867 43.282 16.0267 44.2953 17.28C45.3086 18.5333 45.8153 20.1733 45.8153 22.2C45.8153 23.72 45.4686 25.0933 44.7753 26.32C44.082 27.52 43.042 28.4667 41.6553 29.16C40.2686 29.8533 38.602 30.2 36.6553 30.2C33.8286 30.2 31.5086 29.4667 29.6953 28C27.882 26.5067 26.8686 24.4 26.6553 21.68H30.1753C30.362 23.28 31.0153 24.5867 32.1353 25.6C33.2553 26.6133 34.7486 27.12 36.6153 27.12C38.482 27.12 39.8953 26.64 40.8553 25.68C41.842 24.6933 42.3353 23.4267 42.3353 21.88C42.3353 19.88 41.6686 18.44 40.3353 17.56C39.002 16.68 36.9886 16.24 34.2953 16.24H33.3753V13.2H34.3353C36.7886 13.1733 38.642 12.7733 39.8953 12C41.1486 11.2 41.7753 9.97333 41.7753 8.32C41.7753 6.90667 41.3086 5.77333 40.3753 4.92C39.4686 4.06667 38.162 3.64 36.4553 3.64C34.802 3.64 33.4686 4.06667 32.4553 4.92C31.442 5.77333 30.842 6.92 30.6553 8.36H27.0953Z" fill="white"/>
</svg>
