<svg width="42" height="23" viewBox="0 0 42 23" fill="none" xmlns="http://www.w3.org/2000/svg">
<path d="M16.016 0.599998H21.2V23H16.016V0.599998ZM5.84 23H0.656V0.599998H5.84V23ZM16.4 13.816H5.456V9.432H16.4V13.816ZM24.8997 23V19.64L33.5398 11.48C34.2224 10.8613 34.7238 10.3067 35.0438 9.816C35.3638 9.32533 35.5771 8.87733 35.6838 8.472C35.8118 8.06667 35.8758 7.69333 35.8758 7.352C35.8758 6.456 35.5664 5.77333 34.9478 5.304C34.3504 4.81333 33.4651 4.568 32.2917 4.568C31.3531 4.568 30.4784 4.74933 29.6678 5.112C28.8784 5.47467 28.2064 6.04 27.6518 6.808L23.8758 4.376C24.7291 3.096 25.9238 2.08267 27.4598 1.336C28.9958 0.589333 30.7664 0.216 32.7718 0.216C34.4358 0.216 35.8864 0.493333 37.1238 1.048C38.3824 1.58133 39.3531 2.33867 40.0358 3.32C40.7398 4.30133 41.0918 5.47467 41.0918 6.84C41.0918 7.56533 40.9958 8.29067 40.8038 9.016C40.6331 9.72 40.2704 10.4667 39.7158 11.256C39.1824 12.0453 38.3931 12.9307 37.3478 13.912L30.1798 20.664L29.1878 18.776H41.8278V23H24.8997Z" fill="white"/>
</svg>
