<svg width="55" height="34" viewBox="0 0 55 34" fill="none" xmlns="http://www.w3.org/2000/svg">
<path d="M20.984 34V33.04C22.008 32.976 22.776 32.848 23.288 32.656C23.8 32.464 24.136 32.08 24.296 31.504C24.488 30.928 24.584 30.064 24.584 28.912V5.104C24.584 3.92 24.488 3.056 24.296 2.512C24.136 1.936 23.784 1.552 23.24 1.36C22.728 1.136 21.976 1.008 20.984 0.975999V0.0159998C21.848 0.0479994 22.968 0.079999 24.344 0.111999C25.752 0.143998 27.144 0.159998 28.52 0.159998C29.992 0.159998 31.368 0.143998 32.648 0.111999C33.96 0.079999 35.016 0.0479994 35.816 0.0159998V0.975999C34.792 1.008 34.008 1.136 33.464 1.36C32.952 1.552 32.616 1.936 32.456 2.512C32.296 3.056 32.216 3.92 32.216 5.104V28.912C32.216 30.064 32.296 30.928 32.456 31.504C32.648 32.08 33 32.464 33.512 32.656C34.024 32.848 34.792 32.976 35.816 33.04V34C35.016 33.936 33.96 33.904 32.648 33.904C31.368 33.872 29.992 33.856 28.52 33.856C27.144 33.856 25.752 33.872 24.344 33.904C22.968 33.904 21.848 33.936 20.984 34ZM0.632 34V33.04C1.656 32.976 2.424 32.848 2.936 32.656C3.448 32.464 3.784 32.08 3.944 31.504C4.136 30.928 4.232 30.064 4.232 28.912V5.104C4.232 3.92 4.136 3.056 3.944 2.512C3.784 1.936 3.432 1.552 2.888 1.36C2.376 1.136 1.624 1.008 0.632 0.975999V0.0159998C1.464 0.0479994 2.536 0.079999 3.848 0.111999C5.192 0.143998 6.648 0.159998 8.216 0.159998C9.56 0.159998 10.888 0.143998 12.2 0.111999C13.512 0.079999 14.6 0.0479994 15.464 0.0159998V0.975999C14.44 1.008 13.656 1.136 13.112 1.36C12.6 1.552 12.264 1.936 12.104 2.512C11.944 3.056 11.864 3.92 11.864 5.104V28.912C11.864 30.064 11.944 30.928 12.104 31.504C12.296 32.08 12.648 32.464 13.16 32.656C13.672 32.848 14.44 32.976 15.464 33.04V34C14.6 33.936 13.512 33.904 12.2 33.904C10.888 33.872 9.56 33.856 8.216 33.856C6.648 33.856 5.192 33.872 3.848 33.904C2.536 33.904 1.464 33.936 0.632 34ZM8.744 17.392V16.432H27.704V17.392H8.744ZM50.9266 8.656V29.344C50.9266 30.752 51.1826 31.712 51.6946 32.224C52.2386 32.736 53.1346 32.992 54.3826 32.992V34C53.7426 33.968 52.7986 33.936 51.5506 33.904C50.3346 33.84 49.0706 33.808 47.7586 33.808C46.1266 33.808 44.5426 33.84 43.0066 33.904C41.5026 33.936 40.3346 33.968 39.5026 34V32.992C40.9426 32.992 42.0466 32.736 42.8146 32.224C43.6146 31.68 44.0146 30.624 44.0146 29.056V17.344C44.0146 15.808 43.8866 14.672 43.6306 13.936C43.3746 13.2 42.8946 12.72 42.1906 12.496C41.4866 12.272 40.5266 12.16 39.3106 12.16V11.104C42.0626 11.04 44.3346 10.832 46.1266 10.48C47.9506 10.128 49.5506 9.52 50.9266 8.656Z" fill="white"/>
</svg>
