<svg width="73" height="13" viewBox="0 0 73 13" fill="none" xmlns="http://www.w3.org/2000/svg">
<path d="M0.74 12V0.559999H6.3C7.75333 0.559999 8.84667 0.833333 9.58 1.38C10.3267 1.92667 10.7 2.65333 10.7 3.56C10.7 4.45333 10.3933 5.16 9.78 5.68C9.18 6.2 8.36667 6.46 7.34 6.46L7.66 5.82C8.76667 5.82 9.64667 6.08 10.3 6.6C10.9533 7.12 11.28 7.87333 11.28 8.86C11.28 9.84667 10.8867 10.62 10.1 11.18C9.31333 11.7267 8.16 12 6.64 12H0.74ZM3.26 10.14H6.48C7.21333 10.14 7.77333 10.02 8.16 9.78C8.54667 9.52667 8.74 9.14667 8.74 8.64C8.74 8.12 8.54667 7.74 8.16 7.5C7.77333 7.26 7.21333 7.14 6.48 7.14H2.92V5.32H6.02C6.71333 5.32 7.24 5.2 7.6 4.96C7.97333 4.70667 8.16 4.34 8.16 3.86C8.16 3.39333 7.97333 3.04 7.6 2.8C7.24 2.54667 6.71333 2.42 6.02 2.42H3.26V10.14ZM18.8478 12.2C17.7545 12.2 16.8145 12 16.0278 11.6C15.2545 11.1867 14.6611 10.6 14.2478 9.84C13.8345 9.06667 13.6278 8.15333 13.6278 7.1V0.559999H16.1478V7.02C16.1478 8.00667 16.3811 8.76 16.8478 9.28C17.3145 9.8 17.9878 10.06 18.8678 10.06C19.7345 10.06 20.3945 9.80667 20.8478 9.3C21.3145 8.78 21.5478 8.02 21.5478 7.02V0.559999H24.0278V7.1C24.0278 8.15333 23.8211 9.06667 23.4078 9.84C23.0078 10.6 22.4211 11.1867 21.6478 11.6C20.8745 12 19.9411 12.2 18.8478 12.2ZM29.5002 12V2.62H25.7402V0.559999H35.7802V2.62H32.0202V12H29.5002ZM39.8908 12V2.62H36.1308V0.559999H46.1708V2.62H42.4108V12H39.8908ZM53.1708 12.2C51.9574 12.2 50.8708 11.9467 49.9108 11.44C48.9641 10.92 48.2174 10.2133 47.6708 9.32C47.1241 8.42667 46.8508 7.41333 46.8508 6.28C46.8508 5.14667 47.1241 4.14 47.6708 3.26C48.2174 2.36667 48.9641 1.66667 49.9108 1.16C50.8708 0.639999 51.9508 0.379999 53.1508 0.379999C54.3641 0.379999 55.4441 0.639999 56.3908 1.16C57.3508 1.66667 58.1041 2.36667 58.6508 3.26C59.1974 4.14 59.4708 5.14667 59.4708 6.28C59.4708 7.41333 59.1974 8.42667 58.6508 9.32C58.1041 10.2133 57.3508 10.92 56.3908 11.44C55.4441 11.9467 54.3708 12.2 53.1708 12.2ZM53.1508 10.06C53.8841 10.06 54.5308 9.9 55.0908 9.58C55.6641 9.24667 56.1108 8.79333 56.4308 8.22C56.7508 7.64667 56.9108 7 56.9108 6.28C56.9108 5.54667 56.7441 4.9 56.4108 4.34C56.0908 3.76667 55.6508 3.32 55.0908 3C54.5308 2.68 53.8908 2.52 53.1708 2.52C52.4508 2.52 51.8041 2.68 51.2308 3C50.6574 3.32 50.2041 3.76667 49.8708 4.34C49.5508 4.9 49.3908 5.54667 49.3908 6.28C49.3908 7 49.5508 7.64667 49.8708 8.22C50.2041 8.79333 50.6574 9.24667 51.2308 9.58C51.8041 9.9 52.4441 10.06 53.1508 10.06ZM61.99 12V0.559999H64.07L70.97 8.92H70.03V0.559999H72.53V12H70.45L63.55 3.64H64.51V12H61.99Z" fill="white"/>
</svg>
