<svg width="12" height="18" viewBox="0 0 12 18" fill="none" xmlns="http://www.w3.org/2000/svg">
<path d="M2.36 3.06C2.72 2.43333 3.25333 1.91333 3.96 1.5C4.68 1.07333 5.51333 0.859999 6.46 0.859999C7.43333 0.859999 8.31333 1.09333 9.1 1.56C9.9 2.02667 10.5267 2.68667 10.98 3.54C11.4333 4.38 11.66 5.36 11.66 6.48C11.66 7.58667 11.4333 8.57333 10.98 9.44C10.5267 10.3067 9.9 10.98 9.1 11.46C8.31333 11.94 7.43333 12.18 6.46 12.18C5.52667 12.18 4.7 11.9733 3.98 11.56C3.27333 11.1333 2.73333 10.6067 2.36 9.98V17.2H0.54V1.04H2.36V3.06ZM9.8 6.48C9.8 5.65333 9.63333 4.93333 9.3 4.32C8.96667 3.70667 8.51333 3.24 7.94 2.92C7.38 2.6 6.76 2.44 6.08 2.44C5.41333 2.44 4.79333 2.60667 4.22 2.94C3.66 3.26 3.20667 3.73333 2.86 4.36C2.52667 4.97333 2.36 5.68667 2.36 6.5C2.36 7.32667 2.52667 8.05333 2.86 8.68C3.20667 9.29333 3.66 9.76667 4.22 10.1C4.79333 10.42 5.41333 10.58 6.08 10.58C6.76 10.58 7.38 10.42 7.94 10.1C8.51333 9.76667 8.96667 9.29333 9.3 8.68C9.63333 8.05333 9.8 7.32 9.8 6.48Z" fill="white"/>
</svg>
