<svg width="12" height="18" viewBox="0 0 12 18" fill="none" xmlns="http://www.w3.org/2000/svg">
<path d="M1.98 3.48C2.32667 2.74667 2.87333 2.14 3.62 1.66C4.38 1.16667 5.28 0.92 6.32 0.92C7.30667 0.92 8.19333 1.15333 8.98 1.62C9.78 2.07333 10.4 2.72667 10.84 3.58C11.2933 4.42 11.52 5.4 11.52 6.52C11.52 7.64 11.2933 8.62667 10.84 9.48C10.4 10.3333 9.78 10.9933 8.98 11.46C8.19333 11.9267 7.30667 12.16 6.32 12.16C5.29333 12.16 4.4 11.92 3.64 11.44C2.88 10.9467 2.32667 10.3333 1.98 9.6V17.16H0.6V1.08H1.98V3.48ZM10.1 6.52C10.1 5.61333 9.92 4.83333 9.56 4.18C9.21333 3.51333 8.73333 3.00667 8.12 2.66C7.50667 2.31333 6.81333 2.14 6.04 2.14C5.29333 2.14 4.60667 2.32 3.98 2.68C3.36667 3.04 2.88 3.55333 2.52 4.22C2.16 4.88667 1.98 5.66 1.98 6.54C1.98 7.42 2.16 8.19333 2.52 8.86C2.88 9.52667 3.36667 10.04 3.98 10.4C4.60667 10.76 5.29333 10.94 6.04 10.94C6.81333 10.94 7.50667 10.7667 8.12 10.42C8.73333 10.06 9.21333 9.54667 9.56 8.88C9.92 8.2 10.1 7.41333 10.1 6.52Z" fill="white"/>
</svg>
