<svg width="60" height="36" viewBox="0 0 60 36" fill="none" xmlns="http://www.w3.org/2000/svg">
<path d="M30.16 2.304V36H21.952V22.128H9.184V36H0.976V2.304H9.184V15.504H21.952V2.304H30.16ZM34.9814 29.424C36.0694 28.56 36.5654 28.16 36.4694 28.224C39.6054 25.632 42.0694 23.504 43.8614 21.84C45.6854 20.176 47.2214 18.432 48.4694 16.608C49.7174 14.784 50.3414 13.008 50.3414 11.28C50.3414 9.968 50.0374 8.944 49.4294 8.208C48.8214 7.472 47.9094 7.104 46.6934 7.104C45.4774 7.104 44.5174 7.568 43.8134 8.496C43.1414 9.392 42.8054 10.672 42.8054 12.336H34.8854C34.9494 9.616 35.5254 7.344 36.6134 5.52C37.7334 3.696 39.1894 2.352 40.9814 1.488C42.8054 0.623998 44.8214 0.191998 47.0294 0.191998C50.8374 0.191998 53.7014 1.168 55.6214 3.12C57.5734 5.072 58.5494 7.616 58.5494 10.752C58.5494 14.176 57.3814 17.36 55.0454 20.304C52.7094 23.216 49.7334 26.064 46.1174 28.848H59.0774V35.52H34.9814V29.424Z" fill="white"/>
</svg>
