<svg width="36" height="22" viewBox="0 0 36 22" fill="none" xmlns="http://www.w3.org/2000/svg">
<path d="M17.1602 22H14.6699V11.9072H3.41992V22H0.929688V0.583984H3.41992V9.70996H14.6699V0.583984H17.1602V22ZM35.6318 22H21.5986V19.9639L27.3262 14.1484C28.3906 13.0742 29.2842 12.1172 30.0068 11.2773C30.7393 10.4375 31.2959 9.6123 31.6768 8.80176C32.0576 7.98145 32.248 7.08301 32.248 6.10645C32.248 4.89551 31.8867 3.97266 31.1641 3.33789C30.4512 2.69336 29.5088 2.37109 28.3369 2.37109C27.3115 2.37109 26.4033 2.54688 25.6123 2.89844C24.8213 3.25 24.0107 3.74805 23.1807 4.39258L21.877 2.75195C22.4434 2.27344 23.0586 1.84863 23.7227 1.47754C24.3965 1.10645 25.1143 0.813477 25.876 0.598633C26.6475 0.383789 27.4678 0.276367 28.3369 0.276367C29.6553 0.276367 30.793 0.505859 31.75 0.964844C32.707 1.42383 33.4443 2.07812 33.9619 2.92773C34.4893 3.77734 34.7529 4.78809 34.7529 5.95996C34.7529 7.09277 34.5283 8.14746 34.0791 9.12402C33.6299 10.0908 33 11.0527 32.1895 12.0098C31.3789 12.957 30.4316 13.9629 29.3477 15.0273L24.6895 19.6709V19.7734H35.6318V22Z" fill="white"/>
</svg>
