<svg width="9" height="13" viewBox="0 0 9 13" fill="none" xmlns="http://www.w3.org/2000/svg">
<path d="M0.2 12.84V0.36H1.66V2.16C1.80667 1.69333 2.01333 1.31333 2.28 1.02C2.56 0.726666 2.88 0.513333 3.24 0.379999C3.61333 0.233333 4.01333 0.16 4.44 0.16C4.94667 0.16 5.42667 0.26 5.88 0.46C6.34667 0.646666 6.75333 0.933333 7.1 1.32C7.46 1.70667 7.74 2.19333 7.94 2.78C8.15333 3.36667 8.26 4.06 8.26 4.86C8.26 5.66 8.14667 6.36667 7.92 6.98C7.70667 7.59333 7.41333 8.10667 7.04 8.52C6.68 8.92 6.26667 9.22667 5.8 9.44C5.34667 9.64 4.88 9.74 4.4 9.74C4.04 9.74 3.68667 9.68 3.34 9.56C3.00667 9.45333 2.7 9.29333 2.42 9.08C2.14 8.85333 1.89333 8.59333 1.68 8.3V12.84H0.2ZM4.16 8.46C4.48 8.46 4.79333 8.40667 5.1 8.3C5.40667 8.18 5.68667 7.98667 5.94 7.72C6.19333 7.45333 6.39333 7.09333 6.54 6.64C6.68667 6.17333 6.76 5.6 6.76 4.92C6.76 4.18667 6.66667 3.56667 6.48 3.06C6.29333 2.54 6.02 2.14 5.66 1.86C5.31333 1.58 4.88667 1.42667 4.38 1.4C4.00667 1.37333 3.65333 1.42667 3.32 1.56C3 1.69333 2.71333 1.91333 2.46 2.22C2.20667 2.52667 2.00667 2.93333 1.86 3.44C1.72667 3.93333 1.66 4.53333 1.66 5.24C1.67333 5.66667 1.72 6.05333 1.8 6.4C1.88 6.74667 1.99333 7.05333 2.14 7.32C2.28667 7.57333 2.46 7.78667 2.66 7.96C2.86 8.12 3.08667 8.24667 3.34 8.34C3.59333 8.42 3.86667 8.46 4.16 8.46Z" fill="white"/>
</svg>
