<svg width="28" height="19" viewBox="0 0 28 19" fill="none" xmlns="http://www.w3.org/2000/svg">
<path d="M13.3281 18H11.3359V9.92578H2.33594V18H0.34375V0.867188H2.33594V8.16797H11.3359V0.867188H13.3281V18ZM27.4727 4.86328C27.4727 5.62891 27.3242 6.29297 27.0273 6.85547C26.7305 7.41797 26.3164 7.87891 25.7852 8.23828C25.2539 8.58984 24.6289 8.83594 23.9102 8.97656V9.07031C25.2695 9.24219 26.2891 9.67969 26.9688 10.3828C27.6562 11.0859 28 12.0078 28 13.1484C28 14.1406 27.7656 15.0195 27.2969 15.7852C26.8359 16.5508 26.125 17.1523 25.1641 17.5898C24.2109 18.0195 22.9883 18.2344 21.4961 18.2344C20.5898 18.2344 19.75 18.1602 18.9766 18.0117C18.2109 17.8711 17.4766 17.6328 16.7734 17.2969V15.4688C17.4844 15.8203 18.2578 16.0977 19.0938 16.3008C19.9297 16.4961 20.7383 16.5938 21.5195 16.5938C23.082 16.5938 24.2109 16.2852 24.9062 15.668C25.6016 15.043 25.9492 14.1914 25.9492 13.1133C25.9492 12.3711 25.7539 11.7734 25.3633 11.3203C24.9805 10.8594 24.4258 10.5234 23.6992 10.3125C22.9805 10.0938 22.1133 9.98438 21.0977 9.98438H19.3867V8.32031H21.1094C22.0391 8.32031 22.8281 8.18359 23.4766 7.91016C24.125 7.63672 24.6172 7.25391 24.9531 6.76172C25.2969 6.26172 25.4688 5.67188 25.4688 4.99219C25.4688 4.125 25.1797 3.45703 24.6016 2.98828C24.0234 2.51172 23.2383 2.27344 22.2461 2.27344C21.6367 2.27344 21.082 2.33594 20.582 2.46094C20.082 2.58594 19.6133 2.75781 19.1758 2.97656C18.7383 3.19531 18.3008 3.44922 17.8633 3.73828L16.8789 2.40234C17.5039 1.91797 18.2656 1.5 19.1641 1.14844C20.0625 0.796875 21.082 0.621094 22.2227 0.621094C23.9727 0.621094 25.2852 1.01953 26.1602 1.81641C27.0352 2.61328 27.4727 3.62891 27.4727 4.86328Z" fill="white"/>
</svg>
