<svg width="12" height="15" viewBox="0 0 12 15" fill="none" xmlns="http://www.w3.org/2000/svg">
<path d="M6.4 11.1C5.49333 11.1 4.67333 10.8933 3.94 10.48C3.20667 10.0533 2.62 9.44667 2.18 8.66C1.75333 7.86 1.54 6.88667 1.54 5.74C1.54 4.59333 1.75333 3.62667 2.18 2.84C2.60667 2.04 3.18667 1.43333 3.92 1.02C4.65333 0.606666 5.48 0.399999 6.4 0.399999C7.4 0.399999 8.29333 0.626666 9.08 1.08C9.88 1.52 10.5067 2.14667 10.96 2.96C11.4133 3.76 11.64 4.68667 11.64 5.74C11.64 6.80667 11.4133 7.74 10.96 8.54C10.5067 9.34 9.88 9.96667 9.08 10.42C8.29333 10.8733 7.4 11.1 6.4 11.1ZM0.98 14.88V0.499999H2.34V3.66L2.2 5.76L2.4 7.88V14.88H0.98ZM6.3 9.84C7.04667 9.84 7.71333 9.67333 8.3 9.34C8.88667 8.99333 9.35333 8.51333 9.7 7.9C10.0467 7.27333 10.22 6.55333 10.22 5.74C10.22 4.92667 10.0467 4.21333 9.7 3.6C9.35333 2.98667 8.88667 2.50667 8.3 2.16C7.71333 1.81333 7.04667 1.64 6.3 1.64C5.55333 1.64 4.88 1.81333 4.28 2.16C3.69333 2.50667 3.22667 2.98667 2.88 3.6C2.54667 4.21333 2.38 4.92667 2.38 5.74C2.38 6.55333 2.54667 7.27333 2.88 7.9C3.22667 8.51333 3.69333 8.99333 4.28 9.34C4.88 9.67333 5.55333 9.84 6.3 9.84Z" fill="white"/>
</svg>
