<svg width="30" height="18" viewBox="0 0 30 18" fill="none" xmlns="http://www.w3.org/2000/svg">
<path d="M15.08 1.152V18H10.976V11.064H4.592V18H0.488V1.152H4.592V7.752H10.976V1.152H15.08ZM17.4907 14.712C18.0347 14.28 18.2827 14.08 18.2347 14.112C19.8027 12.816 21.0347 11.752 21.9307 10.92C22.8427 10.088 23.6107 9.216 24.2347 8.304C24.8587 7.392 25.1707 6.504 25.1707 5.64C25.1707 4.984 25.0187 4.472 24.7147 4.104C24.4107 3.736 23.9547 3.552 23.3467 3.552C22.7387 3.552 22.2587 3.784 21.9067 4.248C21.5707 4.696 21.4027 5.336 21.4027 6.168H17.4427C17.4747 4.808 17.7627 3.672 18.3067 2.76C18.8667 1.848 19.5947 1.176 20.4907 0.743999C21.4027 0.311999 22.4107 0.0959988 23.5147 0.0959988C25.4187 0.0959988 26.8507 0.583999 27.8107 1.56C28.7867 2.536 29.2747 3.808 29.2747 5.376C29.2747 7.088 28.6907 8.68 27.5227 10.152C26.3547 11.608 24.8667 13.032 23.0587 14.424H29.5387V17.76H17.4907V14.712Z" fill="white"/>
</svg>
