<svg width="60" height="13" viewBox="0 0 60 13" fill="none" xmlns="http://www.w3.org/2000/svg">
<path d="M5.816 6.256C6.22133 6.32 6.58933 6.48533 6.92 6.752C7.26133 7.01867 7.528 7.34933 7.72 7.744C7.92267 8.13867 8.024 8.56 8.024 9.008C8.024 9.57333 7.88 10.0853 7.592 10.544C7.304 10.992 6.88267 11.3493 6.328 11.616C5.784 11.872 5.13867 12 4.392 12H0.232V0.848H4.232C4.98933 0.848 5.63467 0.976 6.168 1.232C6.70133 1.47733 7.10133 1.81333 7.368 2.24C7.63467 2.66667 7.768 3.14667 7.768 3.68C7.768 4.34133 7.58667 4.89067 7.224 5.328C6.872 5.75467 6.40267 6.064 5.816 6.256ZM1.688 5.664H4.136C4.81867 5.664 5.34667 5.504 5.72 5.184C6.09333 4.864 6.28 4.42133 6.28 3.856C6.28 3.29067 6.09333 2.848 5.72 2.528C5.34667 2.208 4.808 2.048 4.104 2.048H1.688V5.664ZM4.264 10.8C4.98933 10.8 5.55467 10.6293 5.96 10.288C6.36533 9.94667 6.568 9.472 6.568 8.864C6.568 8.24533 6.35467 7.76 5.928 7.408C5.50133 7.04533 4.93067 6.864 4.216 6.864H1.688V10.8H4.264ZM11.4685 0.848V7.904C11.4685 8.896 11.7085 9.632 12.1885 10.112C12.6792 10.592 13.3565 10.832 14.2205 10.832C15.0738 10.832 15.7405 10.592 16.2205 10.112C16.7112 9.632 16.9565 8.896 16.9565 7.904V0.848H18.4125V7.888C18.4125 8.816 18.2258 9.6 17.8525 10.24C17.4792 10.8693 16.9725 11.3387 16.3325 11.648C15.7032 11.9573 14.9938 12.112 14.2045 12.112C13.4152 12.112 12.7005 11.9573 12.0605 11.648C11.4312 11.3387 10.9298 10.8693 10.5565 10.24C10.1938 9.6 10.0125 8.816 10.0125 7.888V0.848H11.4685ZM27.7054 0.848V2.032H24.6654V12H23.2094V2.032H20.1534V0.848H27.7054ZM36.3616 0.848V2.032H33.3216V12H31.8656V2.032H28.8096V0.848H36.3616ZM43.2099 12.112C42.1752 12.112 41.2312 11.872 40.3779 11.392C39.5245 10.9013 38.8472 10.224 38.3459 9.36C37.8552 8.48533 37.6099 7.504 37.6099 6.416C37.6099 5.328 37.8552 4.352 38.3459 3.488C38.8472 2.61333 39.5245 1.936 40.3779 1.456C41.2312 0.965333 42.1752 0.719999 43.2099 0.719999C44.2552 0.719999 45.2045 0.965333 46.0579 1.456C46.9112 1.936 47.5832 2.608 48.0739 3.472C48.5645 4.336 48.8099 5.31733 48.8099 6.416C48.8099 7.51467 48.5645 8.496 48.0739 9.36C47.5832 10.224 46.9112 10.9013 46.0579 11.392C45.2045 11.872 44.2552 12.112 43.2099 12.112ZM43.2099 10.848C43.9885 10.848 44.6872 10.6667 45.3059 10.304C45.9352 9.94133 46.4259 9.424 46.7779 8.752C47.1405 8.08 47.3219 7.30133 47.3219 6.416C47.3219 5.52 47.1405 4.74133 46.7779 4.08C46.4259 3.408 45.9405 2.89067 45.3219 2.528C44.7032 2.16533 43.9992 1.984 43.2099 1.984C42.4205 1.984 41.7165 2.16533 41.0979 2.528C40.4792 2.89067 39.9885 3.408 39.6259 4.08C39.2739 4.74133 39.0979 5.52 39.0979 6.416C39.0979 7.30133 39.2739 8.08 39.6259 8.752C39.9885 9.424 40.4792 9.94133 41.0979 10.304C41.7272 10.6667 42.4312 10.848 43.2099 10.848ZM59.5 12H58.044L52.188 3.12V12H50.732V0.832H52.188L58.044 9.696V0.832H59.5V12Z" fill="white"/>
</svg>
