<svg width="54" height="13" viewBox="0 0 54 13" fill="none" xmlns="http://www.w3.org/2000/svg">
<path d="M6.792 6.24C7.44267 6.37867 7.96533 6.704 8.36 7.216C8.75467 7.71733 8.952 8.29333 8.952 8.944C8.952 9.88267 8.62133 10.6293 7.96 11.184C7.30933 11.728 6.39733 12 5.224 12H-0.00799996V0.768H5.048C6.18933 0.768 7.08 1.02933 7.72 1.552C8.37067 2.07467 8.696 2.784 8.696 3.68C8.696 4.34133 8.52 4.89067 8.168 5.328C7.82667 5.76533 7.368 6.06933 6.792 6.24ZM2.728 5.312H4.52C4.968 5.312 5.30933 5.216 5.544 5.024C5.78933 4.82133 5.912 4.528 5.912 4.144C5.912 3.76 5.78933 3.46667 5.544 3.264C5.30933 3.06133 4.968 2.96 4.52 2.96H2.728V5.312ZM4.744 9.792C5.20267 9.792 5.55467 9.69067 5.8 9.488C6.056 9.27467 6.184 8.97067 6.184 8.576C6.184 8.18133 6.05067 7.872 5.784 7.648C5.528 7.424 5.17067 7.312 4.712 7.312H2.728V9.792H4.744ZM19.3549 3.072V12H16.6189V10.784C16.3415 11.1787 15.9629 11.4987 15.4829 11.744C15.0135 11.9787 14.4909 12.096 13.9149 12.096C13.2322 12.096 12.6295 11.9467 12.1069 11.648C11.5842 11.3387 11.1789 10.896 10.8909 10.32C10.6029 9.744 10.4589 9.06667 10.4589 8.288V3.072H13.1789V7.92C13.1789 8.51733 13.3335 8.98133 13.6429 9.312C13.9522 9.64267 14.3682 9.808 14.8909 9.808C15.4242 9.808 15.8455 9.64267 16.1549 9.312C16.4642 8.98133 16.6189 8.51733 16.6189 7.92V3.072H19.3549ZM26.2961 9.68V12H24.9041C23.9121 12 23.1388 11.76 22.5841 11.28C22.0295 10.7893 21.7521 9.99467 21.7521 8.896V5.344H20.6641V3.072H21.7521V0.896H24.4881V3.072H26.2801V5.344H24.4881V8.928C24.4881 9.19467 24.5521 9.38667 24.6801 9.504C24.8081 9.62133 25.0215 9.68 25.3201 9.68H26.2961ZM32.7961 9.68V12H31.4041C30.4121 12 29.6388 11.76 29.0841 11.28C28.5295 10.7893 28.2521 9.99467 28.2521 8.896V5.344H27.1641V3.072H28.2521V0.896H30.9881V3.072H32.7801V5.344H30.9881V8.928C30.9881 9.19467 31.0521 9.38667 31.1801 9.504C31.3081 9.62133 31.5215 9.68 31.8201 9.68H32.7961ZM38.3841 12.128C37.5095 12.128 36.7201 11.9413 36.0161 11.568C35.3228 11.1947 34.7735 10.6613 34.3681 9.968C33.9735 9.27467 33.7761 8.464 33.7761 7.536C33.7761 6.61867 33.9788 5.81333 34.3841 5.12C34.7895 4.416 35.3441 3.87733 36.0481 3.504C36.7521 3.13067 37.5415 2.944 38.4161 2.944C39.2908 2.944 40.0801 3.13067 40.7841 3.504C41.4881 3.87733 42.0428 4.416 42.4481 5.12C42.8535 5.81333 43.0561 6.61867 43.0561 7.536C43.0561 8.45333 42.8481 9.264 42.4321 9.968C42.0268 10.6613 41.4668 11.1947 40.7521 11.568C40.0481 11.9413 39.2588 12.128 38.3841 12.128ZM38.3841 9.76C38.9068 9.76 39.3495 9.568 39.7121 9.184C40.0855 8.8 40.2721 8.25067 40.2721 7.536C40.2721 6.82133 40.0908 6.272 39.7281 5.888C39.3761 5.504 38.9388 5.312 38.4161 5.312C37.8828 5.312 37.4401 5.504 37.0881 5.888C36.7361 6.26133 36.5601 6.81067 36.5601 7.536C36.5601 8.25067 36.7308 8.8 37.0721 9.184C37.4241 9.568 37.8615 9.76 38.3841 9.76ZM49.9476 2.976C50.993 2.976 51.825 3.31733 52.4436 4C53.073 4.672 53.3876 5.6 53.3876 6.784V12H50.6676V7.152C50.6676 6.55467 50.513 6.09067 50.2036 5.76C49.8943 5.42933 49.4783 5.264 48.9556 5.264C48.433 5.264 48.017 5.42933 47.7076 5.76C47.3983 6.09067 47.2436 6.55467 47.2436 7.152V12H44.5076V3.072H47.2436V4.256C47.521 3.86133 47.8943 3.552 48.3636 3.328C48.833 3.09333 49.361 2.976 49.9476 2.976Z" fill="white"/>
</svg>
