<svg width="48" height="11" viewBox="0 0 48 11" fill="none" xmlns="http://www.w3.org/2000/svg">
<path d="M0.47 10.5V0.699999H4.866C5.99533 0.699999 6.86333 0.928666 7.47 1.386C8.07667 1.834 8.38 2.45 8.38 3.234C8.38 3.766 8.25867 4.214 8.016 4.578C7.78267 4.942 7.46533 5.222 7.064 5.418C6.66267 5.614 6.22867 5.712 5.762 5.712L6.014 5.292C6.574 5.292 7.06867 5.39 7.498 5.586C7.92733 5.782 8.268 6.07133 8.52 6.454C8.772 6.82733 8.898 7.294 8.898 7.854C8.898 8.694 8.58067 9.34733 7.946 9.814C7.32067 10.2713 6.38733 10.5 5.146 10.5H0.47ZM1.87 9.366H5.09C5.86467 9.366 6.45733 9.23533 6.868 8.974C7.27867 8.71267 7.484 8.302 7.484 7.742C7.484 7.17267 7.27867 6.75733 6.868 6.496C6.45733 6.23467 5.86467 6.104 5.09 6.104H1.744V4.97H4.74C5.44933 4.97 6 4.83933 6.392 4.578C6.784 4.31667 6.98 3.92467 6.98 3.402C6.98 2.87933 6.784 2.48733 6.392 2.226C6 1.96467 5.44933 1.834 4.74 1.834H1.87V9.366ZM13.9917 10.584C13.357 10.584 12.797 10.4673 12.3117 10.234C11.8357 10.0007 11.4624 9.646 11.1917 9.17C10.9304 8.68467 10.7997 8.078 10.7997 7.35V3.08H12.1437V7.196C12.1437 7.924 12.3164 8.47 12.6617 8.834C13.0164 9.198 13.511 9.38 14.1457 9.38C14.6124 9.38 15.0184 9.28667 15.3637 9.1C15.709 8.904 15.975 8.624 16.1617 8.26C16.3484 7.88667 16.4417 7.43867 16.4417 6.916V3.08H17.7857V10.5H16.5117V8.498L16.7217 9.03C16.479 9.52467 16.115 9.90733 15.6297 10.178C15.1444 10.4487 14.5984 10.584 13.9917 10.584ZM22.8923 10.584C22.1456 10.584 21.567 10.3833 21.1563 9.982C20.7456 9.58067 20.5403 9.00667 20.5403 8.26V1.456H21.8843V8.204C21.8843 8.60533 21.9823 8.91333 22.1783 9.128C22.3836 9.34267 22.673 9.45 23.0463 9.45C23.4663 9.45 23.8163 9.33333 24.0963 9.1L24.5163 10.066C24.311 10.2433 24.0636 10.374 23.7743 10.458C23.4943 10.542 23.2003 10.584 22.8923 10.584ZM19.2803 4.186V3.08H24.0123V4.186H19.2803ZM28.5115 10.584C27.7648 10.584 27.1861 10.3833 26.7755 9.982C26.3648 9.58067 26.1595 9.00667 26.1595 8.26V1.456H27.5035V8.204C27.5035 8.60533 27.6015 8.91333 27.7975 9.128C28.0028 9.34267 28.2921 9.45 28.6655 9.45C29.0855 9.45 29.4355 9.33333 29.7155 9.1L30.1355 10.066C29.9301 10.2433 29.6828 10.374 29.3935 10.458C29.1135 10.542 28.8195 10.584 28.5115 10.584ZM24.8995 4.186V3.08H29.6315V4.186H24.8995ZM34.6922 10.584C33.9456 10.584 33.2829 10.4207 32.7042 10.094C32.1256 9.76733 31.6682 9.31933 31.3322 8.75C30.9962 8.17133 30.8282 7.518 30.8282 6.79C30.8282 6.05267 30.9962 5.39933 31.3322 4.83C31.6682 4.26067 32.1256 3.81733 32.7042 3.5C33.2829 3.17333 33.9456 3.01 34.6922 3.01C35.4296 3.01 36.0876 3.17333 36.6662 3.5C37.2542 3.81733 37.7116 4.26067 38.0382 4.83C38.3742 5.39 38.5422 6.04333 38.5422 6.79C38.5422 7.52733 38.3742 8.18067 38.0382 8.75C37.7116 9.31933 37.2542 9.76733 36.6662 10.094C36.0876 10.4207 35.4296 10.584 34.6922 10.584ZM34.6922 9.408C35.1682 9.408 35.5929 9.30067 35.9662 9.086C36.3489 8.87133 36.6476 8.568 36.8622 8.176C37.0769 7.77467 37.1842 7.31267 37.1842 6.79C37.1842 6.258 37.0769 5.80067 36.8622 5.418C36.6476 5.026 36.3489 4.72267 35.9662 4.508C35.5929 4.29333 35.1682 4.186 34.6922 4.186C34.2162 4.186 33.7916 4.29333 33.4182 4.508C33.0449 4.72267 32.7462 5.026 32.5222 5.418C32.2982 5.80067 32.1862 6.258 32.1862 6.79C32.1862 7.31267 32.2982 7.77467 32.5222 8.176C32.7462 8.568 33.0449 8.87133 33.4182 9.086C33.7916 9.30067 34.2162 9.408 34.6922 9.408ZM44.363 3.01C44.9696 3.01 45.5016 3.12667 45.959 3.36C46.4256 3.59333 46.7896 3.948 47.051 4.424C47.3123 4.9 47.443 5.502 47.443 6.23V10.5H46.099V6.384C46.099 5.66533 45.9216 5.124 45.567 4.76C45.2216 4.396 44.7316 4.214 44.097 4.214C43.621 4.214 43.2056 4.30733 42.851 4.494C42.4963 4.68067 42.221 4.956 42.025 5.32C41.8383 5.684 41.745 6.13667 41.745 6.678V10.5H40.401V3.08H41.689V5.082L41.479 4.55C41.7216 4.06467 42.095 3.68667 42.599 3.416C43.103 3.14533 43.691 3.01 44.363 3.01Z" fill="white"/>
</svg>
