<svg width="26" height="15" viewBox="0 0 26 15" fill="none" xmlns="http://www.w3.org/2000/svg">
<path d="M12.7793 15H8.90234V9.17969H4.41992V15H0.542969V0.722656H4.41992V6.01562H8.90234V0.722656H12.7793V15ZM25.2891 15H14.9277V12.4609L18.4141 8.93555C19.1367 8.18034 19.6966 7.57487 20.0938 7.11914C20.4974 6.66341 20.7806 6.27604 20.9434 5.95703C21.1061 5.63802 21.1875 5.30599 21.1875 4.96094C21.1875 4.53776 21.0508 4.23177 20.7773 4.04297C20.5039 3.85417 20.1816 3.75977 19.8105 3.75977C19.3613 3.75977 18.9056 3.88997 18.4434 4.15039C17.9876 4.4043 17.4701 4.7819 16.8906 5.2832L14.7715 2.80273C15.2012 2.41862 15.6569 2.05404 16.1387 1.70898C16.6204 1.35742 17.1901 1.07096 17.8477 0.849609C18.5052 0.628255 19.306 0.517578 20.25 0.517578C21.2201 0.517578 22.0599 0.686849 22.7695 1.02539C23.4857 1.36393 24.0391 1.82943 24.4297 2.42188C24.8203 3.00781 25.0156 3.67513 25.0156 4.42383C25.0156 5.25065 24.8626 5.98958 24.5566 6.64062C24.2572 7.28516 23.8047 7.93294 23.1992 8.58398C22.5938 9.22852 21.8385 9.96094 20.9336 10.7812L19.8887 11.7188V11.8164H25.2891V15Z" fill="white"/>
</svg>
