<svg width="37" height="24" viewBox="0 0 37 24" fill="none" xmlns="http://www.w3.org/2000/svg">
<path d="M17.168 1.632V24H14.928V13.536H2.8V24H0.56V1.632H2.8V11.68H14.928V1.632H17.168ZM21.3508 22.24C25.2761 19.296 28.3054 16.6613 30.4388 14.336C32.5934 11.9893 33.6708 9.696 33.6708 7.456C33.6708 5.984 33.2974 4.81067 32.5508 3.936C31.8254 3.04 30.6308 2.592 28.9668 2.592C27.3454 2.592 26.0868 3.104 25.1908 4.128C24.3161 5.13067 23.8254 6.47467 23.7188 8.16H21.5428C21.6708 5.792 22.3961 3.95733 23.7188 2.656C25.0628 1.33333 26.8121 0.671999 28.9668 0.671999C31.0361 0.671999 32.7108 1.25867 33.9908 2.432C35.2708 3.584 35.9108 5.22667 35.9108 7.36C35.9108 9.94133 34.8334 12.448 32.6788 14.88C30.5454 17.2907 27.9108 19.648 24.7748 21.952H36.6147V23.84H21.3508V22.24Z" fill="white"/>
</svg>
