<svg width="65" height="65" viewBox="0 0 65 65" fill="none" xmlns="http://www.w3.org/2000/svg">
<g clip-path="url(#clip0_1324_5084)">
<path fill-rule="evenodd" clip-rule="evenodd" d="M32.5 0C50.1736 0 64.5 14.9173 64.5 33.322C64.5 48.0413 55.3416 60.5279 42.6344 64.9381C41.012 65.2664 40.436 64.2258 40.436 63.3385C40.436 62.24 40.4744 58.6521 40.4744 54.1931C40.4744 51.0861 39.4504 49.0583 38.3016 48.0248C45.428 47.1993 52.916 44.3813 52.916 31.5828C52.916 27.9428 51.6744 24.9724 49.62 22.6389C49.9528 21.7972 51.0504 18.4078 49.3064 13.8188C49.3064 13.8188 46.6248 12.926 40.516 17.2355C37.9592 16.4977 35.22 16.1265 32.5 16.1135C29.78 16.1265 27.044 16.4977 24.4904 17.2355C18.3752 12.926 15.6872 13.8188 15.6872 13.8188C13.9496 18.4078 15.0472 21.7972 15.3768 22.6389C13.332 24.9724 12.0808 27.9428 12.0808 31.5828C12.0808 44.3488 19.5528 47.21 26.66 48.0518C25.7448 48.8838 24.916 50.3515 24.628 52.5062C22.804 53.3577 18.1704 54.8314 15.316 49.7386C15.316 49.7386 13.6232 46.537 10.4104 46.303C10.4104 46.303 7.2904 46.2609 10.1928 48.3279C10.1928 48.3279 12.2888 49.3516 13.7448 53.2029C13.7448 53.2029 15.6232 59.1503 24.5256 57.1353C24.5416 59.9205 24.5704 62.5455 24.5704 63.3385C24.5704 64.2193 23.9816 65.25 22.3848 64.9413C9.66799 60.5375 0.5 48.0445 0.5 33.322C0.5 14.9173 14.8296 0 32.5 0Z" fill="white"/>
</g>
<defs>
<clipPath id="clip0_1324_5084">
<rect width="64" height="65" fill="white" transform="translate(0.5)"/>
</clipPath>
</defs>
</svg>
