<svg width="437" height="247" viewBox="0 0 437 247" fill="none" xmlns="http://www.w3.org/2000/svg">
<rect width="437" height="247" rx="8" fill="white"/>
<path d="M64.7598 67.441L76.5202 57.6406" stroke="#252328" stroke-width="2" stroke-miterlimit="10" stroke-linecap="round" stroke-linejoin="round"/>
<path d="M64.7598 75.2813L76.5202 65.481" stroke="#252328" stroke-width="2" stroke-miterlimit="10" stroke-linecap="round" stroke-linejoin="round"/>
<path d="M64.7598 83.1215L76.5202 73.3212" stroke="#252328" stroke-width="2" stroke-miterlimit="10" stroke-linecap="round" stroke-linejoin="round"/>
<path d="M74.5608 40V45.8802H66.7205V40H53C53 44.9002 55.1561 49.6043 59.0762 52.9365L64.7604 57.6406V83.1215L70.6406 90.9618L76.5208 83.1215V57.6406L82.205 52.9365C86.1252 49.6043 88.2812 44.9002 88.2812 40H74.5608Z" stroke="#252328" stroke-width="2" stroke-miterlimit="10" stroke-linecap="round" stroke-linejoin="round"/>
<path d="M212.76 67.441L224.52 57.6406" stroke="#252328" stroke-width="2" stroke-miterlimit="10" stroke-linecap="round" stroke-linejoin="round"/>
<path d="M212.76 75.2813L224.52 65.481" stroke="#252328" stroke-width="2" stroke-miterlimit="10" stroke-linecap="round" stroke-linejoin="round"/>
<path d="M212.76 83.1216L224.52 73.3213" stroke="#252328" stroke-width="2" stroke-miterlimit="10" stroke-linecap="round" stroke-linejoin="round"/>
<path d="M212.76 90.8003L224.52 81" stroke="#252328" stroke-width="2" stroke-miterlimit="10" stroke-linecap="round" stroke-linejoin="round"/>
<path d="M222.561 40V45.8802H214.72V40H201C201 44.9002 203.156 49.6043 207.076 52.9365L212.76 57.6406V93.1215L218.641 100.962L224.521 93.1215V57.6406L230.205 52.9365C234.125 49.6043 236.281 44.9002 236.281 40H222.561Z" stroke="#252328" stroke-width="2" stroke-miterlimit="10" stroke-linecap="round" stroke-linejoin="round"/>
<path d="M384.453 44.6097L375.478 39.2244C375.208 38.9552 374.76 39.0449 374.49 39.2244C374.221 39.404 374.041 39.763 374.131 40.122C374.76 42.9941 374.131 46.2253 372.336 49.3667L366.811 58.9073L361.206 49.2769C359.591 46.4047 359.052 43.0839 359.77 40.0322C359.86 39.6732 359.681 39.3142 359.411 39.1347C359.142 38.9551 358.693 38.9551 358.424 39.1347L349.449 44.5201C349.09 44.6996 349 45.0586 349 45.4176C349.09 45.7766 349.269 46.1356 349.628 46.2254C352.5 47.0332 354.834 49.0078 356.539 52.0595L363.648 64.3696L354.924 79.4346C352.859 83.0248 351.334 86.8842 350.436 90.9232C350.346 91.2822 350.526 91.731 350.885 91.9105C351.064 92.0003 351.154 92.0003 351.334 92.0003C351.603 92.0003 351.782 91.9105 352.052 91.7311C355.013 88.9487 357.616 85.7176 359.681 82.1274L366.822 69.7316L373.952 82.1274C376.016 85.7176 378.619 88.9488 381.581 91.7311C381.76 91.9106 382.03 92.0003 382.209 92.0003C382.389 92.0003 382.568 92.0003 382.658 91.9105C383.017 91.731 383.196 91.2822 383.107 90.9232C382.209 86.8842 380.683 83.0248 378.619 79.4346L369.911 64.37L377.003 52.0595C378.619 49.277 381.311 47.1229 384.273 46.2254C384.632 46.1356 384.902 45.8664 384.902 45.5074C384.902 45.1483 384.722 44.7893 384.453 44.6097ZM358.155 51.1618C356.539 48.3794 354.475 46.4048 351.962 45.1483L357.706 41.7376C357.437 44.6098 358.155 47.5717 359.77 50.2644L365.804 60.6461L364.746 62.4736L358.155 51.1618ZM377.003 80.3321C378.439 82.8452 379.516 85.3584 380.414 88.0509C378.529 85.9866 376.914 83.6529 375.478 81.2295L367.85 67.9479L368.86 66.1935L377.003 80.3321ZM375.478 51.1618L358.065 81.2296C356.719 83.7427 355.014 85.9866 353.129 88.051C354.026 85.3584 355.103 82.7555 356.539 80.3322L373.952 50.2644C375.567 47.3923 376.375 44.4303 376.196 41.648L381.94 45.1484C379.247 46.4048 377.003 48.4693 375.478 51.1618Z" fill="#252328"/>
<rect width="81" height="81" transform="translate(30 141)" fill="white"/>
<path d="M85.6776 177.93C84.7701 177.93 84.0276 177.304 84.0276 176.538C84.0276 175.772 84.7701 175.145 85.6776 175.145C86.4201 175.145 87.0801 174.866 87.4101 174.379C87.9051 173.682 87.8226 172.568 87.1626 171.384C84.9351 167.763 73.6324 155.786 70.0849 155.786C69.4249 155.786 65.7948 156.552 54.3272 171.175L53.9972 171.593C52.9247 172.986 53.4197 174.031 53.6672 174.448C53.9972 175.006 54.4922 175.214 54.5747 175.214C55.4822 175.214 56.2247 175.841 56.2247 176.607C56.2247 177.373 55.4822 178 54.5747 178C53.0897 178 51.6046 177.164 50.6971 175.772C49.6246 174.031 49.7896 171.872 51.1921 170.061L51.5221 169.643C63.1548 154.88 67.5273 153 70.0849 153C76.355 153 88.4826 167.485 90.0501 170.201C91.2876 172.29 91.2876 174.379 90.2151 175.911C89.3076 177.164 87.5751 177.93 85.6776 177.93Z" stroke="black" stroke-width="2"/>
<path d="M80.3194 175.14H60.1368L60 212.942H80.5246L80.3194 175.14ZM70.6044 206.785C68.1414 206.785 66.1574 204.801 66.1574 202.338C66.1574 199.875 68.1414 197.891 70.6044 197.891C73.0674 197.891 75.0514 199.875 75.0514 202.338C75.0514 204.801 73.0674 206.785 70.6044 206.785ZM70.6044 191.733C68.2099 191.733 66.1574 189.749 66.1574 187.286C66.1574 184.823 68.1414 182.839 70.6044 182.839C73.0674 182.839 75.0514 184.823 75.0514 187.286C75.0514 189.749 73.0674 191.733 70.6044 191.733Z" stroke="black" stroke-width="2" stroke-linejoin="round"/>
<path d="M243.942 195.011C238.966 194.952 233.879 193.367 229.201 190.427C233.178 188.57 236.098 185.533 237.454 181.827C238.627 178.613 238.123 175.199 236.034 172.211C233.431 168.486 228.74 165.984 224.358 165.984C222.282 165.984 220.358 166.553 218.777 167.63C216.382 165.653 213.394 164.746 210.246 165.061C205.083 165.576 201.836 170.706 201.402 175.272C200.773 181.902 207.125 186.53 209.086 187.791C209.713 188.191 210.344 188.571 210.972 188.92C210.607 189.087 210.233 189.245 209.854 189.4C207.754 190.262 205.517 190.967 203.354 191.647C199.292 192.927 195.092 194.25 191.491 196.689C191.076 196.971 190.906 197.437 191.051 197.91C191.207 198.419 191.663 198.772 192.158 198.772C192.379 198.772 192.593 198.703 192.792 198.568C196.164 196.283 200.413 194.981 204.522 193.722C207.669 192.758 210.922 191.76 213.813 190.32C217.87 192.057 221.748 192.551 225.227 191.774C225.648 191.679 226.069 191.569 226.482 191.448C231.781 195.143 238.021 197.216 244.073 197.288H244.088C244.693 197.288 245.118 196.86 245.122 196.247C245.126 195.65 244.685 195.021 243.942 195.011ZM213.413 187.715C211.045 186.54 208.815 184.959 206.956 183.144C204.399 180.645 203.294 177.489 203.839 174.255C204.434 170.732 207.157 167.888 210.458 167.338C210.868 167.269 211.286 167.236 211.697 167.236C213.55 167.236 215.386 167.906 217.027 169.18C216.625 169.633 216.253 170.137 215.922 170.68C213.76 174.214 214.662 178.633 218.602 183.822C217.315 185.222 215.57 186.531 213.413 187.715ZM220.077 185.632C220.614 186.249 221.194 186.876 221.802 187.497C222.545 188.258 223.339 188.993 224.169 189.686C221.743 190.117 219.057 189.849 216.287 188.914C217.77 187.944 219.015 186.864 220.077 185.632ZM218.683 170.765C220.154 172.489 221.097 174.627 221.278 176.673C221.443 178.516 221.024 180.283 220.034 181.932C218.065 179.104 215.598 174.253 218.683 170.765ZM223.316 185.786C222.676 185.167 222.048 184.492 221.455 183.784L221.461 183.77C224.281 179.356 223.853 173.457 220.448 169.309C221.675 168.564 223.052 168.186 224.543 168.186C228.766 168.186 233.448 171.361 235.207 175.414C236.078 177.42 236.091 179.46 235.251 181.477C233.749 185.077 230.002 187.644 226.939 188.872C225.682 187.937 224.464 186.898 223.316 185.786Z" fill="black"/>
<path d="M342.782 196.525L336.947 202.36L343.814 209.226L349.649 203.391M342.782 196.525L348.544 195.193M342.782 196.525L349.649 203.391M348.544 195.193L380.349 163.388M348.544 195.193L355.521 202.171M380.349 163.388L382.024 157.283M380.349 163.388L387.327 170.365M382.024 157.283L387.859 151.448L394.726 158.315L388.891 164.149M382.024 157.283L388.891 164.149M388.891 164.149L387.327 170.365M387.327 170.365L382.916 171.675L381.606 176.085L377.653 176.937L376.572 181.119L372.162 182.429L371.538 186.153L367.356 187.234L366.504 191.187L362.322 192.268L361.127 196.565L357.174 197.417L355.521 202.171M355.521 202.171L349.649 203.391" stroke="black" stroke-width="2"/>
<circle cx="343.311" cy="203.067" r="1" transform="rotate(-45 343.311 203.067)" stroke="black" stroke-width="2"/>
<circle cx="388.567" cy="157.812" r="1" transform="rotate(-45 388.567 157.812)" stroke="black" stroke-width="2"/>
</svg>
