<svg width="65" height="64" viewBox="0 0 65 64" fill="none" xmlns="http://www.w3.org/2000/svg">
<path d="M4.5 24.2666C4.5 17.1727 4.5 13.6257 5.88058 10.9161C7.09498 8.53274 9.03274 6.59498 11.4161 5.38058C14.1257 4 17.6727 4 24.7666 4H40.2334C47.3274 4 50.8744 4 53.5838 5.38058C55.9672 6.59498 57.905 8.53274 59.1194 10.9161C60.5 13.6257 60.5 17.1727 60.5 24.2666V39.7334C60.5 46.8274 60.5 50.3744 59.1194 53.0838C57.905 55.4672 55.9672 57.405 53.5838 58.6194C50.8744 60 47.3274 60 40.2334 60H24.7666C17.6727 60 14.1257 60 11.4161 58.6194C9.03274 57.405 7.09498 55.4672 5.88058 53.0838C4.5 50.3744 4.5 46.8274 4.5 39.7334V24.2666Z" fill="#330000"/>
<path d="M31.6372 39.1926H22.9594L21.1938 44.818C21.1448 45.027 20.9524 45.175 20.743 45.1646H16.3477C16.097 45.1646 16.0094 45.0234 16.0847 44.7408L23.598 22.5476C23.6732 22.3164 23.7484 22.0532 23.8234 21.7578C23.9218 21.2436 23.972 20.7212 23.9738 20.1974C23.9522 20.0426 24.0882 19.9059 24.2366 19.9276H30.2098C30.3848 19.9276 30.4848 19.9918 30.5102 20.1202L39.038 44.7794C39.113 45.0364 39.038 45.1648 38.8126 45.1646H33.9288C33.7576 45.1842 33.594 45.0668 33.5532 44.895L31.6372 39.1926ZM24.3118 34.3378H30.2474C29.2722 31.0054 28.1716 27.7168 27.2796 24.3586C26.3172 27.7226 25.2672 31.073 24.3118 34.3378Z" fill="#FF9A00"/>
<path d="M44.109 24.0116C43.7258 24.0274 43.3438 23.96 42.9876 23.814C42.6316 23.668 42.3096 23.4464 42.0428 23.164C41.7768 22.8692 41.57 22.5236 41.4346 22.1466C41.2992 21.7698 41.2378 21.3692 41.2538 20.9678C41.2402 20.5704 41.3084 20.1746 41.454 19.8061C41.5998 19.4376 41.8196 19.1048 42.0992 18.8294C42.376 18.5568 42.7028 18.3432 43.0608 18.201C43.4186 18.0588 43.8004 17.9909 44.184 18.001C45.0858 18.001 45.7932 18.2771 46.3066 18.8294C46.5658 19.1164 46.7672 19.453 46.8994 19.8199C47.0314 20.1868 47.0918 20.577 47.0766 20.9678C47.0924 21.3706 47.029 21.7728 46.8902 22.15C46.7516 22.5272 46.5402 22.872 46.269 23.164C45.9856 23.4506 45.6472 23.6738 45.2756 23.8198C44.9038 23.9656 44.5066 24.031 44.109 24.0116ZM41.5168 44.7792V26.362C41.5168 26.1308 41.6166 26.0152 41.8174 26.0152H46.4382C46.6382 26.0152 46.7384 26.1308 46.7386 26.362V44.7792C46.7386 45.0364 46.6384 45.1648 46.4382 45.1646H41.855C41.6296 45.1646 41.5168 45.0362 41.5168 44.7792Z" fill="#FF9A00"/>
</svg>
