<svg width="65" height="64" viewBox="0 0 65 64" fill="none" xmlns="http://www.w3.org/2000/svg">
<path d="M52 3H13C7.20101 3 2.5 7.70101 2.5 13.5V50.5C2.5 56.299 7.20101 61 13 61H52C57.799 61 62.5 56.299 62.5 50.5V13.5C62.5 7.70101 57.799 3 52 3Z" fill="#49021F"/>
<path d="M24.5 19.5V45.625C24.5 45.875 24.3875 46 24.165 46H19.835C19.61 46 19.5 45.875 19.5 45.625V19.5C19.4933 19.4545 19.4973 19.408 19.5117 19.3642C19.5262 19.3205 19.5507 19.2808 19.5832 19.2482C19.6158 19.2157 19.6555 19.1912 19.6992 19.1767C19.743 19.1623 19.7895 19.1583 19.835 19.165H24.2075C24.4025 19.165 24.5 19.2775 24.5 19.5ZM37.46 46.5C34.5575 46.5 32.325 45.6775 30.59 44.035C28.855 42.3925 27.985 39.965 27.985 36.75C27.985 33.8283 28.9175 31.4283 30.7825 29.55C31.7375 28.5631 32.8852 27.783 34.1543 27.2584C35.4234 26.7337 36.7869 26.4755 38.16 26.5C38.7741 26.4891 39.3871 26.5546 39.985 26.695V18.235C39.9805 18.2033 39.9834 18.171 39.9934 18.1406C40.0035 18.1102 40.0204 18.0825 40.0429 18.0598C40.0654 18.037 40.0929 18.0198 40.1232 18.0094C40.1535 17.9991 40.1858 17.9958 40.2175 18H44.79C44.92 18 44.985 18.0775 44.985 18.235V41.9225C44.985 42.9225 45.4175 43.775 45.485 44.505C45.4988 44.5773 45.4868 44.6521 45.4512 44.7165C45.4156 44.7809 45.3586 44.8308 45.29 44.8575C43.045 45.9525 40.1025 46.5 37.46 46.5ZM39.985 42.6275V30.535C39.8225 30.25 38.9625 30 38.0825 30C37.3538 29.9813 36.6301 30.1253 35.9641 30.4215C35.2981 30.7178 34.7066 31.1588 34.2325 31.7125C33.0795 33.063 32.4574 34.7869 32.4825 36.5625C32.4825 38.7525 33.2325 40.2525 34.2125 41.295C34.6752 41.826 35.2454 42.2526 35.8855 42.5466C36.5255 42.8405 37.2207 42.9951 37.925 43C38.86 43 39.7725 42.86 39.985 42.6275Z" fill="#FF3366"/>
</svg>
