<svg width="65" height="64" viewBox="0 0 65 64" fill="none" xmlns="http://www.w3.org/2000/svg">
<g clip-path="url(#clip0_1324_5051)">
<path d="M61.6644 0H30.9266C30.9266 3.68003 32.3885 7.20933 34.9907 9.8115C37.5929 12.4137 41.1222 13.8756 44.8022 13.8756H50.4644V19.3422C50.4693 26.9985 56.6748 33.204 64.3311 33.2089V2.66667C64.3311 1.19391 63.1372 0 61.6644 0Z" fill="#2684FF"/>
<path d="M46.4556 15.3156H15.7178C15.7227 22.9719 21.9281 29.1773 29.5844 29.1822H35.2467V34.6667C35.2565 42.323 41.4659 48.5244 49.1222 48.5244V17.9822C49.1222 16.5095 47.9283 15.3156 46.4556 15.3156Z" fill="url(#paint0_linear_1324_5051)"/>
<path d="M31.2378 30.6222H0.5C0.5 38.2854 6.7123 44.4977 14.3756 44.4977H20.0556V49.9644C20.0604 57.6138 26.2551 63.8164 33.9044 63.8311V33.2889C33.9044 31.8161 32.7105 30.6222 31.2378 30.6222Z" fill="url(#paint1_linear_1324_5051)"/>
</g>
<defs>
<linearGradient id="paint0_linear_1324_5051" x1="3290.38" y1="20.649" x2="1990.79" y2="1376.72" gradientUnits="userSpaceOnUse">
<stop offset="0.18" stop-color="#0052CC"/>
<stop offset="1" stop-color="#2684FF"/>
</linearGradient>
<linearGradient id="paint1_linear_1324_5051" x1="3363.17" y1="45.7331" x2="1859.85" y2="1524.78" gradientUnits="userSpaceOnUse">
<stop offset="0.18" stop-color="#0052CC"/>
<stop offset="1" stop-color="#2684FF"/>
</linearGradient>
<clipPath id="clip0_1324_5051">
<rect width="64" height="64" fill="white" transform="translate(0.5)"/>
</clipPath>
</defs>
</svg>
