<svg width="130" height="41" viewBox="0 0 130 41" fill="none" xmlns="http://www.w3.org/2000/svg">
<rect width="130" height="41" rx="4" fill="#165A4A"/>
<path d="M41.0811 16.0059H44.5674C46.012 16.0059 47.042 16.2201 47.6572 16.6484C48.2725 17.0768 48.5801 17.6921 48.5801 18.4941C48.5801 18.9316 48.5003 19.3031 48.3408 19.6084C48.1859 19.9137 47.9876 20.1553 47.7461 20.333C47.5091 20.5107 47.2653 20.6315 47.0146 20.6953V20.7637C47.2881 20.832 47.5592 20.946 47.8281 21.1055C48.1016 21.2604 48.3271 21.4951 48.5049 21.8096C48.6872 22.1195 48.7783 22.541 48.7783 23.0742C48.7783 23.6803 48.6234 24.2021 48.3135 24.6396C48.0081 25.0771 47.5706 25.4144 47.001 25.6514C46.4313 25.8838 45.7546 26 44.9707 26H41.0811V16.0059ZM43.7812 19.8408H44.5947C45.0413 19.8408 45.3558 19.7497 45.5381 19.5674C45.7204 19.3805 45.8115 19.1549 45.8115 18.8906C45.8115 18.6172 45.7067 18.4098 45.4971 18.2686C45.292 18.1227 44.973 18.0498 44.54 18.0498H43.7812V19.8408ZM43.7812 21.8164V23.915H44.7314C45.2008 23.915 45.529 23.8148 45.7158 23.6143C45.9027 23.4092 45.9961 23.154 45.9961 22.8486C45.9961 22.6709 45.9551 22.5046 45.873 22.3496C45.7956 22.1901 45.6611 22.0625 45.4697 21.9668C45.2783 21.8665 45.014 21.8164 44.6768 21.8164H43.7812ZM57.8906 18.2549V26H55.874L55.5391 25.0361H55.3818C55.2223 25.2959 55.0195 25.5078 54.7734 25.6719C54.5319 25.8314 54.263 25.9476 53.9668 26.0205C53.6706 26.098 53.363 26.1367 53.0439 26.1367C52.5381 26.1367 52.0801 26.0387 51.6699 25.8428C51.2643 25.6468 50.9408 25.3392 50.6992 24.9199C50.4622 24.5007 50.3438 23.9606 50.3438 23.2998V18.2549H53.0166V22.4863C53.0166 22.9876 53.0872 23.3704 53.2285 23.6348C53.3743 23.8945 53.6113 24.0244 53.9395 24.0244C54.2767 24.0244 54.5365 23.9333 54.7188 23.751C54.9056 23.5687 55.0355 23.2998 55.1084 22.9443C55.1813 22.5889 55.2178 22.1559 55.2178 21.6455V18.2549H57.8906ZM63.5303 24.0244C63.7718 24.0244 63.9928 23.9993 64.1934 23.9492C64.3939 23.8991 64.6035 23.8353 64.8223 23.7578V25.7061C64.5306 25.8337 64.2207 25.9362 63.8926 26.0137C63.569 26.0957 63.1543 26.1367 62.6484 26.1367C62.1471 26.1367 61.7051 26.0592 61.3223 25.9043C60.9395 25.7448 60.641 25.4714 60.4268 25.084C60.2171 24.6921 60.1123 24.1475 60.1123 23.4502V20.2578H59.1758V19.1709L60.3652 18.3301L61.0557 16.7031H62.8057V18.2549H64.7061V20.2578H62.8057V23.2725C62.8057 23.5231 62.8695 23.7122 62.9971 23.8398C63.1247 23.9629 63.3024 24.0244 63.5303 24.0244ZM69.9697 24.0244C70.2113 24.0244 70.4323 23.9993 70.6328 23.9492C70.8333 23.8991 71.043 23.8353 71.2617 23.7578V25.7061C70.9701 25.8337 70.6602 25.9362 70.332 26.0137C70.0085 26.0957 69.5938 26.1367 69.0879 26.1367C68.5866 26.1367 68.1445 26.0592 67.7617 25.9043C67.3789 25.7448 67.0804 25.4714 66.8662 25.084C66.6566 24.6921 66.5518 24.1475 66.5518 23.4502V20.2578H65.6152V19.1709L66.8047 18.3301L67.4951 16.7031H69.2451V18.2549H71.1455V20.2578H69.2451V23.2725C69.2451 23.5231 69.3089 23.7122 69.4365 23.8398C69.5641 23.9629 69.7419 24.0244 69.9697 24.0244ZM80.0117 22.1104C80.0117 22.7575 79.9229 23.3317 79.7451 23.833C79.5674 24.3343 79.3099 24.7559 78.9727 25.0977C78.6354 25.4395 78.2275 25.6992 77.749 25.877C77.2705 26.0501 76.7305 26.1367 76.1289 26.1367C75.5684 26.1367 75.0534 26.0501 74.584 25.877C74.1191 25.6992 73.7135 25.4395 73.3672 25.0977C73.0208 24.7559 72.752 24.3343 72.5605 23.833C72.3737 23.3317 72.2803 22.7575 72.2803 22.1104C72.2803 21.2536 72.4352 20.529 72.7451 19.9365C73.0596 19.3441 73.5062 18.8929 74.085 18.583C74.6683 18.2731 75.3633 18.1182 76.1699 18.1182C76.9128 18.1182 77.5736 18.2731 78.1523 18.583C78.7311 18.8929 79.1846 19.3441 79.5127 19.9365C79.8454 20.529 80.0117 21.2536 80.0117 22.1104ZM74.9941 22.1104C74.9941 22.5524 75.0329 22.9261 75.1104 23.2314C75.1878 23.5322 75.3109 23.7624 75.4795 23.9219C75.6527 24.0768 75.8783 24.1543 76.1562 24.1543C76.4342 24.1543 76.6553 24.0768 76.8193 23.9219C76.9834 23.7624 77.1019 23.5322 77.1748 23.2314C77.2523 22.9261 77.291 22.5524 77.291 22.1104C77.291 21.6683 77.2523 21.2992 77.1748 21.0029C77.1019 20.7067 76.9811 20.4834 76.8125 20.333C76.6484 20.1826 76.4251 20.1074 76.1426 20.1074C75.737 20.1074 75.443 20.276 75.2607 20.6133C75.083 20.9505 74.9941 21.4495 74.9941 22.1104ZM86.3896 18.1182C87.1872 18.1182 87.8389 18.3438 88.3447 18.7949C88.8506 19.2461 89.1035 19.9684 89.1035 20.9619V26H86.4307V21.7754C86.4307 21.2604 86.3555 20.873 86.2051 20.6133C86.0592 20.349 85.8223 20.2168 85.4941 20.2168C84.9883 20.2168 84.6488 20.4242 84.4756 20.8389C84.3024 21.249 84.2158 21.8392 84.2158 22.6094V26H81.543V18.2549H83.5596L83.9219 19.2803H84.0244C84.1885 19.0342 84.3844 18.8245 84.6123 18.6514C84.8402 18.4782 85.1022 18.346 85.3984 18.2549C85.6947 18.1637 86.0251 18.1182 86.3896 18.1182Z" fill="white"/>
</svg>
