<svg width="147" height="48" viewBox="0 0 147 48" fill="none" xmlns="http://www.w3.org/2000/svg">
<rect width="147" height="48" rx="5" transform="matrix(1 0 0 -1 0 48)" fill="#3F4754"/>
<path d="M53.1436 23.24C53.7942 23.3787 54.3169 23.704 54.7116 24.216C55.1062 24.7173 55.3036 25.2933 55.3036 25.944C55.3036 26.8827 54.9729 27.6293 54.3116 28.184C53.6609 28.728 52.7489 29 51.5756 29H46.3436V17.768H51.3996C52.5409 17.768 53.4316 18.0293 54.0716 18.552C54.7222 19.0747 55.0476 19.784 55.0476 20.68C55.0476 21.3413 54.8716 21.8907 54.5196 22.328C54.1782 22.7653 53.7196 23.0693 53.1436 23.24ZM49.0796 22.312H50.8716C51.3196 22.312 51.6609 22.216 51.8956 22.024C52.1409 21.8213 52.2636 21.528 52.2636 21.144C52.2636 20.76 52.1409 20.4667 51.8956 20.264C51.6609 20.0613 51.3196 19.96 50.8716 19.96H49.0796V22.312ZM51.0956 26.792C51.5542 26.792 51.9062 26.6907 52.1516 26.488C52.4076 26.2747 52.5356 25.9707 52.5356 25.576C52.5356 25.1813 52.4022 24.872 52.1356 24.648C51.8796 24.424 51.5222 24.312 51.0636 24.312H49.0796V26.792H51.0956ZM65.7064 20.072V29H62.9704V27.784C62.6931 28.1787 62.3144 28.4987 61.8344 28.744C61.3651 28.9787 60.8424 29.096 60.2664 29.096C59.5838 29.096 58.9811 28.9467 58.4584 28.648C57.9358 28.3387 57.5304 27.896 57.2424 27.32C56.9544 26.744 56.8104 26.0667 56.8104 25.288V20.072H59.5304V24.92C59.5304 25.5173 59.6851 25.9813 59.9944 26.312C60.3038 26.6427 60.7198 26.808 61.2424 26.808C61.7758 26.808 62.1971 26.6427 62.5064 26.312C62.8158 25.9813 62.9704 25.5173 62.9704 24.92V20.072H65.7064ZM72.6477 26.68V29H71.2557C70.2637 29 69.4904 28.76 68.9357 28.28C68.381 27.7893 68.1037 26.9947 68.1037 25.896V22.344H67.0157V20.072H68.1037V17.896H70.8397V20.072H72.6317V22.344H70.8397V25.928C70.8397 26.1947 70.9037 26.3867 71.0317 26.504C71.1597 26.6213 71.373 26.68 71.6717 26.68H72.6477ZM79.1477 26.68V29H77.7557C76.7637 29 75.9904 28.76 75.4357 28.28C74.881 27.7893 74.6037 26.9947 74.6037 25.896V22.344H73.5157V20.072H74.6037V17.896H77.3397V20.072H79.1317V22.344H77.3397V25.928C77.3397 26.1947 77.4037 26.3867 77.5317 26.504C77.6597 26.6213 77.873 26.68 78.1717 26.68H79.1477ZM84.7357 29.128C83.861 29.128 83.0717 28.9413 82.3677 28.568C81.6744 28.1947 81.125 27.6613 80.7197 26.968C80.325 26.2747 80.1277 25.464 80.1277 24.536C80.1277 23.6187 80.3304 22.8133 80.7357 22.12C81.141 21.416 81.6957 20.8773 82.3997 20.504C83.1037 20.1307 83.893 19.944 84.7677 19.944C85.6424 19.944 86.4317 20.1307 87.1357 20.504C87.8397 20.8773 88.3944 21.416 88.7997 22.12C89.205 22.8133 89.4077 23.6187 89.4077 24.536C89.4077 25.4533 89.1997 26.264 88.7837 26.968C88.3784 27.6613 87.8184 28.1947 87.1037 28.568C86.3997 28.9413 85.6104 29.128 84.7357 29.128ZM84.7357 26.76C85.2584 26.76 85.701 26.568 86.0637 26.184C86.437 25.8 86.6237 25.2507 86.6237 24.536C86.6237 23.8213 86.4424 23.272 86.0797 22.888C85.7277 22.504 85.2904 22.312 84.7677 22.312C84.2344 22.312 83.7917 22.504 83.4397 22.888C83.0877 23.2613 82.9117 23.8107 82.9117 24.536C82.9117 25.2507 83.0824 25.8 83.4237 26.184C83.7757 26.568 84.213 26.76 84.7357 26.76ZM96.2992 19.976C97.3445 19.976 98.1765 20.3173 98.7952 21C99.4245 21.672 99.7392 22.6 99.7392 23.784V29H97.0192V24.152C97.0192 23.5547 96.8645 23.0907 96.5552 22.76C96.2459 22.4293 95.8299 22.264 95.3072 22.264C94.7845 22.264 94.3685 22.4293 94.0592 22.76C93.7499 23.0907 93.5952 23.5547 93.5952 24.152V29H90.8592V20.072H93.5952V21.256C93.8725 20.8613 94.2459 20.552 94.7152 20.328C95.1845 20.0933 95.7125 19.976 96.2992 19.976Z" fill="white"/>
</svg>
