<svg width="147" height="48" viewBox="0 0 147 48" fill="none" xmlns="http://www.w3.org/2000/svg">
<rect width="147" height="48" rx="24" transform="matrix(1 0 0 -1 0 48)" fill="#7E182E"/>
<path d="M49.1021 21.864C49.4007 21.3413 49.8381 20.9147 50.4141 20.584C50.9901 20.2533 51.6461 20.088 52.3821 20.088C53.1714 20.088 53.8807 20.2747 54.5101 20.648C55.1394 21.0213 55.6354 21.5493 55.9981 22.232C56.3607 22.904 56.5421 23.688 56.5421 24.584C56.5421 25.4693 56.3607 26.2587 55.9981 26.952C55.6354 27.6453 55.1341 28.184 54.4941 28.568C53.8647 28.952 53.1607 29.144 52.3821 29.144C51.6247 29.144 50.9581 28.9787 50.3821 28.648C49.8167 28.3173 49.3901 27.896 49.1021 27.384V29H47.6461V17.16H49.1021V21.864ZM55.0541 24.584C55.0541 23.9227 54.9207 23.3467 54.6541 22.856C54.3874 22.3653 54.0247 21.992 53.5661 21.736C53.1181 21.48 52.6221 21.352 52.0781 21.352C51.5447 21.352 51.0487 21.4853 50.5901 21.752C50.1421 22.008 49.7794 22.3867 49.5021 22.888C49.2354 23.3787 49.1021 23.9493 49.1021 24.6C49.1021 25.2613 49.2354 25.8427 49.5021 26.344C49.7794 26.8347 50.1421 27.2133 50.5901 27.48C51.0487 27.736 51.5447 27.864 52.0781 27.864C52.6221 27.864 53.1181 27.736 53.5661 27.48C54.0247 27.2133 54.3874 26.8347 54.6541 26.344C54.9207 25.8427 55.0541 25.256 55.0541 24.584ZM66.2346 20.232V29H64.7786V27.704C64.5012 28.152 64.1119 28.504 63.6106 28.76C63.1199 29.0053 62.5759 29.128 61.9786 29.128C61.2959 29.128 60.6826 28.9893 60.1386 28.712C59.5946 28.424 59.1626 27.9973 58.8426 27.432C58.5332 26.8667 58.3786 26.1787 58.3786 25.368V20.232H59.8186V25.176C59.8186 26.04 60.0372 26.7067 60.4746 27.176C60.9119 27.6347 61.5092 27.864 62.2666 27.864C63.0452 27.864 63.6586 27.624 64.1066 27.144C64.5546 26.664 64.7786 25.9653 64.7786 25.048V20.232H66.2346ZM70.4689 21.432V26.6C70.4689 27.0267 70.5596 27.3307 70.7409 27.512C70.9223 27.6827 71.2369 27.768 71.6849 27.768H72.7569V29H71.4449C70.6343 29 70.0263 28.8133 69.6209 28.44C69.2156 28.0667 69.0129 27.4533 69.0129 26.6V21.432H67.8769V20.232H69.0129V18.024H70.4689V20.232H72.7569V21.432H70.4689ZM76.2971 21.432V26.6C76.2971 27.0267 76.3877 27.3307 76.5691 27.512C76.7504 27.6827 77.0651 27.768 77.5131 27.768H78.5851V29H77.2731C76.4624 29 75.8544 28.8133 75.4491 28.44C75.0437 28.0667 74.8411 27.4533 74.8411 26.6V21.432H73.7051V20.232H74.8411V18.024H76.2971V20.232H78.5851V21.432H76.2971ZM84.1732 29.144C83.3519 29.144 82.6052 28.9573 81.9332 28.584C81.2719 28.2107 80.7492 27.6827 80.3652 27C79.9919 26.3067 79.8052 25.5067 79.8052 24.6C79.8052 23.704 79.9972 22.9147 80.3812 22.232C80.7759 21.5387 81.3092 21.0107 81.9812 20.648C82.6532 20.2747 83.4052 20.088 84.2372 20.088C85.0692 20.088 85.8212 20.2747 86.4932 20.648C87.1652 21.0107 87.6932 21.5333 88.0772 22.216C88.4719 22.8987 88.6692 23.6933 88.6692 24.6C88.6692 25.5067 88.4665 26.3067 88.0612 27C87.6665 27.6827 87.1279 28.2107 86.4452 28.584C85.7625 28.9573 85.0052 29.144 84.1732 29.144ZM84.1732 27.864C84.6959 27.864 85.1865 27.7413 85.6452 27.496C86.1039 27.2507 86.4719 26.8827 86.7492 26.392C87.0372 25.9013 87.1812 25.304 87.1812 24.6C87.1812 23.896 87.0425 23.2987 86.7652 22.808C86.4879 22.3173 86.1252 21.9547 85.6772 21.72C85.2292 21.4747 84.7439 21.352 84.2212 21.352C83.6879 21.352 83.1972 21.4747 82.7492 21.72C82.3119 21.9547 81.9599 22.3173 81.6932 22.808C81.4265 23.2987 81.2932 23.896 81.2932 24.6C81.2932 25.3147 81.4212 25.9173 81.6772 26.408C81.9439 26.8987 82.2959 27.2667 82.7332 27.512C83.1705 27.7467 83.6505 27.864 84.1732 27.864ZM94.8556 20.072C95.9222 20.072 96.7862 20.3973 97.4476 21.048C98.1089 21.688 98.4396 22.616 98.4396 23.832V29H96.9996V24.04C96.9996 23.1653 96.7809 22.4987 96.3436 22.04C95.9062 21.5707 95.3089 21.336 94.5516 21.336C93.7836 21.336 93.1702 21.576 92.7116 22.056C92.2636 22.536 92.0396 23.2347 92.0396 24.152V29H90.5836V20.232H92.0396V21.48C92.3276 21.032 92.7169 20.6853 93.2076 20.44C93.7089 20.1947 94.2582 20.072 94.8556 20.072Z" fill="white"/>
</svg>
