<svg width="215" height="52" viewBox="0 0 215 52" fill="none" xmlns="http://www.w3.org/2000/svg">
<rect width="215" height="52" rx="26" fill="#0C3355"/>
<path d="M76.5616 33V18.4545H82.1298C83.1809 18.4545 84.0545 18.6203 84.7505 18.9517C85.4513 19.2784 85.9745 19.7259 86.3201 20.294C86.6705 20.8622 86.8457 21.5062 86.8457 22.2259C86.8457 22.8177 86.7321 23.3243 86.5048 23.7457C86.2775 24.1624 85.9721 24.5009 85.5886 24.7614C85.2051 25.0218 84.7766 25.2088 84.3031 25.3224V25.4645C84.8192 25.4929 85.314 25.6515 85.7875 25.9403C86.2657 26.2244 86.6563 26.6269 86.9593 27.1477C87.2624 27.6686 87.4139 28.2983 87.4139 29.0369C87.4139 29.7898 87.2316 30.4669 86.867 31.0682C86.5024 31.6648 85.9532 32.1359 85.2193 32.4815C84.4854 32.8272 83.5621 33 82.4494 33H76.5616ZM79.1966 30.7983H82.0304C82.9868 30.7983 83.6757 30.616 84.0971 30.2514C84.5233 29.8821 84.7363 29.4086 84.7363 28.831C84.7363 28.4001 84.6298 28.0118 84.4167 27.6662C84.2037 27.3158 83.9006 27.0412 83.5076 26.8423C83.1146 26.6387 82.6459 26.5369 82.1014 26.5369H79.1966V30.7983ZM79.1966 24.6406H81.8031C82.2576 24.6406 82.6672 24.5578 83.0318 24.392C83.3964 24.2216 83.6828 23.9825 83.8912 23.6747C84.1042 23.3622 84.2108 22.9929 84.2108 22.5668C84.2108 22.0033 84.0119 21.5393 83.6142 21.1747C83.2212 20.8101 82.6364 20.6278 81.8599 20.6278H79.1966V24.6406ZM96.5456 28.4119V22.0909H99.1167V33H96.6238V31.0611H96.5101C96.2639 31.6719 95.8591 32.1714 95.2956 32.5597C94.7369 32.9479 94.048 33.142 93.2289 33.142C92.5139 33.142 91.8818 32.9834 91.3326 32.6662C90.7881 32.3442 90.3619 31.8778 90.0542 31.267C89.7464 30.6515 89.5925 29.9081 89.5925 29.0369V22.0909H92.1635V28.6392C92.1635 29.3305 92.3529 29.8797 92.7317 30.2869C93.1105 30.6941 93.6077 30.8977 94.2232 30.8977C94.602 30.8977 94.9689 30.8054 95.324 30.6207C95.6792 30.4361 95.9703 30.1615 96.1976 29.7969C96.4296 29.4276 96.5456 28.9659 96.5456 28.4119ZM107.208 22.0909V24.0795H100.937V22.0909H107.208ZM102.485 19.4773H105.056V29.7188C105.056 30.0644 105.108 30.3295 105.212 30.5142C105.321 30.6941 105.463 30.8172 105.638 30.8835C105.814 30.9498 106.008 30.983 106.221 30.983C106.382 30.983 106.528 30.9711 106.661 30.9474C106.798 30.9238 106.903 30.9025 106.974 30.8835L107.407 32.8935C107.269 32.9408 107.073 32.9929 106.817 33.0497C106.566 33.1065 106.259 33.1397 105.894 33.1491C105.25 33.1681 104.67 33.071 104.154 32.858C103.638 32.6402 103.228 32.304 102.925 31.8494C102.627 31.3949 102.48 30.8267 102.485 30.1449V19.4773ZM114.806 22.0909V24.0795H108.534V22.0909H114.806ZM110.083 19.4773H112.654V29.7188C112.654 30.0644 112.706 30.3295 112.81 30.5142C112.919 30.6941 113.061 30.8172 113.236 30.8835C113.411 30.9498 113.605 30.983 113.818 30.983C113.979 30.983 114.126 30.9711 114.259 30.9474C114.396 30.9238 114.5 30.9025 114.571 30.8835L115.004 32.8935C114.867 32.9408 114.671 32.9929 114.415 33.0497C114.164 33.1065 113.856 33.1397 113.492 33.1491C112.848 33.1681 112.268 33.071 111.752 32.858C111.235 32.6402 110.826 32.304 110.523 31.8494C110.225 31.3949 110.078 30.8267 110.083 30.1449V19.4773ZM121.597 33.2131C120.532 33.2131 119.608 32.9787 118.827 32.5099C118.046 32.0412 117.44 31.3854 117.009 30.5426C116.583 29.6998 116.37 28.715 116.37 27.5881C116.37 26.4612 116.583 25.474 117.009 24.6264C117.44 23.7789 118.046 23.1207 118.827 22.652C119.608 22.1832 120.532 21.9489 121.597 21.9489C122.662 21.9489 123.586 22.1832 124.367 22.652C125.148 23.1207 125.752 23.7789 126.178 24.6264C126.609 25.474 126.824 26.4612 126.824 27.5881C126.824 28.715 126.609 29.6998 126.178 30.5426C125.752 31.3854 125.148 32.0412 124.367 32.5099C123.586 32.9787 122.662 33.2131 121.597 33.2131ZM121.611 31.1534C122.189 31.1534 122.672 30.9948 123.06 30.6776C123.448 30.3556 123.737 29.9247 123.927 29.3849C124.121 28.8452 124.218 28.2438 124.218 27.581C124.218 26.9134 124.121 26.3097 123.927 25.7699C123.737 25.2254 123.448 24.7921 123.06 24.4702C122.672 24.1482 122.189 23.9872 121.611 23.9872C121.019 23.9872 120.527 24.1482 120.134 24.4702C119.746 24.7921 119.455 25.2254 119.26 25.7699C119.071 26.3097 118.976 26.9134 118.976 27.581C118.976 28.2438 119.071 28.8452 119.26 29.3849C119.455 29.9247 119.746 30.3556 120.134 30.6776C120.527 30.9948 121.019 31.1534 121.611 31.1534ZM131.578 26.608V33H129.007V22.0909H131.464V23.9446H131.592C131.843 23.3338 132.243 22.8485 132.792 22.4886C133.346 22.1288 134.03 21.9489 134.845 21.9489C135.597 21.9489 136.253 22.1098 136.812 22.4318C137.375 22.7538 137.811 23.2202 138.119 23.831C138.431 24.4418 138.585 25.1828 138.58 26.054V33H136.009V26.4517C136.009 25.7225 135.82 25.152 135.441 24.7401C135.067 24.3281 134.549 24.1222 133.886 24.1222C133.436 24.1222 133.036 24.2216 132.686 24.4205C132.34 24.6146 132.068 24.8963 131.869 25.2656C131.675 25.6349 131.578 26.0824 131.578 26.608Z" fill="white"/>
</svg>
