<svg width="215" height="52" viewBox="0 0 215 52" fill="none" xmlns="http://www.w3.org/2000/svg">
<rect width="215" height="52" rx="5" fill="#EF6400"/>
<path d="M72.7733 33V19H79.6133C81.3733 19 82.6933 19.3333 83.5733 20C84.4666 20.6667 84.9133 21.5467 84.9133 22.64C84.9133 23.3733 84.7333 24.0133 84.3733 24.56C84.0133 25.0933 83.5199 25.5067 82.8933 25.8C82.2666 26.0933 81.5466 26.24 80.7333 26.24L81.1133 25.42C81.9933 25.42 82.7733 25.5667 83.4533 25.86C84.1333 26.14 84.6599 26.56 85.0333 27.12C85.4199 27.68 85.6133 28.3667 85.6133 29.18C85.6133 30.38 85.1399 31.32 84.1933 32C83.2466 32.6667 81.8533 33 80.0133 33H72.7733ZM75.9933 30.56H79.7733C80.6133 30.56 81.2466 30.4267 81.6733 30.16C82.1133 29.88 82.3333 29.44 82.3333 28.84C82.3333 28.2533 82.1133 27.82 81.6733 27.54C81.2466 27.2467 80.6133 27.1 79.7733 27.1H75.7533V24.74H79.2133C79.9999 24.74 80.5999 24.6067 81.0133 24.34C81.4399 24.06 81.6533 23.64 81.6533 23.08C81.6533 22.5333 81.4399 22.1267 81.0133 21.86C80.5999 21.58 79.9999 21.44 79.2133 21.44H75.9933V30.56ZM92.3863 33.16C91.4929 33.16 90.6929 32.9867 89.9863 32.64C89.2929 32.2933 88.7529 31.7667 88.3663 31.06C87.9796 30.34 87.7863 29.4267 87.7863 28.32V22.24H90.9063V27.86C90.9063 28.7533 91.0929 29.4133 91.4663 29.84C91.8529 30.2533 92.3929 30.46 93.0863 30.46C93.5663 30.46 93.9929 30.36 94.3663 30.16C94.7396 29.9467 95.0329 29.6267 95.2463 29.2C95.4596 28.76 95.5663 28.2133 95.5663 27.56V22.24H98.6863V33H95.7263V30.04L96.2663 30.9C95.9063 31.6467 95.3729 32.2133 94.6663 32.6C93.9729 32.9733 93.2129 33.16 92.3863 33.16ZM105.977 33.16C104.71 33.16 103.723 32.84 103.017 32.2C102.31 31.5467 101.957 30.58 101.957 29.3V19.86H105.077V29.26C105.077 29.7133 105.197 30.0667 105.437 30.32C105.677 30.56 106.003 30.68 106.417 30.68C106.91 30.68 107.33 30.5467 107.677 30.28L108.517 32.48C108.197 32.7067 107.81 32.88 107.357 33C106.917 33.1067 106.457 33.16 105.977 33.16ZM100.297 24.88V22.48H107.757V24.88H100.297ZM114.434 33.16C113.167 33.16 112.18 32.84 111.474 32.2C110.767 31.5467 110.414 30.58 110.414 29.3V19.86H113.534V29.26C113.534 29.7133 113.654 30.0667 113.894 30.32C114.134 30.56 114.46 30.68 114.874 30.68C115.367 30.68 115.787 30.5467 116.134 30.28L116.974 32.48C116.654 32.7067 116.267 32.88 115.814 33C115.374 33.1067 114.914 33.16 114.434 33.16ZM108.754 24.88V22.48H116.214V24.88H108.754ZM123.513 33.16C122.366 33.16 121.346 32.92 120.453 32.44C119.573 31.96 118.873 31.3067 118.353 30.48C117.846 29.64 117.593 28.6867 117.593 27.62C117.593 26.54 117.846 25.5867 118.353 24.76C118.873 23.92 119.573 23.2667 120.453 22.8C121.346 22.32 122.366 22.08 123.513 22.08C124.646 22.08 125.66 22.32 126.553 22.8C127.446 23.2667 128.146 23.9133 128.653 24.74C129.16 25.5667 129.413 26.5267 129.413 27.62C129.413 28.6867 129.16 29.64 128.653 30.48C128.146 31.3067 127.446 31.96 126.553 32.44C125.66 32.92 124.646 33.16 123.513 33.16ZM123.513 30.6C124.033 30.6 124.5 30.48 124.913 30.24C125.326 30 125.653 29.66 125.893 29.22C126.133 28.7667 126.253 28.2333 126.253 27.62C126.253 26.9933 126.133 26.46 125.893 26.02C125.653 25.58 125.326 25.24 124.913 25C124.5 24.76 124.033 24.64 123.513 24.64C122.993 24.64 122.526 24.76 122.113 25C121.7 25.24 121.366 25.58 121.113 26.02C120.873 26.46 120.753 26.9933 120.753 27.62C120.753 28.2333 120.873 28.7667 121.113 29.22C121.366 29.66 121.7 30 122.113 30.24C122.526 30.48 122.993 30.6 123.513 30.6ZM138.039 22.08C138.892 22.08 139.652 22.2533 140.319 22.6C140.999 22.9333 141.532 23.4533 141.919 24.16C142.305 24.8533 142.499 25.7467 142.499 26.84V33H139.379V27.32C139.379 26.4533 139.185 25.8133 138.799 25.4C138.425 24.9867 137.892 24.78 137.199 24.78C136.705 24.78 136.259 24.8867 135.859 25.1C135.472 25.3 135.165 25.6133 134.939 26.04C134.725 26.4667 134.619 27.0133 134.619 27.68V33H131.499V22.24H134.479V25.22L133.919 24.32C134.305 23.6 134.859 23.0467 135.579 22.66C136.299 22.2733 137.119 22.08 138.039 22.08Z" fill="black"/>
</svg>
