<svg width="337" height="111" viewBox="0 0 337 111" fill="none" xmlns="http://www.w3.org/2000/svg">
<path d="M323.192 84.8862C323.033 84.7933 322.856 84.733 322.674 84.7089C322.491 84.6848 322.305 84.6973 322.127 84.7456C321.95 84.794 321.783 84.8774 321.637 84.9908C321.492 85.1043 321.37 85.2456 321.279 85.4066L313.243 99.3907C313.15 99.5509 313.09 99.728 313.066 99.9117C313.042 100.095 313.055 100.282 313.103 100.461C313.151 100.64 313.234 100.807 313.347 100.954C313.46 101.1 313.6 101.222 313.76 101.314C313.97 101.443 314.213 101.506 314.458 101.495C314.704 101.494 314.945 101.429 315.158 101.306C315.371 101.183 315.549 101.006 315.674 100.794L323.71 86.8096C323.805 86.6501 323.868 86.4729 323.893 86.2885C323.919 86.1042 323.907 85.9166 323.859 85.7369C323.811 85.5572 323.726 85.3892 323.612 85.243C323.497 85.0968 323.354 84.9755 323.192 84.8862ZM317.024 89.5475C317.073 88.2585 316.613 87.0024 315.745 86.0529C314.876 85.1035 313.669 84.5377 312.387 84.4789C311.104 84.5377 309.895 85.1027 309.022 86.0515C308.15 87.0003 307.685 88.2564 307.728 89.5475C307.679 90.8425 308.141 92.1044 309.014 93.0581C309.887 94.0118 311.1 94.58 312.387 94.6388C313.673 94.5801 314.884 94.0111 315.753 93.0567C316.622 92.1023 317.079 90.8404 317.024 89.5475ZM312.387 91.8103C311.848 91.7476 311.354 91.4765 311.009 91.0542C310.665 90.632 310.497 90.0917 310.542 89.5475C310.491 89.0021 310.657 88.4587 311.002 88.0351C311.348 87.6116 311.845 87.3419 312.387 87.2847C312.928 87.3418 313.423 87.6122 313.765 88.0366C314.107 88.4609 314.267 89.0044 314.211 89.5475C314.261 90.0894 314.099 90.6298 313.758 91.0527C313.417 91.4757 312.925 91.7476 312.387 91.8103ZM324.588 91.5614C323.306 91.6202 322.099 92.186 321.23 93.1355C320.362 94.0849 319.902 95.3411 319.951 96.6301C319.896 97.9229 320.353 99.1849 321.222 100.139C322.091 101.094 323.302 101.663 324.588 101.721C325.875 101.663 327.088 101.094 327.961 100.141C328.833 99.187 329.296 97.9251 329.247 96.6301C329.29 95.3389 328.825 94.0828 327.953 93.134C327.08 92.1853 325.871 91.6202 324.588 91.5614ZM324.588 98.8929C324.05 98.8302 323.558 98.5582 323.217 98.1352C322.876 97.7123 322.714 97.172 322.764 96.6301C322.714 96.0882 322.876 95.5478 323.217 95.1249C323.558 94.7019 324.05 94.43 324.588 94.3673C325.129 94.4245 325.627 94.6941 325.973 95.1177C326.318 95.5412 326.484 96.0846 326.433 96.6301C326.478 97.1743 326.31 97.7145 325.966 98.1368C325.621 98.559 325.127 98.8301 324.588 98.8929Z" fill="url(#paint0_linear_1324_2427)"/>
<path d="M318.506 75.8663C313.898 75.7207 309.421 77.416 306.058 80.5798C302.695 83.7437 300.72 88.1175 300.568 92.7409C300.72 97.3643 302.695 101.738 306.058 104.902C309.421 108.066 313.898 109.761 318.506 109.615C323.114 109.761 327.591 108.066 330.955 104.902C334.318 101.738 336.293 97.3643 336.445 92.7409C336.293 88.1175 334.318 83.7437 330.955 80.5798C327.591 77.416 323.114 75.7207 318.506 75.8663ZM318.506 106.803C314.643 106.943 310.882 105.542 308.046 102.907C305.209 100.272 303.528 96.6165 303.371 92.7409C303.528 88.8653 305.209 85.2101 308.046 82.5748C310.882 79.9395 314.643 78.5387 318.506 78.6788C322.369 78.5387 326.131 79.9395 328.967 82.5748C331.803 85.2101 333.484 88.8653 333.642 92.7409C333.484 96.6165 331.803 100.272 328.967 102.907C326.131 105.542 322.369 106.943 318.506 106.803Z" fill="url(#paint1_linear_1324_2427)"/>
<path d="M323.648 8.71486V4.29382H312.346V8.71494H299.137V35.2471H336.857V8.71486H323.648ZM314.806 6.7538H321.188V8.71494H314.806V6.7538ZM305.744 32.7871H301.597V11.1748H305.744V20.8698C305.324 20.9977 304.933 21.2284 304.609 21.5528C304.132 22.0304 303.856 22.6504 303.815 23.3016C303.384 23.7916 303.14 24.4248 303.14 25.1005C303.14 25.776 303.384 26.4093 303.815 26.8993C303.856 27.5506 304.132 28.1705 304.609 28.6481C304.931 28.9704 305.32 29.2019 305.744 29.3303V32.7871ZM307.928 27.5294L307.462 26.7775L306.601 26.9798C306.58 26.9848 306.559 26.9872 306.538 26.9872C306.488 26.9872 306.413 26.9736 306.349 26.9087C306.251 26.8108 306.269 26.6908 306.278 26.6562L306.48 25.7952L305.728 25.3295C305.698 25.3108 305.6 25.2393 305.6 25.1005C305.6 24.9617 305.698 24.8902 305.728 24.8715L306.48 24.4058L306.278 23.5446C306.269 23.5101 306.251 23.3901 306.349 23.2922C306.447 23.1943 306.567 23.2131 306.601 23.2211L307.462 23.4234L307.928 22.6714C307.947 22.6414 308.018 22.5433 308.157 22.5433C308.296 22.5433 308.367 22.6413 308.386 22.6714L308.852 23.4235L309.713 23.2212C309.747 23.2132 309.867 23.1944 309.965 23.2923C310.063 23.3902 310.044 23.5102 310.036 23.5448L309.834 24.4058L310.586 24.8715C310.616 24.8901 310.714 24.9617 310.714 25.1005C310.714 25.2393 310.616 25.3107 310.586 25.3295L309.834 25.7952L310.036 26.6562C310.044 26.6906 310.063 26.8107 309.965 26.9087C309.9 26.9737 309.826 26.9872 309.775 26.9872C309.755 26.9872 309.734 26.9846 309.712 26.9797L308.851 26.7778L308.386 27.5295C308.367 27.5595 308.296 27.6576 308.157 27.6576C308.018 27.6576 307.946 27.5594 307.928 27.5294ZM327.789 32.7868H308.204V30.1163C308.863 30.1051 309.479 29.863 309.957 29.4411C310.617 29.3978 311.232 29.12 311.704 28.6479C312.182 28.1704 312.457 27.5504 312.499 26.8991C312.93 26.4092 313.174 25.7759 313.174 25.1003C313.174 24.4247 312.93 23.7914 312.499 23.3014C312.457 22.6502 312.182 22.0302 311.704 21.5526C311.227 21.0751 310.607 20.7996 309.955 20.7581C309.477 20.3371 308.862 20.0954 308.204 20.0843V11.1748H327.789V20.7678C327.712 20.7194 327.633 20.673 327.552 20.631C326.767 20.2263 325.872 20.1513 325.031 20.4201C324.19 20.6888 323.504 21.269 323.099 22.0536C322.307 23.5902 323.016 25.5262 323.722 27.0412C324.02 27.6797 324.468 28.4646 324.487 28.4978L324.883 29.191L325.677 29.1117C325.715 29.1079 326.614 29.0174 327.307 28.8897C327.465 28.8606 327.626 28.8292 327.789 28.7949V32.7868ZM329.546 25.378C329.443 25.5767 328.977 26.0808 326.861 26.4705C326.666 26.5065 326.444 26.5398 326.235 26.5682C326.137 26.3816 326.036 26.1821 325.952 26.0016C325.043 24.0524 325.183 23.3799 325.286 23.1812C325.389 22.9805 325.564 22.8322 325.779 22.7634C325.864 22.7364 325.951 22.7229 326.038 22.7229C326.171 22.7229 326.303 22.7546 326.424 22.8173C326.641 22.9293 326.795 23.122 326.855 23.3598L327.199 24.7001L328.49 24.2025C328.718 24.1141 328.964 24.1272 329.182 24.2393C329.596 24.4528 329.759 24.9637 329.546 25.378ZM334.397 32.7869H330.249V27.9528C330.875 27.6039 331.405 27.1392 331.732 26.5055C332.567 24.8857 331.929 22.8882 330.309 22.0528C330.289 22.0426 330.269 22.034 330.249 22.0241V11.1748H334.397V32.7869Z" fill="url(#paint2_linear_1324_2427)"/>
<path d="M313.711 12.4649L311.144 18.406L319.822 22.1561L322.39 16.215L313.711 12.4649ZM318.54 18.9221L314.378 17.1236L314.993 15.6989L319.156 17.4974L318.54 18.9221Z" fill="url(#paint3_linear_1324_2427)"/>
<path fill-rule="evenodd" clip-rule="evenodd" d="M18.4449 3.17116C19.2571 3.57949 19.5942 4.58884 19.1979 5.42561L17.3797 9.26413C16.9833 10.1009 16.0036 10.4482 15.1914 10.0399C14.3793 9.63153 14.0421 8.62218 14.4385 7.78542L16.2567 3.94689C16.653 3.11013 17.6327 2.76282 18.4449 3.17116ZM23.8995 3.17116C24.7117 3.57949 25.0488 4.58884 24.6524 5.42561L22.8342 9.26413C22.4379 10.1009 21.4582 10.4482 20.646 10.0399C19.8338 9.63153 19.4967 8.62218 19.893 7.78542L21.7112 3.94689C22.1076 3.11013 23.0873 2.76282 23.8995 3.17116ZM29.354 3.17116C30.1662 3.57949 30.5033 4.58885 30.107 5.42561L28.2888 9.26413C27.8924 10.1009 26.9127 10.4482 26.1005 10.0399C25.2883 9.63153 24.9512 8.62218 25.3476 7.78542L27.1658 3.94689C27.5621 3.11013 28.5418 2.76282 29.354 3.17116ZM10.2988 15.9788C10.2856 15.9927 10.2727 16.0161 10.2727 16.0538V23.8785C10.2727 30.3717 15.2235 35.5736 21.2676 35.6279H21.4597C27.5038 35.5736 32.4545 30.3717 32.4545 23.8785V16.0538C32.4545 16.0167 32.4419 15.9933 32.4285 15.9792C32.4216 15.972 32.4165 15.9693 32.4152 15.9687C32.4152 15.9687 32.415 15.9684 32.4122 15.9684H10.3143C10.3119 15.9684 10.3113 15.9687 10.3117 15.9686C10.312 15.9685 10.3122 15.9684 10.3117 15.9686C10.3106 15.9691 10.3055 15.9717 10.2988 15.9788ZM35.3156 27.484C34.5596 30.7332 32.805 33.5784 30.4073 35.6279H34.0909C34.9947 35.6279 35.7273 36.3827 35.7273 37.3137C35.7273 38.2448 34.9947 38.9996 34.0909 38.9996H21.4749C21.4336 39 21.3943 39 21.3636 39H21.3612C21.3309 39 21.2926 39 21.2524 38.9996H8.63636C7.73262 38.9996 7 38.2448 7 37.3137C7 36.3827 7.73262 35.6279 8.63636 35.6279H12.32C9.06882 32.8489 7 28.6068 7 23.8785V16.0538C7 14.1831 8.44637 12.5967 10.3143 12.5967H32.4122C33.7325 12.5967 34.8434 13.3896 35.3807 14.516H36.8182C40.2695 14.516 43 17.4578 43 21C43 24.5421 40.2695 27.484 36.8182 27.484H35.3156ZM35.7273 17.8877V24.1123H36.8182C38.3875 24.1123 39.7273 22.7577 39.7273 21C39.7273 19.2423 38.3875 17.8877 36.8182 17.8877H35.7273Z" fill="url(#paint4_linear_1324_2427)"/>
<path fill-rule="evenodd" clip-rule="evenodd" d="M16.3451 78.8626C13.6735 78.8626 11.7349 80.8363 11.7349 83.0014C11.7349 85.1664 13.6735 87.1401 16.3451 87.1401C19.0167 87.1401 20.9553 85.1664 20.9553 83.0014C20.9553 80.8363 19.0167 78.8626 16.3451 78.8626ZM8.38202 83.0014C8.38202 78.7432 12.0727 75.5098 16.3451 75.5098C20.6175 75.5098 24.3082 78.7432 24.3082 83.0014C24.3082 87.2595 20.6175 90.493 16.3451 90.493C12.0727 90.493 8.38202 87.2595 8.38202 83.0014ZM33.1095 84.6778C31.5952 84.6778 30.5949 85.7836 30.5949 86.8781C30.5949 87.9727 31.5952 89.0785 33.1095 89.0785C34.6239 89.0785 35.6242 87.9727 35.6242 86.8781C35.6242 85.7836 34.6238 84.6778 33.1095 84.6778ZM27.242 86.8781C27.242 83.6905 29.9943 81.3249 33.1095 81.3249C36.2247 81.3249 38.9771 83.6905 38.9771 86.8781C38.9771 90.0658 36.2247 92.4313 33.1095 92.4313C29.9944 92.4313 27.242 90.0658 27.242 86.8781ZM4.19092 104.324C4.19092 97.9244 9.758 92.9552 16.3451 92.9552C20.1545 92.9552 23.6227 94.6171 25.8704 97.2564C27.8936 95.7716 30.4 94.8936 33.1095 94.8936C39.6542 94.8936 45.2637 99.4672 45.2637 106.262V108.2C45.2637 109.126 44.5131 109.877 43.5873 109.877H5.86736C4.94149 109.877 4.19092 109.126 4.19092 108.2V104.324ZM24.0825 100.511C24.1051 100.554 24.1296 100.596 24.1561 100.637C24.7913 101.752 25.1464 103.01 25.1464 104.324V106.524H7.5438V104.324C7.5438 100.017 11.3588 96.3081 16.3451 96.3081C19.7522 96.3081 22.6125 98.04 24.0825 100.511ZM28.4993 106.524V104.324C28.4993 102.828 28.1954 101.411 27.6455 100.117C29.1456 98.9463 31.0422 98.2465 33.1095 98.2465C38.1381 98.2465 41.9108 101.638 41.9108 106.262V106.524H28.4993Z" fill="url(#paint5_linear_1324_2427)"/>
<path d="M238.437 75.8577L233.709 80.553L234.148 81.0063C233.835 81.2575 233.518 81.5025 233.211 81.72C232.714 82.0722 232.238 82.3547 231.915 82.4872C231.894 82.4964 231.806 82.5209 231.632 82.5202C231.353 82.5232 230.887 82.4528 230.317 82.3663C229.744 82.2805 229.058 82.1872 228.286 82.1864C227.612 82.1841 226.868 82.2653 226.086 82.4788C225.305 82.266 224.563 82.1864 223.891 82.1872C223.117 82.1872 222.432 82.2806 221.859 82.3672C221.288 82.4536 220.823 82.5241 220.545 82.521C220.37 82.5225 220.283 82.4965 220.265 82.4881C219.92 82.3479 219.4 82.0355 218.865 81.6488C218.588 81.449 218.306 81.23 218.026 81.0049L218.465 80.5531L213.737 75.8578L201.81 88.1242L206.538 92.8196L207.923 91.3961L210.978 94.0439C211.063 94.5515 211.224 95.0308 211.41 95.4858C211.531 95.7752 211.664 96.0539 211.8 96.3158C211.504 96.8013 211.343 97.3557 211.345 97.9177C211.344 98.4751 211.498 99.0448 211.815 99.5509C212.297 100.32 213.069 100.804 213.902 100.958C213.907 101.505 214.06 102.063 214.371 102.559C214.96 103.501 215.981 104.023 217.022 104.022C217.063 104.022 217.103 104.016 217.143 104.014C217.196 104.452 217.341 104.889 217.589 105.285C218.179 106.227 219.201 106.749 220.24 106.748C220.344 106.748 220.446 106.737 220.55 106.727C220.599 107.121 220.731 107.515 220.954 107.87C221.492 108.728 222.422 109.204 223.368 109.202C223.878 109.203 224.401 109.065 224.865 108.778L226.283 107.903C226.562 108.082 226.855 108.239 227.162 108.368C227.735 108.608 228.354 108.755 228.998 108.755C229.705 108.759 230.45 108.566 231.092 108.118C231.51 107.829 231.864 107.432 232.154 106.965C232.198 106.966 232.235 106.974 232.281 106.975C232.575 106.975 232.897 106.931 233.216 106.832C233.538 106.735 233.857 106.589 234.198 106.396C235.011 105.941 235.498 105.272 235.735 104.698C235.787 104.573 235.825 104.455 235.859 104.341C236.056 104.279 236.244 104.203 236.414 104.105C237.042 103.746 237.452 103.2 237.704 102.651C237.957 102.098 238.068 101.523 238.07 100.97C238.07 100.916 238.063 100.863 238.06 100.809C238.471 100.642 238.841 100.41 239.155 100.137C239.478 99.8565 239.748 99.5304 239.949 99.1582C240.15 98.7877 240.284 98.3635 240.285 97.8987C240.286 97.5963 240.223 97.2777 240.087 96.9791C240.043 96.8842 239.98 96.7969 239.923 96.7088C240.163 96.2822 240.407 95.8015 240.608 95.2824C240.758 94.8895 240.885 94.4776 240.957 94.0449L244.143 91.2845L245.636 92.8198L250.364 88.1242L238.437 75.8577ZM214.967 98.5969L214.913 98.6314C214.77 98.7188 214.62 98.7577 214.466 98.7585C214.18 98.757 213.905 98.6184 213.744 98.3604C213.656 98.2187 213.616 98.0694 213.616 97.9178C213.618 97.6322 213.757 97.361 214.016 97.201L215.889 96.0456C216.031 95.9576 216.181 95.9193 216.334 95.9177C216.621 95.9207 216.894 96.0571 217.056 96.3166C217.144 96.4575 217.183 96.6068 217.184 96.7585C217.183 96.9575 217.111 97.1475 216.982 97.3006L215.373 98.2929C215.226 98.3832 215.093 98.4881 214.967 98.5969ZM217.468 101.639C217.325 101.726 217.176 101.766 217.022 101.766C216.735 101.765 216.461 101.627 216.3 101.369C216.212 101.227 216.173 101.077 216.172 100.925C216.172 100.728 216.244 100.538 216.373 100.386L217.982 99.3918C218.128 99.3021 218.26 99.1981 218.386 99.0893L218.444 99.0541C218.587 98.966 218.737 98.927 218.889 98.927C219.178 98.9285 219.45 99.0663 219.612 99.3251C219.7 99.4667 219.739 99.6145 219.74 99.7669C219.738 100.051 219.6 100.324 219.338 100.485L217.468 101.639ZM222.557 103.21L220.686 104.365C220.544 104.452 220.394 104.492 220.24 104.492C219.954 104.491 219.679 104.353 219.518 104.095C219.43 103.952 219.391 103.804 219.39 103.651C219.393 103.366 219.531 103.096 219.79 102.935L221.663 101.779C221.805 101.691 221.955 101.653 222.108 101.653C222.395 101.654 222.668 101.791 222.83 102.05C222.918 102.192 222.957 102.341 222.958 102.493C222.957 102.777 222.819 103.048 222.557 103.21ZM225.457 105.094C225.516 105.188 225.541 105.286 225.542 105.389C225.541 105.579 225.449 105.761 225.272 105.87L223.666 106.861C223.57 106.921 223.472 106.946 223.368 106.946C223.175 106.945 222.992 106.853 222.883 106.68C222.824 106.584 222.799 106.486 222.798 106.383C222.8 106.191 222.892 106.011 223.065 105.904H223.066L224.674 104.912C224.772 104.851 224.87 104.826 224.972 104.826C225.166 104.827 225.347 104.918 225.456 105.092L226.421 104.498L225.457 105.094ZM237.948 98.0915C237.865 98.25 237.677 98.4567 237.439 98.6014C237.201 98.7478 236.924 98.8335 236.658 98.8327C236.564 98.8327 236.473 98.8487 236.385 98.8717C236.223 98.8365 236.061 98.7875 235.901 98.7247C235.407 98.5332 234.945 98.2232 234.619 97.9613C234.455 97.8304 234.326 97.7125 234.239 97.6305L234.144 97.5364L234.123 97.5149L234.12 97.5119C233.802 97.1688 233.263 97.1459 232.917 97.4613C232.571 97.7769 232.547 98.3113 232.865 98.6574C232.894 98.6865 233.322 99.1504 234.023 99.6283C234.375 99.8672 234.795 100.111 235.278 100.299C235.39 100.343 235.506 100.383 235.626 100.42C235.659 100.494 235.702 100.565 235.752 100.631L235.749 100.633C235.756 100.638 235.802 100.783 235.798 100.97C235.803 101.282 235.689 101.69 235.525 101.915C235.445 102.03 235.363 102.102 235.284 102.148C235.203 102.192 235.121 102.221 234.968 102.223L234.913 102.223C234.88 102.221 234.85 102.226 234.818 102.228C234.816 102.228 234.816 102.228 234.816 102.228C234.077 102.231 233.389 101.916 232.882 101.572C232.629 101.402 232.426 101.229 232.29 101.102C232.222 101.039 232.171 100.987 232.139 100.955L232.106 100.919L232.101 100.913H232.1C231.792 100.562 231.256 100.524 230.901 100.829C230.545 101.135 230.506 101.669 230.814 102.023L230.814 102.022C230.847 102.059 231.24 102.509 231.924 102.972C232.374 103.274 232.962 103.587 233.66 103.768C233.652 103.788 233.648 103.808 233.638 103.828C233.549 104.028 233.421 104.235 233.072 104.437C232.837 104.57 232.669 104.64 232.551 104.675C232.432 104.711 232.366 104.717 232.281 104.718C232.171 104.72 232.005 104.695 231.729 104.639C231.679 104.629 231.629 104.625 231.579 104.622C231.56 104.615 231.542 104.608 231.522 104.598C231.24 104.466 230.896 104.228 230.643 104.025C230.515 103.925 230.407 103.833 230.333 103.768L230.25 103.693L230.231 103.674L230.227 103.671C229.887 103.348 229.347 103.361 229.022 103.698C228.697 104.036 228.709 104.572 229.049 104.894C229.067 104.91 229.426 105.252 229.928 105.61C230.018 105.673 230.117 105.737 230.215 105.799C230.076 106.019 229.932 106.17 229.79 106.27C229.563 106.425 229.316 106.498 228.999 106.5C228.714 106.501 228.379 106.431 228.045 106.29C227.934 106.244 227.825 106.179 227.715 106.119C227.779 105.881 227.815 105.636 227.814 105.389C227.815 104.881 227.675 104.362 227.386 103.902C226.897 103.12 226.08 102.661 225.225 102.586C225.225 102.555 225.23 102.524 225.23 102.493C225.231 101.936 225.077 101.365 224.76 100.86V100.861C224.17 99.9164 223.147 99.3941 222.108 99.3964C222.068 99.3964 222.027 99.4033 221.987 99.4049C221.934 98.966 221.789 98.5312 221.541 98.1345C221.059 97.3635 220.287 96.8796 219.454 96.7279C219.448 96.1804 219.297 95.6222 218.986 95.126H218.986C218.397 94.1835 217.373 93.6605 216.334 93.662C215.772 93.662 215.199 93.8152 214.689 94.1291L213.595 94.8045C213.569 94.7448 213.536 94.6866 213.512 94.6268C213.321 94.1743 213.202 93.7278 213.189 93.4201L213.163 92.9438L209.503 89.7708L216.443 82.6336C216.797 82.9223 217.161 83.2086 217.535 83.4766C218.153 83.9192 218.766 84.3098 219.392 84.5716C219.794 84.7362 220.186 84.7768 220.545 84.7776C221.12 84.7753 221.648 84.6773 222.197 84.5976C222.233 84.5915 222.27 84.5885 222.306 84.583C221.551 85.227 220.891 85.9238 220.334 86.5724C219.864 87.1199 219.468 87.636 219.154 88.0571C218.844 88.476 218.605 88.8136 218.5 88.9469C217.983 89.6146 217.761 90.4132 217.757 91.2133C217.759 91.9577 217.958 92.7325 218.475 93.3872C218.732 93.7111 219.074 93.9944 219.483 94.1874C219.891 94.3818 220.358 94.4814 220.845 94.4814C221.449 94.4798 222.082 94.3344 222.752 94.0548C224.855 93.1712 227.024 92.5824 228.655 92.2194C229.471 92.0387 230.154 91.9132 230.629 91.8343C230.719 91.8197 230.794 91.8075 230.868 91.7953L238.006 97.9057L238.009 97.9072L238.011 97.9111C238.01 97.933 237.999 97.9966 237.948 98.0915ZM238.774 92.9437L238.749 93.42C238.736 93.6925 238.642 94.0769 238.486 94.4752C238.406 94.6834 238.309 94.8933 238.208 95.0999L231.956 89.7491C231.713 89.5409 231.39 89.4444 231.071 89.4842C231.016 89.495 226.431 90.0662 221.868 91.9759C221.414 92.1665 221.073 92.2255 220.845 92.224C220.659 92.224 220.545 92.191 220.461 92.1512C220.34 92.0922 220.252 92.0087 220.166 91.8487C220.084 91.6911 220.027 91.4583 220.028 91.2133C220.024 90.8611 220.15 90.5027 220.292 90.3328C220.468 90.1061 220.684 89.7968 220.982 89.397C221.424 88.8028 222.024 88.034 222.739 87.286C223.453 86.5379 224.284 85.8135 225.154 85.305C226.332 84.6183 227.335 84.4459 228.286 84.4428C228.871 84.4421 229.432 84.5148 229.98 84.5967C230.529 84.6771 231.058 84.7735 231.632 84.7766C231.99 84.7759 232.38 84.7353 232.78 84.573L232.785 84.5715C233.411 84.3096 234.024 83.9191 234.643 83.4765C235.014 83.21 235.379 82.9221 235.732 82.6342L242.564 89.6596L238.774 92.9437Z" fill="url(#paint6_linear_1324_2427)"/>
<path d="M137.606 103.171H109.849C108.416 103.169 107.042 102.685 106.03 101.825C105.017 100.966 104.448 99.801 104.448 98.5866V79.2471C104.451 78.0343 105.021 76.8718 106.033 76.0142C107.046 75.1566 108.418 74.6738 109.849 74.6715H137.606C139.038 74.6741 140.41 75.157 141.422 76.0146C142.434 76.8722 143.004 78.0345 143.006 79.2471V98.5866C143.006 99.8008 142.438 100.965 141.425 101.825C140.413 102.684 139.04 103.168 137.606 103.171ZM109.849 77.4003C109.271 77.4009 108.717 77.5956 108.309 77.9419C107.9 78.2881 107.67 78.7575 107.669 79.2471V98.5866C107.668 98.8298 107.724 99.0708 107.833 99.2957C107.942 99.5207 108.103 99.7252 108.305 99.8976C108.508 100.07 108.748 100.207 109.013 100.3C109.278 100.394 109.562 100.442 109.849 100.442H137.606C137.893 100.442 138.177 100.393 138.442 100.3C138.707 100.206 138.948 100.07 139.15 99.8972C139.352 99.7248 139.513 99.5204 139.622 99.2955C139.731 99.0706 139.786 98.8297 139.785 98.5866V79.2471C139.785 78.7577 139.555 78.2884 139.146 77.9423C138.738 77.5961 138.184 77.4012 137.606 77.4003H109.849Z" fill="url(#paint7_linear_1324_2427)"/>
<path d="M143.942 109.039H103.513C103.094 109.039 102.692 108.906 102.396 108.67C102.1 108.434 101.934 108.115 101.934 107.781C101.934 107.448 102.1 107.128 102.396 106.892C102.692 106.656 103.094 106.524 103.513 106.524H143.942C144.361 106.524 144.762 106.656 145.058 106.892C145.355 107.128 145.521 107.448 145.521 107.781C145.521 108.115 145.355 108.434 145.058 108.67C144.762 108.906 144.361 109.039 143.942 109.039Z" fill="url(#paint8_linear_1324_2427)"/>
<g clip-path="url(#clip0_1324_2427)">
<path d="M142.783 15.7511C142.745 15.1325 142.248 14.6143 141.541 14.6143C141.47 14.6143 141.402 14.6421 141.332 14.654C141.325 14.654 141.319 14.65 141.312 14.65C141.171 14.6474 141.029 14.6474 140.888 14.6474C140.355 14.6474 139.82 14.6606 139.287 14.6685C138.568 14.6791 137.85 14.691 137.132 14.7293C137.139 14.4015 137.143 14.0724 137.152 13.7446C137.181 12.7281 137.169 11.713 137.166 10.6965C137.161 9.59682 137.166 8.49445 137.295 7.4C137.324 7.15679 137.353 6.91358 137.38 6.66905C137.415 6.38355 137.226 6.05442 137.013 5.86012C136.976 5.82575 136.925 5.80989 136.883 5.78081C136.72 5.38295 136.34 5.05779 135.843 5.08819C135.368 5.11991 134.881 5.09084 134.405 5.07233C134.007 5.05647 133.609 5.05382 133.214 5.04589C132.777 5.03796 132.342 5.04325 131.904 5.03796C131.566 5.03532 131.227 5.01153 130.889 4.99567C129.953 4.94808 129.016 4.94015 128.082 4.92297C127.032 4.90182 125.984 4.80268 124.934 4.78682C124.809 4.7855 124.686 4.78418 124.562 4.78418C123.715 4.78418 122.871 4.82648 122.025 4.84234C121.066 4.8582 120.108 4.88199 119.149 4.88464C118.193 4.88464 117.238 4.88464 116.282 4.86084C115.455 4.84234 114.626 4.90182 113.801 4.96262C113.614 4.97584 113.447 5.02078 113.291 5.08687C112.728 5.14503 112.28 5.57725 112.274 6.10465C112.272 6.65187 112.277 7.19645 112.26 7.74367C112.25 8.03182 112.221 8.31997 112.212 8.6068C112.189 9.29281 112.189 9.97485 112.218 10.6622C112.277 12.1439 112.338 13.627 112.393 15.1087C111.981 15.0849 111.57 15.0809 111.158 15.0875C110.935 15.0928 110.712 15.0981 110.49 15.0955C110.07 15.0955 109.65 15.0479 109.228 15.0148C108.639 14.9699 108.052 14.9461 107.463 14.9382C107.456 14.9382 107.45 14.9382 107.443 14.9382C106.79 14.9382 106.249 15.455 106.249 16.0485C106.249 16.1595 106.285 16.26 106.32 16.3604C106.303 16.4344 106.271 16.5045 106.27 16.5825C106.2 18.9895 106.272 21.3978 106.212 23.8047C106.2 24.3454 106.157 24.8807 106.145 25.4213C106.131 25.9976 106.128 26.5765 106.122 27.1542C106.111 28.3226 106.137 29.4911 106.154 30.6582C106.171 31.9139 106.186 33.1696 106.189 34.4253C106.189 35.0175 106.186 35.607 106.142 36.1992C106.108 36.6935 106.066 37.1905 106.031 37.6862C106.004 38.0959 106.268 38.4462 106.622 38.6564C106.833 38.8956 107.141 39.0609 107.496 39.0569C108.48 39.0463 109.465 38.9921 110.449 38.9948C110.959 38.9948 111.47 39.0344 111.98 39.0371C112.478 39.0397 112.972 39.0053 113.468 38.9763C114.483 38.9207 115.502 38.9128 116.521 38.9128C117.563 38.9128 118.599 38.9102 119.637 38.9604C120.164 38.9868 120.693 39.0159 121.219 39.0344C121.714 39.0529 122.211 39.0476 122.71 39.0503C123.786 39.0609 124.865 39.0609 125.943 39.0582C127.007 39.0556 128.072 39.0794 129.136 39.0846C129.635 39.0873 130.129 39.0873 130.627 39.0846C131.196 39.0846 131.765 39.082 132.336 39.0846C133.885 39.0979 135.432 39.1269 136.98 39.1296C137.63 39.1322 138.276 39.164 138.926 39.1455C139.596 39.1243 140.259 39.0595 140.932 39.0569C141.169 39.0556 141.379 38.971 141.562 38.852C141.724 38.8335 141.883 38.7846 142.024 38.7079C142.211 38.6088 142.357 38.4753 142.465 38.3048C142.576 38.129 142.634 37.9413 142.634 37.7364C142.76 36.7781 142.68 35.796 142.68 34.8298C142.68 33.7486 142.674 32.67 142.718 31.5888C142.803 29.4316 142.8 27.2771 142.812 25.116C142.815 24.3744 142.812 23.6316 142.823 22.8874C142.835 22.1234 142.881 21.3555 142.898 20.5915C142.937 18.9789 142.882 17.361 142.783 15.7511ZM137.159 16.8918C137.656 16.8495 138.155 16.8191 138.654 16.8006C138.149 17.1575 137.648 17.5196 137.149 17.8858C137.155 17.5619 137.155 17.2381 137.159 16.9143C137.159 16.9076 137.159 16.8997 137.159 16.8918ZM136.58 20.8505C137.305 20.3099 138.03 19.768 138.767 19.2406C139.316 18.8626 139.887 18.5202 140.448 18.1633C140.473 18.659 140.498 19.1534 140.506 19.6504C140.526 20.7448 140.428 21.834 140.401 22.9284C140.369 24.0599 140.383 25.1939 140.386 26.3241C140.389 27.3842 140.375 28.4442 140.36 29.503C140.34 30.9014 140.294 32.2973 140.285 33.6917C140.279 34.3275 140.277 34.9673 140.271 35.6031C140.271 35.6229 140.271 35.6427 140.271 35.6625C138.901 34.0182 137.57 32.3475 136.23 30.682C135.489 29.7607 134.743 28.8434 134.045 27.893C133.284 26.8634 132.534 25.8324 131.83 24.7697C131.778 24.6903 131.713 24.6229 131.646 24.5595C131.689 24.5278 131.731 24.4921 131.774 24.4604C132.681 23.8008 133.56 23.1068 134.449 22.4288C135.151 21.8921 135.869 21.3766 136.58 20.8505ZM116.426 6.94531C117.173 6.98232 117.923 6.98232 118.672 6.97967C118.999 6.97967 119.322 6.97967 119.647 6.97967C120.671 6.9876 121.701 6.99818 122.726 6.9691C123.764 6.94002 124.806 6.87525 125.847 6.90037C126.305 6.91358 126.763 6.95059 127.221 6.96117C127.75 6.97439 128.277 6.9876 128.806 6.99289C129.593 7.00347 130.374 7.05502 131.157 7.09731C131.895 7.13432 132.634 7.14754 133.375 7.15018C133.739 7.15283 134.098 7.17926 134.462 7.17662C134.591 7.1753 134.719 7.17133 134.848 7.16869C134.78 8.13228 134.769 9.09718 134.737 10.0647C134.702 11.1089 134.734 12.1571 134.717 13.2013C134.708 13.7327 134.693 14.2614 134.696 14.7928C134.696 15.3083 134.719 15.8211 134.745 16.338C134.789 17.2566 134.78 18.1739 134.78 19.0952C134.78 19.2314 134.783 19.3649 134.789 19.501C134.79 19.5301 134.805 19.5539 134.808 19.5829C134.026 20.1434 133.248 20.7078 132.479 21.2854C131.569 21.9714 130.676 22.6786 129.746 23.3408C129.76 23.3315 129.775 23.321 129.788 23.3117C128.775 24.0361 127.805 24.8093 126.798 25.5403C126.305 25.8958 125.817 26.2606 125.324 26.6162C125.05 26.8158 124.783 27.0233 124.515 27.2295C123.86 26.8039 123.207 26.377 122.565 25.9289C122.607 25.9579 122.649 25.9883 122.689 26.0187C122.642 25.9844 122.594 25.95 122.545 25.9156C122.513 25.8932 122.481 25.8707 122.448 25.8482C122.476 25.8667 122.502 25.8852 122.529 25.9037C120.91 24.7498 119.302 23.5787 117.69 22.4182C116.721 21.7216 115.756 21.0197 114.792 20.3152C114.792 20.1117 114.802 19.9094 114.813 19.7112C114.83 19.3397 114.844 18.9696 114.865 18.5982C114.914 17.6981 114.896 16.7966 114.876 15.8965C114.862 14.9673 114.85 14.0354 114.791 13.1115C114.739 12.3448 114.733 11.5716 114.685 10.8023C114.671 10.5393 114.633 10.2775 114.61 10.0132C114.573 9.59153 114.576 9.16459 114.555 8.7403C114.545 8.44025 114.519 8.13888 114.511 7.83752C114.499 7.57051 114.505 7.30219 114.512 7.03519C115.149 6.97174 115.788 6.91226 116.426 6.94531ZM117.197 25.2032C117.02 25.412 116.842 25.6235 116.664 25.8337C116.685 25.8099 116.703 25.7874 116.724 25.7636C116.089 26.5118 115.412 27.2282 114.75 27.9552C114.079 28.698 113.394 29.4343 112.719 30.1784C112.064 30.8988 111.412 31.6245 110.779 32.3647C110.096 33.1643 109.397 33.9535 108.72 34.7571C108.737 34.736 108.754 34.7161 108.772 34.695C108.725 34.7505 108.679 34.8047 108.634 34.8589C108.65 33.8107 108.649 32.7599 108.652 31.7091C108.652 30.571 108.608 29.4356 108.605 28.3002C108.6 27.1396 108.585 25.9804 108.62 24.8199C108.657 23.5311 108.663 22.2464 108.675 20.9603C108.682 20.154 108.715 19.349 108.74 18.544C109.164 18.8546 109.588 19.1679 110.007 19.4851C110.622 19.9504 111.265 20.3853 111.897 20.8294C112.803 21.485 113.679 22.171 114.581 22.8266C115.515 23.5047 116.443 24.1854 117.377 24.8661C117.398 24.882 117.42 24.8979 117.443 24.9137C117.356 25.0102 117.277 25.1067 117.197 25.2032ZM111.607 17.2738C111.882 17.2738 112.159 17.2632 112.436 17.2711C112.438 17.7086 112.438 18.1475 112.43 18.585C111.838 18.1541 111.253 17.7153 110.68 17.2632C110.989 17.2711 111.299 17.2738 111.607 17.2738ZM135.043 37.168C133.978 37.168 132.914 37.1495 131.846 37.1522C130.785 37.1575 129.72 37.1522 128.658 37.1443C127.565 37.1337 126.476 37.0887 125.385 37.0887C124.326 37.0914 123.27 37.0993 122.214 37.0887C121.176 37.0782 120.137 37.0464 119.098 36.9923C118.357 36.9513 117.612 36.942 116.868 36.942C116.601 36.942 116.332 36.9433 116.065 36.9447C115.816 36.9473 115.567 36.9447 115.318 36.9447C114.843 36.942 114.368 36.9394 113.892 36.9579C113.177 36.987 112.465 37.0293 111.749 37.0081C111.405 37.0002 111.06 36.9817 110.716 36.9711C110.388 36.9618 110.06 36.9764 109.734 36.9843C109.855 36.8429 109.978 36.7028 110.098 36.56C110.631 35.9256 111.155 35.2858 111.684 34.6474C111.672 34.6619 111.659 34.6765 111.648 34.691C111.702 34.6236 111.759 34.5562 111.815 34.4888C111.804 34.5033 111.791 34.5179 111.778 34.5324C111.747 34.5681 111.718 34.6051 111.688 34.6408C111.659 34.6752 111.63 34.7082 111.601 34.7412C111.675 34.654 111.747 34.5668 111.821 34.4795C111.808 34.4967 111.793 34.5126 111.779 34.5298C111.801 34.5046 111.822 34.4795 111.843 34.4544C111.873 34.4187 111.903 34.3817 111.934 34.346C111.925 34.3566 111.916 34.3672 111.908 34.3777C113.024 33.0692 114.187 31.7989 115.347 30.5234C116.647 29.0946 118.028 27.7278 119.28 26.2646C119.565 26.4734 119.852 26.6783 120.134 26.8885C121.038 27.5639 121.951 28.2261 122.896 28.8553C123.013 28.9333 123.132 29.0126 123.25 29.0906C123.386 29.3867 123.641 29.6338 123.997 29.7158C124.355 29.7964 124.661 29.7396 124.978 29.5849C125.121 29.5149 125.246 29.4012 125.372 29.31C125.524 29.2003 125.675 29.0906 125.821 28.9743C126.21 28.6729 126.582 28.3557 126.977 28.0609C127.368 27.7675 127.753 27.4635 128.15 27.1766C128.561 26.8753 128.979 26.5845 129.389 26.2818C129.518 26.1853 129.645 26.0862 129.772 25.9883C130.158 26.5501 130.558 27.1013 130.98 27.6406C131.326 28.086 131.68 28.5249 132.027 28.9703C132.751 29.9022 133.483 30.8287 134.215 31.7566C135.627 33.5397 137.086 35.2885 138.519 37.0531C138.543 37.0835 138.568 37.1139 138.592 37.1443C138.413 37.1469 138.234 37.1522 138.056 37.1548C137.055 37.1733 136.051 37.1707 135.043 37.168ZM122.535 25.9011C122.546 25.909 122.558 25.917 122.57 25.9262C122.564 25.9223 122.557 25.917 122.551 25.913C122.545 25.909 122.541 25.9051 122.535 25.9011ZM111.913 34.3791C111.882 34.4174 111.85 34.4544 111.818 34.4914C111.828 34.4795 111.838 34.4676 111.848 34.4557C111.87 34.4306 111.892 34.4042 111.913 34.3791ZM111.762 34.5575C111.767 34.5496 111.775 34.543 111.78 34.535L111.783 34.5311C111.776 34.5403 111.769 34.5483 111.762 34.5575ZM110.025 36.6512C110.05 36.6208 110.074 36.5904 110.1 36.5613C110.113 36.5455 110.126 36.5309 110.139 36.5151C110.1 36.56 110.063 36.6063 110.025 36.6512ZM119.09 13.43C118.875 13.2344 118.752 12.9621 118.752 12.6819C118.752 12.4043 118.875 12.132 119.09 11.9351C119.272 11.7685 119.568 11.6205 119.838 11.6205C119.861 11.6205 119.884 11.6218 119.907 11.6244C120.439 11.6773 120.975 11.7262 121.509 11.7685C121.792 11.7923 122.073 11.8187 122.356 11.7817C122.259 11.795 122.161 11.8055 122.061 11.8187C122.671 11.7434 123.286 11.7579 123.899 11.7632C124.417 11.7685 124.934 11.7632 125.453 11.7579C126.171 11.7527 126.889 11.7685 127.605 11.7712C128.131 11.7712 128.655 11.7553 129.178 11.7368C129.805 11.713 130.328 12.2338 130.328 12.7889C130.328 13.352 129.805 13.857 129.178 13.8411C128.44 13.8252 127.702 13.7657 126.964 13.7657C126.138 13.7657 125.307 13.7657 124.481 13.7525C123.828 13.742 123.168 13.779 122.515 13.808C121.648 13.8477 120.773 13.8107 119.907 13.7433C119.591 13.7142 119.322 13.6415 119.09 13.43ZM118.591 16.6869C118.591 16.108 119.126 15.6057 119.767 15.6136C119.887 15.6136 120.007 15.6163 120.128 15.6189C120.644 15.6295 121.158 15.6506 121.677 15.6586C122.197 15.6638 122.721 15.6242 123.24 15.6004C123.724 15.5766 124.205 15.5766 124.684 15.566C125.093 15.5607 125.503 15.5317 125.915 15.529C126.227 15.5264 126.542 15.5184 126.854 15.5158C127.026 15.5158 127.198 15.5237 127.37 15.529C127.553 15.5369 127.738 15.5422 127.924 15.5396C128.059 15.5396 128.196 15.5396 128.33 15.5396C128.616 15.5396 128.902 15.5396 129.19 15.5171C129.287 15.4946 129.385 15.4841 129.482 15.4841C129.993 15.4841 130.47 15.7894 130.611 16.2626C130.777 16.8072 130.416 17.4324 129.801 17.5699C129.643 17.6042 129.48 17.6174 129.32 17.6267C128.81 17.6611 128.304 17.6664 127.792 17.6478C127.451 17.6373 127.108 17.6426 126.767 17.6452C126.412 17.6505 126.055 17.6531 125.703 17.6399C125.291 17.6241 124.882 17.6426 124.469 17.6531C123.968 17.6637 123.471 17.6584 122.97 17.669C121.902 17.6954 120.835 17.7509 119.767 17.7628C119.126 17.7708 118.591 17.2685 118.591 16.6869Z" fill="url(#paint9_linear_1324_2427)"/>
</g>
<path d="M207.738 15.9572C207.738 15.9572 207.738 15.9562 207.737 15.9551L207.685 15.8166L207.738 15.9572Z" fill="url(#paint10_linear_1324_2427)"/>
<path d="M208.057 12.8417L208.936 12.268C208.936 12.268 208.937 12.2675 208.937 12.2669L208.057 12.8417Z" fill="url(#paint11_linear_1324_2427)"/>
<path d="M244.451 20.4682C244.408 20.3554 244.386 20.2363 244.386 20.1173C244.386 19.9978 244.408 19.8782 244.451 19.7643L245.902 15.9572C246.038 15.5985 246.104 15.2245 246.104 14.8565C246.105 13.8361 245.597 12.8514 244.703 12.267L241.289 10.0381C241.087 9.90573 240.94 9.70204 240.877 9.46857L239.812 5.53572C239.445 4.18173 238.218 3.25091 236.828 3.25091C236.775 3.25091 236.723 3.25193 236.67 3.255L232.617 3.45766L232.556 3.45876C232.328 3.45876 232.109 3.38175 231.932 3.23967L228.76 0.685013C228.196 0.228838 227.505 -0.000468109 226.82 3.39025e-06C226.135 -0.00101819 225.444 0.228838 224.879 0.685013L224.88 0.684463L221.708 3.2392C221.531 3.38183 221.311 3.45884 221.084 3.45884L221.031 3.45766L216.98 3.25555L216.977 3.255C216.914 3.25138 216.859 3.25091 216.812 3.25091C215.421 3.25091 214.195 4.18165 213.828 5.53572L212.763 9.46857C212.7 9.70298 212.551 9.90722 212.348 10.0401L208.936 12.268C208.042 12.853 207.535 13.837 207.535 14.857C207.535 15.2244 207.601 15.597 207.737 15.9551L209.188 19.7642C209.231 19.8771 209.254 19.9977 209.254 20.1172C209.254 20.2368 209.232 20.3563 209.189 20.4693L207.738 24.2774C207.601 24.6361 207.535 25.0092 207.535 25.377C207.535 26.3976 208.042 27.3827 208.937 27.9676L212.349 30.1955C212.552 30.3278 212.7 30.5311 212.763 30.766L213.828 34.6984C214.195 36.0524 215.421 36.9832 216.812 36.9837C216.859 36.9832 216.911 36.9827 216.966 36.9796L216.849 36.9857L221.048 36.7759H221.046L221.086 36.7754C221.311 36.7754 221.53 36.8524 221.707 36.995L224.88 39.5507C225.444 40.0058 226.135 40.2351 226.82 40.2347C227.505 40.2352 228.195 40.0058 228.76 39.5502L232.205 36.7748L231.933 36.9944C232.11 36.8518 232.329 36.7754 232.554 36.7754L232.602 36.7764L236.703 36.9811L236.682 36.9801C236.727 36.9822 236.775 36.9832 236.828 36.9837C238.218 36.9832 239.445 36.0529 239.812 34.6984L240.877 30.766C240.94 30.5311 241.088 30.3284 241.29 30.196L244.705 27.9666C245.598 27.3816 246.105 26.3976 246.105 25.3775C246.105 25.0096 246.038 24.6355 245.901 24.2764L244.451 20.4682ZM242.488 19.0162C242.353 19.3708 242.285 19.7443 242.285 20.1173C242.285 20.4909 242.353 20.8644 242.488 21.2189L243.938 25.0255C243.982 25.142 244.003 25.2606 244.003 25.3776C244.002 25.7049 243.841 26.021 243.554 26.2083L240.142 28.4356C239.507 28.8502 239.046 29.4844 238.848 30.2171L237.783 34.1494C237.667 34.5835 237.272 34.8821 236.828 34.8816L236.769 34.88L236.754 34.8795L232.709 34.6779H232.712C232.662 34.6748 232.609 34.6738 232.554 34.6733C231.85 34.6733 231.165 34.9144 230.614 35.3583L230.341 35.5784L227.442 37.9139C227.259 38.0612 227.042 38.133 226.82 38.133C226.598 38.133 226.381 38.0612 226.198 37.9139L223.026 35.3583C222.475 34.915 221.791 34.6738 221.086 34.6738C221.039 34.6738 220.983 34.6744 220.92 34.6779L216.862 34.8811L216.864 34.8806L216.812 34.8817C216.369 34.8821 215.973 34.5835 215.857 34.1495L214.792 30.2172C214.594 29.4845 214.133 28.8503 213.497 28.4357L210.086 26.2083C209.8 26.0216 209.637 25.705 209.637 25.3771C209.637 25.2595 209.658 25.1416 209.702 25.0261L211.153 21.2185C211.288 20.8634 211.355 20.491 211.355 20.1174C211.355 19.7439 211.288 19.3704 211.152 19.0158L209.755 15.3497L209.702 15.2101C209.658 15.0931 209.637 14.9746 209.637 14.8571C209.637 14.5292 209.799 14.2137 210.086 14.0269L213.498 11.7997C214.133 11.3841 214.594 10.7499 214.792 10.0176L215.857 6.08478C215.973 5.65123 216.369 5.35207 216.812 5.35262L216.852 5.35309L220.931 5.55678L220.935 5.55733C220.985 5.55937 221.035 5.56047 221.084 5.56094C221.789 5.56094 222.474 5.32024 223.025 4.87695L226.199 2.32072C226.381 2.17346 226.598 2.1021 226.82 2.10163C227.042 2.10163 227.259 2.17346 227.441 2.32072L227.237 2.15601L230.614 4.8764C231.166 5.32071 231.852 5.56039 232.556 5.56039C232.608 5.56039 232.655 5.55882 232.697 5.5578H232.686L236.778 5.35356H236.781L236.828 5.35254C237.271 5.35199 237.667 5.65115 237.784 6.0847L238.848 10.0175C239.047 10.7497 239.507 11.3834 240.142 11.799L243.994 14.3142L243.554 14.0269C243.841 14.2137 244.002 14.5292 244.003 14.8565C244.003 14.9741 243.982 15.0921 243.938 15.2095L242.3 19.5067L242.488 19.0162Z" fill="url(#paint12_linear_1324_2427)"/>
<path d="M222.117 17.7832L221.034 17.9961C220.977 18.0079 220.945 18.0531 220.957 18.1111L221.762 22.2111L221.715 22.2209L218.609 18.5728C218.558 18.5133 218.495 18.4953 218.428 18.5087L217.278 18.735C217.221 18.7463 217.19 18.7914 217.202 18.8494L218.445 25.1712C218.456 25.2292 218.502 25.2605 218.559 25.2492L219.642 25.0362C219.699 25.0244 219.73 24.9788 219.719 24.9208L218.914 20.8304L218.962 20.8212L222.075 24.458C222.127 24.5175 222.18 24.5365 222.257 24.5221L223.398 24.2974C223.455 24.2861 223.486 24.2404 223.474 24.1824L222.231 17.8601C222.22 17.8022 222.174 17.772 222.117 17.7832Z" fill="url(#paint13_linear_1324_2427)"/>
<path d="M228.774 21.9757L225.966 22.5278C225.928 22.5361 225.905 22.5207 225.898 22.4822L225.632 21.1312C225.624 21.0932 225.64 21.0707 225.678 21.0625L228.016 20.6028C228.073 20.5915 228.105 20.5463 228.094 20.4889L227.893 19.4735C227.882 19.4166 227.836 19.3852 227.779 19.396L225.441 19.8562C225.403 19.8634 225.38 19.8475 225.372 19.8096L225.118 18.5166C225.11 18.478 225.126 18.4549 225.164 18.4478L227.972 17.8957C228.029 17.8844 228.06 17.8387 228.048 17.7812L227.846 16.7567C227.835 16.6987 227.789 16.6679 227.732 16.6792L223.555 17.5007C223.497 17.512 223.467 17.5577 223.478 17.6156L224.721 23.9379C224.733 23.9954 224.778 24.0262 224.836 24.0149L229.013 23.1934C229.07 23.1821 229.102 23.1365 229.089 23.079L228.888 22.0538C228.877 21.9962 228.831 21.9645 228.774 21.9757Z" fill="url(#paint14_linear_1324_2427)"/>
<path d="M236.346 14.9853L235.119 15.2264C235.053 15.2393 235.02 15.2763 235.023 15.3455L234.927 19.6118L234.907 19.6155L232.955 15.7523C232.923 15.6974 232.877 15.6671 232.82 15.6784L231.987 15.8421C231.921 15.8555 231.889 15.9006 231.881 15.9632L231.574 20.2712L231.555 20.2752L229.811 16.3696C229.791 16.3132 229.745 16.2835 229.678 16.2967L228.442 16.5389C228.375 16.5523 228.364 16.5944 228.385 16.6503L231.314 22.6407C231.345 22.6945 231.391 22.7259 231.448 22.7145L232.406 22.5257C232.473 22.5129 232.504 22.4667 232.512 22.4056L232.855 18.1295L232.874 18.126L234.801 21.9552C234.831 22.009 234.877 22.0404 234.944 22.027L235.902 21.8382C235.969 21.8258 236.009 21.7777 236.008 21.7176L236.441 15.0659C236.438 15.0058 236.413 14.972 236.346 14.9853Z" fill="url(#paint15_linear_1324_2427)"/>
<defs>
<linearGradient id="paint0_linear_1324_2427" x1="318.506" y1="75.8577" x2="318.506" y2="109.624" gradientUnits="userSpaceOnUse">
<stop stop-color="#EF6400"/>
<stop offset="1" stop-color="#F79E1B"/>
</linearGradient>
<linearGradient id="paint1_linear_1324_2427" x1="318.506" y1="75.8577" x2="318.506" y2="109.624" gradientUnits="userSpaceOnUse">
<stop stop-color="#EF6400"/>
<stop offset="1" stop-color="#F79E1B"/>
</linearGradient>
<linearGradient id="paint2_linear_1324_2427" x1="316.767" y1="12.465" x2="316.767" y2="22.1561" gradientUnits="userSpaceOnUse">
<stop stop-color="#EF6400"/>
<stop offset="1" stop-color="#F79E1B"/>
</linearGradient>
<linearGradient id="paint3_linear_1324_2427" x1="316.767" y1="12.465" x2="316.767" y2="22.1561" gradientUnits="userSpaceOnUse">
<stop stop-color="#EF6400"/>
<stop offset="1" stop-color="#F79E1B"/>
</linearGradient>
<linearGradient id="paint4_linear_1324_2427" x1="25" y1="4.68625" x2="25" y2="37.3141" gradientUnits="userSpaceOnUse">
<stop stop-color="#EF6400"/>
<stop offset="1" stop-color="#F79E1B"/>
</linearGradient>
<linearGradient id="paint5_linear_1324_2427" x1="24.7273" y1="77.1862" x2="24.7273" y2="108.2" gradientUnits="userSpaceOnUse">
<stop stop-color="#EF6400"/>
<stop offset="1" stop-color="#F79E1B"/>
</linearGradient>
<linearGradient id="paint6_linear_1324_2427" x1="226.087" y1="75.8577" x2="226.087" y2="109.202" gradientUnits="userSpaceOnUse">
<stop stop-color="#EF6400"/>
<stop offset="1" stop-color="#F79E1B"/>
</linearGradient>
<linearGradient id="paint7_linear_1324_2427" x1="123.727" y1="106.524" x2="123.727" y2="109.039" gradientUnits="userSpaceOnUse">
<stop stop-color="#EF6400"/>
<stop offset="1" stop-color="#F79E1B"/>
</linearGradient>
<linearGradient id="paint8_linear_1324_2427" x1="123.727" y1="106.524" x2="123.727" y2="109.039" gradientUnits="userSpaceOnUse">
<stop stop-color="#EF6400"/>
<stop offset="1" stop-color="#F79E1B"/>
</linearGradient>
<linearGradient id="paint9_linear_1324_2427" x1="124.47" y1="4.78418" x2="124.47" y2="39.1512" gradientUnits="userSpaceOnUse">
<stop stop-color="#EF6400"/>
<stop offset="1" stop-color="#F79E1B"/>
</linearGradient>
<linearGradient id="paint10_linear_1324_2427" x1="232.408" y1="14.9825" x2="232.408" y2="22.7169" gradientUnits="userSpaceOnUse">
<stop stop-color="#EF6400"/>
<stop offset="1" stop-color="#F79E1B"/>
</linearGradient>
<linearGradient id="paint11_linear_1324_2427" x1="232.408" y1="14.9825" x2="232.408" y2="22.7169" gradientUnits="userSpaceOnUse">
<stop stop-color="#EF6400"/>
<stop offset="1" stop-color="#F79E1B"/>
</linearGradient>
<linearGradient id="paint12_linear_1324_2427" x1="232.408" y1="14.9825" x2="232.408" y2="22.7169" gradientUnits="userSpaceOnUse">
<stop stop-color="#EF6400"/>
<stop offset="1" stop-color="#F79E1B"/>
</linearGradient>
<linearGradient id="paint13_linear_1324_2427" x1="232.408" y1="14.9825" x2="232.408" y2="22.7169" gradientUnits="userSpaceOnUse">
<stop stop-color="#EF6400"/>
<stop offset="1" stop-color="#F79E1B"/>
</linearGradient>
<linearGradient id="paint14_linear_1324_2427" x1="232.408" y1="14.9825" x2="232.408" y2="22.7169" gradientUnits="userSpaceOnUse">
<stop stop-color="#EF6400"/>
<stop offset="1" stop-color="#F79E1B"/>
</linearGradient>
<linearGradient id="paint15_linear_1324_2427" x1="232.408" y1="14.9825" x2="232.408" y2="22.7169" gradientUnits="userSpaceOnUse">
<stop stop-color="#EF6400"/>
<stop offset="1" stop-color="#F79E1B"/>
</linearGradient>
<clipPath id="clip0_1324_2427">
<rect width="45.2639" height="38.0049" fill="white" transform="translate(101 1.43127)"/>
</clipPath>
</defs>
</svg>
