<svg width="243" height="98" viewBox="0 0 243 98" fill="none" xmlns="http://www.w3.org/2000/svg">
<g filter="url(#filter0_d_1332_13959)">
<rect x="12" y="12" width="215" height="70" fill="white"/>
<rect x="11" y="11" width="217" height="72" stroke="#3E342B" stroke-width="2"/>
<path d="M85.504 53V41.8H90.752C92.096 41.8 93.12 42.0667 93.824 42.6C94.528 43.1227 94.88 43.8267 94.88 44.712C94.88 45.3093 94.7413 45.8213 94.464 46.248C94.1867 46.664 93.8133 46.9893 93.344 47.224C92.8853 47.448 92.384 47.56 91.84 47.56L92.128 46.984C92.7573 46.984 93.3227 47.1013 93.824 47.336C94.3253 47.56 94.72 47.8907 95.008 48.328C95.3067 48.7653 95.456 49.3093 95.456 49.96C95.456 50.92 95.088 51.6667 94.352 52.2C93.616 52.7333 92.5227 53 91.072 53H85.504ZM87.584 51.368H90.944C91.7227 51.368 92.32 51.24 92.736 50.984C93.152 50.728 93.36 50.3173 93.36 49.752C93.36 49.1973 93.152 48.792 92.736 48.536C92.32 48.2693 91.7227 48.136 90.944 48.136H87.424V46.52H90.528C91.2533 46.52 91.808 46.392 92.192 46.136C92.5867 45.88 92.784 45.496 92.784 44.984C92.784 44.4613 92.5867 44.072 92.192 43.816C91.808 43.56 91.2533 43.432 90.528 43.432H87.584V51.368ZM102.492 53.16C100.956 53.16 99.7505 52.728 98.8759 51.864C98.0119 51 97.5799 49.752 97.5799 48.12V41.8H99.6599V48.04C99.6599 49.192 99.9052 50.0293 100.396 50.552C100.897 51.0747 101.601 51.336 102.508 51.336C103.415 51.336 104.113 51.0747 104.604 50.552C105.095 50.0293 105.34 49.192 105.34 48.04V41.8H107.388V48.12C107.388 49.752 106.951 51 106.076 51.864C105.212 52.728 104.017 53.16 102.492 53.16ZM112.37 53V43.56H108.658V41.8H118.162V43.56H114.45V53H112.37ZM122.151 53V43.56H118.439V41.8H127.943V43.56H124.231V53H122.151ZM134.596 53.16C133.721 53.16 132.916 53.016 132.18 52.728C131.444 52.44 130.804 52.04 130.26 51.528C129.716 51.0053 129.294 50.3973 128.996 49.704C128.697 49 128.548 48.232 128.548 47.4C128.548 46.568 128.697 45.8053 128.996 45.112C129.294 44.408 129.716 43.8 130.26 43.288C130.804 42.7653 131.444 42.36 132.18 42.072C132.916 41.784 133.716 41.64 134.58 41.64C135.454 41.64 136.254 41.784 136.98 42.072C137.716 42.36 138.356 42.7653 138.9 43.288C139.444 43.8 139.865 44.408 140.164 45.112C140.462 45.8053 140.612 46.568 140.612 47.4C140.612 48.232 140.462 49 140.164 49.704C139.865 50.408 139.444 51.016 138.9 51.528C138.356 52.04 137.716 52.44 136.98 52.728C136.254 53.016 135.46 53.16 134.596 53.16ZM134.58 51.336C135.145 51.336 135.668 51.24 136.148 51.048C136.628 50.856 137.044 50.584 137.396 50.232C137.748 49.8693 138.02 49.4533 138.212 48.984C138.414 48.504 138.516 47.976 138.516 47.4C138.516 46.824 138.414 46.3013 138.212 45.832C138.02 45.352 137.748 44.936 137.396 44.584C137.044 44.2213 136.628 43.944 136.148 43.752C135.668 43.56 135.145 43.464 134.58 43.464C134.014 43.464 133.492 43.56 133.012 43.752C132.542 43.944 132.126 44.2213 131.764 44.584C131.412 44.936 131.134 45.352 130.932 45.832C130.74 46.3013 130.644 46.824 130.644 47.4C130.644 47.9653 130.74 48.488 130.932 48.968C131.134 49.448 131.412 49.8693 131.764 50.232C132.116 50.584 132.532 50.856 133.012 51.048C133.492 51.24 134.014 51.336 134.58 51.336ZM142.817 53V41.8H144.529L151.553 50.424H150.705V41.8H152.769V53H151.057L144.033 44.376H144.881V53H142.817Z" fill="#3E342B"/>
</g>
<defs>
<filter id="filter0_d_1332_13959" x="0" y="0" width="243" height="98" filterUnits="userSpaceOnUse" color-interpolation-filters="sRGB">
<feFlood flood-opacity="0" result="BackgroundImageFix"/>
<feColorMatrix in="SourceAlpha" type="matrix" values="0 0 0 0 0 0 0 0 0 0 0 0 0 0 0 0 0 0 127 0" result="hardAlpha"/>
<feOffset dx="2" dy="2"/>
<feGaussianBlur stdDeviation="6"/>
<feComposite in2="hardAlpha" operator="out"/>
<feColorMatrix type="matrix" values="0 0 0 0 0 0 0 0 0 0 0 0 0 0 0 0 0 0 0.15 0"/>
<feBlend mode="normal" in2="BackgroundImageFix" result="effect1_dropShadow_1332_13959"/>
<feBlend mode="normal" in="SourceGraphic" in2="effect1_dropShadow_1332_13959" result="shape"/>
</filter>
</defs>
</svg>
