<svg width="215" height="53" viewBox="0 0 215 53" fill="none" xmlns="http://www.w3.org/2000/svg">
<rect x="0.5" y="0.5" width="214" height="52" rx="9.5" fill="white"/>
<rect x="0.5" y="0.5" width="214" height="52" rx="9.5" stroke="#232A30"/>
<path d="M79.1992 20.1504H83.0225C84.6807 20.1504 85.9316 20.3906 86.7754 20.8711C87.6191 21.3516 88.041 22.1807 88.041 23.3584C88.041 23.8506 87.9531 24.2959 87.7773 24.6943C87.6074 25.0869 87.3584 25.4121 87.0303 25.6699C86.7021 25.9219 86.2979 26.0918 85.8174 26.1797V26.2676C86.3154 26.3555 86.7578 26.5107 87.1445 26.7334C87.5371 26.9561 87.8447 27.2754 88.0674 27.6914C88.2959 28.1074 88.4102 28.6465 88.4102 29.3086C88.4102 30.0938 88.2227 30.7617 87.8477 31.3125C87.4785 31.8633 86.9482 32.2822 86.2568 32.5693C85.5713 32.8564 84.7568 33 83.8135 33H79.1992V20.1504ZM81.3086 25.4502H83.3301C84.2852 25.4502 84.9473 25.2949 85.3164 24.9844C85.6855 24.6738 85.8701 24.2197 85.8701 23.6221C85.8701 23.0127 85.6504 22.5732 85.2109 22.3037C84.7773 22.0342 84.0859 21.8994 83.1367 21.8994H81.3086V25.4502ZM81.3086 27.1553V31.2334H83.5322C84.5166 31.2334 85.208 31.043 85.6064 30.6621C86.0049 30.2812 86.2041 29.7656 86.2041 29.1152C86.2041 28.7168 86.1133 28.3711 85.9316 28.0781C85.7559 27.7852 85.4658 27.5596 85.0615 27.4014C84.6572 27.2373 84.1123 27.1553 83.4268 27.1553H81.3086ZM99.335 23.2705V33H97.709L97.4277 31.6904H97.3135C97.1084 32.0244 96.8477 32.3027 96.5312 32.5254C96.2148 32.7422 95.8633 32.9033 95.4766 33.0088C95.0898 33.1201 94.6826 33.1758 94.2549 33.1758C93.5225 33.1758 92.8955 33.0527 92.374 32.8066C91.8584 32.5547 91.4629 32.168 91.1875 31.6465C90.9121 31.125 90.7744 30.4512 90.7744 29.625V23.2705H92.8486V29.2383C92.8486 29.9941 93.001 30.5596 93.3057 30.9346C93.6162 31.3096 94.0967 31.4971 94.7471 31.4971C95.374 31.4971 95.8721 31.3682 96.2412 31.1104C96.6104 30.8525 96.8711 30.4717 97.0234 29.9678C97.1816 29.4639 97.2607 28.8457 97.2607 28.1133V23.2705H99.335ZM105.918 31.5059C106.188 31.5059 106.454 31.4824 106.718 31.4355C106.981 31.3828 107.222 31.3213 107.438 31.251V32.8154C107.21 32.915 106.914 33 106.551 33.0703C106.188 33.1406 105.81 33.1758 105.417 33.1758C104.866 33.1758 104.371 33.085 103.932 32.9033C103.492 32.7158 103.144 32.3965 102.886 31.9453C102.628 31.4941 102.499 30.8701 102.499 30.0732V24.8438H101.172V23.9209L102.596 23.1914L103.272 21.1084H104.573V23.2705H107.359V24.8438H104.573V30.0469C104.573 30.5391 104.696 30.9053 104.942 31.1455C105.188 31.3857 105.514 31.5059 105.918 31.5059ZM113.037 31.5059C113.307 31.5059 113.573 31.4824 113.837 31.4355C114.101 31.3828 114.341 31.3213 114.558 31.251V32.8154C114.329 32.915 114.033 33 113.67 33.0703C113.307 33.1406 112.929 33.1758 112.536 33.1758C111.985 33.1758 111.49 33.085 111.051 32.9033C110.611 32.7158 110.263 32.3965 110.005 31.9453C109.747 31.4941 109.618 30.8701 109.618 30.0732V24.8438H108.291V23.9209L109.715 23.1914L110.392 21.1084H111.692V23.2705H114.479V24.8438H111.692V30.0469C111.692 30.5391 111.815 30.9053 112.062 31.1455C112.308 31.3857 112.633 31.5059 113.037 31.5059ZM125.148 28.1133C125.148 28.9219 125.043 29.6396 124.832 30.2666C124.621 30.8936 124.313 31.4238 123.909 31.8574C123.505 32.2852 123.019 32.6133 122.45 32.8418C121.882 33.0645 121.24 33.1758 120.525 33.1758C119.857 33.1758 119.245 33.0645 118.688 32.8418C118.132 32.6133 117.648 32.2852 117.238 31.8574C116.834 31.4238 116.521 30.8936 116.298 30.2666C116.075 29.6396 115.964 28.9219 115.964 28.1133C115.964 27.041 116.148 26.1328 116.518 25.3887C116.893 24.6387 117.426 24.0674 118.117 23.6748C118.809 23.2822 119.632 23.0859 120.587 23.0859C121.483 23.0859 122.274 23.2822 122.96 23.6748C123.646 24.0674 124.182 24.6387 124.568 25.3887C124.955 26.1387 125.148 27.0469 125.148 28.1133ZM118.091 28.1133C118.091 28.8223 118.176 29.4287 118.346 29.9326C118.521 30.4365 118.791 30.8232 119.154 31.0928C119.518 31.3564 119.986 31.4883 120.561 31.4883C121.135 31.4883 121.604 31.3564 121.967 31.0928C122.33 30.8232 122.597 30.4365 122.767 29.9326C122.937 29.4287 123.021 28.8223 123.021 28.1133C123.021 27.4043 122.937 26.8037 122.767 26.3115C122.597 25.8135 122.33 25.4355 121.967 25.1777C121.604 24.9141 121.132 24.7822 120.552 24.7822C119.696 24.7822 119.072 25.0693 118.68 25.6436C118.287 26.2178 118.091 27.041 118.091 28.1133ZM132.593 23.0859C133.688 23.0859 134.541 23.3701 135.15 23.9385C135.766 24.501 136.073 25.4062 136.073 26.6543V33H134.008V27.041C134.008 26.2852 133.853 25.7197 133.542 25.3447C133.231 24.9639 132.751 24.7734 132.101 24.7734C131.157 24.7734 130.501 25.0635 130.132 25.6436C129.769 26.2236 129.587 27.0645 129.587 28.166V33H127.521V23.2705H129.13L129.42 24.5889H129.534C129.745 24.249 130.006 23.9707 130.316 23.7539C130.633 23.5312 130.984 23.3643 131.371 23.2529C131.764 23.1416 132.171 23.0859 132.593 23.0859Z" fill="#232A30"/>
</svg>
