<svg width="65" height="64" viewBox="0 0 65 64" fill="none" xmlns="http://www.w3.org/2000/svg">
<g clip-path="url(#clip0_1324_5069)">
<path d="M32.5 64C50.1731 64 64.5 49.6731 64.5 32C64.5 14.3269 50.1731 0 32.5 0C14.8269 0 0.5 14.3269 0.5 32C0.5 49.6731 14.8269 64 32.5 64Z" fill="#4353FF"/>
<path d="M25.4731 30.9125C25.4731 30.2006 24.7812 29.445 23.5831 29.445C22.2381 29.445 20.7606 30.4319 20.535 32.4C20.3044 34.3881 21.5413 35.2719 22.785 35.2719C24.0287 35.2719 24.6844 34.7856 25.3525 34.1381C24.7781 33.4163 24.04 33.7506 23.8944 33.8256C23.6591 33.9565 23.3928 34.0213 23.1238 34.0131C22.6425 34.0131 22.1519 33.7969 22.1519 32.8988C25.2375 32.5913 25.4731 31.625 25.4731 30.9125ZM23.9463 31.03C23.9269 31.2506 23.8381 31.6288 22.2775 31.8425C22.6062 30.6744 23.235 30.5856 23.5244 30.5856C23.5824 30.5832 23.6404 30.5933 23.6942 30.6151C23.7481 30.637 23.7966 30.6701 23.8367 30.7122C23.8767 30.7544 23.9072 30.8046 23.9262 30.8595C23.9452 30.9144 23.9523 30.9728 23.9469 31.0306L23.9463 31.03ZM18.7231 31.2213C18.7231 31.2213 18.0606 33.3025 18.0063 33.4713C17.9875 33.2981 17.5 29.5625 17.5 29.5625C16.3713 29.5625 15.7675 30.3675 15.4481 31.2169C15.4481 31.2169 14.6431 33.3031 14.5731 33.48C14.5681 33.3181 14.4481 31.2419 14.4481 31.2419C14.3794 30.2013 13.4269 29.5681 12.6562 29.5681L13.5887 35.2281C14.7719 35.2231 15.41 34.4231 15.7437 33.5738C15.7437 33.5738 16.4556 31.7331 16.485 31.6494C16.49 31.7281 16.9956 35.2281 16.9956 35.2281C18.1831 35.2281 18.8219 34.4781 19.165 33.6575L20.8288 29.5688C19.6613 29.5675 19.0425 30.3681 18.7237 31.2219L18.7231 31.2213ZM29.8319 29.4375C29.1006 29.4375 28.5406 29.835 28.0694 30.4194V30.4144L28.4912 27.0125C27.5194 27.0125 26.7288 27.8569 26.5769 29.1131L25.8406 35.185C26.4031 35.185 26.9944 35.0231 27.3131 34.6106C27.468 34.8206 27.6709 34.9904 27.905 35.1056C28.139 35.2209 28.3973 35.2784 28.6581 35.2731C30.2975 35.2731 31.4219 33.3688 31.4219 31.5819C31.4125 29.9506 30.625 29.4375 29.8319 29.4375ZM29.68 32.3581C29.5081 33.3544 28.9538 34.0319 28.4188 34.0319C27.8838 34.0319 27.6481 33.7913 27.6481 33.7913C27.7512 32.9163 27.815 32.3825 28.0112 31.9213C28.2075 31.46 28.6737 30.7238 29.16 30.7238C29.6356 30.7213 29.8519 31.3544 29.68 32.3556V32.3581ZM35.5163 29.57H34.375L34.38 29.5113C34.4588 28.765 34.635 28.3725 35.2194 28.3088C35.6169 28.2694 35.7937 28.0631 35.8381 27.8375C35.8725 27.6606 35.9806 27.0475 35.9806 27.0475C33.6831 27.0325 32.9619 28.0244 32.775 29.5363L32.77 29.5706H32.7456C32.3706 29.5706 31.96 29.9925 31.8913 30.5281L31.8669 30.7244H32.6325L31.9894 36.0369L31.7931 36.9894C31.8175 36.9894 31.8469 36.9944 31.8719 36.9944C32.9469 36.955 33.6344 36.1056 33.7863 34.8738L34.2863 30.7256H34.6444C34.9975 30.7256 35.41 30.3725 35.4837 29.7831L35.5163 29.57ZM41.4656 29.4719C40.145 29.4719 38.8981 30.4438 38.5156 31.9719C38.1331 33.5 38.7119 35.305 40.6556 35.305C42.5994 35.305 43.7137 33.425 43.7137 31.8594C43.7137 30.2994 42.6588 29.4694 41.4656 29.4694V29.4719ZM42.0006 32.3094C41.9319 33.0013 41.6256 34.0519 40.7931 34.0519C39.9606 34.0519 40.0712 32.825 40.155 32.2394C40.2431 31.6144 40.5925 30.7275 41.3425 30.7275C42.0156 30.7263 42.0794 31.5263 42 32.3069L42.0006 32.3094ZM50.2375 31.2219C50.2375 31.2219 49.575 33.3031 49.5206 33.4719C49.5013 33.295 49.015 29.5594 49.015 29.5594C47.8862 29.5594 47.2825 30.3644 46.9631 31.2138C46.9631 31.2138 46.1581 33.3 46.0881 33.4769C46.0831 33.315 45.9631 31.2388 45.9631 31.2388C45.8944 30.1981 44.9419 29.565 44.1712 29.565L45.0988 35.225C46.2819 35.22 46.92 34.42 47.2537 33.5706C47.2537 33.5706 47.9656 31.73 47.99 31.6463C48 31.725 48.5006 35.225 48.5006 35.225C49.6881 35.225 50.3269 34.475 50.67 33.6544L52.3338 29.5656C51.17 29.5675 50.5519 30.3681 50.2375 31.2219ZM36.5962 27.0444L35.6344 34.8056L35.4375 35.7625C35.4619 35.7625 35.4913 35.7675 35.5163 35.7675C36.5519 35.7525 37.2881 34.8444 37.4256 33.7006L37.9806 29.25C38.1475 27.8888 37.3375 27.0444 36.5962 27.0444Z" fill="white"/>
</g>
<defs>
<clipPath id="clip0_1324_5069">
<rect width="64" height="64" fill="white" transform="translate(0.5)"/>
</clipPath>
</defs>
</svg>
