<svg width="65" height="64" viewBox="0 0 65 64" fill="none" xmlns="http://www.w3.org/2000/svg">
<path d="M4.5 24.2666C4.5 17.1727 4.5 13.6257 5.88058 10.9161C7.09498 8.53274 9.03274 6.59498 11.4161 5.38058C14.1257 4 17.6727 4 24.7666 4H40.2334C47.3274 4 50.8744 4 53.5838 5.38058C55.9672 6.59498 57.905 8.53274 59.1194 10.9161C60.5 13.6257 60.5 17.1727 60.5 24.2666V39.7334C60.5 46.8274 60.5 50.3744 59.1194 53.0838C57.905 55.4672 55.9672 57.405 53.5838 58.6194C50.8744 60 47.3274 60 40.2334 60H24.7666C17.6727 60 14.1257 60 11.4161 58.6194C9.03274 57.405 7.09498 55.4672 5.88058 53.0838C4.5 50.3744 4.5 46.8274 4.5 39.7334V24.2666Z" fill="#470137"/>
<path d="M33.793 20.4675L26.8056 32.2963L34.2812 44.8569C34.4366 45.1417 34.2812 45.2047 34.056 45.2047H28.7216C28.3458 45.2047 28.0828 45.1911 27.9326 44.9341C27.4312 43.9323 26.9304 42.9369 26.4298 41.9479C25.9286 40.9593 25.3964 39.9511 24.8334 38.9233C24.2698 37.8963 23.7126 36.8561 23.1616 35.8025C22.6604 36.8301 22.103 37.8575 21.565 38.8849C21.0262 39.9125 20.494 40.9335 19.9684 41.9479C19.4425 42.9629 18.9041 43.9711 18.3531 44.9725C18.2527 45.2037 18.0772 45.2275 17.8271 45.2275H12.6805C12.4783 45.2275 12.4539 45.0755 12.5678 44.8955L19.8181 32.6815L12.7556 20.4289C12.6273 20.2541 12.7377 20.0679 12.9435 20.0821H18.2403C18.4697 20.0693 18.6724 20.1557 18.8038 20.3519C19.2546 21.3795 19.7555 22.4071 20.3065 23.4343C20.857 24.4619 21.4144 25.4767 21.9782 26.4781C22.5418 27.4799 23.099 28.4945 23.5748 29.5221C24.0754 28.4691 24.5826 27.4417 25.0962 26.4397C25.6094 25.4379 26.1352 24.4297 26.674 23.4151C27.2124 22.4007 27.732 21.3925 28.233 20.3905C28.2996 20.1707 28.4588 20.0593 28.6838 20.0821H33.605C33.793 20.0821 33.8706 20.3387 33.793 20.4675Z" fill="#FF61F6"/>
<path d="M44.5742 45.705C41.2612 45.7568 37.791 44.3926 36.0466 41.3704C35.195 39.9194 34.7692 38.1022 34.7694 35.9184C34.7552 34.15 35.1958 32.409 36.0466 30.871C38.242 26.9466 42.6648 25.4762 46.8658 25.8622V18.2717C46.8658 18.0923 46.941 18.002 47.0912 18.002H51.8246C51.954 17.9831 52.0684 18.1005 52.05 18.2332V41.0044C52.05 41.9438 52.1432 42.88 52.2004 43.817C52.2096 43.977 52.117 44.1354 51.9748 44.2024C49.6362 45.2028 47.1056 45.6934 44.5742 45.705ZM46.8658 40.9272V30.4086C43.4346 29.4554 40.1034 32.0688 40.1038 35.6872C40.0224 39.4282 43.2472 42.0128 46.8658 40.9272Z" fill="#FF61F6"/>
</svg>
