<svg width="10" height="14" viewBox="0 0 10 14" fill="none" xmlns="http://www.w3.org/2000/svg">
<path d="M0.380682 13.6818V0.181818H1.83807V1.74148H2.01705C2.12784 1.57102 2.28125 1.35369 2.47727 1.08949C2.67756 0.821023 2.96307 0.582386 3.33381 0.37358C3.70881 0.160511 4.21591 0.0539774 4.85511 0.0539774C5.68182 0.0539774 6.41051 0.260653 7.04119 0.674005C7.67188 1.08736 8.16406 1.6733 8.51776 2.43182C8.87145 3.19034 9.0483 4.08523 9.0483 5.11648C9.0483 6.15625 8.87145 7.05753 8.51776 7.82031C8.16406 8.57884 7.67401 9.1669 7.04759 9.58452C6.42117 9.99787 5.69886 10.2045 4.88068 10.2045C4.25 10.2045 3.74503 10.1001 3.36577 9.89134C2.98651 9.67827 2.6946 9.4375 2.49006 9.16903C2.28551 8.89631 2.12784 8.67045 2.01705 8.49148H1.8892V13.6818H0.380682ZM1.86364 5.09091C1.86364 5.83239 1.9723 6.48651 2.18963 7.05327C2.40696 7.61577 2.72443 8.05682 3.14205 8.37642C3.55966 8.69176 4.07102 8.84943 4.67614 8.84943C5.30682 8.84943 5.8331 8.68324 6.25497 8.35085C6.68111 8.0142 7.00071 7.5625 7.21378 6.99574C7.43111 6.42472 7.53977 5.78977 7.53977 5.09091C7.53977 4.40057 7.43324 3.77841 7.22017 3.22443C7.01136 2.66619 6.69389 2.22514 6.26776 1.90128C5.84588 1.57315 5.31534 1.40909 4.67614 1.40909C4.0625 1.40909 3.54688 1.56463 3.12926 1.87571C2.71165 2.18253 2.39631 2.61293 2.18324 3.1669C1.97017 3.71662 1.86364 4.35795 1.86364 5.09091Z" fill="white"/>
</svg>
