<svg width="49" height="13" viewBox="0 0 49 13" fill="none" xmlns="http://www.w3.org/2000/svg">
<path d="M0.278409 12V0.363636H1.97727V4.6875H2.07955C2.17803 4.50568 2.32008 4.29545 2.50568 4.05682C2.69129 3.81818 2.94886 3.60985 3.27841 3.43182C3.60795 3.25 4.04356 3.15909 4.58523 3.15909C5.28977 3.15909 5.91856 3.33712 6.47159 3.69318C7.02462 4.04924 7.45833 4.5625 7.77273 5.23295C8.09091 5.90341 8.25 6.71023 8.25 7.65341C8.25 8.59659 8.0928 9.4053 7.77841 10.0795C7.46402 10.75 7.0322 11.267 6.48295 11.6307C5.93371 11.9905 5.30682 12.1705 4.60227 12.1705C4.07197 12.1705 3.63826 12.0814 3.30114 11.9034C2.9678 11.7254 2.70644 11.517 2.51705 11.2784C2.32765 11.0398 2.18182 10.8277 2.07955 10.642H1.9375V12H0.278409ZM1.94318 7.63636C1.94318 8.25 2.0322 8.78788 2.21023 9.25C2.38826 9.71212 2.64583 10.0739 2.98295 10.3352C3.32008 10.5928 3.73295 10.7216 4.22159 10.7216C4.72917 10.7216 5.15341 10.5871 5.49432 10.3182C5.83523 10.0455 6.0928 9.67614 6.26705 9.21023C6.44508 8.74432 6.53409 8.2197 6.53409 7.63636C6.53409 7.06061 6.44697 6.54356 6.27273 6.08523C6.10227 5.62689 5.8447 5.26515 5.5 5C5.15909 4.73485 4.73295 4.60227 4.22159 4.60227C3.72917 4.60227 3.3125 4.72917 2.97159 4.98295C2.63447 5.23674 2.37879 5.59091 2.20455 6.04545C2.0303 6.5 1.94318 7.0303 1.94318 7.63636ZM15.6861 8.38068V3.27273H17.3906V12H15.7202V10.4886H15.6293C15.4285 10.9545 15.1065 11.3428 14.6634 11.6534C14.224 11.9602 13.6766 12.1136 13.0213 12.1136C12.4607 12.1136 11.9645 11.9905 11.5327 11.7443C11.1046 11.4943 10.7675 11.125 10.5213 10.6364C10.2789 10.1477 10.1577 9.54356 10.1577 8.82386V3.27273H11.8565V8.61932C11.8565 9.21402 12.0213 9.6875 12.3509 10.0398C12.6804 10.392 13.1084 10.5682 13.6349 10.5682C13.9531 10.5682 14.2694 10.4886 14.5838 10.3295C14.902 10.1705 15.1652 9.92992 15.3736 9.60795C15.5857 9.28598 15.6899 8.87689 15.6861 8.38068ZM23.7472 3.27273V4.63636H18.9801V3.27273H23.7472ZM20.2585 1.18182H21.9574V9.4375C21.9574 9.76705 22.0066 10.0152 22.1051 10.1818C22.2036 10.3447 22.3305 10.4564 22.4858 10.517C22.6449 10.5739 22.8172 10.6023 23.0028 10.6023C23.1392 10.6023 23.2585 10.5928 23.3608 10.5739C23.4631 10.5549 23.5426 10.5398 23.5994 10.5284L23.9062 11.9318C23.8078 11.9697 23.6676 12.0076 23.4858 12.0455C23.304 12.0871 23.0767 12.1098 22.804 12.1136C22.357 12.1212 21.9403 12.0417 21.554 11.875C21.1676 11.7083 20.8551 11.4508 20.6165 11.1023C20.3778 10.7538 20.2585 10.3163 20.2585 9.78977V1.18182ZM29.7003 3.27273V4.63636H24.9332V3.27273H29.7003ZM26.2116 1.18182H27.9105V9.4375C27.9105 9.76705 27.9598 10.0152 28.0582 10.1818C28.1567 10.3447 28.2836 10.4564 28.4389 10.517C28.598 10.5739 28.7704 10.6023 28.956 10.6023C29.0923 10.6023 29.2116 10.5928 29.3139 10.5739C29.4162 10.5549 29.4957 10.5398 29.5526 10.5284L29.8594 11.9318C29.7609 11.9697 29.6207 12.0076 29.4389 12.0455C29.2571 12.0871 29.0298 12.1098 28.7571 12.1136C28.3101 12.1212 27.8935 12.0417 27.5071 11.875C27.1207 11.7083 26.8082 11.4508 26.5696 11.1023C26.331 10.7538 26.2116 10.3163 26.2116 9.78977V1.18182ZM35.1619 12.1761C34.3438 12.1761 33.6297 11.9886 33.0199 11.6136C32.41 11.2386 31.9366 10.714 31.5994 10.0398C31.2623 9.36553 31.0938 8.57765 31.0938 7.67614C31.0938 6.77083 31.2623 5.97917 31.5994 5.30114C31.9366 4.62311 32.41 4.09659 33.0199 3.72159C33.6297 3.34659 34.3438 3.15909 35.1619 3.15909C35.9801 3.15909 36.6941 3.34659 37.304 3.72159C37.9138 4.09659 38.3873 4.62311 38.7244 5.30114C39.0616 5.97917 39.2301 6.77083 39.2301 7.67614C39.2301 8.57765 39.0616 9.36553 38.7244 10.0398C38.3873 10.714 37.9138 11.2386 37.304 11.6136C36.6941 11.9886 35.9801 12.1761 35.1619 12.1761ZM35.1676 10.75C35.6979 10.75 36.1373 10.6098 36.4858 10.3295C36.8343 10.0492 37.0919 9.67614 37.2585 9.21023C37.429 8.74432 37.5142 8.23106 37.5142 7.67045C37.5142 7.11364 37.429 6.60227 37.2585 6.13636C37.0919 5.66667 36.8343 5.28977 36.4858 5.00568C36.1373 4.72159 35.6979 4.57955 35.1676 4.57955C34.6335 4.57955 34.1903 4.72159 33.8381 5.00568C33.4896 5.28977 33.2301 5.66667 33.0597 6.13636C32.893 6.60227 32.8097 7.11364 32.8097 7.67045C32.8097 8.23106 32.893 8.74432 33.0597 9.21023C33.2301 9.67614 33.4896 10.0492 33.8381 10.3295C34.1903 10.6098 34.6335 10.75 35.1676 10.75ZM42.8253 6.81818V12H41.1264V3.27273H42.7571V4.69318H42.8651C43.0658 4.23106 43.3802 3.85985 43.8082 3.57955C44.2401 3.29924 44.7836 3.15909 45.4389 3.15909C46.0336 3.15909 46.5545 3.28409 47.0014 3.53409C47.4484 3.7803 47.795 4.14773 48.0412 4.63636C48.2874 5.125 48.4105 5.72917 48.4105 6.44886V12H46.7116V6.65341C46.7116 6.02083 46.5469 5.52652 46.2173 5.17045C45.8878 4.81061 45.4351 4.63068 44.8594 4.63068C44.4654 4.63068 44.1151 4.71591 43.8082 4.88636C43.5052 5.05682 43.2647 5.30682 43.0866 5.63636C42.9124 5.96212 42.8253 6.35606 42.8253 6.81818Z" fill="white"/>
</svg>
