<svg width="56" height="36" viewBox="0 0 56 36" fill="none" xmlns="http://www.w3.org/2000/svg">
<path d="M26.472 2.544V36H22.104V20.832H5.064V36H0.696V2.544H5.064V17.232H22.104V2.544H26.472ZM32.6824 32.496C36.7464 29.232 39.9304 26.56 42.2344 24.48C44.5384 22.368 46.4744 20.176 48.0424 17.904C49.6424 15.6 50.4424 13.344 50.4424 11.136C50.4424 9.056 49.9304 7.424 48.9064 6.24C47.9144 5.024 46.2984 4.416 44.0584 4.416C41.8824 4.416 40.1864 5.104 38.9704 6.48C37.7864 7.824 37.1464 9.632 37.0504 11.904H32.8264C32.9544 8.32 34.0424 5.552 36.0904 3.6C38.1384 1.648 40.7784 0.671997 44.0104 0.671997C47.3064 0.671997 49.9144 1.584 51.8344 3.408C53.7864 5.232 54.7624 7.744 54.7624 10.944C54.7624 13.6 53.9624 16.192 52.3624 18.72C50.7944 21.216 49.0024 23.424 46.9864 25.344C44.9704 27.232 42.3944 29.44 39.2584 31.968H55.7704V35.616H32.6824V32.496Z" fill="white"/>
</svg>
